# This file uses centimeters as units for non-parametric coordinates.

mtllib bot.mtl
g default
v 0.159227 -0.287313 0.080589
v 0.116476 -0.279622 0.093288
v 0.073988 -0.267844 0.080589
v 0.042554 -0.258882 0.044793
v 0.031370 -0.255454 -0.002093
v 0.042921 -0.258637 -0.048890
v 0.073988 -0.267844 -0.083584
v 0.116476 -0.279622 -0.096283
v 0.159227 -0.287313 -0.083584
v 0.187580 -0.289252 -0.048890
v 0.202471 -0.287339 -0.001497
v 0.187580 -0.289252 0.045895
v 0.137367 -0.176646 0.080460
v 0.095009 -0.182409 0.092687
v 0.052005 -0.186661 0.079658
v 0.021586 -0.190428 0.044465
v 0.010901 -0.191873 -0.001878
v 0.021630 -0.190638 -0.048123
v 0.052005 -0.186661 -0.082652
v 0.095009 -0.182409 -0.095682
v 0.137367 -0.176646 -0.083455
v 0.166358 -0.170788 -0.048985
v 0.179655 -0.166256 -0.001497
v 0.166358 -0.170788 0.045991
v 0.151668 -0.231935 0.081795
v 0.108185 -0.231320 0.094448
v 0.064942 -0.227694 0.081377
v 0.033309 -0.225367 0.045330
v 0.022057 -0.224456 -0.002028
v 0.033393 -0.225250 -0.049267
v 0.064942 -0.227694 -0.084372
v 0.108185 -0.231320 -0.097443
v 0.151668 -0.231935 -0.084790
v 0.181009 -0.229846 -0.049665
v 0.195299 -0.226352 -0.001497
v 0.181009 -0.229846 0.046670
v 0.077759 -0.135074 0.087088
v 0.036999 -0.146543 0.074795
v 0.009673 -0.155638 0.041847
v 0.000287 -0.159142 -0.001707
v 0.009918 -0.156119 -0.045216
v 0.036999 -0.146543 -0.077790
v 0.077759 -0.135074 -0.090082
v 0.116391 -0.123773 -0.078653
v 0.143240 -0.114640 -0.046254
v 0.154974 -0.109359 -0.001497
v 0.143240 -0.114640 0.043259
v 0.116391 -0.123773 0.075658
v 0.037134 -0.053361 0.065084
v 0.006982 -0.071191 0.056164
v -0.010641 -0.085277 0.031419
v -0.016132 -0.091169 -0.001676
v -0.009513 -0.086590 -0.034789
v 0.006982 -0.071191 -0.059159
v 0.037134 -0.053361 -0.068079
v 0.063046 -0.038072 -0.059159
v 0.081656 -0.026675 -0.034789
v 0.089729 -0.022373 -0.001497
v 0.081656 -0.026675 0.031794
v 0.063046 -0.038072 0.056164
v 0.022868 -0.034465 0.056240
v -0.002799 -0.049449 0.048505
v -0.019221 -0.060823 0.027050
v -0.024688 -0.065285 -0.001681
v -0.018852 -0.061570 -0.030366
v -0.002799 -0.049449 -0.051500
v 0.022868 -0.034465 -0.059235
v 0.046456 -0.020727 -0.051500
v 0.063547 -0.010569 -0.030366
v 0.070421 -0.006788 -0.001497
v 0.063547 -0.010569 0.027371
v 0.046456 -0.020727 0.048505
v 0.058324 -0.091429 0.077683
v 0.021925 -0.107933 0.066795
v -0.000695 -0.120460 0.037395
v -0.008142 -0.125441 -0.001579
v 0.000055 -0.121312 -0.040587
v 0.021925 -0.107933 -0.069789
v 0.058324 -0.091429 -0.080678
v 0.091035 -0.076866 -0.070432
v 0.114229 -0.065789 -0.041483
v 0.124200 -0.060638 -0.001497
v 0.114229 -0.065789 0.038488
v 0.091035 -0.076866 0.067437
v 0.021668 -0.032295 0.062847
v -0.006908 -0.049361 0.054240
v -0.025336 -0.062378 0.030209
v -0.031399 -0.067464 -0.001699
v -0.024938 -0.063184 -0.033551
v -0.006894 -0.049389 -0.057245
v 0.021668 -0.032295 -0.065841
v 0.048069 -0.016749 -0.057100
v 0.067226 -0.005473 -0.033574
v 0.074858 -0.001301 -0.001497
v 0.067226 -0.005474 0.030579
v 0.048069 -0.016749 0.054105
v 0.165538 -0.287022 0.090056
v 0.116441 -0.280047 0.104657
v 0.157976 -0.230698 0.091426
v 0.108184 -0.231297 0.106027
v 0.067805 -0.269228 0.090057
v 0.058782 -0.229310 0.091048
v 0.032535 -0.261128 0.049854
v 0.023392 -0.228429 0.050464
v 0.020206 -0.258054 -0.002131
v 0.011058 -0.228075 -0.002046
v 0.032951 -0.260899 -0.054034
v 0.023517 -0.228320 -0.054474
v 0.067844 -0.269228 -0.093084
v 0.058829 -0.229302 -0.094074
v 0.116442 -0.280047 -0.107652
v 0.108185 -0.231297 -0.109022
v 0.165538 -0.287022 -0.093050
v 0.157976 -0.230698 -0.094421
v 0.197674 -0.288580 -0.054330
v 0.191041 -0.227989 -0.055143
v 0.213818 -0.286535 -0.001497
v 0.206684 -0.224234 -0.001497
v 0.197674 -0.288580 0.051335
v 0.191041 -0.227989 0.052148
v 0.143297 -0.174137 0.090129
v 0.094850 -0.181544 0.104271
v 0.121684 -0.120079 0.085272
v 0.077300 -0.133414 0.098538
v 0.045828 -0.187827 0.089422
v 0.030773 -0.147274 0.084531
v 0.011614 -0.193236 0.049698
v -0.000326 -0.158191 0.047100
v -0.000207 -0.195233 -0.001884
v -0.010874 -0.162225 -0.001726
v 0.011675 -0.193418 -0.053404
v -0.000084 -0.158604 -0.050495
v 0.045864 -0.187800 -0.092442
v 0.030780 -0.147238 -0.087533
v 0.094850 -0.181544 -0.107265
v 0.077300 -0.133414 -0.101533
v 0.143297 -0.174137 -0.093124
v 0.121684 -0.120079 -0.088267
v 0.175984 -0.167367 -0.054477
v 0.152192 -0.109743 -0.051729
v 0.190634 -0.162460 -0.001497
v 0.165229 -0.103981 -0.001497
v 0.175984 -0.167367 0.051482
v 0.152192 -0.109743 0.048734
v 0.057365 -0.088905 0.088944
v 0.015424 -0.108135 0.076375
v -0.010849 -0.122663 0.042506
v -0.019385 -0.128210 -0.001642
v -0.010099 -0.123471 -0.045718
v 0.015389 -0.108127 -0.079346
v 0.057365 -0.088905 -0.091938
v 0.095469 -0.071950 -0.079933
v 0.122224 -0.059399 -0.046898
v 0.133459 -0.053685 -0.001497
v 0.122224 -0.059399 0.043903
v 0.095469 -0.071950 0.076938
v 0.035700 -0.050248 0.075981
v 0.000390 -0.071121 0.065452
v -0.020717 -0.087474 0.036390
v -0.027228 -0.094079 -0.001768
v -0.019580 -0.088798 -0.039804
v 0.000357 -0.071152 -0.068416
v 0.035700 -0.050248 -0.078976
v 0.066552 -0.032307 -0.068365
v 0.088592 -0.019231 -0.040062
v 0.097861 -0.014358 -0.001497
v 0.088592 -0.019231 0.037067
v 0.066552 -0.032307 0.065371
v 0.191184 -0.360990 -0.049539
v 0.192378 -0.359720 -0.050206
v 0.163692 -0.355340 -0.085771
v 0.162946 -0.356607 -0.084556
v 0.118592 -0.343089 -0.099083
v 0.118662 -0.344383 -0.097686
v 0.073694 -0.325613 -0.085829
v 0.074541 -0.326884 -0.084590
v 0.041146 -0.312074 -0.050050
v 0.042482 -0.313294 -0.049369
v 0.029117 -0.307309 -0.002106
v 0.030603 -0.308522 -0.002100
v 0.040744 -0.312351 0.045929
v 0.042083 -0.313570 0.045261
v 0.073674 -0.325614 0.082811
v 0.074529 -0.326883 0.081572
v 0.118592 -0.343089 0.096088
v 0.118664 -0.344376 0.094572
v 0.163692 -0.355340 0.082776
v 0.162947 -0.356607 0.081561
v 0.192378 -0.359720 0.047211
v 0.191184 -0.360990 0.046544
v 0.207978 -0.357742 -0.001497
v 0.206559 -0.359036 -0.001497
v 0.008186 -0.014599 0.052848
v 0.008700 -0.015173 0.054605
v -0.015636 -0.029558 0.047094
v -0.015357 -0.028432 0.045571
v -0.032964 -0.039994 0.026200
v -0.032209 -0.038461 0.025353
v -0.039027 -0.043755 -0.001676
v -0.038139 -0.042075 -0.001677
v -0.033255 -0.040245 -0.029477
v -0.032520 -0.038700 -0.028622
v -0.015610 -0.029570 -0.050116
v -0.015338 -0.028444 -0.048596
v 0.008700 -0.015173 -0.057600
v 0.008186 -0.014599 -0.055843
v 0.032884 -0.001102 -0.049997
v 0.031701 -0.000958 -0.048499
v 0.050656 0.009019 -0.029501
v 0.048957 0.008898 -0.028629
v 0.057175 0.012715 -0.001497
v 0.055276 0.012481 -0.001497
v 0.050656 0.009019 0.026506
v 0.048957 0.008898 0.025634
v 0.032884 -0.001102 0.047002
v 0.031701 -0.000958 0.045504
v 0.186273 -0.359605 -0.046910
v 0.187361 -0.360882 -0.047475
v 0.159981 -0.355130 -0.080158
v 0.160726 -0.356447 -0.081198
v 0.118712 -0.342704 -0.092337
v 0.118466 -0.344036 -0.093545
v 0.077445 -0.325151 -0.080171
v 0.076816 -0.326547 -0.081159
v 0.047235 -0.311578 -0.046921
v 0.046215 -0.312921 -0.047451
v 0.035972 -0.306811 -0.002077
v 0.034839 -0.308142 -0.002082
v 0.046860 -0.311854 0.042853
v 0.045835 -0.313198 0.043374
v 0.077445 -0.325156 0.077176
v 0.076811 -0.326547 0.078163
v 0.118712 -0.342713 0.089341
v 0.118475 -0.344015 0.090542
v 0.159981 -0.355130 0.077163
v 0.160726 -0.356447 0.078203
v 0.186273 -0.359605 0.043915
v 0.187361 -0.360882 0.044480
v 0.201253 -0.357695 -0.001497
v 0.202516 -0.358945 -0.001497
v 0.047006 0.004141 -0.026327
v 0.046757 0.005840 -0.026682
v 0.031288 -0.004869 -0.044498
v 0.030761 -0.003322 -0.045128
v 0.009826 -0.017188 -0.051149
v 0.008914 -0.015885 -0.051900
v -0.011734 -0.029588 -0.044503
v -0.012944 -0.028498 -0.045167
v -0.027424 -0.038604 -0.026307
v -0.028927 -0.037761 -0.026690
v -0.032516 -0.041540 -0.001687
v -0.034095 -0.040765 -0.001685
v -0.027090 -0.038414 0.023049
v -0.028578 -0.037548 0.023424
v -0.011735 -0.029584 0.041507
v -0.012950 -0.028495 0.042167
v 0.009826 -0.017188 0.048154
v 0.008914 -0.015885 0.048905
v 0.031288 -0.004869 0.041503
v 0.030761 -0.003322 0.042133
v 0.047005 0.004142 0.023332
v 0.046757 0.005839 0.023687
v 0.052782 0.007451 -0.001497
v 0.052619 0.009196 -0.001497
v 0.163883 -0.287187 -0.090536
v 0.163172 -0.288520 -0.089373
v 0.194899 -0.288887 -0.052826
v 0.193768 -0.290250 -0.052191
v 0.116463 -0.279956 -0.104646
v 0.116517 -0.281237 -0.103244
v 0.069424 -0.268807 -0.090675
v 0.070286 -0.269997 -0.089400
v 0.035454 -0.260193 -0.052759
v 0.036874 -0.261286 -0.052042
v 0.022981 -0.257241 -0.002123
v 0.024583 -0.258303 -0.002119
v 0.035054 -0.260426 0.048596
v 0.036476 -0.261519 0.047891
v 0.069391 -0.268809 0.087662
v 0.070261 -0.269998 0.086388
v 0.116463 -0.279958 0.101732
v 0.116517 -0.281237 0.100249
v 0.163883 -0.287187 0.087541
v 0.163172 -0.288520 0.086378
v 0.194899 -0.288887 0.049831
v 0.193768 -0.290250 0.049196
v 0.210817 -0.286871 -0.001497
v 0.209492 -0.288265 -0.001497
v 0.035469 -0.050385 0.071331
v 0.036051 -0.051013 0.073064
v 0.002379 -0.069986 0.061512
v 0.002103 -0.071128 0.063033
v -0.017281 -0.085408 0.034268
v -0.018081 -0.086941 0.035103
v -0.023372 -0.091724 -0.001730
v -0.024324 -0.093390 -0.001743
v -0.016171 -0.086721 -0.037664
v -0.016948 -0.088271 -0.038510
v 0.002365 -0.070015 -0.064497
v 0.002076 -0.071155 -0.066017
v 0.035469 -0.050385 -0.074326
v 0.036051 -0.051013 -0.076059
v 0.064266 -0.033519 -0.064435
v 0.065532 -0.033766 -0.065870
v 0.084867 -0.021135 -0.037796
v 0.086595 -0.021163 -0.038607
v 0.093640 -0.016493 -0.001497
v 0.095564 -0.016420 -0.001497
v 0.084867 -0.021134 0.034801
v 0.086595 -0.021162 0.035612
v 0.064266 -0.033519 0.061440
v 0.065532 -0.033766 0.062875
vt 0.659824 0.123195
vt 0.646479 0.128114
vt 0.646411 0.113772
vt 0.659820 0.109987
vt 0.672892 0.116858
vt 0.672935 0.104902
vt 0.686968 0.111513
vt 0.687023 0.100406
vt 0.701532 0.110529
vt 0.701821 0.098673
vt 0.549885 0.113451
vt 0.535307 0.112876
vt 0.534642 0.100980
vt 0.549444 0.102319
vt 0.563801 0.118439
vt 0.563406 0.106455
vt 0.577053 0.124404
vt 0.576631 0.111174
vt 0.590541 0.128929
vt 0.590137 0.114569
vt 0.603906 0.131374
vt 0.603663 0.116162
vt 0.618547 0.131429
vt 0.618300 0.116059
vt 0.633186 0.130948
vt 0.632937 0.115753
vt 0.659028 0.096461
vt 0.645846 0.099374
vt 0.644596 0.085167
vt 0.657221 0.083105
vt 0.672194 0.092289
vt 0.670298 0.079841
vt 0.685812 0.088163
vt 0.683257 0.076060
vt 0.700076 0.085046
vt 0.696271 0.071599
vt 0.550154 0.090098
vt 0.535954 0.087218
vt 0.539436 0.073597
vt 0.552395 0.077991
vt 0.563800 0.093772
vt 0.565318 0.081197
vt 0.577024 0.097588
vt 0.578447 0.084139
vt 0.590265 0.100135
vt 0.591114 0.085873
vt 0.603646 0.101160
vt 0.604013 0.086402
vt 0.618070 0.101003
vt 0.617864 0.086215
vt 0.632496 0.100769
vt 0.631714 0.086037
vt 0.654306 0.070356
vt 0.667009 0.067888
vt 0.679078 0.063219
vt 0.689415 0.057416
vt 0.545683 0.059152
vt 0.556418 0.066346
vt 0.568145 0.069081
vt 0.581011 0.071286
vt 0.592760 0.072345
vt 0.604767 0.072374
vt 0.617694 0.072402
vt 0.630609 0.072036
vt 0.642607 0.071704
vt 0.650868 0.058532
vt 0.662704 0.056537
vt 0.672978 0.053517
vt 0.681944 0.047592
vt 0.553321 0.049316
vt 0.561756 0.055214
vt 0.572428 0.057719
vt 0.584250 0.059404
vt 0.594798 0.059792
vt 0.605933 0.059648
vt 0.617556 0.059554
vt 0.629183 0.059323
vt 0.640310 0.059209
vt 0.390459 0.136465
vt 0.392989 0.121524
vt 0.405773 0.127290
vt 0.403667 0.143790
vt 0.378344 0.126811
vt 0.381059 0.113744
vt 0.365276 0.117213
vt 0.368167 0.105768
vt 0.351389 0.110245
vt 0.354295 0.099252
vt 0.504544 0.122178
vt 0.502564 0.110553
vt 0.516836 0.105080
vt 0.518907 0.116274
vt 0.491184 0.130784
vt 0.489396 0.117558
vt 0.478423 0.139560
vt 0.476951 0.124474
vt 0.464737 0.145936
vt 0.463795 0.129326
vt 0.450260 0.148955
vt 0.449959 0.131524
vt 0.434057 0.149014
vt 0.434679 0.131319
vt 0.417898 0.147818
vt 0.419421 0.130452
vt 0.395758 0.106248
vt 0.398885 0.091073
vt 0.410494 0.094159
vt 0.408011 0.110678
vt 0.383847 0.100080
vt 0.386950 0.086501
vt 0.371340 0.093577
vt 0.375006 0.081532
vt 0.358022 0.087452
vt 0.362591 0.075834
vt 0.500377 0.098250
vt 0.497663 0.086066
vt 0.510368 0.081077
vt 0.514035 0.093014
vt 0.487576 0.103727
vt 0.485450 0.089950
vt 0.475269 0.109036
vt 0.473233 0.093668
vt 0.462738 0.112591
vt 0.461455 0.095924
vt 0.449625 0.114059
vt 0.449192 0.096644
vt 0.435297 0.113735
vt 0.435915 0.096218
vt 0.420983 0.113054
vt 0.422627 0.095696
vt 0.390629 0.073375
vt 0.402408 0.076533
vt 0.379461 0.069779
vt 0.368502 0.063524
vt 0.494087 0.074184
vt 0.505413 0.068374
vt 0.482745 0.076573
vt 0.470742 0.078921
vt 0.459910 0.080107
vt 0.448644 0.080105
vt 0.436512 0.079777
vt 0.424398 0.079280
vt 0.413107 0.078447
vt 0.394704 0.060660
vt 0.397252 0.053217
vt 0.407165 0.055234
vt 0.405897 0.062927
vt 0.384555 0.058142
vt 0.388251 0.050407
vt 0.374931 0.053781
vt 0.379962 0.046199
vt 0.489936 0.062294
vt 0.486748 0.054074
vt 0.495168 0.050298
vt 0.499669 0.058197
vt 0.479421 0.063794
vt 0.477510 0.056007
vt 0.468222 0.065113
vt 0.467458 0.057377
vt 0.458389 0.065391
vt 0.457844 0.057743
vt 0.448008 0.064970
vt 0.447758 0.057660
vt 0.437028 0.064923
vt 0.437291 0.057372
vt 0.426073 0.064204
vt 0.426828 0.056925
vt 0.415684 0.063892
vt 0.416760 0.056299
vt 0.604043 0.151589
vt 0.604057 0.151078
vt 0.618898 0.151162
vt 0.618907 0.151672
vt 0.591147 0.148641
vt 0.591154 0.148122
vt 0.578130 0.143573
vt 0.578092 0.143031
vt 0.565088 0.136888
vt 0.565023 0.136315
vt 0.551810 0.131434
vt 0.551708 0.130872
vt 0.538533 0.131267
vt 0.538312 0.130721
vt 0.699025 0.128390
vt 0.698819 0.128942
vt 0.685570 0.129491
vt 0.685654 0.128928
vt 0.672210 0.135301
vt 0.672255 0.134727
vt 0.659394 0.142369
vt 0.659409 0.141805
vt 0.646550 0.147804
vt 0.646524 0.147286
vt 0.633769 0.151143
vt 0.633737 0.150634
vt 0.647035 0.044713
vt 0.647189 0.045200
vt 0.637723 0.045887
vt 0.637623 0.045391
vt 0.655505 0.043166
vt 0.655783 0.043617
vt 0.662534 0.040031
vt 0.662925 0.040412
vt 0.667515 0.034711
vt 0.668037 0.034968
vt 0.566897 0.036278
vt 0.567412 0.036011
vt 0.572306 0.041216
vt 0.571922 0.041605
vt 0.579396 0.044188
vt 0.579123 0.044645
vt 0.587851 0.045528
vt 0.587705 0.046017
vt 0.597249 0.045961
vt 0.597158 0.046459
vt 0.607210 0.045960
vt 0.607165 0.046467
vt 0.617428 0.045779
vt 0.617434 0.046280
vt 0.627646 0.045702
vt 0.627702 0.046205
vt 0.658897 0.049241
vt 0.648919 0.051087
vt 0.667517 0.045888
vt 0.674439 0.040003
vt 0.567271 0.047329
vt 0.560652 0.041468
vt 0.576075 0.050326
vt 0.586098 0.051958
vt 0.596066 0.052438
vt 0.606580 0.052367
vt 0.617485 0.052268
vt 0.628396 0.052113
vt 0.638931 0.051826
vt 0.603928 0.153211
vt 0.603976 0.152737
vt 0.618927 0.152739
vt 0.618936 0.153224
vt 0.590789 0.150100
vt 0.590967 0.149666
vt 0.577702 0.145038
vt 0.577852 0.144593
vt 0.564762 0.138417
vt 0.564950 0.137993
vt 0.551838 0.133103
vt 0.551877 0.132624
vt 0.539136 0.132936
vt 0.539010 0.132452
vt 0.698380 0.130135
vt 0.698271 0.130622
vt 0.685586 0.131163
vt 0.685535 0.130684
vt 0.672580 0.136817
vt 0.672382 0.136395
vt 0.659867 0.143784
vt 0.659703 0.143352
vt 0.646964 0.149249
vt 0.646770 0.148821
vt 0.633943 0.152760
vt 0.633878 0.152288
vt 0.607358 0.044351
vt 0.607317 0.044836
vt 0.597493 0.044855
vt 0.597611 0.044379
vt 0.617414 0.044161
vt 0.617418 0.044645
vt 0.588269 0.044474
vt 0.588490 0.044020
vt 0.580035 0.043202
vt 0.580327 0.042791
vt 0.573187 0.040392
vt 0.573570 0.040061
vt 0.568567 0.035483
vt 0.569011 0.035241
vt 0.665893 0.033960
vt 0.666341 0.034196
vt 0.661641 0.039216
vt 0.661254 0.038890
vt 0.654856 0.042197
vt 0.654556 0.041791
vt 0.646601 0.043667
vt 0.646372 0.043217
vt 0.637358 0.044292
vt 0.637232 0.043818
vt 0.627519 0.044577
vt 0.627470 0.044095
vt 0.450943 0.170068
vt 0.466261 0.166779
vt 0.481114 0.159384
vt 0.494952 0.149005
vt 0.508667 0.139137
vt 0.522636 0.132932
vt 0.346495 0.126597
vt 0.359960 0.133846
vt 0.373302 0.144717
vt 0.386387 0.156055
vt 0.400691 0.164475
vt 0.415743 0.168832
vt 0.433309 0.170436
vt 0.399495 0.046409
vt 0.408298 0.048233
vt 0.391577 0.043514
vt 0.384535 0.039574
vt 0.483868 0.046727
vt 0.491115 0.043345
vt 0.475733 0.049064
vt 0.466829 0.050286
vt 0.457378 0.050716
vt 0.447550 0.050710
vt 0.437537 0.050292
vt 0.427518 0.050004
vt 0.417708 0.049319
vt 0.590434 0.129627
vt 0.590414 0.130100
vt 0.576879 0.125621
vt 0.576895 0.125126
vt 0.603885 0.132147
vt 0.603876 0.132619
vt 0.618559 0.132145
vt 0.618567 0.132610
vt 0.563631 0.119755
vt 0.563645 0.119206
vt 0.549855 0.114971
vt 0.549834 0.114359
vt 0.535680 0.114626
vt 0.535525 0.113931
vt 0.701347 0.111585
vt 0.701213 0.112282
vt 0.687040 0.113028
vt 0.687043 0.112418
vt 0.673097 0.118165
vt 0.673067 0.117618
vt 0.660029 0.124393
vt 0.659993 0.123886
vt 0.646645 0.129286
vt 0.646608 0.128815
vt 0.633256 0.132189
vt 0.633232 0.131719
vt 0.650493 0.057310
vt 0.650615 0.057790
vt 0.640166 0.058475
vt 0.640080 0.058013
vt 0.662085 0.055292
vt 0.662325 0.055780
vt 0.672080 0.052175
vt 0.672434 0.052691
vt 0.680541 0.046320
vt 0.681085 0.046799
vt 0.554135 0.048491
vt 0.554643 0.047983
vt 0.562695 0.053862
vt 0.562327 0.054381
vt 0.572996 0.056458
vt 0.572769 0.056954
vt 0.584604 0.058174
vt 0.584490 0.058656
vt 0.595004 0.058585
vt 0.594927 0.059052
vt 0.606022 0.058433
vt 0.605985 0.058896
vt 0.617545 0.058368
vt 0.617549 0.058824
vt 0.629071 0.058104
vt 0.629117 0.058569
vn 0.077131 -0.067095 0.994761
vn 0.591676 0.012226 0.806084
vn 0.556375 0.106819 0.824037
vn 0.026831 0.006268 0.999620
vn -0.483678 -0.186299 0.855189
vn -0.515583 -0.133071 0.846443
vn -0.835931 -0.300847 0.459033
vn -0.851988 -0.255801 0.456817
vn -0.936733 -0.350032 -0.002939
vn -0.952909 -0.303254 -0.001511
vn -0.832142 -0.302479 -0.464808
vn -0.849428 -0.256050 -0.461422
vn -0.478105 -0.185953 -0.858392
vn -0.509883 -0.131533 -0.850129
vn 0.077254 -0.067742 -0.994707
vn 0.027097 0.006351 -0.999613
vn 0.591653 0.011926 -0.806104
vn 0.556377 0.106820 -0.824035
vn 0.888546 0.051348 -0.455905
vn 0.873058 0.159559 -0.460772
vn 0.997588 0.069420 -0.000000
vn 0.983582 0.180463 -0.000000
vn 0.888546 0.051348 0.455905
vn 0.873058 0.159560 0.460772
vn 0.009385 0.073526 0.997249
vn 0.523185 0.213887 0.824942
vn 0.469544 0.320452 0.822702
vn -0.026961 0.145719 0.988959
vn -0.510171 -0.106883 0.853406
vn -0.518589 -0.058809 0.852999
vn -0.846710 -0.259775 0.464327
vn -0.855972 -0.226644 0.464698
vn -0.949891 -0.312582 -0.000152
vn -0.960572 -0.278029 -0.001025
vn -0.845667 -0.257115 -0.467696
vn -0.856375 -0.221977 -0.466206
vn -0.505702 -0.104003 -0.856416
vn -0.516719 -0.055612 -0.854347
vn 0.009580 0.073615 -0.997241
vn -0.026902 0.145808 -0.988947
vn 0.523186 0.213887 -0.824941
vn 0.469545 0.320453 -0.822702
vn 0.837808 0.291135 -0.461864
vn 0.780655 0.421234 -0.461670
vn 0.946915 0.321485 0.000000
vn 0.887936 0.459967 0.000000
vn 0.837808 0.291135 0.461863
vn 0.780655 0.421234 0.461670
vn -0.077939 0.217192 0.973013
vn -0.541137 -0.006903 0.840906
vn -0.871469 -0.186570 0.453579
vn -0.971150 -0.238439 -0.003899
vn -0.871818 -0.183060 -0.454338
vn -0.541758 -0.005092 -0.840519
vn -0.078072 0.217221 -0.972995
vn 0.396582 0.423869 -0.814283
vn 0.700084 0.547321 -0.458609
vn 0.805203 0.592999 0.000000
vn 0.700084 0.547321 0.458609
vn 0.396583 0.423869 0.814283
vn -0.138397 0.295157 0.945372
vn -0.575392 0.065459 0.815254
vn -0.892747 -0.116373 0.435271
vn -0.985762 -0.168041 -0.005894
vn -0.891970 -0.115784 -0.437018
vn -0.574894 0.067320 -0.815454
vn -0.138601 0.295065 -0.945371
vn 0.318073 0.518632 -0.793631
vn 0.611384 0.653092 -0.446856
vn 0.713436 0.700721 0.000001
vn 0.611386 0.653090 0.446856
vn 0.318075 0.518632 0.793630
vn -0.009998 0.042213 -0.999059
vn -0.024545 -0.008354 -0.999664
vn -0.560763 -0.109100 -0.820757
vn -0.565999 -0.004525 -0.824394
vn 0.543571 0.102457 -0.833086
vn 0.521942 0.132269 -0.842663
vn 0.879810 0.152171 -0.450310
vn 0.855082 0.254556 -0.451703
vn 0.985031 0.172334 0.003768
vn 0.953590 0.301104 0.001309
vn 0.876837 0.153337 0.455680
vn 0.852519 0.254884 0.456339
vn 0.537404 0.102023 0.837131
vn 0.515813 0.130689 0.846674
vn -0.010006 0.042212 0.999059
vn -0.024545 -0.008354 0.999664
vn -0.566004 -0.004526 0.824390
vn -0.560763 -0.109100 0.820757
vn -0.886714 -0.030940 0.461282
vn -0.873057 -0.160347 0.460501
vn -0.999136 -0.041552 0.000000
vn -0.983413 -0.181383 0.000000
vn -0.886714 -0.030940 -0.461282
vn -0.873057 -0.160347 -0.460501
vn -0.007735 -0.073416 -0.997271
vn 0.028761 -0.144711 -0.989056
vn -0.472652 -0.320734 -0.820810
vn -0.526761 -0.214643 -0.822466
vn 0.514028 0.108277 -0.850912
vn 0.521257 0.060487 -0.851254
vn 0.848599 0.261136 -0.460096
vn 0.857920 0.228395 -0.460227
vn 0.949742 0.313033 -0.000086
vn 0.960433 0.278508 0.001084
vn 0.847554 0.258449 0.463527
vn 0.858391 0.223599 0.461702
vn 0.509138 0.105278 0.854222
vn 0.519275 0.057239 0.852688
vn -0.007735 -0.073416 0.997271
vn 0.028761 -0.144711 0.989056
vn -0.526761 -0.214643 0.822466
vn -0.472652 -0.320735 0.820810
vn -0.838129 -0.290649 0.461588
vn -0.781366 -0.420287 0.461330
vn -0.946993 -0.321254 0.000000
vn -0.888295 -0.459273 0.000000
vn -0.838129 -0.290649 -0.461588
vn -0.781366 -0.420287 -0.461330
vn 0.542327 0.009321 -0.840116
vn 0.079350 -0.214863 -0.973415
vn 0.873408 0.189496 -0.448609
vn 0.970866 0.239581 0.004476
vn 0.873886 0.185805 0.449221
vn 0.543234 0.007628 0.839547
vn 0.079350 -0.214863 0.973415
vn -0.399745 -0.423507 0.812925
vn -0.701423 -0.545908 0.458247
vn -0.806076 -0.591812 -0.000000
vn -0.701422 -0.545908 -0.458248
vn -0.399745 -0.423507 -0.812925
vn 0.563998 -0.015296 -0.825635
vn 0.581491 -0.013367 -0.813443
vn 0.179121 -0.301018 -0.936645
vn 0.130432 -0.270235 -0.953919
vn 0.877771 0.194007 -0.438041
vn 0.869661 0.223281 -0.440268
vn 0.965722 0.259468 0.007549
vn 0.951078 0.308922 0.004269
vn 0.876112 0.195767 0.440572
vn 0.865567 0.231721 0.443959
vn 0.564970 -0.013592 0.824999
vn 0.580704 -0.008610 0.814069
vn 0.130432 -0.270235 0.953919
vn 0.179117 -0.301020 0.936645
vn -0.318632 -0.509708 0.799169
vn -0.230183 -0.564760 0.792504
vn -0.611688 -0.649629 0.451465
vn -0.522961 -0.722908 0.451569
vn -0.714976 -0.699149 -0.000000
vn -0.628809 -0.777560 -0.000002
vn -0.611688 -0.649628 -0.451466
vn -0.522963 -0.722907 -0.451569
vn -0.318633 -0.509708 -0.799169
vn -0.230185 -0.564760 -0.792503
vn 0.191430 -0.973414 -0.125777
vn 0.887007 -0.045837 -0.459475
vn 0.999165 -0.040869 0.000000
vn 0.281717 -0.959498 -0.000000
vn -0.008123 -0.961403 -0.275023
vn 0.585479 -0.060040 -0.808461
vn -0.276685 -0.935202 -0.221004
vn 0.054314 -0.082937 -0.995074
vn -0.367587 -0.929290 -0.036055
vn -0.501552 -0.103340 -0.858933
vn -0.282896 -0.957958 0.047813
vn -0.870867 -0.111598 -0.478682
vn -0.227086 -0.973868 -0.003664
vn -0.993617 -0.112742 -0.003924
vn -0.279965 -0.958779 -0.048617
vn -0.873790 -0.111540 0.473339
vn -0.363980 -0.930641 0.037768
vn -0.507895 -0.103800 0.855142
vn -0.277426 -0.935570 0.218502
vn 0.053931 -0.083675 0.995033
vn -0.008867 -0.961684 0.274016
vn 0.585382 -0.060489 0.808498
vn 0.191429 -0.973414 0.125778
vn 0.887007 -0.045837 0.459475
vn -0.508352 0.859497 -0.053331
vn -0.213785 0.334415 0.917858
vn 0.185118 0.592506 0.784007
vn -0.532492 0.843896 -0.065514
vn -0.509352 0.860495 -0.010478
vn -0.601393 0.055781 0.797004
vn -0.539476 0.841914 0.012064
vn -0.880067 -0.172631 0.442358
vn -0.559315 0.828955 -0.000764
vn -0.965325 -0.261052 0.000398
vn -0.546662 0.837182 -0.016906
vn -0.876853 -0.181150 -0.445324
vn -0.511263 0.859380 0.008740
vn -0.598037 0.052379 -0.799755
vn -0.508738 0.859304 0.052749
vn -0.213556 0.334363 -0.917930
vn -0.532485 0.843900 0.065521
vn 0.185119 0.592504 -0.784009
vn -0.553255 0.832053 0.039969
vn 0.480255 0.753654 -0.448731
vn -0.559678 0.828710 -0.000004
vn 0.588176 0.808733 0.000001
vn -0.553273 0.832040 -0.039982
vn 0.480257 0.753653 0.448732
vn -0.581979 0.017154 0.813023
vn -0.180099 0.304348 0.935381
vn -0.869251 -0.218370 0.443528
vn -0.952244 -0.305309 -0.004084
vn -0.865259 -0.226612 -0.447185
vn -0.581116 0.012488 -0.813725
vn -0.180036 0.304257 -0.935422
vn 0.227173 0.566582 -0.792071
vn 0.520025 0.725072 -0.451492
vn 0.626236 0.779633 -0.000001
vn 0.520023 0.725073 0.451492
vn 0.227171 0.566583 0.792072
vn -0.888654 0.004472 0.458557
vn -0.214263 -0.973100 0.084669
vn -0.179578 -0.983744 -0.000000
vn -0.999995 0.003008 0.000000
vn -0.599899 0.014913 0.799937
vn -0.270982 -0.958035 0.093479
vn -0.071595 0.035971 0.996785
vn -0.296799 -0.922173 0.248007
vn 0.491862 0.057496 0.868773
vn -0.135135 -0.918801 0.370870
vn 0.871208 0.066257 0.486422
vn 0.132059 -0.950538 0.281136
vn 0.997730 0.067242 0.003790
vn 0.250963 -0.967995 -0.001783
vn 0.874213 0.065904 -0.481049
vn 0.136001 -0.950634 -0.278924
vn 0.498683 0.057652 -0.864865
vn -0.127200 -0.920898 -0.368466
vn -0.071595 0.036024 -0.996783
vn -0.296308 -0.921715 -0.250285
vn -0.599914 0.014943 -0.799925
vn -0.271032 -0.957993 -0.093763
vn -0.888654 0.004472 -0.458557
vn -0.214262 -0.973100 -0.084667
vn -0.555039 -0.688301 0.467090
vn -0.818472 0.509712 0.265137
vn -0.652235 0.604633 0.457175
vn -0.249065 -0.521095 0.816350
vn -0.666596 -0.745419 -0.000003
vn -0.878368 0.477986 0.000005
vn -0.433966 0.745015 0.506582
vn 0.165636 -0.253219 0.953124
vn -0.250963 0.879666 0.403987
vn 0.562663 0.037868 0.825819
vn -0.153401 0.966584 0.205388
vn 0.847335 0.274949 0.454342
vn -0.121262 0.992612 -0.004150
vn 0.935545 0.353206 -0.001063
vn -0.144408 0.967284 -0.208585
vn 0.851130 0.267490 -0.451693
vn -0.245838 0.881416 -0.403324
vn 0.566649 0.035124 -0.823210
vn -0.433256 0.744746 -0.507585
vn 0.165676 -0.253227 -0.953115
vn -0.652228 0.604663 -0.457145
vn -0.249058 -0.521105 -0.816346
vn -0.818447 0.509769 -0.265103
vn -0.555023 -0.688315 -0.467089
vn 0.070575 -0.966005 -0.248705
vn 0.532003 -0.065746 -0.844186
vn -0.047389 -0.092744 -0.994562
vn -0.165486 -0.969212 -0.182323
vn 0.280445 -0.949364 -0.141632
vn 0.883912 -0.047179 -0.465268
vn 0.310851 -0.950459 -0.000000
vn 0.998879 -0.047327 0.000000
vn -0.577690 -0.116048 -0.807965
vn -0.206957 -0.978349 0.001427
vn -0.890074 -0.125884 -0.438089
vn -0.090181 -0.993752 0.065766
vn -0.991761 -0.128018 -0.004619
vn -0.022626 -0.999742 -0.002094
vn -0.892449 -0.125493 0.433343
vn -0.089473 -0.993845 -0.065323
vn -0.583442 -0.116756 0.803719
vn -0.203399 -0.979096 -0.000268
vn -0.047777 -0.093618 0.994461
vn -0.165107 -0.969364 0.181862
vn 0.531966 -0.066066 0.844185
vn 0.070957 -0.965883 0.249068
vn 0.883912 -0.047179 0.465267
vn 0.280444 -0.949364 0.141633
vn -0.194923 0.365121 0.910325
vn -0.502011 0.862921 -0.057899
vn -0.518569 0.854521 -0.029651
vn 0.197249 0.613813 0.764412
vn -0.603450 0.075515 0.793817
vn -0.501766 0.860504 -0.088115
vn -0.892924 -0.162031 0.420039
vn -0.495966 0.863768 -0.089014
vn -0.969743 -0.243826 -0.012147
vn -0.475001 0.879708 -0.022061
vn -0.889445 -0.169285 -0.424535
vn -0.506017 0.858507 0.083148
vn -0.608335 0.065769 -0.790950
vn -0.515256 0.850750 0.103615
vn -0.195001 0.365081 -0.910324
vn -0.502010 0.862891 0.058346
vn 0.197255 0.613810 -0.764414
vn -0.518588 0.854509 0.029681
vn 0.478605 0.761937 -0.436336
vn -0.506849 0.862004 0.007243
vn 0.577782 0.816191 -0.000002
vn -0.502946 0.864318 0.000005
vn 0.478597 0.761943 0.436334
vn -0.506812 0.862027 -0.007222
s 1
g arm_down_left arm_down_left
usemtl head_plateSG
f 98/1/1 97/2/2 99/3/3 100/4/4
f 101/5/5 98/1/1 100/4/4 102/6/6
f 103/7/7 101/5/5 102/6/6 104/8/8
f 105/9/9 103/7/7 104/8/8 106/10/10
f 107/11/11 105/12/9 106/13/10 108/14/12
f 109/15/13 107/11/11 108/14/12 110/16/14
f 111/17/15 109/15/13 110/16/14 112/18/16
f 113/19/17 111/17/15 112/18/16 114/20/18
f 115/21/19 113/19/17 114/20/18 116/22/20
f 117/23/21 115/21/19 116/22/20 118/24/22
f 119/25/23 117/23/21 118/24/22 120/26/24
f 97/2/2 119/25/23 120/26/24 99/3/3
f 122/27/25 121/28/26 123/29/27 124/30/28
f 125/31/29 122/27/25 124/30/28 126/32/30
f 127/33/31 125/31/29 126/32/30 128/34/32
f 129/35/33 127/33/31 128/34/32 130/36/34
f 131/37/35 129/38/33 130/39/34 132/40/36
f 133/41/37 131/37/35 132/40/36 134/42/38
f 135/43/39 133/41/37 134/42/38 136/44/40
f 137/45/41 135/43/39 136/44/40 138/46/42
f 139/47/43 137/45/41 138/46/42 140/48/44
f 141/49/45 139/47/43 140/48/44 142/50/46
f 143/51/47 141/49/45 142/50/46 144/52/48
f 121/28/26 143/51/47 144/52/48 123/29/27
f 100/4/4 99/3/3 121/28/26 122/27/25
f 102/6/6 100/4/4 122/27/25 125/31/29
f 104/8/8 102/6/6 125/31/29 127/33/31
f 106/10/10 104/8/8 127/33/31 129/35/33
f 108/14/12 106/13/10 129/38/33 131/37/35
f 110/16/14 108/14/12 131/37/35 133/41/37
f 112/18/16 110/16/14 133/41/37 135/43/39
f 114/20/18 112/18/16 135/43/39 137/45/41
f 116/22/20 114/20/18 137/45/41 139/47/43
f 118/24/22 116/22/20 139/47/43 141/49/45
f 120/26/24 118/24/22 141/49/45 143/51/47
f 99/3/3 120/26/24 143/51/47 121/28/26
f 126/32/30 124/30/28 145/53/49 146/54/50
f 128/34/32 126/32/30 146/54/50 147/55/51
f 130/36/34 128/34/32 147/55/51 148/56/52
f 132/40/36 130/39/34 148/57/52 149/58/53
f 134/42/38 132/40/36 149/58/53 150/59/54
f 136/44/40 134/42/38 150/59/54 151/60/55
f 138/46/42 136/44/40 151/60/55 152/61/56
f 140/48/44 138/46/42 152/61/56 153/62/57
f 142/50/46 140/48/44 153/62/57 154/63/58
f 144/52/48 142/50/46 154/63/58 155/64/59
f 123/29/27 144/52/48 155/64/59 156/65/60
f 124/30/28 123/29/27 156/65/60 145/53/49
f 146/54/50 145/53/49 157/66/61 158/67/62
f 147/55/51 146/54/50 158/67/62 159/68/63
f 148/56/52 147/55/51 159/68/63 160/69/64
f 149/58/53 148/57/52 160/70/64 161/71/65
f 150/59/54 149/58/53 161/71/65 162/72/66
f 151/60/55 150/59/54 162/72/66 163/73/67
f 152/61/56 151/60/55 163/73/67 164/74/68
f 153/62/57 152/61/56 164/74/68 165/75/69
f 154/63/58 153/62/57 165/75/69 166/76/70
f 155/64/59 154/63/58 166/76/70 167/77/71
f 156/65/60 155/64/59 167/77/71 168/78/72
f 145/53/49 156/65/60 168/78/72 157/66/61
f 2/79/73 26/80/74 25/81/75 1/82/76
f 3/83/77 27/84/78 26/80/74 2/79/73
f 4/85/79 28/86/80 27/84/78 3/83/77
f 5/87/81 29/88/82 28/86/80 4/85/79
f 6/89/83 30/90/84 29/91/82 5/92/81
f 7/93/85 31/94/86 30/90/84 6/89/83
f 8/95/87 32/96/88 31/94/86 7/93/85
f 9/97/89 33/98/90 32/96/88 8/95/87
f 10/99/91 34/100/92 33/98/90 9/97/89
f 11/101/93 35/102/94 34/100/92 10/99/91
f 12/103/95 36/104/96 35/102/94 11/101/93
f 1/82/76 25/81/75 36/104/96 12/103/95
f 14/105/97 37/106/98 48/107/99 13/108/100
f 15/109/101 38/110/102 37/106/98 14/105/97
f 16/111/103 39/112/104 38/110/102 15/109/101
f 17/113/105 40/114/106 39/112/104 16/111/103
f 18/115/107 41/116/108 40/117/106 17/118/105
f 19/119/109 42/120/110 41/116/108 18/115/107
f 20/121/111 43/122/112 42/120/110 19/119/109
f 21/123/113 44/124/114 43/122/112 20/121/111
f 22/125/115 45/126/116 44/124/114 21/123/113
f 23/127/117 46/128/118 45/126/116 22/125/115
f 24/129/119 47/130/120 46/128/118 23/127/117
f 13/108/100 48/107/99 47/130/120 24/129/119
f 26/80/74 14/105/97 13/108/100 25/81/75
f 27/84/78 15/109/101 14/105/97 26/80/74
f 28/86/80 16/111/103 15/109/101 27/84/78
f 29/88/82 17/113/105 16/111/103 28/86/80
f 30/90/84 18/115/107 17/118/105 29/91/82
f 31/94/86 19/119/109 18/115/107 30/90/84
f 32/96/88 20/121/111 19/119/109 31/94/86
f 33/98/90 21/123/113 20/121/111 32/96/88
f 34/100/92 22/125/115 21/123/113 33/98/90
f 35/102/94 23/127/117 22/125/115 34/100/92
f 36/104/96 24/129/119 23/127/117 35/102/94
f 25/81/75 13/108/100 24/129/119 36/104/96
f 38/110/102 74/131/121 73/132/122 37/106/98
f 39/112/104 75/133/123 74/131/121 38/110/102
f 40/114/106 76/134/124 75/133/123 39/112/104
f 41/116/108 77/135/125 76/136/124 40/117/106
f 42/120/110 78/137/126 77/135/125 41/116/108
f 43/122/112 79/138/127 78/137/126 42/120/110
f 44/124/114 80/139/128 79/138/127 43/122/112
f 45/126/116 81/140/129 80/139/128 44/124/114
f 46/128/118 82/141/130 81/140/129 45/126/116
f 47/130/120 83/142/131 82/141/130 46/128/118
f 48/107/99 84/143/132 83/142/131 47/130/120
f 37/106/98 73/132/122 84/143/132 48/107/99
f 50/144/133 62/145/134 61/146/135 49/147/136
f 51/148/137 63/149/138 62/145/134 50/144/133
f 52/150/139 64/151/140 63/149/138 51/148/137
f 53/152/141 65/153/142 64/154/140 52/155/139
f 54/156/143 66/157/144 65/153/142 53/152/141
f 55/158/145 67/159/146 66/157/144 54/156/143
f 56/160/147 68/161/148 67/159/146 55/158/145
f 57/162/149 69/163/150 68/161/148 56/160/147
f 58/164/151 70/165/152 69/163/150 57/162/149
f 59/166/153 71/167/154 70/165/152 58/164/151
f 60/168/155 72/169/156 71/167/154 59/166/153
f 49/147/136 61/146/135 72/169/156 60/168/155
f 74/131/121 50/144/133 49/147/136 73/132/122
f 75/133/123 51/148/137 50/144/133 74/131/121
f 76/134/124 52/150/139 51/148/137 75/133/123
f 77/135/125 53/152/141 52/155/139 76/136/124
f 78/137/126 54/156/143 53/152/141 77/135/125
f 79/138/127 55/158/145 54/156/143 78/137/126
f 80/139/128 56/160/147 55/158/145 79/138/127
f 81/140/129 57/162/149 56/160/147 80/139/128
f 82/141/130 58/164/151 57/162/149 81/140/129
f 83/142/131 59/166/153 58/164/151 82/141/130
f 84/143/132 60/168/155 59/166/153 83/142/131
f 73/132/122 49/147/136 60/168/155 84/143/132
f 169/170/157 170/171/158 191/172/159 192/173/160
f 170/171/158 169/170/157 172/174/161 171/175/162
f 171/175/162 172/174/161 174/176/163 173/177/164
f 173/177/164 174/176/163 176/178/165 175/179/166
f 175/179/166 176/178/165 178/180/167 177/181/168
f 177/181/168 178/180/167 180/182/169 179/183/170
f 179/184/170 180/185/169 182/186/171 181/187/172
f 181/187/172 182/186/171 184/188/173 183/189/174
f 183/189/174 184/188/173 186/190/175 185/191/176
f 185/191/176 186/190/175 188/192/177 187/193/178
f 187/193/178 188/192/177 190/194/179 189/195/180
f 189/195/180 190/194/179 192/173/160 191/172/159
f 193/196/181 194/197/182 215/198/183 216/199/184
f 194/197/182 193/196/181 196/200/185 195/201/186
f 195/201/186 196/200/185 198/202/187 197/203/188
f 197/203/188 198/202/187 200/204/189 199/205/190
f 199/206/190 200/207/189 202/208/191 201/209/192
f 201/209/192 202/208/191 204/210/193 203/211/194
f 203/211/194 204/210/193 206/212/195 205/213/196
f 205/213/196 206/212/195 208/214/197 207/215/198
f 207/215/198 208/214/197 210/216/199 209/217/200
f 209/217/200 210/216/199 212/218/201 211/219/202
f 211/219/202 212/218/201 214/220/203 213/221/204
f 213/221/204 214/220/203 216/199/184 215/198/183
f 86/222/205 85/223/206 194/197/182 195/201/186
f 87/224/207 86/222/205 195/201/186 197/203/188
f 88/225/208 87/224/207 197/203/188 199/205/190
f 89/226/209 88/227/208 199/206/190 201/209/192
f 90/228/210 89/226/209 201/209/192 203/211/194
f 91/229/211 90/228/210 203/211/194 205/213/196
f 92/230/212 91/229/211 205/213/196 207/215/198
f 93/231/213 92/230/212 207/215/198 209/217/200
f 94/232/214 93/231/213 209/217/200 211/219/202
f 95/233/215 94/232/214 211/219/202 213/221/204
f 96/234/216 95/233/215 213/221/204 215/198/183
f 85/223/206 96/234/216 215/198/183 194/197/182
f 217/235/217 218/236/218 240/237/219 239/238/220
f 218/236/218 217/235/217 219/239/221 220/240/222
f 220/240/222 219/239/221 221/241/223 222/242/224
f 222/242/224 221/241/223 223/243/225 224/244/226
f 224/244/226 223/243/225 225/245/227 226/246/228
f 226/246/228 225/245/227 227/247/229 228/248/230
f 228/249/230 227/250/229 229/251/231 230/252/232
f 230/252/232 229/251/231 231/253/233 232/254/234
f 232/254/234 231/253/233 233/255/235 234/256/236
f 234/256/236 233/255/235 235/257/237 236/258/238
f 236/258/238 235/257/237 237/259/239 238/260/240
f 238/260/240 237/259/239 239/238/220 240/237/219
f 241/261/241 242/262/242 244/263/243 243/264/244
f 242/262/242 241/261/241 263/265/245 264/266/246
f 243/264/244 244/263/243 246/267/247 245/268/248
f 245/268/248 246/267/247 248/269/249 247/270/250
f 247/270/250 248/269/249 250/271/251 249/272/252
f 249/272/252 250/271/251 252/273/253 251/274/254
f 251/275/254 252/276/253 254/277/255 253/278/256
f 253/278/256 254/277/255 256/279/257 255/280/258
f 255/280/258 256/279/257 258/281/259 257/282/260
f 257/282/260 258/281/259 260/283/261 259/284/262
f 259/284/262 260/283/261 262/285/263 261/286/264
f 261/286/264 262/285/263 264/266/246 263/265/245
f 217/287/217 10/99/91 9/97/89 219/288/221
f 219/288/221 9/97/89 8/95/87 221/289/223
f 221/289/223 8/95/87 7/93/85 223/290/225
f 223/290/225 7/93/85 6/89/83 225/291/227
f 225/291/227 6/89/83 5/92/81 227/292/229
f 227/293/229 5/87/81 4/85/79 229/294/231
f 229/294/231 4/85/79 3/83/77 231/295/233
f 231/295/233 3/83/77 2/79/73 233/296/235
f 233/296/235 2/79/73 1/82/76 235/297/237
f 235/297/237 1/82/76 12/103/95 237/298/239
f 237/298/239 12/103/95 11/101/93 239/299/220
f 239/299/220 11/101/93 10/99/91 217/287/217
f 62/145/134 255/300/258 257/301/260 61/146/135
f 63/149/138 253/302/256 255/300/258 62/145/134
f 64/151/140 251/303/254 253/302/256 63/149/138
f 65/153/142 249/304/252 251/305/254 64/154/140
f 66/157/144 247/306/250 249/304/252 65/153/142
f 67/159/146 245/307/248 247/306/250 66/157/144
f 68/161/148 243/308/244 245/307/248 67/159/146
f 69/163/150 241/309/241 243/308/244 68/161/148
f 70/165/152 263/310/245 241/309/241 69/163/150
f 71/167/154 261/311/264 263/310/245 70/165/152
f 72/169/156 259/312/262 261/311/264 71/167/154
f 61/146/135 257/301/260 259/312/262 72/169/156
f 218/236/218 220/240/222 172/174/161 169/170/157
f 220/240/222 222/242/224 174/176/163 172/174/161
f 222/242/224 224/244/226 176/178/165 174/176/163
f 224/244/226 226/246/228 178/180/167 176/178/165
f 226/246/228 228/248/230 180/182/169 178/180/167
f 228/249/230 230/252/232 182/186/171 180/185/169
f 230/252/232 232/254/234 184/188/173 182/186/171
f 232/254/234 234/256/236 186/190/175 184/188/173
f 234/256/236 236/258/238 188/192/177 186/190/175
f 236/258/238 238/260/240 190/194/179 188/192/177
f 238/260/240 240/237/219 192/173/160 190/194/179
f 240/237/219 218/236/218 169/170/157 192/173/160
f 258/281/259 256/279/257 196/200/185 193/196/181
f 256/279/257 254/277/255 198/202/187 196/200/185
f 254/277/255 252/276/253 200/204/189 198/202/187
f 252/273/253 250/271/251 202/208/191 200/207/189
f 250/271/251 248/269/249 204/210/193 202/208/191
f 248/269/249 246/267/247 206/212/195 204/210/193
f 246/267/247 244/263/243 208/214/197 206/212/195
f 244/263/243 242/262/242 210/216/199 208/214/197
f 242/262/242 264/266/246 212/218/201 210/216/199
f 264/266/246 262/285/263 214/220/203 212/218/201
f 262/285/263 260/283/261 216/199/184 214/220/203
f 260/283/261 258/281/259 193/196/181 216/199/184
f 265/313/265 266/314/266 270/315/267 269/316/268
f 266/314/266 265/313/265 267/317/269 268/318/270
f 268/318/270 267/317/269 287/319/271 288/320/272
f 269/316/268 270/315/267 272/321/273 271/322/274
f 271/322/274 272/321/273 274/323/275 273/324/276
f 273/324/276 274/323/275 276/325/277 275/326/278
f 275/327/278 276/328/277 278/329/279 277/330/280
f 277/330/280 278/329/279 280/331/281 279/332/282
f 279/332/282 280/331/281 282/333/283 281/334/284
f 281/334/284 282/333/283 284/335/285 283/336/286
f 283/336/286 284/335/285 286/337/287 285/338/288
f 285/338/288 286/337/287 288/320/272 287/319/271
f 289/339/289 290/340/290 312/341/291 311/342/292
f 290/340/290 289/339/289 291/343/293 292/344/294
f 292/344/294 291/343/293 293/345/295 294/346/296
f 294/346/296 293/345/295 295/347/297 296/348/298
f 296/349/298 295/350/297 297/351/299 298/352/300
f 298/352/300 297/351/299 299/353/301 300/354/302
f 300/354/302 299/353/301 301/355/303 302/356/304
f 302/356/304 301/355/303 303/357/305 304/358/306
f 304/358/306 303/357/305 305/359/307 306/360/308
f 306/360/308 305/359/307 307/361/309 308/362/310
f 308/362/310 307/361/309 309/363/311 310/364/312
f 310/364/312 309/363/311 311/342/292 312/341/291
f 291/343/293 289/339/289 85/223/206 86/222/205
f 293/345/295 291/343/293 86/222/205 87/224/207
f 295/347/297 293/345/295 87/224/207 88/225/208
f 297/351/299 295/350/297 88/227/208 89/226/209
f 299/353/301 297/351/299 89/226/209 90/228/210
f 301/355/303 299/353/301 90/228/210 91/229/211
f 303/357/305 301/355/303 91/229/211 92/230/212
f 305/359/307 303/357/305 92/230/212 93/231/213
f 307/361/309 305/359/307 93/231/213 94/232/214
f 309/363/311 307/361/309 94/232/214 95/233/215
f 311/342/292 309/363/311 95/233/215 96/234/216
f 289/339/289 311/342/292 96/234/216 85/223/206
f 281/334/284 283/336/286 97/2/2 98/1/1
f 279/332/282 281/334/284 98/1/1 101/5/5
f 277/330/280 279/332/282 101/5/5 103/7/7
f 275/327/278 277/330/280 103/7/7 105/9/9
f 273/324/276 275/326/278 105/12/9 107/11/11
f 271/322/274 273/324/276 107/11/11 109/15/13
f 269/316/268 271/322/274 109/15/13 111/17/15
f 265/313/265 269/316/268 111/17/15 113/19/17
f 267/317/269 265/313/265 113/19/17 115/21/19
f 287/319/271 267/317/269 115/21/19 117/23/21
f 285/338/288 287/319/271 117/23/21 119/25/23
f 283/336/286 285/338/288 119/25/23 97/2/2
f 290/340/290 292/344/294 158/67/62 157/66/61
f 292/344/294 294/346/296 159/68/63 158/67/62
f 294/346/296 296/348/298 160/69/64 159/68/63
f 296/349/298 298/352/300 161/71/65 160/70/64
f 298/352/300 300/354/302 162/72/66 161/71/65
f 300/354/302 302/356/304 163/73/67 162/72/66
f 302/356/304 304/358/306 164/74/68 163/73/67
f 304/358/306 306/360/308 165/75/69 164/74/68
f 306/360/308 308/362/310 166/76/70 165/75/69
f 308/362/310 310/364/312 167/77/71 166/76/70
f 310/364/312 312/341/291 168/78/72 167/77/71
f 312/341/291 290/340/290 157/66/61 168/78/72
f 170/171/158 171/175/162 266/314/266 268/318/270
f 171/175/162 173/177/164 270/315/267 266/314/266
f 173/177/164 175/179/166 272/321/273 270/315/267
f 175/179/166 177/181/168 274/323/275 272/321/273
f 177/181/168 179/183/170 276/325/277 274/323/275
f 179/184/170 181/187/172 278/329/279 276/328/277
f 181/187/172 183/189/174 280/331/281 278/329/279
f 183/189/174 185/191/176 282/333/283 280/331/281
f 185/191/176 187/193/178 284/335/285 282/333/283
f 187/193/178 189/195/180 286/337/287 284/335/285
f 189/195/180 191/172/159 288/320/272 286/337/287
f 191/172/159 170/171/158 268/318/270 288/320/272
g default
v 0.033853 -0.039885 -0.003917
v 0.031930 -0.040991 -0.007237
v 0.029052 -0.042647 -0.009456
v 0.025657 -0.044600 -0.010235
v 0.022262 -0.046553 -0.009456
v 0.019384 -0.048209 -0.007237
v 0.017461 -0.049315 -0.003917
v 0.016786 -0.049703 0.000000
v 0.017461 -0.049315 0.003917
v 0.019384 -0.048209 0.007237
v 0.022262 -0.046553 0.009456
v 0.025657 -0.044600 0.010235
v 0.029052 -0.042647 0.009456
v 0.031930 -0.040991 0.007237
v 0.033853 -0.039885 0.003917
v 0.034529 -0.039496 0.000000
v 0.040246 -0.032763 -0.007683
v 0.036474 -0.034933 -0.014196
v 0.030828 -0.038181 -0.018548
v 0.024169 -0.042012 -0.020076
v 0.017509 -0.045843 -0.018548
v 0.011864 -0.049091 -0.014196
v 0.008091 -0.051261 -0.007683
v 0.006767 -0.052023 0.000000
v 0.008091 -0.051261 0.007683
v 0.011864 -0.049091 0.014196
v 0.017509 -0.045843 0.018548
v 0.024169 -0.042012 0.020076
v 0.030828 -0.038181 0.018548
v 0.036474 -0.034933 0.014196
v 0.040246 -0.032763 0.007683
v 0.041571 -0.032001 0.000000
v 0.045092 -0.024382 -0.011154
v 0.039615 -0.027533 -0.020609
v 0.031419 -0.032248 -0.026927
v 0.021751 -0.037810 -0.029146
v 0.012083 -0.043372 -0.026927
v 0.003887 -0.048087 -0.020609
v -0.001589 -0.051237 -0.011154
v -0.003512 -0.052343 0.000000
v -0.001589 -0.051237 0.011154
v 0.003887 -0.048087 0.020609
v 0.012083 -0.043372 0.026927
v 0.021751 -0.037810 0.029146
v 0.031419 -0.032248 0.026927
v 0.039615 -0.027533 0.020609
v 0.045092 -0.024382 0.011154
v 0.047015 -0.023276 0.000000
v 0.048205 -0.015065 -0.014196
v 0.041235 -0.019075 -0.026230
v 0.030803 -0.025076 -0.034272
v 0.018498 -0.032155 -0.037095
v 0.006193 -0.039233 -0.034272
v -0.004239 -0.045235 -0.026230
v -0.011209 -0.049245 -0.014196
v -0.013657 -0.050653 0.000000
v -0.011209 -0.049245 0.014196
v -0.004239 -0.045235 0.026231
v 0.006193 -0.039233 0.034272
v 0.018498 -0.032155 0.037095
v 0.030803 -0.025076 0.034272
v 0.041235 -0.019075 0.026231
v 0.048205 -0.015065 0.014196
v 0.050652 -0.013657 0.000000
v 0.049465 -0.005168 -0.016693
v 0.041269 -0.009883 -0.030844
v 0.029003 -0.016940 -0.040300
v 0.014534 -0.025264 -0.043620
v 0.000065 -0.033588 -0.040300
v -0.012202 -0.040644 -0.030844
v -0.020398 -0.045359 -0.016693
v -0.023276 -0.047015 0.000000
v -0.020398 -0.045359 0.016693
v -0.012202 -0.040644 0.030844
v 0.000065 -0.033588 0.040300
v 0.014534 -0.025264 0.043620
v 0.029003 -0.016940 0.040300
v 0.041269 -0.009883 0.030844
v 0.049465 -0.005168 0.016693
v 0.052344 -0.003513 0.000000
v 0.048825 0.004927 -0.018548
v 0.039718 -0.000312 -0.034272
v 0.026088 -0.008153 -0.044778
v 0.010011 -0.017402 -0.048468
v -0.006066 -0.026651 -0.044778
v -0.019696 -0.034492 -0.034272
v -0.028803 -0.039731 -0.018548
v -0.032001 -0.041571 0.000000
v -0.028803 -0.039731 0.018548
v -0.019696 -0.034492 0.034272
v -0.006066 -0.026651 0.044778
v 0.010011 -0.017402 0.048468
v 0.026088 -0.008153 0.044778
v 0.039718 -0.000312 0.034272
v 0.048825 0.004927 0.018548
v 0.052023 0.006767 0.000000
v 0.046308 0.014833 -0.019690
v 0.036640 0.009271 -0.036383
v 0.022171 0.000947 -0.047537
v 0.005104 -0.008872 -0.051453
v -0.011964 -0.018690 -0.047537
v -0.026433 -0.027014 -0.036383
v -0.036101 -0.032576 -0.019690
v -0.039496 -0.034529 0.000000
v -0.036101 -0.032576 0.019690
v -0.026433 -0.027014 0.036383
v -0.011964 -0.018690 0.047537
v 0.005104 -0.008872 0.051453
v 0.022171 0.000947 0.047537
v 0.036640 0.009271 0.036383
v 0.046308 0.014833 0.019690
v 0.049703 0.016786 0.000000
v 0.042012 0.024169 -0.020076
v 0.032155 0.018498 -0.037095
v 0.017402 0.010011 -0.048468
v -0.000000 0.000000 -0.052462
v -0.017402 -0.010011 -0.048468
v -0.032155 -0.018498 -0.037095
v -0.042012 -0.024169 -0.020076
v -0.045473 -0.026160 0.000000
v -0.042012 -0.024169 0.020076
v -0.032155 -0.018498 0.037095
v -0.017402 -0.010011 0.048468
v -0.000000 0.000000 0.052462
v 0.017402 0.010011 0.048468
v 0.032155 0.018498 0.037095
v 0.042012 0.024169 0.020076
v 0.045474 0.026160 0.000000
v 0.036101 0.032576 -0.019690
v 0.026433 0.027014 -0.036383
v 0.011964 0.018690 -0.047537
v -0.005104 0.008871 -0.051453
v -0.022171 -0.000947 -0.047537
v -0.036640 -0.009271 -0.036383
v -0.046308 -0.014833 -0.019690
v -0.049703 -0.016786 0.000000
v -0.046308 -0.014833 0.019690
v -0.036640 -0.009271 0.036383
v -0.022171 -0.000947 0.047537
v -0.005104 0.008871 0.051453
v 0.011964 0.018690 0.047537
v 0.026433 0.027014 0.036383
v 0.036101 0.032576 0.019690
v 0.039496 0.034529 0.000000
v 0.028803 0.039731 -0.018548
v 0.019696 0.034492 -0.034272
v 0.006066 0.026651 -0.044778
v -0.010011 0.017402 -0.048468
v -0.026088 0.008153 -0.044778
v -0.039718 0.000312 -0.034272
v -0.048825 -0.004927 -0.018548
v -0.052023 -0.006767 0.000000
v -0.048825 -0.004927 0.018548
v -0.039718 0.000312 0.034272
v -0.026088 0.008153 0.044778
v -0.010011 0.017402 0.048468
v 0.006066 0.026651 0.044778
v 0.019696 0.034492 0.034272
v 0.028803 0.039731 0.018548
v 0.032001 0.041571 0.000000
v 0.020398 0.045359 -0.016693
v 0.012202 0.040644 -0.030844
v -0.000064 0.033587 -0.040300
v -0.014534 0.025264 -0.043620
v -0.029003 0.016940 -0.040300
v -0.041269 0.009883 -0.030844
v -0.049465 0.005168 -0.016693
v -0.052344 0.003513 0.000000
v -0.049465 0.005168 0.016693
v -0.041269 0.009883 0.030844
v -0.029003 0.016940 0.040300
v -0.014534 0.025264 0.043620
v -0.000065 0.033587 0.040300
v 0.012202 0.040644 0.030844
v 0.020398 0.045359 0.016693
v 0.023276 0.047015 0.000000
v 0.011209 0.049244 -0.014196
v 0.004239 0.045235 -0.026230
v -0.006193 0.039233 -0.034272
v -0.018498 0.032155 -0.037095
v -0.030803 0.025076 -0.034272
v -0.041235 0.019075 -0.026230
v -0.048205 0.015065 -0.014196
v -0.050653 0.013657 0.000000
v -0.048205 0.015065 0.014196
v -0.041235 0.019075 0.026231
v -0.030803 0.025076 0.034272
v -0.018498 0.032155 0.037095
v -0.006193 0.039233 0.034272
v 0.004239 0.045235 0.026231
v 0.011209 0.049244 0.014196
v 0.013657 0.050653 0.000000
v 0.001589 0.051237 -0.011154
v -0.003887 0.048087 -0.020609
v -0.012083 0.043372 -0.026927
v -0.021751 0.037810 -0.029146
v -0.031419 0.032248 -0.026927
v -0.039615 0.027533 -0.020609
v -0.045092 0.024382 -0.011154
v -0.047015 0.023276 0.000000
v -0.045092 0.024382 0.011154
v -0.039615 0.027533 0.020609
v -0.031419 0.032248 0.026927
v -0.021751 0.037810 0.029146
v -0.012083 0.043372 0.026927
v -0.003887 0.048087 0.020609
v 0.001589 0.051237 0.011154
v 0.003512 0.052343 0.000000
v -0.008091 0.051261 -0.007683
v -0.011864 0.049091 -0.014196
v -0.017509 0.045843 -0.018548
v -0.024169 0.042012 -0.020076
v -0.030828 0.038181 -0.018548
v -0.036474 0.034933 -0.014196
v -0.040246 0.032763 -0.007683
v -0.041571 0.032001 0.000000
v -0.040246 0.032763 0.007683
v -0.036474 0.034933 0.014196
v -0.030828 0.038181 0.018548
v -0.024169 0.042012 0.020076
v -0.017509 0.045843 0.018548
v -0.011864 0.049091 0.014196
v -0.008091 0.051261 0.007683
v -0.006767 0.052023 0.000000
v -0.017461 0.049315 -0.003917
v -0.019384 0.048208 -0.007237
v -0.022262 0.046553 -0.009456
v -0.025657 0.044600 -0.010235
v -0.029052 0.042647 -0.009456
v -0.031930 0.040991 -0.007237
v -0.033853 0.039885 -0.003917
v -0.034529 0.039496 0.000000
v -0.033853 0.039885 0.003917
v -0.031930 0.040991 0.007237
v -0.029052 0.042647 0.009456
v -0.025657 0.044600 0.010235
v -0.022262 0.046553 0.009456
v -0.019384 0.048208 0.007237
v -0.017461 0.049315 0.003917
v -0.016786 0.049703 0.000000
v 0.026160 -0.045473 0.000000
v -0.026160 0.045473 0.000000
vt 0.176120 0.520526
vt 0.176363 0.522414
vt 0.173414 0.524270
vt 0.173125 0.521399
vt 0.176781 0.524195
vt 0.173921 0.527054
vt 0.177393 0.525797
vt 0.174696 0.529686
vt 0.178214 0.527126
vt 0.175805 0.532104
vt 0.179258 0.528101
vt 0.177331 0.534117
vt 0.180488 0.528483
vt 0.179378 0.535522
vt 0.181819 0.528113
vt 0.182036 0.535956
vt 0.182114 0.509114
vt 0.180758 0.508756
vt 0.179905 0.501831
vt 0.182607 0.501454
vt 0.179483 0.509131
vt 0.177755 0.503166
vt 0.178393 0.510058
vt 0.176083 0.505101
vt 0.177507 0.511401
vt 0.175025 0.507431
vt 0.176808 0.512977
vt 0.174106 0.510016
vt 0.176401 0.514765
vt 0.173592 0.512758
vt 0.176142 0.516656
vt 0.173184 0.515587
vt 0.176044 0.518592
vt 0.172994 0.518485
vt 0.170464 0.525493
vt 0.170220 0.521972
vt 0.170936 0.528974
vt 0.171683 0.532384
vt 0.172791 0.535636
vt 0.174396 0.538649
vt 0.176712 0.541266
vt 0.180070 0.543182
vt 0.177558 0.496119
vt 0.181040 0.494365
vt 0.175061 0.498596
vt 0.173254 0.501495
vt 0.172063 0.504640
vt 0.171230 0.507961
vt 0.170591 0.511398
vt 0.170233 0.514898
vt 0.170187 0.518432
vt 0.167469 0.526351
vt 0.167275 0.522346
vt 0.167853 0.530343
vt 0.168476 0.534306
vt 0.169423 0.538220
vt 0.170838 0.542061
vt 0.172976 0.545793
vt 0.176261 0.549388
vt 0.174119 0.491474
vt 0.177701 0.488190
vt 0.171725 0.495063
vt 0.170045 0.498778
vt 0.168850 0.502614
vt 0.168146 0.506465
vt 0.167650 0.510392
vt 0.167396 0.514354
vt 0.167251 0.518343
vt 0.164429 0.526935
vt 0.164300 0.522591
vt 0.164696 0.531291
vt 0.165140 0.535660
vt 0.165830 0.540059
vt 0.166887 0.544526
vt 0.168494 0.549183
vt 0.171180 0.554142
vt 0.169977 0.487936
vt 0.173098 0.483349
vt 0.167934 0.492375
vt 0.166625 0.496715
vt 0.165580 0.501086
vt 0.165010 0.505342
vt 0.164626 0.509630
vt 0.164407 0.513935
vt 0.164294 0.518257
vt 0.161352 0.527303
vt 0.161298 0.522732
vt 0.161484 0.531901
vt 0.161718 0.536542
vt 0.162098 0.541263
vt 0.162668 0.546167
vt 0.163619 0.551407
vt 0.165257 0.557381
vt 0.165370 0.485371
vt 0.167596 0.479943
vt 0.163872 0.490512
vt 0.162916 0.495290
vt 0.162263 0.499961
vt 0.161822 0.504551
vt 0.161556 0.509094
vt 0.161400 0.513634
vt 0.161314 0.518177
vt 0.158250 0.527478
vt 0.158275 0.522780
vt 0.158238 0.532209
vt 0.158245 0.536999
vt 0.158285 0.541889
vt 0.158329 0.547015
vt 0.158520 0.552556
vt 0.158881 0.559067
vt 0.160357 0.483905
vt 0.161699 0.477646
vt 0.159611 0.489385
vt 0.159134 0.494439
vt 0.158837 0.499239
vt 0.158588 0.504074
vt 0.158455 0.508756
vt 0.158374 0.513434
vt 0.158314 0.518102
vt 0.155135 0.527470
vt 0.155240 0.522740
vt 0.154974 0.532233
vt 0.154750 0.537054
vt 0.154422 0.541981
vt 0.153976 0.547107
vt 0.153340 0.552671
vt 0.152362 0.559210
vt 0.155267 0.483409
vt 0.155412 0.476792
vt 0.155279 0.488976
vt 0.155297 0.494131
vt 0.155320 0.498951
vt 0.155343 0.503804
vt 0.155341 0.508599
vt 0.155339 0.513328
vt 0.155303 0.518026
vt 0.152018 0.527282
vt 0.152203 0.522610
vt 0.151711 0.531979
vt 0.151266 0.536716
vt 0.150611 0.541521
vt 0.149672 0.546477
vt 0.148295 0.551765
vt 0.146086 0.557863
vt 0.150198 0.483903
vt 0.149096 0.477399
vt 0.150931 0.489253
vt 0.151441 0.494243
vt 0.151831 0.499161
vt 0.152073 0.503879
vt 0.152220 0.508593
vt 0.152288 0.513270
vt 0.152289 0.517947
vt 0.148922 0.526902
vt 0.149179 0.522384
vt 0.148477 0.531433
vt 0.147813 0.535991
vt 0.146878 0.540521
vt 0.145500 0.545135
vt 0.143518 0.549861
vt 0.140309 0.555134
vt 0.145227 0.485242
vt 0.143008 0.479428
vt 0.146674 0.490281
vt 0.147666 0.495029
vt 0.148361 0.499690
vt 0.148822 0.504255
vt 0.149113 0.508805
vt 0.149262 0.513338
vt 0.149286 0.517866
vt 0.145859 0.526320
vt 0.146176 0.522055
vt 0.145287 0.530578
vt 0.144535 0.534741
vt 0.143305 0.538930
vt 0.141572 0.543050
vt 0.139060 0.547126
vt 0.135263 0.551153
vt 0.140549 0.487619
vt 0.137444 0.482893
vt 0.142590 0.492039
vt 0.143988 0.496347
vt 0.144957 0.500639
vt 0.145612 0.504917
vt 0.146030 0.509203
vt 0.146251 0.513491
vt 0.146300 0.517778
vt 0.142848 0.525510
vt 0.143201 0.521610
vt 0.142237 0.529354
vt 0.141305 0.533116
vt 0.139927 0.536767
vt 0.137971 0.540229
vt 0.135186 0.543405
vt 0.131247 0.546022
vt 0.136351 0.491055
vt 0.132768 0.487750
vt 0.138778 0.494586
vt 0.140468 0.498260
vt 0.141650 0.502044
vt 0.142458 0.505900
vt 0.142978 0.509805
vt 0.143261 0.513739
vt 0.143334 0.517680
vt 0.139889 0.524439
vt 0.140252 0.521028
vt 0.139273 0.527764
vt 0.138253 0.530958
vt 0.136820 0.533944
vt 0.134833 0.536598
vt 0.132111 0.538726
vt 0.128577 0.539925
vt 0.132883 0.495580
vt 0.129401 0.493860
vt 0.135386 0.498016
vt 0.137190 0.500870
vt 0.138480 0.503987
vt 0.139379 0.507270
vt 0.139965 0.510657
vt 0.140290 0.514104
vt 0.140383 0.517572
vt 0.136980 0.523019
vt 0.137314 0.520263
vt 0.136427 0.525670
vt 0.135430 0.528122
vt 0.134109 0.530296
vt 0.132365 0.532035
vt 0.130106 0.533102
vt 0.127563 0.533145
vt 0.130497 0.501225
vt 0.127807 0.500925
vt 0.132638 0.502491
vt 0.134285 0.504369
vt 0.135514 0.506642
vt 0.136396 0.509169
vt 0.136985 0.511856
vt 0.137321 0.514635
vt 0.137427 0.517453
vt 0.134051 0.521000
vt 0.134309 0.519196
vt 0.133600 0.522686
vt 0.132924 0.524185
vt 0.132031 0.525406
vt 0.130936 0.526232
vt 0.129695 0.526512
vt 0.128447 0.526091
vt 0.129660 0.508034
vt 0.128338 0.508463
vt 0.130916 0.508337
vt 0.132002 0.509190
vt 0.132879 0.510439
vt 0.133545 0.511960
vt 0.134010 0.513663
vt 0.134287 0.515474
vt 0.134386 0.517336
vt 0.179606 0.518567
vt 0.130792 0.517363
vn 0.683636 -0.723479 -0.096019
vn 0.636490 -0.750601 -0.177423
vn 0.707558 -0.643256 -0.292548
vn 0.785291 -0.598542 -0.158320
vn 0.565928 -0.791196 -0.231807
vn 0.591209 -0.710188 -0.382237
vn 0.482702 -0.839072 -0.250914
vn 0.453970 -0.789136 -0.413733
vn 0.399481 -0.886946 -0.231824
vn 0.316739 -0.868082 -0.382244
vn 0.328908 -0.927545 -0.177423
vn 0.200388 -0.935017 -0.292554
vn 0.281762 -0.954669 -0.096010
vn 0.122653 -0.979740 -0.158321
vn 0.265215 -0.964189 -0.000004
vn 0.095354 -0.995443 -0.000004
vn 0.281767 -0.954667 0.096013
vn 0.122653 -0.979739 0.158327
vn 0.328911 -0.927544 0.177428
vn 0.200387 -0.935015 0.292560
vn 0.399482 -0.886944 0.231828
vn 0.316737 -0.868084 0.382241
vn 0.482701 -0.839071 0.250919
vn 0.453970 -0.789139 0.413729
vn 0.565926 -0.791196 0.231811
vn 0.591209 -0.710190 0.382235
vn 0.636491 -0.750600 0.177424
vn 0.707558 -0.643255 0.292548
vn 0.683635 -0.723479 0.096024
vn 0.785290 -0.598542 0.158325
vn 0.700194 -0.713952 0.000000
vn 0.812589 -0.582837 0.000000
vn 0.760580 -0.505782 -0.407065
vn 0.868750 -0.443557 -0.220299
vn 0.598695 -0.598909 -0.531858
vn 0.407735 -0.708763 -0.575680
vn 0.216781 -0.818617 -0.531858
vn 0.054897 -0.911747 -0.407067
vn -0.053266 -0.973977 -0.220298
vn -0.091250 -0.995828 -0.000001
vn -0.053264 -0.973976 0.220302
vn 0.054902 -0.911750 0.407059
vn 0.216784 -0.818621 0.531851
vn 0.407735 -0.708766 0.575676
vn 0.598692 -0.598916 0.531852
vn 0.760581 -0.505789 0.407056
vn 0.868748 -0.443559 0.220301
vn 0.906733 -0.421705 0.000000
vn 0.787343 -0.347802 -0.509043
vn 0.922612 -0.269982 -0.275493
vn 0.584906 -0.464265 -0.665089
vn 0.346111 -0.601638 -0.719888
vn 0.107317 -0.739013 -0.665089
vn -0.095125 -0.855468 -0.509044
vn -0.230395 -0.933285 -0.275494
vn -0.277898 -0.960611 -0.000001
vn -0.230393 -0.933286 0.275494
vn -0.095119 -0.855471 0.509040
vn 0.107326 -0.739013 0.665087
vn 0.346114 -0.601643 0.719882
vn 0.584901 -0.464271 0.665089
vn 0.787343 -0.347806 0.509040
vn 0.922612 -0.269984 0.275494
vn 0.970113 -0.242654 0.000000
vn 0.785609 -0.176218 -0.593099
vn 0.943214 -0.085550 -0.320980
vn 0.549739 -0.311910 -0.774919
vn 0.271515 -0.471968 -0.838765
vn -0.006710 -0.632027 -0.774917
vn -0.242583 -0.767716 -0.593098
vn -0.400190 -0.858382 -0.320981
vn -0.455537 -0.890217 -0.000000
vn -0.400193 -0.858380 0.320983
vn -0.242588 -0.767711 0.593102
vn -0.006715 -0.632016 0.774926
vn 0.271509 -0.471958 0.838772
vn 0.549732 -0.311898 0.774929
vn 0.785607 -0.176209 0.593104
vn 0.943214 -0.085547 0.320982
vn 0.998557 -0.053710 -0.000000
vn 0.755091 0.002207 -0.655617
vn 0.929308 0.102431 -0.354816
vn 0.494359 -0.147788 -0.856603
vn 0.186802 -0.324717 -0.927181
vn -0.120754 -0.501648 -0.856602
vn -0.381487 -0.651639 -0.655618
vn -0.555705 -0.751862 -0.354818
vn -0.616878 -0.787058 -0.000001
vn -0.555702 -0.751863 0.354819
vn -0.381486 -0.651639 0.655619
vn -0.120754 -0.501643 0.856605
vn 0.186801 -0.324715 0.927182
vn 0.494356 -0.147784 0.856605
vn 0.755089 0.002210 0.655619
vn 0.929307 0.102431 0.354819
vn 0.990485 0.137624 -0.000000
vn 0.696817 0.180704 -0.694113
vn 0.881266 0.286810 -0.375648
vn 0.420779 0.021899 -0.906899
vn 0.095166 -0.165427 -0.981620
vn -0.230453 -0.352741 -0.906899
vn -0.506500 -0.511535 -0.694111
vn -0.690942 -0.617644 -0.375652
vn -0.755708 -0.654909 -0.000002
vn -0.690943 -0.617643 0.375652
vn -0.506496 -0.511531 0.694116
vn -0.230451 -0.352741 0.906899
vn 0.095169 -0.165432 0.981619
vn 0.420780 0.021897 0.906899
vn 0.696812 0.180702 0.694118
vn 0.881264 0.286809 0.375652
vn 0.946034 0.324067 -0.000000
vn 0.612920 0.352601 -0.707108
vn 0.800820 0.460697 -0.382682
vn 0.331715 0.190828 -0.923877
vn 0.000000 0.000000 -1.000000
vn -0.331717 -0.190829 -0.923877
vn -0.612922 -0.352602 -0.707106
vn -0.800819 -0.460698 -0.382685
vn -0.866800 -0.498656 -0.000001
vn -0.800819 -0.460695 0.382687
vn -0.612923 -0.352602 0.707105
vn -0.331715 -0.190829 0.923877
vn 0.000000 0.000000 1.000000
vn 0.331715 0.190828 0.923878
vn 0.612923 0.352600 0.707106
vn 0.800820 0.460695 0.382685
vn 0.866801 0.498654 -0.000000
vn 0.506494 0.511536 -0.694114
vn 0.690941 0.617649 -0.375647
vn 0.230452 0.352739 -0.906900
vn -0.095166 0.165427 -0.981620
vn -0.420779 -0.021900 -0.906899
vn -0.696816 -0.180707 -0.694112
vn -0.881263 -0.286814 -0.375650
vn -0.946033 -0.324072 0.000000
vn -0.881263 -0.286815 0.375651
vn -0.696812 -0.180706 0.694117
vn -0.420779 -0.021898 0.906899
vn -0.095169 0.165432 0.981619
vn 0.230450 0.352742 0.906899
vn 0.506490 0.511534 0.694119
vn 0.690941 0.617648 0.375649
vn 0.755709 0.654908 -0.000000
vn 0.381486 0.651640 -0.655617
vn 0.555703 0.751865 -0.354815
vn 0.120753 0.501647 -0.856603
vn -0.186803 0.324712 -0.927182
vn -0.494358 0.147784 -0.856604
vn -0.755089 -0.002211 -0.655619
vn -0.929307 -0.102430 -0.354818
vn -0.990485 -0.137623 -0.000000
vn -0.929308 -0.102429 0.354818
vn -0.755089 -0.002209 0.655619
vn -0.494355 0.147782 0.856606
vn -0.186801 0.324712 0.927183
vn 0.120753 0.501643 0.856606
vn 0.381484 0.651639 0.655619
vn 0.555702 0.751864 0.354818
vn 0.616879 0.787058 0.000000
vn 0.242585 0.767715 -0.593099
vn 0.400191 0.858382 -0.320980
vn 0.006713 0.632025 -0.774919
vn -0.271510 0.471969 -0.838766
vn -0.549741 0.311910 -0.774918
vn -0.785609 0.176217 -0.593099
vn -0.943213 0.085550 -0.320982
vn -0.998557 0.053709 0.000000
vn -0.943213 0.085549 0.320983
vn -0.785607 0.176212 0.593102
vn -0.549734 0.311901 0.774926
vn -0.271506 0.471957 0.838773
vn 0.006718 0.632011 0.774930
vn 0.242591 0.767709 0.593104
vn 0.400193 0.858380 0.320981
vn 0.455534 0.890219 0.000000
vn 0.095124 0.855468 -0.509044
vn 0.230397 0.933286 -0.275491
vn -0.107314 0.739012 -0.665090
vn -0.346108 0.601638 -0.719889
vn -0.584905 0.464264 -0.665090
vn -0.787343 0.347800 -0.509044
vn -0.922612 0.269982 -0.275494
vn -0.970113 0.242653 0.000000
vn -0.922611 0.269984 0.275495
vn -0.787343 0.347806 0.509040
vn -0.584902 0.464274 0.665086
vn -0.346111 0.601644 0.719883
vn -0.107323 0.739012 0.665089
vn 0.095121 0.855471 0.509040
vn 0.230395 0.933286 0.275491
vn 0.277896 0.960611 0.000000
vn -0.054904 0.911749 -0.407061
vn 0.053267 0.973978 -0.220296
vn -0.216779 0.818620 -0.531853
vn -0.407735 0.708765 -0.575677
vn -0.598696 0.598909 -0.531857
vn -0.760580 0.505782 -0.407066
vn -0.868747 0.443563 -0.220296
vn -0.906731 0.421710 0.000000
vn -0.868745 0.443564 0.220300
vn -0.760581 0.505788 0.407057
vn -0.598696 0.598914 0.531850
vn -0.407736 0.708767 0.575674
vn -0.216787 0.818621 0.531848
vn -0.054909 0.911752 0.407054
vn 0.053265 0.973977 0.220299
vn 0.091255 0.995828 0.000000
vn -0.200396 0.935017 -0.292550
vn -0.122662 0.979738 -0.158325
vn -0.316731 0.868088 -0.382235
vn -0.453971 0.789139 -0.413727
vn -0.591209 0.710188 -0.382236
vn -0.707557 0.643257 -0.292546
vn -0.785295 0.598537 -0.158319
vn -0.812591 0.582835 0.000000
vn -0.785294 0.598537 0.158325
vn -0.707558 0.643255 0.292548
vn -0.591213 0.710185 0.382237
vn -0.453971 0.789138 0.413728
vn -0.316731 0.868088 0.382236
vn -0.200396 0.935017 0.292550
vn -0.122663 0.979738 0.158329
vn -0.095363 0.995443 0.000000
vn -0.328904 0.927546 -0.177427
vn -0.281765 0.954666 -0.096026
vn -0.399460 0.886957 -0.231816
vn -0.482703 0.839073 -0.250907
vn -0.565934 0.791191 -0.231812
vn -0.636490 0.750602 -0.177419
vn -0.683638 0.723477 -0.096023
vn -0.700192 0.713955 0.000000
vn -0.683639 0.723475 0.096028
vn -0.636492 0.750600 0.177420
vn -0.565935 0.791189 0.231813
vn -0.482705 0.839071 0.250909
vn -0.399458 0.886957 0.231818
vn -0.328901 0.927547 0.177428
vn -0.281765 0.954666 0.096031
vn -0.265218 0.964188 0.000000
vn 0.498657 -0.866800 0.000001
vn -0.498654 0.866801 0.000001
s 1
g arm_down_left elbow_left pivot
usemtl head_plateSG
f 313/365/313 314/366/314 330/367/315 329/368/316
f 314/366/314 315/369/317 331/370/318 330/367/315
f 315/369/317 316/371/319 332/372/320 331/370/318
f 316/371/319 317/373/321 333/374/322 332/372/320
f 317/373/321 318/375/323 334/376/324 333/374/322
f 318/375/323 319/377/325 335/378/326 334/376/324
f 319/377/325 320/379/327 336/380/328 335/378/326
f 320/381/327 321/382/329 337/383/330 336/384/328
f 321/382/329 322/385/331 338/386/332 337/383/330
f 322/385/331 323/387/333 339/388/334 338/386/332
f 323/387/333 324/389/335 340/390/336 339/388/334
f 324/389/335 325/391/337 341/392/338 340/390/336
f 325/391/337 326/393/339 342/394/340 341/392/338
f 326/393/339 327/395/341 343/396/342 342/394/340
f 327/395/341 328/397/343 344/398/344 343/396/342
f 328/397/343 313/365/313 329/368/316 344/398/344
f 329/368/316 330/367/315 346/399/345 345/400/346
f 330/367/315 331/370/318 347/401/347 346/399/345
f 331/370/318 332/372/320 348/402/348 347/401/347
f 332/372/320 333/374/322 349/403/349 348/402/348
f 333/374/322 334/376/324 350/404/350 349/403/349
f 334/376/324 335/378/326 351/405/351 350/404/350
f 335/378/326 336/380/328 352/406/352 351/405/351
f 336/384/328 337/383/330 353/407/353 352/408/352
f 337/383/330 338/386/332 354/409/354 353/407/353
f 338/386/332 339/388/334 355/410/355 354/409/354
f 339/388/334 340/390/336 356/411/356 355/410/355
f 340/390/336 341/392/338 357/412/357 356/411/356
f 341/392/338 342/394/340 358/413/358 357/412/357
f 342/394/340 343/396/342 359/414/359 358/413/358
f 343/396/342 344/398/344 360/415/360 359/414/359
f 344/398/344 329/368/316 345/400/346 360/415/360
f 345/400/346 346/399/345 362/416/361 361/417/362
f 346/399/345 347/401/347 363/418/363 362/416/361
f 347/401/347 348/402/348 364/419/364 363/418/363
f 348/402/348 349/403/349 365/420/365 364/419/364
f 349/403/349 350/404/350 366/421/366 365/420/365
f 350/404/350 351/405/351 367/422/367 366/421/366
f 351/405/351 352/406/352 368/423/368 367/422/367
f 352/408/352 353/407/353 369/424/369 368/425/368
f 353/407/353 354/409/354 370/426/370 369/424/369
f 354/409/354 355/410/355 371/427/371 370/426/370
f 355/410/355 356/411/356 372/428/372 371/427/371
f 356/411/356 357/412/357 373/429/373 372/428/372
f 357/412/357 358/413/358 374/430/374 373/429/373
f 358/413/358 359/414/359 375/431/375 374/430/374
f 359/414/359 360/415/360 376/432/376 375/431/375
f 360/415/360 345/400/346 361/417/362 376/432/376
f 361/417/362 362/416/361 378/433/377 377/434/378
f 362/416/361 363/418/363 379/435/379 378/433/377
f 363/418/363 364/419/364 380/436/380 379/435/379
f 364/419/364 365/420/365 381/437/381 380/436/380
f 365/420/365 366/421/366 382/438/382 381/437/381
f 366/421/366 367/422/367 383/439/383 382/438/382
f 367/422/367 368/423/368 384/440/384 383/439/383
f 368/425/368 369/424/369 385/441/385 384/442/384
f 369/424/369 370/426/370 386/443/386 385/441/385
f 370/426/370 371/427/371 387/444/387 386/443/386
f 371/427/371 372/428/372 388/445/388 387/444/387
f 372/428/372 373/429/373 389/446/389 388/445/388
f 373/429/373 374/430/374 390/447/390 389/446/389
f 374/430/374 375/431/375 391/448/391 390/447/390
f 375/431/375 376/432/376 392/449/392 391/448/391
f 376/432/376 361/417/362 377/434/378 392/449/392
f 377/434/378 378/433/377 394/450/393 393/451/394
f 378/433/377 379/435/379 395/452/395 394/450/393
f 379/435/379 380/436/380 396/453/396 395/452/395
f 380/436/380 381/437/381 397/454/397 396/453/396
f 381/437/381 382/438/382 398/455/398 397/454/397
f 382/438/382 383/439/383 399/456/399 398/455/398
f 383/439/383 384/440/384 400/457/400 399/456/399
f 384/442/384 385/441/385 401/458/401 400/459/400
f 385/441/385 386/443/386 402/460/402 401/458/401
f 386/443/386 387/444/387 403/461/403 402/460/402
f 387/444/387 388/445/388 404/462/404 403/461/403
f 388/445/388 389/446/389 405/463/405 404/462/404
f 389/446/389 390/447/390 406/464/406 405/463/405
f 390/447/390 391/448/391 407/465/407 406/464/406
f 391/448/391 392/449/392 408/466/408 407/465/407
f 392/449/392 377/434/378 393/451/394 408/466/408
f 393/451/394 394/450/393 410/467/409 409/468/410
f 394/450/393 395/452/395 411/469/411 410/467/409
f 395/452/395 396/453/396 412/470/412 411/469/411
f 396/453/396 397/454/397 413/471/413 412/470/412
f 397/454/397 398/455/398 414/472/414 413/471/413
f 398/455/398 399/456/399 415/473/415 414/472/414
f 399/456/399 400/457/400 416/474/416 415/473/415
f 400/459/400 401/458/401 417/475/417 416/476/416
f 401/458/401 402/460/402 418/477/418 417/475/417
f 402/460/402 403/461/403 419/478/419 418/477/418
f 403/461/403 404/462/404 420/479/420 419/478/419
f 404/462/404 405/463/405 421/480/421 420/479/420
f 405/463/405 406/464/406 422/481/422 421/480/421
f 406/464/406 407/465/407 423/482/423 422/481/422
f 407/465/407 408/466/408 424/483/424 423/482/423
f 408/466/408 393/451/394 409/468/410 424/483/424
f 409/468/410 410/467/409 426/484/425 425/485/426
f 410/467/409 411/469/411 427/486/427 426/484/425
f 411/469/411 412/470/412 428/487/428 427/486/427
f 412/470/412 413/471/413 429/488/429 428/487/428
f 413/471/413 414/472/414 430/489/430 429/488/429
f 414/472/414 415/473/415 431/490/431 430/489/430
f 415/473/415 416/474/416 432/491/432 431/490/431
f 416/476/416 417/475/417 433/492/433 432/493/432
f 417/475/417 418/477/418 434/494/434 433/492/433
f 418/477/418 419/478/419 435/495/435 434/494/434
f 419/478/419 420/479/420 436/496/436 435/495/435
f 420/479/420 421/480/421 437/497/437 436/496/436
f 421/480/421 422/481/422 438/498/438 437/497/437
f 422/481/422 423/482/423 439/499/439 438/498/438
f 423/482/423 424/483/424 440/500/440 439/499/439
f 424/483/424 409/468/410 425/485/426 440/500/440
f 425/485/426 426/484/425 442/501/441 441/502/442
f 426/484/425 427/486/427 443/503/443 442/501/441
f 427/486/427 428/487/428 444/504/444 443/503/443
f 428/487/428 429/488/429 445/505/445 444/504/444
f 429/488/429 430/489/430 446/506/446 445/505/445
f 430/489/430 431/490/431 447/507/447 446/506/446
f 431/490/431 432/491/432 448/508/448 447/507/447
f 432/493/432 433/492/433 449/509/449 448/510/448
f 433/492/433 434/494/434 450/511/450 449/509/449
f 434/494/434 435/495/435 451/512/451 450/511/450
f 435/495/435 436/496/436 452/513/452 451/512/451
f 436/496/436 437/497/437 453/514/453 452/513/452
f 437/497/437 438/498/438 454/515/454 453/514/453
f 438/498/438 439/499/439 455/516/455 454/515/454
f 439/499/439 440/500/440 456/517/456 455/516/455
f 440/500/440 425/485/426 441/502/442 456/517/456
f 441/502/442 442/501/441 458/518/457 457/519/458
f 442/501/441 443/503/443 459/520/459 458/518/457
f 443/503/443 444/504/444 460/521/460 459/520/459
f 444/504/444 445/505/445 461/522/461 460/521/460
f 445/505/445 446/506/446 462/523/462 461/522/461
f 446/506/446 447/507/447 463/524/463 462/523/462
f 447/507/447 448/508/448 464/525/464 463/524/463
f 448/510/448 449/509/449 465/526/465 464/527/464
f 449/509/449 450/511/450 466/528/466 465/526/465
f 450/511/450 451/512/451 467/529/467 466/528/466
f 451/512/451 452/513/452 468/530/468 467/529/467
f 452/513/452 453/514/453 469/531/469 468/530/468
f 453/514/453 454/515/454 470/532/470 469/531/469
f 454/515/454 455/516/455 471/533/471 470/532/470
f 455/516/455 456/517/456 472/534/472 471/533/471
f 456/517/456 441/502/442 457/519/458 472/534/472
f 457/519/458 458/518/457 474/535/473 473/536/474
f 458/518/457 459/520/459 475/537/475 474/535/473
f 459/520/459 460/521/460 476/538/476 475/537/475
f 460/521/460 461/522/461 477/539/477 476/538/476
f 461/522/461 462/523/462 478/540/478 477/539/477
f 462/523/462 463/524/463 479/541/479 478/540/478
f 463/524/463 464/525/464 480/542/480 479/541/479
f 464/527/464 465/526/465 481/543/481 480/544/480
f 465/526/465 466/528/466 482/545/482 481/543/481
f 466/528/466 467/529/467 483/546/483 482/545/482
f 467/529/467 468/530/468 484/547/484 483/546/483
f 468/530/468 469/531/469 485/548/485 484/547/484
f 469/531/469 470/532/470 486/549/486 485/548/485
f 470/532/470 471/533/471 487/550/487 486/549/486
f 471/533/471 472/534/472 488/551/488 487/550/487
f 472/534/472 457/519/458 473/536/474 488/551/488
f 473/536/474 474/535/473 490/552/489 489/553/490
f 474/535/473 475/537/475 491/554/491 490/552/489
f 475/537/475 476/538/476 492/555/492 491/554/491
f 476/538/476 477/539/477 493/556/493 492/555/492
f 477/539/477 478/540/478 494/557/494 493/556/493
f 478/540/478 479/541/479 495/558/495 494/557/494
f 479/541/479 480/542/480 496/559/496 495/558/495
f 480/544/480 481/543/481 497/560/497 496/561/496
f 481/543/481 482/545/482 498/562/498 497/560/497
f 482/545/482 483/546/483 499/563/499 498/562/498
f 483/546/483 484/547/484 500/564/500 499/563/499
f 484/547/484 485/548/485 501/565/501 500/564/500
f 485/548/485 486/549/486 502/566/502 501/565/501
f 486/549/486 487/550/487 503/567/503 502/566/502
f 487/550/487 488/551/488 504/568/504 503/567/503
f 488/551/488 473/536/474 489/553/490 504/568/504
f 489/553/490 490/552/489 506/569/505 505/570/506
f 490/552/489 491/554/491 507/571/507 506/569/505
f 491/554/491 492/555/492 508/572/508 507/571/507
f 492/555/492 493/556/493 509/573/509 508/572/508
f 493/556/493 494/557/494 510/574/510 509/573/509
f 494/557/494 495/558/495 511/575/511 510/574/510
f 495/558/495 496/559/496 512/576/512 511/575/511
f 496/561/496 497/560/497 513/577/513 512/578/512
f 497/560/497 498/562/498 514/579/514 513/577/513
f 498/562/498 499/563/499 515/580/515 514/579/514
f 499/563/499 500/564/500 516/581/516 515/580/515
f 500/564/500 501/565/501 517/582/517 516/581/516
f 501/565/501 502/566/502 518/583/518 517/582/517
f 502/566/502 503/567/503 519/584/519 518/583/518
f 503/567/503 504/568/504 520/585/520 519/584/519
f 504/568/504 489/553/490 505/570/506 520/585/520
f 505/570/506 506/569/505 522/586/521 521/587/522
f 506/569/505 507/571/507 523/588/523 522/586/521
f 507/571/507 508/572/508 524/589/524 523/588/523
f 508/572/508 509/573/509 525/590/525 524/589/524
f 509/573/509 510/574/510 526/591/526 525/590/525
f 510/574/510 511/575/511 527/592/527 526/591/526
f 511/575/511 512/576/512 528/593/528 527/592/527
f 512/578/512 513/577/513 529/594/529 528/595/528
f 513/577/513 514/579/514 530/596/530 529/594/529
f 514/579/514 515/580/515 531/597/531 530/596/530
f 515/580/515 516/581/516 532/598/532 531/597/531
f 516/581/516 517/582/517 533/599/533 532/598/532
f 517/582/517 518/583/518 534/600/534 533/599/533
f 518/583/518 519/584/519 535/601/535 534/600/534
f 519/584/519 520/585/520 536/602/536 535/601/535
f 520/585/520 505/570/506 521/587/522 536/602/536
f 521/587/522 522/586/521 538/603/537 537/604/538
f 522/586/521 523/588/523 539/605/539 538/603/537
f 523/588/523 524/589/524 540/606/540 539/605/539
f 524/589/524 525/590/525 541/607/541 540/606/540
f 525/590/525 526/591/526 542/608/542 541/607/541
f 526/591/526 527/592/527 543/609/543 542/608/542
f 527/592/527 528/593/528 544/610/544 543/609/543
f 528/595/528 529/594/529 545/611/545 544/612/544
f 529/594/529 530/596/530 546/613/546 545/611/545
f 530/596/530 531/597/531 547/614/547 546/613/546
f 531/597/531 532/598/532 548/615/548 547/614/547
f 532/598/532 533/599/533 549/616/549 548/615/548
f 533/599/533 534/600/534 550/617/550 549/616/549
f 534/600/534 535/601/535 551/618/551 550/617/550
f 535/601/535 536/602/536 552/619/552 551/618/551
f 536/602/536 521/587/522 537/604/538 552/619/552
f 314/366/314 313/365/313 553/620/553
f 315/369/317 314/366/314 553/620/553
f 316/371/319 315/369/317 553/620/553
f 317/373/321 316/371/319 553/620/553
f 318/375/323 317/373/321 553/620/553
f 319/377/325 318/375/323 553/620/553
f 320/379/327 319/377/325 553/620/553
f 321/382/329 320/381/327 553/620/553
f 322/385/331 321/382/329 553/620/553
f 323/387/333 322/385/331 553/620/553
f 324/389/335 323/387/333 553/620/553
f 325/391/337 324/389/335 553/620/553
f 326/393/339 325/391/337 553/620/553
f 327/395/341 326/393/339 553/620/553
f 328/397/343 327/395/341 553/620/553
f 313/365/313 328/397/343 553/620/553
f 537/604/538 538/603/537 554/621/554
f 538/603/537 539/605/539 554/621/554
f 539/605/539 540/606/540 554/621/554
f 540/606/540 541/607/541 554/621/554
f 541/607/541 542/608/542 554/621/554
f 542/608/542 543/609/543 554/621/554
f 543/609/543 544/610/544 554/621/554
f 544/612/544 545/611/545 554/621/554
f 545/611/545 546/613/546 554/621/554
f 546/613/546 547/614/547 554/621/554
f 547/614/547 548/615/548 554/621/554
f 548/615/548 549/616/549 554/621/554
f 549/616/549 550/617/550 554/621/554
f 550/617/550 551/618/551 554/621/554
f 551/618/551 552/619/552 554/621/554
f 552/619/552 537/604/538 554/621/554
