# This file uses centimeters as units for non-parametric coordinates.

mtllib bot.mtl
g default
v -0.159227 -0.287315 0.080961
v -0.116476 -0.279624 0.093660
v -0.073988 -0.267845 0.080961
v -0.042554 -0.258884 0.045164
v -0.031370 -0.255456 -0.001721
v -0.042921 -0.258639 -0.048519
v -0.073988 -0.267845 -0.083213
v -0.116476 -0.279624 -0.095912
v -0.159227 -0.287315 -0.083213
v -0.187580 -0.289254 -0.048519
v -0.202471 -0.287341 -0.001126
v -0.187580 -0.289254 0.046267
v -0.137367 -0.176648 0.080832
v -0.095009 -0.182411 0.093059
v -0.052005 -0.186663 0.080029
v -0.021586 -0.190429 0.044837
v -0.010901 -0.191875 -0.001506
v -0.021630 -0.190640 -0.047752
v -0.052005 -0.186663 -0.082281
v -0.095009 -0.182411 -0.095311
v -0.137367 -0.176648 -0.083084
v -0.166358 -0.170790 -0.048614
v -0.179655 -0.166258 -0.001126
v -0.166358 -0.170790 0.046362
v -0.151668 -0.231937 0.082166
v -0.108185 -0.231322 0.094819
v -0.064942 -0.227696 0.081748
v -0.033309 -0.225369 0.045701
v -0.022057 -0.224458 -0.001657
v -0.033393 -0.225251 -0.048895
v -0.064942 -0.227696 -0.084000
v -0.108185 -0.231322 -0.097071
v -0.151668 -0.231937 -0.084418
v -0.181009 -0.229848 -0.049294
v -0.195299 -0.226354 -0.001126
v -0.181009 -0.229848 0.047042
v -0.077759 -0.135076 0.087459
v -0.036999 -0.146544 0.075166
v -0.009673 -0.155640 0.042219
v -0.000287 -0.159144 -0.001336
v -0.009918 -0.156121 -0.044845
v -0.036999 -0.146544 -0.077418
v -0.077759 -0.135076 -0.089711
v -0.116391 -0.123775 -0.078282
v -0.143240 -0.114641 -0.045883
v -0.154974 -0.109361 -0.001126
v -0.143240 -0.114641 0.043631
v -0.116391 -0.123775 0.076030
v -0.037134 -0.053363 0.065456
v -0.006982 -0.071193 0.056536
v 0.010641 -0.085279 0.031790
v 0.016132 -0.091171 -0.001304
v 0.009513 -0.086592 -0.034417
v -0.006982 -0.071193 -0.058788
v -0.037134 -0.053363 -0.067708
v -0.063046 -0.038074 -0.058788
v -0.081656 -0.026677 -0.034417
v -0.089729 -0.022375 -0.001126
v -0.081656 -0.026677 0.032165
v -0.063046 -0.038074 0.056536
v -0.022868 -0.034467 0.056612
v 0.002799 -0.049451 0.048876
v 0.019221 -0.060824 0.027422
v 0.024688 -0.065287 -0.001310
v 0.018852 -0.061572 -0.029995
v 0.002799 -0.049451 -0.051128
v -0.022868 -0.034467 -0.058864
v -0.046456 -0.020729 -0.051128
v -0.063547 -0.010571 -0.029995
v -0.070421 -0.006790 -0.001126
v -0.063547 -0.010571 0.027743
v -0.046456 -0.020729 0.048876
v -0.058324 -0.091431 0.078054
v -0.021925 -0.107934 0.067166
v 0.000695 -0.120462 0.037767
v 0.008142 -0.125443 -0.001208
v -0.000055 -0.121313 -0.040215
v -0.021925 -0.107934 -0.069418
v -0.058324 -0.091431 -0.080306
v -0.091035 -0.076868 -0.070061
v -0.114229 -0.065791 -0.041111
v -0.124200 -0.060640 -0.001126
v -0.114229 -0.065791 0.038859
v -0.091035 -0.076868 0.067809
v -0.021668 -0.032297 0.063218
v 0.006908 -0.049363 0.054611
v 0.025336 -0.062380 0.030580
v 0.031399 -0.067466 -0.001328
v 0.024938 -0.063186 -0.033179
v 0.006894 -0.049390 -0.056874
v -0.021668 -0.032297 -0.065470
v -0.048069 -0.016751 -0.056728
v -0.067226 -0.005475 -0.033202
v -0.074858 -0.001303 -0.001126
v -0.067226 -0.005476 0.030950
v -0.048069 -0.016751 0.054476
v -0.165538 -0.287024 0.090427
v -0.116441 -0.280049 0.105029
v -0.157976 -0.230700 0.091798
v -0.108184 -0.231298 0.106399
v -0.067805 -0.269230 0.090429
v -0.058782 -0.229312 0.091419
v -0.032535 -0.261130 0.050225
v -0.023392 -0.228431 0.050836
v -0.020206 -0.258056 -0.001759
v -0.011058 -0.228076 -0.001675
v -0.032951 -0.260901 -0.053662
v -0.023517 -0.228322 -0.054102
v -0.067844 -0.269230 -0.092713
v -0.058829 -0.229304 -0.093702
v -0.116442 -0.280049 -0.107281
v -0.108185 -0.231298 -0.108651
v -0.165538 -0.287024 -0.092679
v -0.157976 -0.230700 -0.094050
v -0.197674 -0.288582 -0.053958
v -0.191041 -0.227991 -0.054772
v -0.213818 -0.286537 -0.001126
v -0.206684 -0.224236 -0.001126
v -0.197674 -0.288582 0.051706
v -0.191041 -0.227991 0.052520
v -0.143297 -0.174139 0.090500
v -0.094850 -0.181546 0.104642
v -0.121684 -0.120080 0.085643
v -0.077300 -0.133416 0.098910
v -0.045828 -0.187828 0.089793
v -0.030773 -0.147276 0.084902
v -0.011614 -0.193238 0.050069
v 0.000326 -0.158193 0.047471
v 0.000207 -0.195235 -0.001513
v 0.010874 -0.162227 -0.001355
v -0.011675 -0.193420 -0.053033
v 0.000084 -0.158606 -0.050123
v -0.045864 -0.187802 -0.092071
v -0.030780 -0.147240 -0.087161
v -0.094850 -0.181546 -0.106894
v -0.077300 -0.133416 -0.101162
v -0.143297 -0.174139 -0.092752
v -0.121684 -0.120080 -0.087895
v -0.175984 -0.167369 -0.054105
v -0.152192 -0.109745 -0.051358
v -0.190634 -0.162462 -0.001126
v -0.165229 -0.103983 -0.001126
v -0.175984 -0.167369 0.051853
v -0.152192 -0.109745 0.049106
v -0.057365 -0.088907 0.089315
v -0.015424 -0.108137 0.076746
v 0.010849 -0.122665 0.042878
v 0.019385 -0.128212 -0.001270
v 0.010099 -0.123473 -0.045346
v -0.015389 -0.108129 -0.078974
v -0.057365 -0.088907 -0.091567
v -0.095469 -0.071952 -0.079562
v -0.122224 -0.059401 -0.046527
v -0.133459 -0.053687 -0.001126
v -0.122224 -0.059401 0.044275
v -0.095469 -0.071952 0.077310
v -0.035700 -0.050250 0.076352
v -0.000390 -0.071123 0.065823
v 0.020717 -0.087476 0.036762
v 0.027228 -0.094081 -0.001396
v 0.019580 -0.088800 -0.039433
v -0.000357 -0.071154 -0.068044
v -0.035700 -0.050250 -0.078604
v -0.066552 -0.032308 -0.067994
v -0.088592 -0.019233 -0.039690
v -0.097861 -0.014360 -0.001126
v -0.088592 -0.019233 0.037438
v -0.066552 -0.032308 0.065742
v -0.191185 -0.360992 -0.049167
v -0.192378 -0.359722 -0.049835
v -0.163692 -0.355341 -0.085399
v -0.162947 -0.356609 -0.084185
v -0.118592 -0.343091 -0.098712
v -0.118662 -0.344385 -0.097315
v -0.073694 -0.325615 -0.085457
v -0.074541 -0.326886 -0.084219
v -0.041146 -0.312075 -0.049679
v -0.042482 -0.313296 -0.048997
v -0.029117 -0.307311 -0.001734
v -0.030603 -0.308524 -0.001728
v -0.040744 -0.312353 0.046301
v -0.042083 -0.313572 0.045632
v -0.073674 -0.325616 0.083182
v -0.074529 -0.326885 0.081944
v -0.118592 -0.343091 0.096460
v -0.118664 -0.344377 0.094944
v -0.163692 -0.355341 0.083147
v -0.162947 -0.356609 0.081933
v -0.192378 -0.359722 0.047583
v -0.191185 -0.360992 0.046915
v -0.207978 -0.357744 -0.001126
v -0.206559 -0.359038 -0.001126
v -0.008186 -0.014601 0.053219
v -0.008700 -0.015175 0.054977
v 0.015636 -0.029560 0.047466
v 0.015357 -0.028434 0.045942
v 0.032964 -0.039996 0.026571
v 0.032209 -0.038463 0.025724
v 0.039027 -0.043757 -0.001305
v 0.038139 -0.042077 -0.001306
v 0.033255 -0.040247 -0.029105
v 0.032520 -0.038702 -0.028250
v 0.015610 -0.029571 -0.049744
v 0.015338 -0.028445 -0.048224
v -0.008700 -0.015175 -0.057229
v -0.008186 -0.014601 -0.055472
v -0.032884 -0.001104 -0.049626
v -0.031701 -0.000960 -0.048127
v -0.050656 0.009018 -0.029129
v -0.048957 0.008896 -0.028258
v -0.057175 0.012713 -0.001126
v -0.055276 0.012479 -0.001126
v -0.050656 0.009018 0.026877
v -0.048957 0.008896 0.026006
v -0.032884 -0.001104 0.047374
v -0.031701 -0.000960 0.045875
v -0.186273 -0.359607 -0.046539
v -0.187361 -0.360884 -0.047103
v -0.159981 -0.355131 -0.079787
v -0.160726 -0.356449 -0.080827
v -0.118712 -0.342706 -0.091965
v -0.118466 -0.344037 -0.093173
v -0.077445 -0.325152 -0.079799
v -0.076816 -0.326548 -0.080788
v -0.047235 -0.311580 -0.046550
v -0.046215 -0.312923 -0.047079
v -0.035972 -0.306813 -0.001705
v -0.034839 -0.308143 -0.001710
v -0.046860 -0.311856 0.043224
v -0.045835 -0.313200 0.043745
v -0.077445 -0.325157 0.077547
v -0.076811 -0.326549 0.078534
v -0.118712 -0.342715 0.089713
v -0.118475 -0.344017 0.090914
v -0.159981 -0.355131 0.077535
v -0.160726 -0.356449 0.078575
v -0.186273 -0.359607 0.044287
v -0.187361 -0.360884 0.044851
v -0.201253 -0.357697 -0.001126
v -0.202516 -0.358947 -0.001126
v -0.047006 0.004139 -0.025956
v -0.046757 0.005838 -0.026311
v -0.031288 -0.004871 -0.044126
v -0.030761 -0.003323 -0.044757
v -0.009826 -0.017190 -0.050778
v -0.008914 -0.015887 -0.051529
v 0.011734 -0.029590 -0.044131
v 0.012944 -0.028500 -0.044796
v 0.027424 -0.038606 -0.025936
v 0.028927 -0.037763 -0.026319
v 0.032516 -0.041541 -0.001316
v 0.034095 -0.040767 -0.001314
v 0.027090 -0.038416 0.023421
v 0.028578 -0.037550 0.023795
v 0.011735 -0.029586 0.041878
v 0.012950 -0.028497 0.042538
v -0.009826 -0.017190 0.048526
v -0.008914 -0.015887 0.049277
v -0.031288 -0.004871 0.041874
v -0.030761 -0.003323 0.042505
v -0.047005 0.004140 0.023704
v -0.046757 0.005837 0.024058
v -0.052782 0.007449 -0.001126
v -0.052619 0.009194 -0.001126
v -0.163883 -0.287189 -0.090165
v -0.163172 -0.288522 -0.089001
v -0.194899 -0.288889 -0.052454
v -0.193768 -0.290252 -0.051819
v -0.116463 -0.279958 -0.104274
v -0.116517 -0.281239 -0.102873
v -0.069424 -0.268809 -0.090304
v -0.070286 -0.269999 -0.089028
v -0.035455 -0.260195 -0.052388
v -0.036874 -0.261288 -0.051670
v -0.022981 -0.257243 -0.001752
v -0.024583 -0.258305 -0.001747
v -0.035054 -0.260428 0.048967
v -0.036476 -0.261521 0.048262
v -0.069391 -0.268811 0.088034
v -0.070261 -0.270000 0.086760
v -0.116463 -0.279960 0.102103
v -0.116517 -0.281239 0.100621
v -0.163883 -0.287189 0.087913
v -0.163172 -0.288522 0.086749
v -0.194899 -0.288889 0.050202
v -0.193768 -0.290252 0.049567
v -0.210817 -0.286873 -0.001126
v -0.209492 -0.288266 -0.001126
v -0.035469 -0.050387 0.071703
v -0.036051 -0.051015 0.073436
v -0.002379 -0.069988 0.061884
v -0.002103 -0.071130 0.063405
v 0.017281 -0.085410 0.034640
v 0.018081 -0.086943 0.035475
v 0.023372 -0.091726 -0.001358
v 0.024324 -0.093392 -0.001372
v 0.016171 -0.086723 -0.037292
v 0.016948 -0.088273 -0.038139
v -0.002365 -0.070017 -0.064125
v -0.002076 -0.071157 -0.065646
v -0.035469 -0.050387 -0.073955
v -0.036051 -0.051015 -0.075688
v -0.064266 -0.033521 -0.064063
v -0.065532 -0.033768 -0.065498
v -0.084867 -0.021137 -0.037425
v -0.086595 -0.021165 -0.038235
v -0.093640 -0.016495 -0.001126
v -0.095564 -0.016422 -0.001126
v -0.084867 -0.021136 0.035173
v -0.086595 -0.021164 0.035984
v -0.064266 -0.033521 0.061811
v -0.065532 -0.033768 0.063246
vt 0.138260 0.131898
vt 0.124908 0.137249
vt 0.124453 0.122765
vt 0.137894 0.118560
vt 0.151286 0.125113
vt 0.150998 0.113040
vt 0.165357 0.119296
vt 0.165100 0.108081
vt 0.012125 0.124493
vt 0.179996 0.105895
vt 0.026872 0.124768
vt 0.026163 0.113525
vt 0.041064 0.129524
vt 0.040379 0.117429
vt 0.054614 0.135267
vt 0.053867 0.121918
vt 0.068368 0.139530
vt 0.067607 0.125040
vt 0.081949 0.141676
vt 0.081320 0.126320
vt 0.096757 0.141359
vt 0.096111 0.125841
vt 0.111546 0.140481
vt 0.110893 0.125140
vt 0.136730 0.104918
vt 0.123503 0.108234
vt 0.121872 0.093915
vt 0.134554 0.091474
vt 0.149904 0.100321
vt 0.147658 0.087800
vt 0.163541 0.095756
vt 0.160632 0.083609
vt 0.012160 0.098533
vt 0.173644 0.078728
vt 0.026666 0.101142
vt 0.028573 0.088829
vt 0.040478 0.104611
vt 0.041772 0.091909
vt 0.053948 0.108196
vt 0.055096 0.094599
vt 0.067391 0.110464
vt 0.067919 0.096047
vt 0.080934 0.111170
vt 0.080949 0.096257
vt 0.095499 0.110637
vt 0.094923 0.095704
vt 0.110060 0.110013
vt 0.108895 0.095149
vt 0.131285 0.078664
vt 0.144031 0.075810
vt 0.156075 0.070807
vt 0.166376 0.064700
vt 0.032193 0.075829
vt 0.044510 0.079664
vt 0.057416 0.081562
vt 0.069261 0.082332
vt 0.081364 0.082052
vt 0.094403 0.081737
vt 0.107424 0.081018
vt 0.119519 0.080352
vt 0.127507 0.066797
vt 0.139397 0.064452
vt 0.149682 0.061115
vt 0.158577 0.054898
vt 0.037692 0.065772
vt 0.048284 0.067970
vt 0.060330 0.069434
vt 0.070980 0.069569
vt 0.082206 0.069143
vt 0.093930 0.068737
vt 0.105656 0.068193
vt 0.116879 0.067771
vt 0.305581 0.053653
vt 0.304190 0.068024
vt 0.291653 0.063399
vt 0.292536 0.047575
vt 0.317741 0.062022
vt 0.316049 0.074624
vt 0.330803 0.070270
vt 0.328833 0.081337
vt 0.344466 0.075956
vt 0.187675 0.092156
vt 0.198176 0.075057
vt 0.200858 0.085967
vt 0.210272 0.065943
vt 0.212881 0.078388
vt 0.221788 0.056709
vt 0.224222 0.070944
vt 0.234353 0.049697
vt 0.236385 0.065417
vt 0.247903 0.045829
vt 0.249378 0.062373
vt 0.263299 0.044663
vt 0.263911 0.061520
vt 0.278739 0.044705
vt 0.278469 0.061310
vt 0.302600 0.082731
vt 0.300659 0.097362
vt 0.289441 0.095216
vt 0.290658 0.079341
vt 0.314337 0.087804
vt 0.312301 0.100909
vt 0.326588 0.093138
vt 0.324001 0.104874
vt 0.339725 0.098022
vt 0.195454 0.114516
vt 0.203779 0.097508
vt 0.207187 0.108902
vt 0.215561 0.091410
vt 0.218523 0.104362
vt 0.226880 0.085502
vt 0.229866 0.099971
vt 0.238534 0.081251
vt 0.240893 0.097004
vt 0.250887 0.078948
vt 0.252488 0.095470
vt 0.264519 0.078272
vt 0.265123 0.094962
vt 0.278166 0.077949
vt 0.277763 0.094540
vt 0.309649 0.113614
vt 0.298273 0.111411
vt 0.320782 0.117242
vt 0.201010 0.126180
vt 0.211381 0.119949
vt 0.222001 0.116896
vt 0.233239 0.113823
vt 0.243442 0.111943
vt 0.254144 0.111168
vt 0.265695 0.110652
vt 0.277251 0.110316
vt 0.287975 0.110297
vt 0.306711 0.126015
vt 0.304829 0.133260
vt 0.295263 0.132011
vt 0.295923 0.124605
vt 0.316568 0.127706
vt 0.313599 0.135319
vt 0.326108 0.131292
vt 0.211955 0.142726
vt 0.216109 0.130974
vt 0.219699 0.138565
vt 0.225920 0.128985
vt 0.228349 0.136083
vt 0.236576 0.126784
vt 0.237815 0.134095
vt 0.245892 0.125842
vt 0.246925 0.133085
vt 0.255783 0.125528
vt 0.256516 0.132470
vt 0.266218 0.124822
vt 0.266487 0.132028
vt 0.276677 0.124761
vt 0.276463 0.131739
vt 0.286563 0.124348
vt 0.286073 0.131649
vt 0.082608 0.162080
vt 0.082609 0.161565
vt 0.097632 0.161272
vt 0.097655 0.161787
vt 0.069480 0.159419
vt 0.069474 0.158896
vt 0.056176 0.154604
vt 0.056124 0.154057
vt 0.042810 0.148138
vt 0.042731 0.147560
vt 0.029244 0.142907
vt 0.029128 0.142342
vt 0.015819 0.143026
vt 0.178023 0.135990
vt 0.164460 0.137499
vt 0.164529 0.136928
vt 0.151120 0.143761
vt 0.151149 0.143180
vt 0.138360 0.151273
vt 0.138359 0.150703
vt 0.125520 0.157127
vt 0.125479 0.156606
vt 0.112681 0.160853
vt 0.112634 0.160339
vt 0.123280 0.052938
vt 0.123448 0.053425
vt 0.113912 0.054373
vt 0.113798 0.053874
vt 0.131785 0.051143
vt 0.132077 0.051591
vt 0.138794 0.047785
vt 0.139198 0.048159
vt 0.143681 0.042278
vt 0.042331 0.046490
vt 0.047887 0.051356
vt 0.047511 0.051758
vt 0.055059 0.054179
vt 0.054796 0.054647
vt 0.063596 0.055324
vt 0.063462 0.055821
vt 0.073076 0.055522
vt 0.072999 0.056028
vt 0.083121 0.055258
vt 0.083090 0.055772
vt 0.093425 0.054805
vt 0.093446 0.055311
vt 0.103735 0.054454
vt 0.103805 0.054961
vt 0.135373 0.057187
vt 0.125355 0.059327
vt 0.143980 0.053565
vt 0.036181 0.051872
vt 0.042980 0.057655
vt 0.051846 0.060455
vt 0.061958 0.061831
vt 0.072058 0.062101
vt 0.082662 0.061748
vt 0.093663 0.061361
vt 0.104669 0.060910
vt 0.115296 0.060342
vt 0.245814 0.025816
vt 0.082571 0.163242
vt 0.097703 0.162864
vt 0.262556 0.024257
vt 0.231476 0.029998
vt 0.069324 0.160459
vt 0.217865 0.038057
vt 0.055920 0.155641
vt 0.205431 0.048889
vt 0.042698 0.149256
vt 0.193083 0.059228
vt 0.029340 0.144107
vt 0.180242 0.066097
vt 0.177423 0.137771
vt 0.334738 0.054112
vt 0.164460 0.138705
vt 0.321333 0.044670
vt 0.151326 0.144862
vt 0.308137 0.034766
vt 0.138701 0.152257
vt 0.293973 0.027720
vt 0.125770 0.158149
vt 0.279367 0.024593
vt 0.112823 0.162006
vt 0.257192 0.139063
vt 0.083196 0.054119
vt 0.073291 0.054398
vt 0.247850 0.139733
vt 0.266738 0.138774
vt 0.093384 0.053660
vt 0.063988 0.054247
vt 0.238894 0.140790
vt 0.055679 0.053166
vt 0.230512 0.142561
vt 0.048755 0.050501
vt 0.222939 0.145346
vt 0.043994 0.045648
vt 0.317864 0.145375
vt 0.137869 0.046986
vt 0.310902 0.142094
vt 0.131102 0.050182
vt 0.303168 0.139880
vt 0.122813 0.051892
vt 0.294669 0.138743
vt 0.113500 0.052772
vt 0.285650 0.138348
vt 0.103576 0.053322
vt 0.276281 0.138364
vt 0.068279 0.140237
vt 0.068270 0.140715
vt 0.054468 0.136500
vt 0.054472 0.136000
vt 0.081947 0.142456
vt 0.081951 0.142933
vt 0.096788 0.142080
vt 0.096808 0.142549
vt 0.040925 0.130858
vt 0.040926 0.130304
vt 0.026879 0.126309
vt 0.026844 0.125690
vt 0.012544 0.126260
vt 0.179884 0.118948
vt 0.165471 0.120828
vt 0.165457 0.120211
vt 0.151529 0.126429
vt 0.151483 0.125878
vt 0.138498 0.133103
vt 0.138447 0.132591
vt 0.125105 0.138428
vt 0.125055 0.137953
vt 0.111649 0.141732
vt 0.111612 0.141257
vt 0.127118 0.065570
vt 0.127251 0.066053
vt 0.116724 0.067034
vt 0.116628 0.066566
vt 0.138756 0.063214
vt 0.139009 0.063701
vt 0.148751 0.059792
vt 0.149119 0.060298
vt 0.157136 0.053656
vt 0.029799 0.059078
vt 0.038574 0.064381
vt 0.038226 0.064914
vt 0.048831 0.066705
vt 0.048610 0.067207
vt 0.060630 0.068175
vt 0.060533 0.068666
vt 0.071140 0.068342
vt 0.071079 0.068818
vt 0.082257 0.067890
vt 0.082234 0.068363
vt 0.093886 0.067523
vt 0.093903 0.067987
vt 0.105517 0.066943
vt 0.105573 0.067415
vt 0.093366 0.053170
vt 0.103512 0.052836
vt 0.113358 0.052297
vt 0.122568 0.051444
vt 0.130787 0.049781
vt 0.137469 0.046668
vt 0.142020 0.041562
vt 0.049135 0.050156
vt 0.055964 0.052742
vt 0.064200 0.053782
vt 0.073396 0.053913
vt 0.083224 0.053628
vt 0.112901 0.162481
vt 0.097725 0.163354
vt 0.125979 0.158576
vt 0.138878 0.152689
vt 0.151538 0.145281
vt 0.164525 0.139186
vt 0.016466 0.144698
vt 0.029312 0.144591
vt 0.042518 0.149690
vt 0.055779 0.156094
vt 0.069155 0.160903
vt 0.082535 0.163722
vt 0.015582 0.142479
vt 0.179769 0.119655
vt 0.157695 0.054121
vt 0.029000 0.059914
vt 0.180041 0.117871
vt 0.012371 0.125560
vt 0.150809 0.047435
vt 0.030296 0.058564
vt 0.142480 0.041789
vt 0.042843 0.046209
vt 0.016328 0.144213
vt 0.177831 0.136553
vt 0.321778 0.138782
vt 0.044438 0.045393
vt 0.216282 0.149054
vt 0.184938 0.081665
vt 0.177327 0.138266
vt 0.348018 0.060097
vt 0.144213 0.042523
vt 0.021358 0.069994
vt 0.015267 0.084665
vt 0.011175 0.112471
vt 0.177859 0.092192
vt 0.331511 0.121429
vt 0.207145 0.135527
vt 0.336271 0.109362
vt 0.342445 0.086586
vt 0.191159 0.103426
vn -0.077131 -0.067094 0.994761
vn -0.026831 0.006269 0.999620
vn -0.556375 0.106819 0.824037
vn -0.591676 0.012225 0.806084
vn 0.483678 -0.186300 0.855189
vn 0.515583 -0.133072 0.846443
vn 0.835931 -0.300848 0.459032
vn 0.851988 -0.255801 0.456817
vn 0.936733 -0.350032 -0.002939
vn 0.952909 -0.303254 -0.001511
vn 0.832142 -0.302478 -0.464807
vn 0.849428 -0.256050 -0.461422
vn 0.478105 -0.185952 -0.858392
vn 0.509883 -0.131532 -0.850129
vn -0.077254 -0.067742 -0.994707
vn -0.027097 0.006351 -0.999613
vn -0.591653 0.011926 -0.806104
vn -0.556377 0.106820 -0.824035
vn -0.888546 0.051348 -0.455905
vn -0.873058 0.159560 -0.460772
vn -0.997588 0.069420 -0.000000
vn -0.983582 0.180464 -0.000000
vn -0.888546 0.051348 0.455905
vn -0.873058 0.159560 0.460772
vn -0.009385 0.073526 0.997249
vn 0.026961 0.145720 0.988959
vn -0.469544 0.320452 0.822702
vn -0.523185 0.213887 0.824942
vn 0.510171 -0.106883 0.853406
vn 0.518589 -0.058809 0.852999
vn 0.846710 -0.259776 0.464327
vn 0.855972 -0.226644 0.464698
vn 0.949891 -0.312582 -0.000152
vn 0.960572 -0.278029 -0.001025
vn 0.845667 -0.257115 -0.467696
vn 0.856375 -0.221977 -0.466206
vn 0.505703 -0.104004 -0.856416
vn 0.516719 -0.055612 -0.854347
vn -0.009580 0.073615 -0.997241
vn 0.026903 0.145808 -0.988947
vn -0.523186 0.213888 -0.824942
vn -0.469544 0.320452 -0.822702
vn -0.837808 0.291135 -0.461863
vn -0.780655 0.421234 -0.461671
vn -0.946915 0.321485 0.000000
vn -0.887936 0.459967 0.000000
vn -0.837808 0.291135 0.461863
vn -0.780655 0.421234 0.461671
vn 0.541137 -0.006904 0.840906
vn 0.077939 0.217192 0.973013
vn 0.871469 -0.186571 0.453579
vn 0.971150 -0.238440 -0.003899
vn 0.871818 -0.183060 -0.454338
vn 0.541758 -0.005092 -0.840519
vn 0.078072 0.217221 -0.972995
vn -0.396582 0.423869 -0.814283
vn -0.700084 0.547321 -0.458609
vn -0.805203 0.592999 0.000000
vn -0.700084 0.547321 0.458609
vn -0.396583 0.423869 0.814283
vn 0.575392 0.065459 0.815254
vn 0.138396 0.295158 0.945372
vn 0.892747 -0.116372 0.435271
vn 0.985762 -0.168041 -0.005894
vn 0.891969 -0.115785 -0.437018
vn 0.574894 0.067319 -0.815454
vn 0.138601 0.295065 -0.945371
vn -0.318072 0.518633 -0.793631
vn -0.611384 0.653092 -0.446856
vn -0.713435 0.700721 0.000001
vn -0.611386 0.653090 0.446857
vn -0.318075 0.518632 0.793630
vn 0.009998 0.042214 -0.999059
vn 0.565998 -0.004525 -0.824394
vn 0.560762 -0.109100 -0.820758
vn 0.024546 -0.008354 -0.999664
vn -0.543571 0.102457 -0.833086
vn -0.521942 0.132269 -0.842664
vn -0.879810 0.152171 -0.450309
vn -0.855082 0.254556 -0.451703
vn -0.985031 0.172333 0.003768
vn -0.953591 0.301104 0.001309
vn -0.876837 0.153337 0.455680
vn -0.852519 0.254884 0.456339
vn -0.537404 0.102023 0.837131
vn -0.515813 0.130689 0.846674
vn 0.010005 0.042212 0.999059
vn 0.024545 -0.008354 0.999664
vn 0.566004 -0.004526 0.824390
vn 0.560762 -0.109100 0.820758
vn 0.886714 -0.030940 0.461281
vn 0.873057 -0.160346 0.460501
vn 0.999136 -0.041551 -0.000000
vn 0.983413 -0.181382 0.000000
vn 0.886714 -0.030940 -0.461281
vn 0.873057 -0.160346 -0.460501
vn 0.007735 -0.073416 -0.997271
vn 0.526761 -0.214643 -0.822467
vn 0.472652 -0.320735 -0.820810
vn -0.028761 -0.144711 -0.989056
vn -0.514028 0.108277 -0.850912
vn -0.521257 0.060488 -0.851254
vn -0.848599 0.261136 -0.460096
vn -0.857920 0.228396 -0.460227
vn -0.949742 0.313033 -0.000086
vn -0.960433 0.278508 0.001083
vn -0.847554 0.258449 0.463526
vn -0.858391 0.223599 0.461702
vn -0.509138 0.105278 0.854222
vn -0.519275 0.057239 0.852688
vn 0.007735 -0.073416 0.997271
vn -0.028761 -0.144712 0.989056
vn 0.526761 -0.214643 0.822467
vn 0.472652 -0.320734 0.820811
vn 0.838129 -0.290649 0.461588
vn 0.781366 -0.420288 0.461330
vn 0.946993 -0.321254 0.000000
vn 0.888295 -0.459274 -0.000000
vn 0.838129 -0.290649 -0.461588
vn 0.781366 -0.420288 -0.461330
vn -0.079350 -0.214863 -0.973415
vn -0.542327 0.009321 -0.840116
vn -0.873408 0.189496 -0.448610
vn -0.970866 0.239580 0.004476
vn -0.873886 0.185805 0.449221
vn -0.543234 0.007628 0.839547
vn -0.079350 -0.214863 0.973415
vn 0.399745 -0.423507 0.812925
vn 0.701423 -0.545908 0.458247
vn 0.806076 -0.591812 -0.000000
vn 0.701422 -0.545909 -0.458248
vn 0.399744 -0.423507 -0.812925
vn -0.563998 -0.015296 -0.825635
vn -0.130432 -0.270235 -0.953919
vn -0.179121 -0.301018 -0.936645
vn -0.581491 -0.013367 -0.813443
vn -0.877771 0.194006 -0.438040
vn -0.869661 0.223280 -0.440268
vn -0.965723 0.259467 0.007549
vn -0.951078 0.308922 0.004269
vn -0.876112 0.195766 0.440572
vn -0.865567 0.231721 0.443959
vn -0.564970 -0.013592 0.824999
vn -0.580704 -0.008610 0.814069
vn -0.130432 -0.270235 0.953918
vn -0.179117 -0.301020 0.936645
vn 0.318632 -0.509708 0.799169
vn 0.230183 -0.564760 0.792504
vn 0.611688 -0.649629 0.451465
vn 0.522961 -0.722908 0.451569
vn 0.714976 -0.699149 -0.000000
vn 0.628809 -0.777560 -0.000002
vn 0.611688 -0.649628 -0.451465
vn 0.522963 -0.722907 -0.451569
vn 0.318633 -0.509708 -0.799169
vn 0.230185 -0.564760 -0.792503
vn -0.191429 -0.973414 -0.125780
vn -0.281716 -0.959498 -0.000000
vn -0.999165 -0.040868 0.000000
vn -0.887007 -0.045836 -0.459475
vn -0.585479 -0.060039 -0.808461
vn 0.008121 -0.961402 -0.275027
vn -0.054314 -0.082937 -0.995074
vn 0.276686 -0.935202 -0.221003
vn 0.501552 -0.103340 -0.858933
vn 0.367589 -0.929289 -0.036055
vn 0.870867 -0.111598 -0.478682
vn 0.282894 -0.957959 0.047810
vn 0.993617 -0.112741 -0.003924
vn 0.227083 -0.973869 -0.003663
vn 0.873790 -0.111539 0.473339
vn 0.279965 -0.958779 -0.048614
vn 0.507895 -0.103800 0.855142
vn 0.363980 -0.930641 0.037769
vn -0.053931 -0.083675 0.995033
vn 0.277425 -0.935571 0.218499
vn -0.585382 -0.060489 0.808498
vn 0.008866 -0.961684 0.274016
vn -0.887007 -0.045836 0.459475
vn -0.191428 -0.973414 0.125778
vn 0.508352 0.859497 -0.053331
vn 0.532490 0.843898 -0.065513
vn -0.185118 0.592506 0.784008
vn 0.213785 0.334415 0.917858
vn 0.601393 0.055781 0.797004
vn 0.509353 0.860494 -0.010479
vn 0.880067 -0.172630 0.442358
vn 0.539476 0.841915 0.012063
vn 0.965325 -0.261052 0.000398
vn 0.559315 0.828955 -0.000764
vn 0.876853 -0.181150 -0.445324
vn 0.546664 0.837181 -0.016908
vn 0.598037 0.052380 -0.799755
vn 0.511265 0.859379 0.008738
vn 0.213557 0.334363 -0.917930
vn 0.508739 0.859304 0.052748
vn -0.185119 0.592504 -0.784009
vn 0.532486 0.843899 0.065521
vn -0.480255 0.753655 -0.448731
vn 0.553256 0.832052 0.039970
vn -0.588175 0.808734 0.000001
vn 0.559680 0.828709 -0.000004
vn -0.480256 0.753654 0.448732
vn 0.553271 0.832042 -0.039981
vn 0.581979 0.017153 0.813023
vn 0.180099 0.304348 0.935381
vn 0.869251 -0.218371 0.443528
vn 0.952245 -0.305309 -0.004084
vn 0.865259 -0.226612 -0.447184
vn 0.581116 0.012488 -0.813725
vn 0.180036 0.304257 -0.935422
vn -0.227173 0.566582 -0.792071
vn -0.520025 0.725072 -0.451492
vn -0.626236 0.779633 -0.000001
vn -0.520023 0.725073 0.451492
vn -0.227171 0.566583 0.792072
vn 0.888654 0.004471 0.458557
vn 0.999995 0.003008 -0.000000
vn 0.179576 -0.983744 -0.000000
vn 0.214261 -0.973100 0.084667
vn 0.270980 -0.958036 0.093477
vn 0.599899 0.014913 0.799937
vn 0.296798 -0.922174 0.248007
vn 0.071595 0.035971 0.996785
vn 0.135133 -0.918801 0.370870
vn -0.491862 0.057496 0.868773
vn -0.132059 -0.950538 0.281136
vn -0.871208 0.066258 0.486422
vn -0.250963 -0.967995 -0.001784
vn -0.997730 0.067242 0.003790
vn -0.136002 -0.950634 -0.278922
vn -0.874213 0.065904 -0.481049
vn 0.127200 -0.920898 -0.368465
vn -0.498683 0.057652 -0.864865
vn 0.296309 -0.921716 -0.250282
vn 0.071595 0.036024 -0.996783
vn 0.271031 -0.957993 -0.093761
vn 0.599914 0.014942 -0.799925
vn 0.214260 -0.973100 -0.084667
vn 0.888654 0.004471 -0.458557
vn 0.555040 -0.688301 0.467091
vn 0.249065 -0.521094 0.816350
vn 0.652236 0.604631 0.457176
vn 0.818475 0.509706 0.265140
vn 0.878370 0.477982 0.000005
vn 0.666596 -0.745419 -0.000003
vn -0.165636 -0.253219 0.953124
vn 0.433966 0.745016 0.506582
vn -0.562663 0.037869 0.825819
vn 0.250962 0.879667 0.403986
vn -0.847335 0.274950 0.454342
vn 0.153399 0.966584 0.205388
vn -0.935545 0.353207 -0.001063
vn 0.121261 0.992612 -0.004150
vn -0.851130 0.267491 -0.451693
vn 0.144409 0.967284 -0.208586
vn -0.566649 0.035124 -0.823210
vn 0.245839 0.881416 -0.403324
vn -0.165676 -0.253227 -0.953115
vn 0.433256 0.744746 -0.507585
vn 0.249058 -0.521105 -0.816345
vn 0.652227 0.604664 -0.457145
vn 0.555023 -0.688315 -0.467089
vn 0.818447 0.509769 -0.265103
vn -0.070575 -0.966004 -0.248706
vn 0.165485 -0.969212 -0.182326
vn 0.047389 -0.092744 -0.994562
vn -0.532002 -0.065746 -0.844187
vn -0.883912 -0.047179 -0.465268
vn -0.280441 -0.949365 -0.141629
vn -0.998879 -0.047327 0.000000
vn -0.310842 -0.950462 -0.000000
vn 0.206957 -0.978349 0.001426
vn 0.577690 -0.116049 -0.807965
vn 0.090181 -0.993752 0.065765
vn 0.890074 -0.125884 -0.438089
vn 0.022627 -0.999742 -0.002094
vn 0.991761 -0.128018 -0.004619
vn 0.089473 -0.993845 -0.065323
vn 0.892449 -0.125493 0.433343
vn 0.203399 -0.979096 -0.000269
vn 0.583442 -0.116756 0.803719
vn 0.165106 -0.969364 0.181864
vn 0.047777 -0.093618 0.994461
vn -0.070958 -0.965883 0.249067
vn -0.531965 -0.066066 0.844185
vn -0.280438 -0.949366 0.141628
vn -0.883912 -0.047179 0.465268
vn 0.194923 0.365121 0.910325
vn -0.197249 0.613813 0.764412
vn 0.518569 0.854521 -0.029652
vn 0.502010 0.862922 -0.057900
vn 0.501764 0.860505 -0.088114
vn 0.603450 0.075514 0.793817
vn 0.495964 0.863769 -0.089013
vn 0.892924 -0.162033 0.420039
vn 0.475001 0.879709 -0.022061
vn 0.969743 -0.243828 -0.012147
vn 0.506016 0.858507 0.083147
vn 0.889445 -0.169285 -0.424535
vn 0.515256 0.850750 0.103613
vn 0.608335 0.065769 -0.790950
vn 0.502010 0.862892 0.058345
vn 0.195001 0.365081 -0.910324
vn 0.518584 0.854512 0.029679
vn -0.197255 0.613811 -0.764413
vn 0.506848 0.862005 0.007242
vn -0.478605 0.761937 -0.436336
vn 0.502945 0.864318 0.000006
vn -0.577783 0.816190 -0.000002
vn 0.506811 0.862027 -0.007222
vn -0.478597 0.761943 0.436334
s 1
g arm_down_right arm_down_right
usemtl head_plateSG
f 98/1/1 100/4/2 99/3/3 97/2/4
f 101/5/5 102/6/6 100/4/2 98/1/1
f 103/7/7 104/8/8 102/6/6 101/5/5
f 105/341/9 106/10/10 104/8/8 103/7/7
f 107/11/11 108/12/12 106/358/10 105/9/9
f 109/13/13 110/14/14 108/12/12 107/11/11
f 111/15/15 112/16/16 110/14/14 109/13/13
f 113/17/17 114/18/18 112/16/16 111/15/15
f 115/19/19 116/20/20 114/18/18 113/17/17
f 117/21/21 118/22/22 116/20/20 115/19/19
f 119/23/23 120/24/24 118/22/22 117/21/21
f 97/2/4 99/3/3 120/24/24 119/23/23
f 122/25/25 124/28/26 123/27/27 121/26/28
f 125/29/29 126/30/30 124/28/26 122/25/25
f 127/31/31 128/32/32 126/30/30 125/29/29
f 129/359/33 130/34/34 128/32/32 127/31/31
f 131/35/35 132/36/36 130/357/34 129/33/33
f 133/37/37 134/38/38 132/36/36 131/35/35
f 135/39/39 136/40/40 134/38/38 133/37/37
f 137/41/41 138/42/42 136/40/40 135/39/39
f 139/43/43 140/44/44 138/42/42 137/41/41
f 141/45/45 142/46/46 140/44/44 139/43/43
f 143/47/47 144/48/48 142/46/46 141/45/45
f 121/26/28 123/27/27 144/48/48 143/47/47
f 100/4/2 122/25/25 121/26/28 99/3/3
f 102/6/6 125/29/29 122/25/25 100/4/2
f 104/8/8 127/31/31 125/29/29 102/6/6
f 106/10/10 129/359/33 127/31/31 104/8/8
f 108/12/12 131/35/35 129/33/33 106/358/10
f 110/14/14 133/37/37 131/35/35 108/12/12
f 112/16/16 135/39/39 133/37/37 110/14/14
f 114/18/18 137/41/41 135/39/39 112/16/16
f 116/20/20 139/43/43 137/41/41 114/18/18
f 118/22/22 141/45/45 139/43/43 116/20/20
f 120/24/24 143/47/47 141/45/45 118/22/22
f 99/3/3 121/26/28 143/47/47 120/24/24
f 126/30/30 146/50/49 145/49/50 124/28/26
f 128/32/32 147/51/51 146/50/49 126/30/30
f 130/34/34 148/52/52 147/51/51 128/32/32
f 132/36/36 149/53/53 148/356/52 130/357/34
f 134/38/38 150/54/54 149/53/53 132/36/36
f 136/40/40 151/55/55 150/54/54 134/38/38
f 138/42/42 152/56/56 151/55/55 136/40/40
f 140/44/44 153/57/57 152/56/56 138/42/42
f 142/46/46 154/58/58 153/57/57 140/44/44
f 144/48/48 155/59/59 154/58/58 142/46/46
f 123/27/27 156/60/60 155/59/59 144/48/48
f 124/28/26 145/49/50 156/60/60 123/27/27
f 146/50/49 158/62/61 157/61/62 145/49/50
f 147/51/51 159/63/63 158/62/61 146/50/49
f 148/52/52 160/64/64 159/63/63 147/51/51
f 149/53/53 161/65/65 160/340/64 148/356/52
f 150/54/54 162/66/66 161/65/65 149/53/53
f 151/55/55 163/67/67 162/66/66 150/54/54
f 152/56/56 164/68/68 163/67/67 151/55/55
f 153/57/57 165/69/69 164/68/68 152/56/56
f 154/58/58 166/70/70 165/69/69 153/57/57
f 155/59/59 167/71/71 166/70/70 154/58/58
f 156/60/60 168/72/72 167/71/71 155/59/59
f 145/49/50 157/61/62 168/72/72 156/60/60
f 2/73/73 1/76/74 25/75/75 26/74/76
f 3/77/77 2/73/73 26/74/76 27/78/78
f 4/79/79 3/77/77 27/78/78 28/80/80
f 5/81/81 4/79/79 28/80/80 29/363/82
f 6/83/83 5/352/81 29/82/82 30/84/84
f 7/85/85 6/83/83 30/84/84 31/86/86
f 8/87/87 7/85/85 31/86/86 32/88/88
f 9/89/89 8/87/87 32/88/88 33/90/90
f 10/91/91 9/89/89 33/90/90 34/92/92
f 11/93/93 10/91/91 34/92/92 35/94/94
f 12/95/95 11/93/93 35/94/94 36/96/96
f 1/76/74 12/95/95 36/96/96 25/75/75
f 14/97/97 13/100/98 48/99/99 37/98/100
f 15/101/101 14/97/97 37/98/100 38/102/102
f 16/103/103 15/101/101 38/102/102 39/104/104
f 17/105/105 16/103/103 39/104/104 40/362/106
f 18/107/107 17/364/105 40/106/106 41/108/108
f 19/109/109 18/107/107 41/108/108 42/110/110
f 20/111/111 19/109/109 42/110/110 43/112/112
f 21/113/113 20/111/111 43/112/112 44/114/114
f 22/115/115 21/113/113 44/114/114 45/116/116
f 23/117/117 22/115/115 45/116/116 46/118/118
f 24/119/119 23/117/117 46/118/118 47/120/120
f 13/100/98 24/119/119 47/120/120 48/99/99
f 26/74/76 25/75/75 13/100/98 14/97/97
f 27/78/78 26/74/76 14/97/97 15/101/101
f 28/80/80 27/78/78 15/101/101 16/103/103
f 29/363/82 28/80/80 16/103/103 17/105/105
f 30/84/84 29/82/82 17/364/105 18/107/107
f 31/86/86 30/84/84 18/107/107 19/109/109
f 32/88/88 31/86/86 19/109/109 20/111/111
f 33/90/90 32/88/88 20/111/111 21/113/113
f 34/92/92 33/90/90 21/113/113 22/115/115
f 35/94/94 34/92/92 22/115/115 23/117/117
f 36/96/96 35/94/94 23/117/117 24/119/119
f 25/75/75 36/96/96 24/119/119 13/100/98
f 38/102/102 37/98/100 73/122/121 74/121/122
f 39/104/104 38/102/102 74/121/122 75/123/123
f 40/362/106 39/104/104 75/123/123 76/360/124
f 41/108/108 40/106/106 76/124/124 77/125/125
f 42/110/110 41/108/108 77/125/125 78/126/126
f 43/112/112 42/110/110 78/126/126 79/127/127
f 44/114/114 43/112/112 79/127/127 80/128/128
f 45/116/116 44/114/114 80/128/128 81/129/129
f 46/118/118 45/116/116 81/129/129 82/130/130
f 47/120/120 46/118/118 82/130/130 83/131/131
f 48/99/99 47/120/120 83/131/131 84/132/132
f 37/98/100 48/99/99 84/132/132 73/122/121
f 50/133/133 49/136/134 61/135/135 62/134/136
f 51/137/137 50/133/133 62/134/136 63/138/138
f 52/139/139 51/137/137 63/138/138 64/349/140
f 53/141/141 52/361/139 64/140/140 65/142/142
f 54/143/143 53/141/141 65/142/142 66/144/144
f 55/145/145 54/143/143 66/144/144 67/146/146
f 56/147/147 55/145/145 67/146/146 68/148/148
f 57/149/149 56/147/147 68/148/148 69/150/150
f 58/151/151 57/149/149 69/150/150 70/152/152
f 59/153/153 58/151/151 70/152/152 71/154/154
f 60/155/155 59/153/153 71/154/154 72/156/156
f 49/136/134 60/155/155 72/156/156 61/135/135
f 74/121/122 73/122/121 49/136/134 50/133/133
f 75/123/123 74/121/122 50/133/133 51/137/137
f 76/360/124 75/123/123 51/137/137 52/139/139
f 77/125/125 76/124/124 52/361/139 53/141/141
f 78/126/126 77/125/125 53/141/141 54/143/143
f 79/127/127 78/126/126 54/143/143 55/145/145
f 80/128/128 79/127/127 55/145/145 56/147/147
f 81/129/129 80/128/128 56/147/147 57/149/149
f 82/130/130 81/129/129 57/149/149 58/151/151
f 83/131/131 82/130/130 58/151/151 59/153/153
f 84/132/132 83/131/131 59/153/153 60/155/155
f 73/122/121 84/132/132 60/155/155 49/136/134
f 169/157/157 192/160/158 191/159/159 170/158/160
f 170/158/160 171/162/161 172/161/162 169/157/157
f 171/162/161 173/164/163 174/163/164 172/161/162
f 173/164/163 175/166/165 176/165/166 174/163/164
f 175/166/165 177/168/167 178/167/168 176/165/166
f 177/168/167 179/337/169 180/169/170 178/167/168
f 179/170/169 181/172/171 182/171/172 180/348/170
f 181/172/171 183/174/173 184/173/174 182/171/172
f 183/174/173 185/176/175 186/175/176 184/173/174
f 185/176/175 187/178/177 188/177/178 186/175/176
f 187/178/177 189/180/179 190/179/180 188/177/178
f 189/180/179 191/159/159 192/160/158 190/179/180
f 193/181/181 216/184/182 215/183/183 194/182/184
f 194/182/184 195/186/185 196/185/186 193/181/181
f 195/186/185 197/188/187 198/187/188 196/185/186
f 197/188/187 199/355/189 200/189/190 198/187/188
f 199/190/189 201/192/191 202/191/192 200/346/190
f 201/192/191 203/194/193 204/193/194 202/191/192
f 203/194/193 205/196/195 206/195/196 204/193/194
f 205/196/195 207/198/197 208/197/198 206/195/196
f 207/198/197 209/200/199 210/199/200 208/197/198
f 209/200/199 211/202/201 212/201/202 210/199/200
f 211/202/201 213/204/203 214/203/204 212/201/202
f 213/204/203 215/183/183 216/184/182 214/203/204
f 86/205/205 195/186/185 194/182/184 85/206/206
f 87/207/207 197/188/187 195/186/185 86/205/205
f 88/343/208 199/355/189 197/188/187 87/207/207
f 89/209/209 201/192/191 199/190/189 88/208/208
f 90/210/210 203/194/193 201/192/191 89/209/209
f 91/211/211 205/196/195 203/194/193 90/210/210
f 92/212/212 207/198/197 205/196/195 91/211/211
f 93/213/213 209/200/199 207/198/197 92/212/212
f 94/214/214 211/202/201 209/200/199 93/213/213
f 95/215/215 213/204/203 211/202/201 94/214/214
f 96/216/216 215/183/183 213/204/203 95/215/215
f 85/206/206 194/182/184 215/183/183 96/216/216
f 217/336/217 239/326/218 240/219/219 218/218/220
f 218/218/220 220/222/221 219/335/222 217/336/217
f 220/222/221 222/224/223 221/334/224 219/335/222
f 222/224/223 224/226/225 223/333/226 221/334/224
f 224/226/225 226/228/227 225/332/228 223/333/226
f 226/228/227 228/347/229 227/331/230 225/332/228
f 228/230/229 230/232/231 229/330/232 227/353/230
f 230/232/231 232/234/233 231/329/234 229/330/232
f 232/234/233 234/236/235 233/328/236 231/329/234
f 234/236/235 236/238/237 235/327/238 233/328/236
f 236/238/237 238/240/239 237/325/240 235/327/238
f 238/240/239 240/219/219 239/326/218 237/325/240
f 241/324/241 243/323/242 244/243/243 242/242/244
f 242/242/244 264/246/245 263/313/246 241/324/241
f 243/323/242 245/322/247 246/247/248 244/243/243
f 245/322/247 247/321/249 248/249/250 246/247/248
f 247/321/249 249/320/251 250/251/252 248/249/250
f 249/320/251 251/350/253 252/253/254 250/251/252
f 251/319/253 253/318/255 254/255/256 252/345/254
f 253/318/255 255/317/257 256/257/258 254/255/256
f 255/317/257 257/316/259 258/259/260 256/257/258
f 257/316/259 259/315/261 260/261/262 258/259/260
f 259/315/261 261/314/263 262/263/264 260/261/262
f 261/314/263 263/313/246 264/246/245 262/263/264
f 217/217/217 219/221/222 9/89/89 10/91/91
f 219/221/222 221/223/224 8/87/87 9/89/89
f 221/223/224 223/225/226 7/85/85 8/87/87
f 223/225/226 225/227/228 6/83/83 7/85/85
f 225/227/228 227/229/230 5/352/81 6/83/83
f 227/354/230 229/231/232 4/79/79 5/81/81
f 229/231/232 231/233/234 3/77/77 4/79/79
f 231/233/234 233/235/236 2/73/73 3/77/77
f 233/235/236 235/237/238 1/76/74 2/73/73
f 235/237/238 237/239/240 12/95/95 1/76/74
f 237/239/240 239/220/218 11/93/93 12/95/95
f 239/220/218 217/217/217 10/91/91 11/93/93
f 62/134/136 61/135/135 257/260/259 255/258/257
f 63/138/138 62/134/136 255/258/257 253/256/255
f 64/349/140 63/138/138 253/256/255 251/254/253
f 65/142/142 64/140/140 251/351/253 249/252/251
f 66/144/144 65/142/142 249/252/251 247/250/249
f 67/146/146 66/144/144 247/250/249 245/248/247
f 68/148/148 67/146/146 245/248/247 243/244/242
f 69/150/150 68/148/148 243/244/242 241/241/241
f 70/152/152 69/150/150 241/241/241 263/245/246
f 71/154/154 70/152/152 263/245/246 261/264/263
f 72/156/156 71/154/154 261/264/263 259/262/261
f 61/135/135 72/156/156 259/262/261 257/260/259
f 218/218/220 169/157/157 172/161/162 220/222/221
f 220/222/221 172/161/162 174/163/164 222/224/223
f 222/224/223 174/163/164 176/165/166 224/226/225
f 224/226/225 176/165/166 178/167/168 226/228/227
f 226/228/227 178/167/168 180/169/170 228/347/229
f 228/230/229 180/348/170 182/171/172 230/232/231
f 230/232/231 182/171/172 184/173/174 232/234/233
f 232/234/233 184/173/174 186/175/176 234/236/235
f 234/236/235 186/175/176 188/177/178 236/238/237
f 236/238/237 188/177/178 190/179/180 238/240/239
f 238/240/239 190/179/180 192/160/158 240/219/219
f 240/219/219 192/160/158 169/157/157 218/218/220
f 258/259/260 193/181/181 196/185/186 256/257/258
f 256/257/258 196/185/186 198/187/188 254/255/256
f 254/255/256 198/187/188 200/189/190 252/345/254
f 252/253/254 200/346/190 202/191/192 250/251/252
f 250/251/252 202/191/192 204/193/194 248/249/250
f 248/249/250 204/193/194 206/195/196 246/247/248
f 246/247/248 206/195/196 208/197/198 244/243/243
f 244/243/243 208/197/198 210/199/200 242/242/244
f 242/242/244 210/199/200 212/201/202 264/246/245
f 264/246/245 212/201/202 214/203/204 262/263/264
f 262/263/264 214/203/204 216/184/182 260/261/262
f 260/261/262 216/184/182 193/181/181 258/259/260
f 265/265/265 269/268/266 270/267/267 266/266/268
f 266/266/268 268/270/269 267/269/270 265/265/265
f 268/270/269 288/272/271 287/271/272 267/269/270
f 269/268/266 271/274/273 272/273/274 270/267/267
f 271/274/273 273/276/275 274/275/276 272/273/274
f 273/276/275 275/342/277 276/277/278 274/275/276
f 275/278/277 277/280/279 278/279/280 276/338/278
f 277/280/279 279/282/281 280/281/282 278/279/280
f 279/282/281 281/284/283 282/283/284 280/281/282
f 281/284/283 283/286/285 284/285/286 282/283/284
f 283/286/285 285/288/287 286/287/288 284/285/286
f 285/288/287 287/271/272 288/272/271 286/287/288
f 289/289/289 311/292/290 312/291/291 290/290/292
f 290/290/292 292/294/293 291/293/294 289/289/289
f 292/294/293 294/296/295 293/295/296 291/293/294
f 294/296/295 296/339/297 295/297/298 293/295/296
f 296/298/297 298/300/299 297/299/300 295/344/298
f 298/300/299 300/302/301 299/301/302 297/299/300
f 300/302/301 302/304/303 301/303/304 299/301/302
f 302/304/303 304/306/305 303/305/306 301/303/304
f 304/306/305 306/308/307 305/307/308 303/305/306
f 306/308/307 308/310/309 307/309/310 305/307/308
f 308/310/309 310/312/311 309/311/312 307/309/310
f 310/312/311 312/291/291 311/292/290 309/311/312
f 291/293/294 86/205/205 85/206/206 289/289/289
f 293/295/296 87/207/207 86/205/205 291/293/294
f 295/297/298 88/343/208 87/207/207 293/295/296
f 297/299/300 89/209/209 88/208/208 295/344/298
f 299/301/302 90/210/210 89/209/209 297/299/300
f 301/303/304 91/211/211 90/210/210 299/301/302
f 303/305/306 92/212/212 91/211/211 301/303/304
f 305/307/308 93/213/213 92/212/212 303/305/306
f 307/309/310 94/214/214 93/213/213 305/307/308
f 309/311/312 95/215/215 94/214/214 307/309/310
f 311/292/290 96/216/216 95/215/215 309/311/312
f 289/289/289 85/206/206 96/216/216 311/292/290
f 281/284/283 98/1/1 97/2/4 283/286/285
f 279/282/281 101/5/5 98/1/1 281/284/283
f 277/280/279 103/7/7 101/5/5 279/282/281
f 275/278/277 105/341/9 103/7/7 277/280/279
f 273/276/275 107/11/11 105/9/9 275/342/277
f 271/274/273 109/13/13 107/11/11 273/276/275
f 269/268/266 111/15/15 109/13/13 271/274/273
f 265/265/265 113/17/17 111/15/15 269/268/266
f 267/269/270 115/19/19 113/17/17 265/265/265
f 287/271/272 117/21/21 115/19/19 267/269/270
f 285/288/287 119/23/23 117/21/21 287/271/272
f 283/286/285 97/2/4 119/23/23 285/288/287
f 290/290/292 157/61/62 158/62/61 292/294/293
f 292/294/293 158/62/61 159/63/63 294/296/295
f 294/296/295 159/63/63 160/64/64 296/339/297
f 296/298/297 160/340/64 161/65/65 298/300/299
f 298/300/299 161/65/65 162/66/66 300/302/301
f 300/302/301 162/66/66 163/67/67 302/304/303
f 302/304/303 163/67/67 164/68/68 304/306/305
f 304/306/305 164/68/68 165/69/69 306/308/307
f 306/308/307 165/69/69 166/70/70 308/310/309
f 308/310/309 166/70/70 167/71/71 310/312/311
f 310/312/311 167/71/71 168/72/72 312/291/291
f 312/291/291 168/72/72 157/61/62 290/290/292
f 170/158/160 268/270/269 266/266/268 171/162/161
f 171/162/161 266/266/268 270/267/267 173/164/163
f 173/164/163 270/267/267 272/273/274 175/166/165
f 175/166/165 272/273/274 274/275/276 177/168/167
f 177/168/167 274/275/276 276/277/278 179/337/169
f 179/170/169 276/338/278 278/279/280 181/172/171
f 181/172/171 278/279/280 280/281/282 183/174/173
f 183/174/173 280/281/282 282/283/284 185/176/175
f 185/176/175 282/283/284 284/285/286 187/178/177
f 187/178/177 284/285/286 286/287/288 189/180/179
f 189/180/179 286/287/288 288/272/271 191/159/159
f 191/159/159 288/272/271 268/270/269 170/158/160
g default
v -0.033854 -0.039887 -0.003545
v -0.031930 -0.040993 -0.006866
v -0.029052 -0.042649 -0.009084
v -0.025657 -0.044602 -0.009863
v -0.022262 -0.046555 -0.009084
v -0.019384 -0.048210 -0.006866
v -0.017461 -0.049317 -0.003545
v -0.016786 -0.049705 0.000372
v -0.017461 -0.049317 0.004288
v -0.019384 -0.048210 0.007609
v -0.022262 -0.046555 0.009827
v -0.025657 -0.044602 0.010606
v -0.029052 -0.042649 0.009827
v -0.031930 -0.040993 0.007609
v -0.033854 -0.039887 0.004288
v -0.034529 -0.039498 0.000372
v -0.040246 -0.032765 -0.007311
v -0.036474 -0.034935 -0.013825
v -0.030828 -0.038183 -0.018177
v -0.024169 -0.042014 -0.019705
v -0.017509 -0.045845 -0.018177
v -0.011864 -0.049093 -0.013825
v -0.008091 -0.051263 -0.007311
v -0.006767 -0.052025 0.000372
v -0.008091 -0.051263 0.008054
v -0.011864 -0.049093 0.014568
v -0.017509 -0.045845 0.018920
v -0.024169 -0.042014 0.020448
v -0.030828 -0.038183 0.018920
v -0.036474 -0.034935 0.014568
v -0.040246 -0.032765 0.008054
v -0.041571 -0.032003 0.000372
v -0.045092 -0.024384 -0.010782
v -0.039615 -0.027535 -0.020237
v -0.031419 -0.032250 -0.026556
v -0.021751 -0.037812 -0.028774
v -0.012083 -0.043374 -0.026556
v -0.003887 -0.048089 -0.020238
v 0.001589 -0.051239 -0.010782
v 0.003512 -0.052345 0.000372
v 0.001589 -0.051239 0.011525
v -0.003887 -0.048089 0.020980
v -0.012083 -0.043374 0.027299
v -0.021751 -0.037812 0.029517
v -0.031419 -0.032250 0.027299
v -0.039615 -0.027535 0.020980
v -0.045092 -0.024384 0.011525
v -0.047015 -0.023278 0.000372
v -0.048205 -0.015067 -0.013825
v -0.041235 -0.019076 -0.025859
v -0.030803 -0.025078 -0.033900
v -0.018498 -0.032156 -0.036724
v -0.006193 -0.039235 -0.033900
v 0.004239 -0.045236 -0.025859
v 0.011209 -0.049246 -0.013825
v 0.013657 -0.050655 0.000372
v 0.011209 -0.049246 0.014568
v 0.004239 -0.045236 0.026602
v -0.006193 -0.039235 0.034644
v -0.018498 -0.032156 0.037467
v -0.030803 -0.025078 0.034644
v -0.041235 -0.019077 0.026602
v -0.048205 -0.015067 0.014568
v -0.050653 -0.013659 0.000372
v -0.049465 -0.005170 -0.016321
v -0.041269 -0.009885 -0.030472
v -0.029003 -0.016942 -0.039928
v -0.014534 -0.025266 -0.043248
v -0.000065 -0.033589 -0.039928
v 0.012202 -0.040646 -0.030472
v 0.020398 -0.045361 -0.016321
v 0.023276 -0.047017 0.000372
v 0.020398 -0.045361 0.017064
v 0.012202 -0.040646 0.031216
v -0.000065 -0.033589 0.040671
v -0.014534 -0.025266 0.043992
v -0.029003 -0.016942 0.040671
v -0.041269 -0.009885 0.031216
v -0.049465 -0.005170 0.017064
v -0.052344 -0.003514 0.000372
v -0.048825 0.004925 -0.018177
v -0.039718 -0.000314 -0.033900
v -0.026088 -0.008155 -0.044407
v -0.010011 -0.017404 -0.048096
v 0.006066 -0.026653 -0.044407
v 0.019696 -0.034494 -0.033900
v 0.028803 -0.039733 -0.018177
v 0.032001 -0.041573 0.000372
v 0.028803 -0.039733 0.018920
v 0.019696 -0.034494 0.034644
v 0.006066 -0.026653 0.045150
v -0.010011 -0.017404 0.048839
v -0.026088 -0.008155 0.045150
v -0.039718 -0.000314 0.034644
v -0.048825 0.004925 0.018920
v -0.052023 0.006765 0.000372
v -0.046308 0.014831 -0.019319
v -0.036640 0.009269 -0.036011
v -0.022171 0.000945 -0.047165
v -0.005104 -0.008873 -0.051081
v 0.011964 -0.018692 -0.047165
v 0.026433 -0.027016 -0.036011
v 0.036101 -0.032577 -0.019319
v 0.039496 -0.034531 0.000372
v 0.036101 -0.032578 0.020062
v 0.026433 -0.027016 0.036755
v 0.011964 -0.018692 0.047908
v -0.005104 -0.008873 0.051825
v -0.022171 0.000945 0.047908
v -0.036640 0.009269 0.036755
v -0.046308 0.014831 0.020062
v -0.049703 0.016784 0.000372
v -0.042012 0.024167 -0.019705
v -0.032155 0.018496 -0.036724
v -0.017402 0.010009 -0.048096
v -0.000000 -0.000002 -0.052090
v 0.017402 -0.010013 -0.048096
v 0.032155 -0.018500 -0.036724
v 0.042012 -0.024170 -0.019705
v 0.045473 -0.026162 0.000372
v 0.042012 -0.024170 0.020448
v 0.032155 -0.018500 0.037467
v 0.017402 -0.010013 0.048839
v -0.000000 -0.000002 0.052833
v -0.017402 0.010009 0.048839
v -0.032155 0.018496 0.037467
v -0.042012 0.024167 0.020448
v -0.045474 0.026158 0.000372
v -0.036101 0.032574 -0.019319
v -0.026433 0.027012 -0.036011
v -0.011964 0.018688 -0.047165
v 0.005104 0.008870 -0.051081
v 0.022171 -0.000949 -0.047165
v 0.036640 -0.009273 -0.036011
v 0.046308 -0.014835 -0.019319
v 0.049703 -0.016788 0.000372
v 0.046308 -0.014835 0.020062
v 0.036640 -0.009273 0.036755
v 0.022171 -0.000949 0.047908
v 0.005104 0.008870 0.051825
v -0.011964 0.018688 0.047908
v -0.026433 0.027012 0.036755
v -0.036101 0.032574 0.020062
v -0.039496 0.034527 0.000372
v -0.028803 0.039729 -0.018177
v -0.019696 0.034490 -0.033900
v -0.006066 0.026649 -0.044407
v 0.010011 0.017400 -0.048096
v 0.026088 0.008151 -0.044407
v 0.039718 0.000310 -0.033900
v 0.048825 -0.004929 -0.018177
v 0.052023 -0.006769 0.000372
v 0.048825 -0.004929 0.018920
v 0.039718 0.000310 0.034644
v 0.026088 0.008151 0.045150
v 0.010011 0.017400 0.048839
v -0.006066 0.026649 0.045150
v -0.019696 0.034490 0.034644
v -0.028803 0.039729 0.018920
v -0.032001 0.041569 0.000372
v -0.020398 0.045357 -0.016321
v -0.012202 0.040642 -0.030472
v 0.000064 0.033586 -0.039928
v 0.014534 0.025262 -0.043248
v 0.029003 0.016938 -0.039928
v 0.041269 0.009881 -0.030472
v 0.049465 0.005166 -0.016321
v 0.052344 0.003511 0.000372
v 0.049465 0.005166 0.017064
v 0.041269 0.009881 0.031216
v 0.029003 0.016938 0.040671
v 0.014534 0.025262 0.043992
v 0.000064 0.033586 0.040671
v -0.012202 0.040642 0.031216
v -0.020398 0.045357 0.017064
v -0.023276 0.047013 0.000372
v -0.011209 0.049243 -0.013825
v -0.004239 0.045233 -0.025859
v 0.006193 0.039232 -0.033900
v 0.018498 0.032153 -0.036724
v 0.030803 0.025074 -0.033900
v 0.041235 0.019073 -0.025859
v 0.048205 0.015063 -0.013825
v 0.050653 0.013655 0.000372
v 0.048205 0.015063 0.014568
v 0.041235 0.019073 0.026602
v 0.030803 0.025074 0.034644
v 0.018498 0.032153 0.037467
v 0.006193 0.039232 0.034644
v -0.004239 0.045233 0.026602
v -0.011209 0.049243 0.014568
v -0.013657 0.050651 0.000372
v -0.001589 0.051235 -0.010782
v 0.003887 0.048085 -0.020237
v 0.012083 0.043370 -0.026556
v 0.021751 0.037808 -0.028774
v 0.031419 0.032246 -0.026556
v 0.039615 0.027531 -0.020238
v 0.045092 0.024380 -0.010782
v 0.047015 0.023274 0.000372
v 0.045092 0.024380 0.011525
v 0.039615 0.027531 0.020980
v 0.031419 0.032246 0.027299
v 0.021751 0.037808 0.029517
v 0.012083 0.043370 0.027299
v 0.003887 0.048085 0.020980
v -0.001589 0.051235 0.011525
v -0.003512 0.052342 0.000372
v 0.008091 0.051259 -0.007311
v 0.011864 0.049089 -0.013825
v 0.017509 0.045841 -0.018177
v 0.024169 0.042010 -0.019705
v 0.030828 0.038179 -0.018177
v 0.036474 0.034931 -0.013825
v 0.040246 0.032761 -0.007311
v 0.041571 0.031999 0.000372
v 0.040246 0.032761 0.008054
v 0.036474 0.034931 0.014568
v 0.030828 0.038179 0.018920
v 0.024169 0.042010 0.020448
v 0.017509 0.045841 0.018920
v 0.011864 0.049089 0.014568
v 0.008091 0.051259 0.008054
v 0.006767 0.052021 0.000372
v 0.017461 0.049313 -0.003545
v 0.019384 0.048207 -0.006866
v 0.022262 0.046551 -0.009084
v 0.025657 0.044598 -0.009863
v 0.029052 0.042645 -0.009084
v 0.031930 0.040989 -0.006866
v 0.033853 0.039883 -0.003545
v 0.034529 0.039494 0.000372
v 0.033853 0.039883 0.004288
v 0.031930 0.040989 0.007609
v 0.029052 0.042645 0.009827
v 0.025657 0.044598 0.010606
v 0.022262 0.046551 0.009827
v 0.019384 0.048207 0.007609
v 0.017461 0.049313 0.004288
v 0.016786 0.049701 0.000372
v -0.026160 -0.045475 0.000372
v 0.026160 0.045471 0.000372
vt 0.105216 0.429836
vt 0.105453 0.431356
vt 0.103095 0.432917
vt 0.102801 0.430602
vt 0.105830 0.432785
vt 0.103566 0.435157
vt 0.106360 0.434064
vt 0.104256 0.437283
vt 0.107061 0.435145
vt 0.105209 0.439196
vt 0.107924 0.435881
vt 0.106493 0.440790
vt 0.108930 0.436161
vt 0.108185 0.441882
vt 0.109999 0.435830
vt 0.110350 0.442173
vt 0.109813 0.420500
vt 0.108705 0.420233
vt 0.107920 0.414651
vt 0.110104 0.414315
vt 0.107670 0.420556
vt 0.106204 0.415758
vt 0.106782 0.421313
vt 0.104902 0.417348
vt 0.106148 0.422416
vt 0.104059 0.419253
vt 0.105662 0.423739
vt 0.103389 0.421364
vt 0.105339 0.425184
vt 0.102969 0.423591
vt 0.105159 0.426711
vt 0.102736 0.425897
vt 0.105116 0.428276
vt 0.102638 0.428247
vt 0.100723 0.433964
vt 0.100451 0.431120
vt 0.101183 0.436769
vt 0.101867 0.439511
vt 0.102841 0.442118
vt 0.104213 0.444522
vt 0.106151 0.446591
vt 0.108917 0.448070
vt 0.105934 0.410068
vt 0.108736 0.408607
vt 0.103943 0.412108
vt 0.102515 0.414492
vt 0.101557 0.417085
vt 0.100957 0.419783
vt 0.100570 0.422569
vt 0.100373 0.425404
vt 0.100360 0.428259
vt 0.098308 0.434715
vt 0.098065 0.431478
vt 0.098709 0.437938
vt 0.099306 0.441131
vt 0.100166 0.444280
vt 0.101403 0.447360
vt 0.103224 0.450339
vt 0.105963 0.453184
vt 0.103076 0.406359
vt 0.105940 0.403654
vt 0.101186 0.409301
vt 0.099888 0.412336
vt 0.099006 0.415450
vt 0.098465 0.418601
vt 0.098140 0.421788
vt 0.097978 0.425004
vt 0.097963 0.428238
vt 0.095852 0.435248
vt 0.095654 0.431733
vt 0.096166 0.438768
vt 0.096629 0.442295
vt 0.097293 0.445844
vt 0.098233 0.449464
vt 0.099662 0.453183
vt 0.101948 0.457146
vt 0.099664 0.403559
vt 0.102135 0.399802
vt 0.098070 0.407185
vt 0.097078 0.410721
vt 0.096319 0.414278
vt 0.095905 0.417757
vt 0.095670 0.421233
vt 0.095560 0.424723
vt 0.095560 0.428224
vt 0.093363 0.435606
vt 0.093221 0.431905
vt 0.093573 0.439326
vt 0.093872 0.443079
vt 0.094293 0.446895
vt 0.094871 0.450861
vt 0.095760 0.455090
vt 0.097218 0.459899
vt 0.095888 0.401556
vt 0.097621 0.397127
vt 0.094747 0.405745
vt 0.094043 0.409629
vt 0.093613 0.413417
vt 0.093301 0.417193
vt 0.093170 0.420858
vt 0.093121 0.424536
vt 0.093141 0.428217
vt 0.090849 0.435809
vt 0.090770 0.432003
vt 0.090945 0.439641
vt 0.091064 0.443519
vt 0.091192 0.447500
vt 0.091370 0.451640
vt 0.091654 0.456129
vt 0.092090 0.461402
vt 0.091797 0.400451
vt 0.092804 0.395359
vt 0.091273 0.404904
vt 0.090962 0.409005
vt 0.090785 0.412939
vt 0.090698 0.416823
vt 0.090653 0.420638
vt 0.090667 0.424430
vt 0.090707 0.428213
vt 0.088322 0.435864
vt 0.088307 0.432030
vt 0.088298 0.439726
vt 0.088231 0.443635
vt 0.088083 0.447639
vt 0.087844 0.451807
vt 0.087457 0.456335
vt 0.086808 0.461659
vt 0.087663 0.400136
vt 0.087687 0.394768
vt 0.087752 0.404649
vt 0.087846 0.408805
vt 0.087943 0.412780
vt 0.088056 0.416685
vt 0.088126 0.420568
vt 0.088204 0.424402
vt 0.088264 0.428210
vt 0.085789 0.435774
vt 0.085841 0.431984
vt 0.085645 0.439586
vt 0.085387 0.443441
vt 0.084983 0.447346
vt 0.084342 0.451389
vt 0.083351 0.455710
vt 0.081698 0.460704
vt 0.083563 0.400624
vt 0.082576 0.395366
vt 0.084236 0.404958
vt 0.084734 0.409026
vt 0.085102 0.412928
vt 0.085405 0.416817
vt 0.085593 0.420621
vt 0.085730 0.424411
vt 0.085819 0.428203
vt 0.083270 0.435529
vt 0.083384 0.431861
vt 0.083009 0.439209
vt 0.082579 0.442919
vt 0.081934 0.446616
vt 0.080932 0.450392
vt 0.079440 0.454272
vt 0.076962 0.458622
vt 0.079556 0.401795
vt 0.077673 0.397112
vt 0.080805 0.405867
vt 0.081682 0.409717
vt 0.082329 0.413483
vt 0.082750 0.417137
vt 0.083076 0.420846
vt 0.083277 0.424523
vt 0.083382 0.428196
vt 0.080774 0.435119
vt 0.080942 0.431655
vt 0.080403 0.438583
vt 0.079890 0.441975
vt 0.079000 0.445403
vt 0.077701 0.448788
vt 0.075768 0.452155
vt 0.072790 0.455513
vt 0.075804 0.403803
vt 0.073218 0.400014
vt 0.077523 0.407363
vt 0.078723 0.410843
vt 0.079577 0.414306
vt 0.080168 0.417750
vt 0.080583 0.421227
vt 0.080839 0.424705
vt 0.080959 0.428183
vt 0.078315 0.434524
vt 0.078520 0.431353
vt 0.077906 0.437655
vt 0.077226 0.440729
vt 0.076207 0.443724
vt 0.074715 0.446580
vt 0.072544 0.449227
vt 0.069422 0.451452
vt 0.072456 0.406661
vt 0.069503 0.404031
vt 0.074476 0.409493
vt 0.075901 0.412452
vt 0.076917 0.415502
vt 0.077632 0.418612
vt 0.078121 0.421775
vt 0.078420 0.424963
vt 0.078551 0.428162
vt 0.075895 0.433715
vt 0.076117 0.430940
vt 0.075486 0.436428
vt 0.074676 0.439051
vt 0.073613 0.441502
vt 0.072084 0.443704
vt 0.069944 0.445502
vt 0.067114 0.446578
vt 0.069716 0.410391
vt 0.066868 0.409044
vt 0.071781 0.412333
vt 0.073286 0.414625
vt 0.074381 0.417134
vt 0.075162 0.419783
vt 0.075694 0.422524
vt 0.076018 0.425317
vt 0.076157 0.428131
vt 0.073493 0.432620
vt 0.073716 0.430377
vt 0.073071 0.434776
vt 0.072397 0.436801
vt 0.071325 0.438589
vt 0.069972 0.440045
vt 0.068198 0.440980
vt 0.066120 0.441112
vt 0.067871 0.415015
vt 0.065685 0.414808
vt 0.069626 0.416013
vt 0.070990 0.417515
vt 0.072022 0.419342
vt 0.072778 0.421381
vt 0.073301 0.423553
vt 0.073621 0.425806
vt 0.073758 0.428093
vt 0.071088 0.431044
vt 0.071262 0.429571
vt 0.070759 0.432429
vt 0.070260 0.433668
vt 0.069576 0.434689
vt 0.068657 0.435360
vt 0.067610 0.435603
vt 0.066590 0.435306
vt 0.067301 0.420563
vt 0.066235 0.420929
vt 0.068325 0.420793
vt 0.069220 0.421471
vt 0.069951 0.422473
vt 0.070516 0.423700
vt 0.070922 0.425076
vt 0.071178 0.426544
vt 0.071291 0.428057
vt 0.108002 0.428171
vt 0.068380 0.428143
vn -0.683636 -0.723480 -0.096019
vn -0.785292 -0.598541 -0.158320
vn -0.707557 -0.643256 -0.292548
vn -0.636490 -0.750601 -0.177423
vn -0.591209 -0.710189 -0.382236
vn -0.565929 -0.791195 -0.231808
vn -0.453970 -0.789137 -0.413733
vn -0.482702 -0.839072 -0.250913
vn -0.316739 -0.868082 -0.382243
vn -0.399481 -0.886946 -0.231823
vn -0.200388 -0.935017 -0.292554
vn -0.328909 -0.927545 -0.177424
vn -0.122653 -0.979740 -0.158321
vn -0.281762 -0.954669 -0.096010
vn -0.095354 -0.995444 -0.000003
vn -0.265215 -0.964189 -0.000004
vn -0.122653 -0.979739 0.158327
vn -0.281767 -0.954667 0.096012
vn -0.200387 -0.935015 0.292560
vn -0.328910 -0.927544 0.177427
vn -0.316737 -0.868083 0.382242
vn -0.399481 -0.886945 0.231827
vn -0.453970 -0.789139 0.413729
vn -0.482700 -0.839071 0.250918
vn -0.591208 -0.710191 0.382234
vn -0.565925 -0.791197 0.231811
vn -0.707558 -0.643255 0.292549
vn -0.636491 -0.750599 0.177425
vn -0.785290 -0.598543 0.158325
vn -0.683636 -0.723478 0.096025
vn -0.812589 -0.582837 0.000000
vn -0.700194 -0.713952 0.000000
vn -0.868749 -0.443557 -0.220299
vn -0.760581 -0.505783 -0.407064
vn -0.598694 -0.598910 -0.531857
vn -0.407734 -0.708764 -0.575680
vn -0.216781 -0.818617 -0.531858
vn -0.054897 -0.911747 -0.407066
vn 0.053266 -0.973977 -0.220298
vn 0.091250 -0.995828 -0.000001
vn 0.053264 -0.973976 0.220302
vn -0.054902 -0.911750 0.407059
vn -0.216784 -0.818620 0.531851
vn -0.407735 -0.708766 0.575676
vn -0.598692 -0.598918 0.531851
vn -0.760581 -0.505789 0.407056
vn -0.868748 -0.443559 0.220301
vn -0.906732 -0.421707 0.000000
vn -0.922612 -0.269983 -0.275493
vn -0.787343 -0.347802 -0.509043
vn -0.584906 -0.464265 -0.665089
vn -0.346111 -0.601638 -0.719889
vn -0.107317 -0.739013 -0.665089
vn 0.095125 -0.855469 -0.509043
vn 0.230395 -0.933285 -0.275494
vn 0.277898 -0.960611 -0.000001
vn 0.230394 -0.933285 0.275495
vn 0.095119 -0.855471 0.509040
vn -0.107326 -0.739014 0.665086
vn -0.346114 -0.601643 0.719882
vn -0.584901 -0.464271 0.665089
vn -0.787343 -0.347806 0.509040
vn -0.922612 -0.269983 0.275494
vn -0.970113 -0.242653 0.000000
vn -0.943214 -0.085549 -0.320980
vn -0.785608 -0.176219 -0.593099
vn -0.549739 -0.311910 -0.774919
vn -0.271515 -0.471967 -0.838765
vn 0.006710 -0.632027 -0.774917
vn 0.242583 -0.767717 -0.593098
vn 0.400189 -0.858382 -0.320981
vn 0.455536 -0.890217 -0.000000
vn 0.400192 -0.858380 0.320983
vn 0.242588 -0.767712 0.593102
vn 0.006715 -0.632017 0.774926
vn -0.271509 -0.471958 0.838772
vn -0.549732 -0.311898 0.774929
vn -0.785607 -0.176209 0.593103
vn -0.943214 -0.085547 0.320982
vn -0.998557 -0.053709 -0.000000
vn -0.929308 0.102431 -0.354815
vn -0.755091 0.002207 -0.655617
vn -0.494359 -0.147788 -0.856603
vn -0.186802 -0.324716 -0.927181
vn 0.120754 -0.501648 -0.856603
vn 0.381487 -0.651639 -0.655617
vn 0.555705 -0.751862 -0.354818
vn 0.616878 -0.787059 -0.000001
vn 0.555702 -0.751864 0.354819
vn 0.381486 -0.651639 0.655618
vn 0.120754 -0.501643 0.856605
vn -0.186801 -0.324715 0.927182
vn -0.494356 -0.147783 0.856605
vn -0.755089 0.002211 0.655619
vn -0.929307 0.102433 0.354818
vn -0.990484 0.137625 -0.000000
vn -0.881265 0.286810 -0.375648
vn -0.696817 0.180704 -0.694113
vn -0.420779 0.021899 -0.906899
vn -0.095166 -0.165426 -0.981620
vn 0.230453 -0.352741 -0.906899
vn 0.506499 -0.511536 -0.694110
vn 0.690942 -0.617645 -0.375652
vn 0.755708 -0.654908 -0.000001
vn 0.690943 -0.617643 0.375653
vn 0.506496 -0.511531 0.694117
vn 0.230451 -0.352742 0.906899
vn -0.095169 -0.165432 0.981619
vn -0.420780 0.021896 0.906899
vn -0.696811 0.180702 0.694119
vn -0.881264 0.286809 0.375652
vn -0.946034 0.324067 -0.000000
vn -0.800820 0.460697 -0.382683
vn -0.612920 0.352601 -0.707108
vn -0.331715 0.190829 -0.923877
vn -0.000000 0.000001 -1.000000
vn 0.331717 -0.190829 -0.923876
vn 0.612922 -0.352601 -0.707106
vn 0.800819 -0.460697 -0.382685
vn 0.866800 -0.498655 -0.000001
vn 0.800819 -0.460695 0.382687
vn 0.612923 -0.352603 0.707104
vn 0.331715 -0.190830 0.923877
vn -0.000000 0.000000 1.000000
vn -0.331715 0.190828 0.923878
vn -0.612923 0.352600 0.707106
vn -0.800820 0.460694 0.382686
vn -0.866802 0.498653 -0.000000
vn -0.690940 0.617650 -0.375647
vn -0.506494 0.511537 -0.694114
vn -0.230452 0.352741 -0.906899
vn 0.095166 0.165426 -0.981620
vn 0.420779 -0.021900 -0.906899
vn 0.696817 -0.180707 -0.694112
vn 0.881264 -0.286813 -0.375650
vn 0.946033 -0.324071 -0.000000
vn 0.881263 -0.286815 0.375651
vn 0.696812 -0.180706 0.694117
vn 0.420779 -0.021898 0.906899
vn 0.095169 0.165432 0.981619
vn -0.230450 0.352743 0.906899
vn -0.506490 0.511535 0.694118
vn -0.690940 0.617648 0.375649
vn -0.755708 0.654909 -0.000000
vn -0.555703 0.751865 -0.354815
vn -0.381486 0.651640 -0.655617
vn -0.120753 0.501647 -0.856603
vn 0.186803 0.324712 -0.927182
vn 0.494358 0.147785 -0.856604
vn 0.755089 -0.002211 -0.655618
vn 0.929307 -0.102430 -0.354818
vn 0.990485 -0.137623 -0.000000
vn 0.929308 -0.102428 0.354818
vn 0.755089 -0.002209 0.655619
vn 0.494355 0.147782 0.856606
vn 0.186801 0.324712 0.927182
vn -0.120753 0.501643 0.856606
vn -0.381484 0.651640 0.655619
vn -0.555702 0.751864 0.354817
vn -0.616878 0.787059 -0.000000
vn -0.400192 0.858381 -0.320980
vn -0.242585 0.767714 -0.593100
vn -0.006713 0.632024 -0.774920
vn 0.271510 0.471969 -0.838765
vn 0.549741 0.311911 -0.774917
vn 0.785609 0.176216 -0.593099
vn 0.943214 0.085550 -0.320982
vn 0.998557 0.053711 0.000000
vn 0.943213 0.085549 0.320983
vn 0.785608 0.176212 0.593102
vn 0.549734 0.311901 0.774926
vn 0.271506 0.471958 0.838773
vn -0.006718 0.632012 0.774930
vn -0.242591 0.767709 0.593104
vn -0.400194 0.858380 0.320981
vn -0.455534 0.890218 0.000000
vn -0.230396 0.933286 -0.275490
vn -0.095124 0.855468 -0.509043
vn 0.107314 0.739012 -0.665090
vn 0.346108 0.601639 -0.719889
vn 0.584905 0.464264 -0.665090
vn 0.787344 0.347799 -0.509044
vn 0.922612 0.269982 -0.275494
vn 0.970113 0.242654 0.000000
vn 0.922611 0.269984 0.275495
vn 0.787343 0.347806 0.509040
vn 0.584902 0.464274 0.665086
vn 0.346111 0.601645 0.719883
vn 0.107323 0.739011 0.665090
vn -0.095121 0.855471 0.509040
vn -0.230395 0.933286 0.275491
vn -0.277896 0.960611 0.000000
vn -0.053267 0.973978 -0.220296
vn 0.054904 0.911750 -0.407061
vn 0.216779 0.818620 -0.531853
vn 0.407735 0.708765 -0.575677
vn 0.598696 0.598908 -0.531857
vn 0.760580 0.505782 -0.407066
vn 0.868748 0.443562 -0.220295
vn 0.906731 0.421709 0.000000
vn 0.868745 0.443565 0.220299
vn 0.760581 0.505789 0.407057
vn 0.598696 0.598914 0.531850
vn 0.407736 0.708767 0.575674
vn 0.216787 0.818621 0.531849
vn 0.054909 0.911753 0.407053
vn -0.053264 0.973977 0.220299
vn -0.091255 0.995828 0.000000
vn 0.122662 0.979738 -0.158324
vn 0.200397 0.935016 -0.292550
vn 0.316732 0.868088 -0.382236
vn 0.453971 0.789138 -0.413728
vn 0.591210 0.710188 -0.382236
vn 0.707558 0.643257 -0.292546
vn 0.785296 0.598536 -0.158319
vn 0.812591 0.582834 0.000000
vn 0.785294 0.598537 0.158325
vn 0.707558 0.643255 0.292548
vn 0.591212 0.710185 0.382236
vn 0.453971 0.789139 0.413727
vn 0.316731 0.868088 0.382236
vn 0.200396 0.935017 0.292550
vn 0.122663 0.979738 0.158329
vn 0.095363 0.995443 0.000000
vn 0.281765 0.954666 -0.096026
vn 0.328903 0.927546 -0.177427
vn 0.399462 0.886956 -0.231817
vn 0.482704 0.839072 -0.250908
vn 0.565933 0.791192 -0.231811
vn 0.636491 0.750601 -0.177419
vn 0.683639 0.723476 -0.096024
vn 0.700193 0.713954 0.000000
vn 0.683639 0.723475 0.096029
vn 0.636492 0.750600 0.177420
vn 0.565933 0.791191 0.231811
vn 0.482703 0.839073 0.250908
vn 0.399459 0.886957 0.231818
vn 0.328903 0.927546 0.177428
vn 0.281766 0.954665 0.096031
vn 0.265218 0.964188 0.000000
vn -0.498657 -0.866800 0.000001
vn 0.498655 0.866801 0.000001
s 1
g arm_down_right elbow_right pivot
usemtl head_plateSG
f 313/365/313 329/368/314 330/367/315 314/366/316
f 314/366/316 330/367/315 331/370/317 315/369/318
f 315/369/318 331/370/317 332/372/319 316/371/320
f 316/371/320 332/372/319 333/374/321 317/373/322
f 317/373/322 333/374/321 334/376/323 318/375/324
f 318/375/324 334/376/323 335/378/325 319/377/326
f 319/377/326 335/378/325 336/380/327 320/379/328
f 320/381/328 336/384/327 337/383/329 321/382/330
f 321/382/330 337/383/329 338/386/331 322/385/332
f 322/385/332 338/386/331 339/388/333 323/387/334
f 323/387/334 339/388/333 340/390/335 324/389/336
f 324/389/336 340/390/335 341/392/337 325/391/338
f 325/391/338 341/392/337 342/394/339 326/393/340
f 326/393/340 342/394/339 343/396/341 327/395/342
f 327/395/342 343/396/341 344/398/343 328/397/344
f 328/397/344 344/398/343 329/368/314 313/365/313
f 329/368/314 345/400/345 346/399/346 330/367/315
f 330/367/315 346/399/346 347/401/347 331/370/317
f 331/370/317 347/401/347 348/402/348 332/372/319
f 332/372/319 348/402/348 349/403/349 333/374/321
f 333/374/321 349/403/349 350/404/350 334/376/323
f 334/376/323 350/404/350 351/405/351 335/378/325
f 335/378/325 351/405/351 352/406/352 336/380/327
f 336/384/327 352/408/352 353/407/353 337/383/329
f 337/383/329 353/407/353 354/409/354 338/386/331
f 338/386/331 354/409/354 355/410/355 339/388/333
f 339/388/333 355/410/355 356/411/356 340/390/335
f 340/390/335 356/411/356 357/412/357 341/392/337
f 341/392/337 357/412/357 358/413/358 342/394/339
f 342/394/339 358/413/358 359/414/359 343/396/341
f 343/396/341 359/414/359 360/415/360 344/398/343
f 344/398/343 360/415/360 345/400/345 329/368/314
f 345/400/345 361/417/361 362/416/362 346/399/346
f 346/399/346 362/416/362 363/418/363 347/401/347
f 347/401/347 363/418/363 364/419/364 348/402/348
f 348/402/348 364/419/364 365/420/365 349/403/349
f 349/403/349 365/420/365 366/421/366 350/404/350
f 350/404/350 366/421/366 367/422/367 351/405/351
f 351/405/351 367/422/367 368/423/368 352/406/352
f 352/408/352 368/425/368 369/424/369 353/407/353
f 353/407/353 369/424/369 370/426/370 354/409/354
f 354/409/354 370/426/370 371/427/371 355/410/355
f 355/410/355 371/427/371 372/428/372 356/411/356
f 356/411/356 372/428/372 373/429/373 357/412/357
f 357/412/357 373/429/373 374/430/374 358/413/358
f 358/413/358 374/430/374 375/431/375 359/414/359
f 359/414/359 375/431/375 376/432/376 360/415/360
f 360/415/360 376/432/376 361/417/361 345/400/345
f 361/417/361 377/434/377 378/433/378 362/416/362
f 362/416/362 378/433/378 379/435/379 363/418/363
f 363/418/363 379/435/379 380/436/380 364/419/364
f 364/419/364 380/436/380 381/437/381 365/420/365
f 365/420/365 381/437/381 382/438/382 366/421/366
f 366/421/366 382/438/382 383/439/383 367/422/367
f 367/422/367 383/439/383 384/440/384 368/423/368
f 368/425/368 384/442/384 385/441/385 369/424/369
f 369/424/369 385/441/385 386/443/386 370/426/370
f 370/426/370 386/443/386 387/444/387 371/427/371
f 371/427/371 387/444/387 388/445/388 372/428/372
f 372/428/372 388/445/388 389/446/389 373/429/373
f 373/429/373 389/446/389 390/447/390 374/430/374
f 374/430/374 390/447/390 391/448/391 375/431/375
f 375/431/375 391/448/391 392/449/392 376/432/376
f 376/432/376 392/449/392 377/434/377 361/417/361
f 377/434/377 393/451/393 394/450/394 378/433/378
f 378/433/378 394/450/394 395/452/395 379/435/379
f 379/435/379 395/452/395 396/453/396 380/436/380
f 380/436/380 396/453/396 397/454/397 381/437/381
f 381/437/381 397/454/397 398/455/398 382/438/382
f 382/438/382 398/455/398 399/456/399 383/439/383
f 383/439/383 399/456/399 400/457/400 384/440/384
f 384/442/384 400/459/400 401/458/401 385/441/385
f 385/441/385 401/458/401 402/460/402 386/443/386
f 386/443/386 402/460/402 403/461/403 387/444/387
f 387/444/387 403/461/403 404/462/404 388/445/388
f 388/445/388 404/462/404 405/463/405 389/446/389
f 389/446/389 405/463/405 406/464/406 390/447/390
f 390/447/390 406/464/406 407/465/407 391/448/391
f 391/448/391 407/465/407 408/466/408 392/449/392
f 392/449/392 408/466/408 393/451/393 377/434/377
f 393/451/393 409/468/409 410/467/410 394/450/394
f 394/450/394 410/467/410 411/469/411 395/452/395
f 395/452/395 411/469/411 412/470/412 396/453/396
f 396/453/396 412/470/412 413/471/413 397/454/397
f 397/454/397 413/471/413 414/472/414 398/455/398
f 398/455/398 414/472/414 415/473/415 399/456/399
f 399/456/399 415/473/415 416/474/416 400/457/400
f 400/459/400 416/476/416 417/475/417 401/458/401
f 401/458/401 417/475/417 418/477/418 402/460/402
f 402/460/402 418/477/418 419/478/419 403/461/403
f 403/461/403 419/478/419 420/479/420 404/462/404
f 404/462/404 420/479/420 421/480/421 405/463/405
f 405/463/405 421/480/421 422/481/422 406/464/406
f 406/464/406 422/481/422 423/482/423 407/465/407
f 407/465/407 423/482/423 424/483/424 408/466/408
f 408/466/408 424/483/424 409/468/409 393/451/393
f 409/468/409 425/485/425 426/484/426 410/467/410
f 410/467/410 426/484/426 427/486/427 411/469/411
f 411/469/411 427/486/427 428/487/428 412/470/412
f 412/470/412 428/487/428 429/488/429 413/471/413
f 413/471/413 429/488/429 430/489/430 414/472/414
f 414/472/414 430/489/430 431/490/431 415/473/415
f 415/473/415 431/490/431 432/491/432 416/474/416
f 416/476/416 432/493/432 433/492/433 417/475/417
f 417/475/417 433/492/433 434/494/434 418/477/418
f 418/477/418 434/494/434 435/495/435 419/478/419
f 419/478/419 435/495/435 436/496/436 420/479/420
f 420/479/420 436/496/436 437/497/437 421/480/421
f 421/480/421 437/497/437 438/498/438 422/481/422
f 422/481/422 438/498/438 439/499/439 423/482/423
f 423/482/423 439/499/439 440/500/440 424/483/424
f 424/483/424 440/500/440 425/485/425 409/468/409
f 425/485/425 441/502/441 442/501/442 426/484/426
f 426/484/426 442/501/442 443/503/443 427/486/427
f 427/486/427 443/503/443 444/504/444 428/487/428
f 428/487/428 444/504/444 445/505/445 429/488/429
f 429/488/429 445/505/445 446/506/446 430/489/430
f 430/489/430 446/506/446 447/507/447 431/490/431
f 431/490/431 447/507/447 448/508/448 432/491/432
f 432/493/432 448/510/448 449/509/449 433/492/433
f 433/492/433 449/509/449 450/511/450 434/494/434
f 434/494/434 450/511/450 451/512/451 435/495/435
f 435/495/435 451/512/451 452/513/452 436/496/436
f 436/496/436 452/513/452 453/514/453 437/497/437
f 437/497/437 453/514/453 454/515/454 438/498/438
f 438/498/438 454/515/454 455/516/455 439/499/439
f 439/499/439 455/516/455 456/517/456 440/500/440
f 440/500/440 456/517/456 441/502/441 425/485/425
f 441/502/441 457/519/457 458/518/458 442/501/442
f 442/501/442 458/518/458 459/520/459 443/503/443
f 443/503/443 459/520/459 460/521/460 444/504/444
f 444/504/444 460/521/460 461/522/461 445/505/445
f 445/505/445 461/522/461 462/523/462 446/506/446
f 446/506/446 462/523/462 463/524/463 447/507/447
f 447/507/447 463/524/463 464/525/464 448/508/448
f 448/510/448 464/527/464 465/526/465 449/509/449
f 449/509/449 465/526/465 466/528/466 450/511/450
f 450/511/450 466/528/466 467/529/467 451/512/451
f 451/512/451 467/529/467 468/530/468 452/513/452
f 452/513/452 468/530/468 469/531/469 453/514/453
f 453/514/453 469/531/469 470/532/470 454/515/454
f 454/515/454 470/532/470 471/533/471 455/516/455
f 455/516/455 471/533/471 472/534/472 456/517/456
f 456/517/456 472/534/472 457/519/457 441/502/441
f 457/519/457 473/536/473 474/535/474 458/518/458
f 458/518/458 474/535/474 475/537/475 459/520/459
f 459/520/459 475/537/475 476/538/476 460/521/460
f 460/521/460 476/538/476 477/539/477 461/522/461
f 461/522/461 477/539/477 478/540/478 462/523/462
f 462/523/462 478/540/478 479/541/479 463/524/463
f 463/524/463 479/541/479 480/542/480 464/525/464
f 464/527/464 480/544/480 481/543/481 465/526/465
f 465/526/465 481/543/481 482/545/482 466/528/466
f 466/528/466 482/545/482 483/546/483 467/529/467
f 467/529/467 483/546/483 484/547/484 468/530/468
f 468/530/468 484/547/484 485/548/485 469/531/469
f 469/531/469 485/548/485 486/549/486 470/532/470
f 470/532/470 486/549/486 487/550/487 471/533/471
f 471/533/471 487/550/487 488/551/488 472/534/472
f 472/534/472 488/551/488 473/536/473 457/519/457
f 473/536/473 489/553/489 490/552/490 474/535/474
f 474/535/474 490/552/490 491/554/491 475/537/475
f 475/537/475 491/554/491 492/555/492 476/538/476
f 476/538/476 492/555/492 493/556/493 477/539/477
f 477/539/477 493/556/493 494/557/494 478/540/478
f 478/540/478 494/557/494 495/558/495 479/541/479
f 479/541/479 495/558/495 496/559/496 480/542/480
f 480/544/480 496/561/496 497/560/497 481/543/481
f 481/543/481 497/560/497 498/562/498 482/545/482
f 482/545/482 498/562/498 499/563/499 483/546/483
f 483/546/483 499/563/499 500/564/500 484/547/484
f 484/547/484 500/564/500 501/565/501 485/548/485
f 485/548/485 501/565/501 502/566/502 486/549/486
f 486/549/486 502/566/502 503/567/503 487/550/487
f 487/550/487 503/567/503 504/568/504 488/551/488
f 488/551/488 504/568/504 489/553/489 473/536/473
f 489/553/489 505/570/505 506/569/506 490/552/490
f 490/552/490 506/569/506 507/571/507 491/554/491
f 491/554/491 507/571/507 508/572/508 492/555/492
f 492/555/492 508/572/508 509/573/509 493/556/493
f 493/556/493 509/573/509 510/574/510 494/557/494
f 494/557/494 510/574/510 511/575/511 495/558/495
f 495/558/495 511/575/511 512/576/512 496/559/496
f 496/561/496 512/578/512 513/577/513 497/560/497
f 497/560/497 513/577/513 514/579/514 498/562/498
f 498/562/498 514/579/514 515/580/515 499/563/499
f 499/563/499 515/580/515 516/581/516 500/564/500
f 500/564/500 516/581/516 517/582/517 501/565/501
f 501/565/501 517/582/517 518/583/518 502/566/502
f 502/566/502 518/583/518 519/584/519 503/567/503
f 503/567/503 519/584/519 520/585/520 504/568/504
f 504/568/504 520/585/520 505/570/505 489/553/489
f 505/570/505 521/587/521 522/586/522 506/569/506
f 506/569/506 522/586/522 523/588/523 507/571/507
f 507/571/507 523/588/523 524/589/524 508/572/508
f 508/572/508 524/589/524 525/590/525 509/573/509
f 509/573/509 525/590/525 526/591/526 510/574/510
f 510/574/510 526/591/526 527/592/527 511/575/511
f 511/575/511 527/592/527 528/593/528 512/576/512
f 512/578/512 528/595/528 529/594/529 513/577/513
f 513/577/513 529/594/529 530/596/530 514/579/514
f 514/579/514 530/596/530 531/597/531 515/580/515
f 515/580/515 531/597/531 532/598/532 516/581/516
f 516/581/516 532/598/532 533/599/533 517/582/517
f 517/582/517 533/599/533 534/600/534 518/583/518
f 518/583/518 534/600/534 535/601/535 519/584/519
f 519/584/519 535/601/535 536/602/536 520/585/520
f 520/585/520 536/602/536 521/587/521 505/570/505
f 521/587/521 537/604/537 538/603/538 522/586/522
f 522/586/522 538/603/538 539/605/539 523/588/523
f 523/588/523 539/605/539 540/606/540 524/589/524
f 524/589/524 540/606/540 541/607/541 525/590/525
f 525/590/525 541/607/541 542/608/542 526/591/526
f 526/591/526 542/608/542 543/609/543 527/592/527
f 527/592/527 543/609/543 544/610/544 528/593/528
f 528/595/528 544/612/544 545/611/545 529/594/529
f 529/594/529 545/611/545 546/613/546 530/596/530
f 530/596/530 546/613/546 547/614/547 531/597/531
f 531/597/531 547/614/547 548/615/548 532/598/532
f 532/598/532 548/615/548 549/616/549 533/599/533
f 533/599/533 549/616/549 550/617/550 534/600/534
f 534/600/534 550/617/550 551/618/551 535/601/535
f 535/601/535 551/618/551 552/619/552 536/602/536
f 536/602/536 552/619/552 537/604/537 521/587/521
f 314/366/316 553/620/553 313/365/313
f 315/369/318 553/620/553 314/366/316
f 316/371/320 553/620/553 315/369/318
f 317/373/322 553/620/553 316/371/320
f 318/375/324 553/620/553 317/373/322
f 319/377/326 553/620/553 318/375/324
f 320/379/328 553/620/553 319/377/326
f 321/382/330 553/620/553 320/381/328
f 322/385/332 553/620/553 321/382/330
f 323/387/334 553/620/553 322/385/332
f 324/389/336 553/620/553 323/387/334
f 325/391/338 553/620/553 324/389/336
f 326/393/340 553/620/553 325/391/338
f 327/395/342 553/620/553 326/393/340
f 328/397/344 553/620/553 327/395/342
f 313/365/313 553/620/553 328/397/344
f 537/604/537 554/621/554 538/603/538
f 538/603/538 554/621/554 539/605/539
f 539/605/539 554/621/554 540/606/540
f 540/606/540 554/621/554 541/607/541
f 541/607/541 554/621/554 542/608/542
f 542/608/542 554/621/554 543/609/543
f 543/609/543 554/621/554 544/610/544
f 544/612/544 554/621/554 545/611/545
f 545/611/545 554/621/554 546/613/546
f 546/613/546 554/621/554 547/614/547
f 547/614/547 554/621/554 548/615/548
f 548/615/548 554/621/554 549/616/549
f 549/616/549 554/621/554 550/617/550
f 550/617/550 554/621/554 551/618/551
f 551/618/551 554/621/554 552/619/552
f 552/619/552 554/621/554 537/604/537
