# This file uses centimeters as units for non-parametric coordinates.

mtllib bot.mtl
g default
v 0.020830 -0.109065 -0.040196
v 0.005112 -0.109065 -0.050107
v -0.012847 -0.109065 -0.050739
v -0.028490 -0.109065 -0.042573
v -0.037719 -0.109065 -0.025363
v -0.037680 -0.109065 -0.004939
v -0.028850 -0.109065 0.013301
v -0.012876 -0.109065 0.024032
v 0.005637 -0.109065 0.025311
v 0.021767 -0.109065 0.016340
v 0.030640 -0.109065 -0.001288
v 0.030538 -0.109065 -0.021845
v 0.046349 -0.109065 -0.058846
v 0.015419 -0.109065 -0.079880
v -0.020314 -0.109065 -0.081329
v -0.051402 -0.109065 -0.064751
v -0.068857 -0.109065 -0.030284
v -0.067973 -0.109065 0.009348
v -0.050166 -0.109065 0.044355
v -0.019264 -0.109065 0.064209
v 0.016134 -0.109065 0.066118
v 0.046786 -0.109065 0.048892
v 0.063734 -0.109065 0.015640
v 0.064005 -0.109065 -0.023273
v 0.072551 -0.109065 -0.070032
v 0.027595 -0.109065 -0.102078
v -0.025558 -0.109065 -0.104259
v -0.071855 -0.109065 -0.079149
v -0.096894 -0.109065 -0.028533
v -0.094433 -0.109065 0.026888
v -0.068012 -0.109065 0.074798
v -0.024188 -0.109065 0.099353
v 0.024808 -0.109065 0.099579
v 0.067439 -0.109065 0.075623
v 0.092302 -0.109065 0.031534
v 0.095151 -0.109065 -0.020469
v 0.098799 -0.083093 -0.073813
v 0.041141 -0.081675 -0.118294
v -0.028844 -0.081060 -0.121664
v -0.089820 -0.081429 -0.088057
v -0.120657 -0.082953 -0.021968
v -0.115736 -0.083200 0.046907
v -0.081120 -0.082192 0.105356
v -0.027053 -0.080091 0.132808
v 0.032346 -0.078768 0.131610
v 0.084648 -0.079469 0.103263
v 0.117174 -0.081661 0.051102
v 0.123746 -0.083486 -0.011378
v 0.114110 -0.047813 -0.072320
v 0.049689 -0.045808 -0.123800
v -0.029670 -0.044882 -0.128030
v -0.098852 -0.045385 -0.089832
v -0.132859 -0.047635 -0.015085
v -0.126360 -0.047341 0.060760
v -0.087153 -0.044698 0.124364
v -0.028033 -0.040298 0.152354
v 0.036165 -0.037716 0.149988
v 0.093180 -0.039262 0.120089
v 0.130520 -0.043912 0.064499
v 0.139964 -0.047976 -0.002823
v 0.115512 -0.007805 -0.071964
v 0.050287 -0.006021 -0.124076
v -0.029980 -0.005055 -0.128557
v -0.099874 -0.005414 -0.090123
v -0.134067 -0.007581 -0.014247
v -0.127222 -0.006066 0.062932
v -0.087234 -0.001323 0.127651
v -0.027506 0.005434 0.156219
v 0.037228 0.009196 0.154186
v 0.094553 0.006769 0.124402
v 0.132660 -0.000481 0.067862
v 0.142192 -0.007101 -0.000726
v 0.103705 0.031064 -0.078929
v 0.042526 0.032769 -0.125692
v -0.031247 0.033632 -0.129531
v -0.095430 0.033359 -0.094531
v -0.127950 0.031649 -0.024448
v -0.122707 0.031714 0.049738
v -0.085699 0.033476 0.113175
v -0.028093 0.036576 0.144212
v 0.035322 0.038336 0.144523
v 0.090811 0.037019 0.114936
v 0.125580 0.033507 0.057741
v 0.131742 0.030607 -0.010759
v 0.083617 0.067104 -0.084032
v 0.030743 0.069498 -0.121656
v -0.031073 0.070627 -0.124478
v -0.084817 0.070219 -0.095596
v -0.113774 0.067919 -0.036173
v -0.111154 0.065656 0.030872
v -0.080031 0.064063 0.089696
v -0.027870 0.063775 0.122343
v 0.031303 0.063971 0.125228
v 0.082298 0.063944 0.096638
v 0.110877 0.064035 0.041373
v 0.112024 0.064869 -0.023568
v 0.062320 0.097744 -0.080048
v 0.020262 0.099263 -0.108087
v -0.028019 0.100029 -0.109896
v -0.070023 0.099785 -0.087529
v -0.093542 0.098224 -0.041681
v -0.092519 0.096145 0.011937
v -0.068611 0.094260 0.059595
v -0.026140 0.093269 0.087902
v 0.023040 0.093101 0.091497
v 0.065468 0.093510 0.067857
v 0.087745 0.094443 0.021861
v 0.086912 0.095859 -0.031861
v 0.041284 0.121547 -0.064120
v 0.011798 0.122231 -0.083675
v -0.021735 0.122576 -0.084988
v -0.050894 0.122477 -0.069539
v -0.067417 0.121795 -0.037301
v -0.066942 0.119863 0.000967
v -0.050250 0.117341 0.035154
v -0.020166 0.114948 0.056005
v 0.014989 0.113786 0.059075
v 0.045206 0.114583 0.042184
v 0.060600 0.116970 0.008946
v 0.059258 0.119693 -0.029770
v 0.017381 0.135855 -0.046063
v 0.002444 0.135859 -0.055583
v -0.014521 0.135844 -0.056121
v -0.029272 0.135848 -0.048295
v -0.037630 0.135909 -0.032409
v -0.037435 0.135469 -0.013415
v -0.029135 0.134652 0.003591
v -0.013919 0.133607 0.014144
v 0.003930 0.132955 0.015790
v 0.019380 0.133199 0.007341
v 0.027222 0.134214 -0.009396
v 0.026551 0.135322 -0.028918
v -0.004506 -0.109065 -0.017685
v -0.005982 0.140189 -0.023534
vt 0.140635 0.646355
vt 0.143308 0.647643
vt 0.142212 0.652552
vt 0.136924 0.649775
vt 0.146169 0.647418
vt 0.147907 0.652136
vt 0.148503 0.645840
vt 0.152539 0.648944
vt 0.149655 0.642942
vt 0.154684 0.643160
vt 0.149280 0.639703
vt 0.153827 0.636889
vt 0.147549 0.636969
vt 0.150369 0.631657
vt 0.144821 0.635556
vt 0.145107 0.629067
vt 0.141861 0.635688
vt 0.139457 0.629404
vt 0.139464 0.637403
vt 0.134906 0.632692
vt 0.138375 0.640360
vt 0.132819 0.638273
vt 0.138763 0.643619
vt 0.133480 0.644451
vt 0.140682 0.656294
vt 0.132970 0.652024
vt 0.149154 0.655679
vt 0.156044 0.650858
vt 0.159100 0.642375
vt 0.157707 0.633628
vt 0.152649 0.626505
vt 0.145252 0.623402
vt 0.137476 0.624253
vt 0.131146 0.628825
vt 0.127999 0.636268
vt 0.128488 0.644570
vt 0.127080 0.703890
vt 0.121688 0.693516
vt 0.124542 0.694237
vt 0.130734 0.703766
vt 0.122303 0.682554
vt 0.124525 0.683328
vt 0.127462 0.672971
vt 0.130069 0.674002
vt 0.137715 0.666865
vt 0.140354 0.668986
vt 0.149805 0.666835
vt 0.151200 0.670234
vt 0.160324 0.673291
vt 0.159478 0.676741
vt 0.165980 0.683695
vt 0.163181 0.685280
vt 0.166036 0.695411
vt 0.162674 0.694323
vt 0.159463 0.705189
vt 0.158141 0.702212
vt 0.148964 0.710855
vt 0.150163 0.707457
vt 0.137121 0.710380
vt 0.140301 0.708306
vt 0.127178 0.694263
vt 0.133384 0.702638
vt 0.126741 0.684033
vt 0.132220 0.675404
vt 0.141871 0.671373
vt 0.151225 0.673042
vt 0.157885 0.679009
vt 0.160466 0.686119
vt 0.159796 0.693405
vt 0.156411 0.699929
vt 0.150125 0.704630
vt 0.141982 0.705993
vt 0.129588 0.693476
vt 0.134859 0.700798
vt 0.129211 0.684668
vt 0.134074 0.677460
vt 0.142200 0.673741
vt 0.150162 0.675497
vt 0.155699 0.680707
vt 0.157564 0.686675
vt 0.156794 0.692525
vt 0.154280 0.697883
vt 0.149246 0.701981
vt 0.142446 0.703401
vt 0.131684 0.692103
vt 0.135553 0.698061
vt 0.131707 0.685302
vt 0.135216 0.679581
vt 0.141563 0.676461
vt 0.148203 0.677384
vt 0.153298 0.681452
vt 0.155441 0.686695
vt 0.154917 0.692046
vt 0.152502 0.696747
vt 0.147777 0.700046
vt 0.141685 0.700773
vt 0.133814 0.690801
vt 0.136314 0.695364
vt 0.134069 0.685913
vt 0.136404 0.681699
vt 0.140991 0.679133
vt 0.146327 0.679353
vt 0.150837 0.682262
vt 0.153121 0.686713
vt 0.152957 0.691509
vt 0.150600 0.695592
vt 0.146236 0.698034
vt 0.140979 0.698055
vt 0.135891 0.689936
vt 0.137528 0.693201
vt 0.136130 0.686480
vt 0.137727 0.683469
vt 0.140924 0.681589
vt 0.144795 0.681567
vt 0.148227 0.683489
vt 0.150171 0.686861
vt 0.150206 0.690688
vt 0.148249 0.693907
vt 0.144790 0.695585
vt 0.140832 0.695348
vt 0.138099 0.689376
vt 0.139190 0.691503
vt 0.138230 0.687103
vt 0.139280 0.685125
vt 0.141410 0.683925
vt 0.143988 0.683898
vt 0.146310 0.685111
vt 0.147708 0.687348
vt 0.147812 0.689978
vt 0.146441 0.692174
vt 0.144039 0.693215
vt 0.141382 0.692955
vt 0.140170 0.688819
vt 0.140700 0.689850
vt 0.140219 0.687687
vt 0.140756 0.686709
vt 0.141789 0.686147
vt 0.143018 0.686159
vt 0.144116 0.686739
vt 0.144789 0.687815
vt 0.144856 0.689087
vt 0.144199 0.690155
vt 0.143039 0.690653
vt 0.141759 0.690537
vt 0.144247 0.642325
vt 0.142324 0.688333
vn 0.000000 -1.000000 -0.000000
vn 0.000000 -1.000000 -0.000000
vn 0.000000 -1.000000 -0.000000
vn 0.000000 -1.000000 -0.000000
vn 0.000000 -1.000000 -0.000000
vn 0.000000 -1.000000 0.000000
vn 0.000000 -1.000000 0.000000
vn 0.000000 -1.000000 0.000000
vn 0.000000 -1.000000 -0.000000
vn 0.000000 -1.000000 -0.000000
vn 0.000000 -1.000000 -0.000000
vn 0.000000 -1.000000 -0.000000
vn 0.000000 -1.000000 0.000000
vn 0.000000 -1.000000 0.000000
vn 0.000000 -1.000000 0.000000
vn 0.000000 -1.000000 -0.000000
vn 0.000000 -1.000000 -0.000000
vn 0.000000 -1.000000 0.000000
vn 0.000000 -1.000000 -0.000000
vn 0.000000 -1.000000 -0.000000
vn 0.000000 -1.000000 -0.000000
vn 0.000000 -1.000000 -0.000000
vn 0.000000 -1.000000 0.000000
vn 0.000000 -1.000000 0.000000
vn 0.190458 -0.765307 -0.614842
vn 0.423693 -0.818634 -0.387714
vn -0.154989 -0.737220 -0.657636
vn -0.458014 -0.758813 -0.463062
vn -0.564091 -0.812448 -0.147409
vn -0.498698 -0.857792 0.124469
vn -0.345736 -0.878320 0.330184
vn -0.109237 -0.883154 0.456187
vn 0.126363 -0.873972 0.469261
vn 0.344857 -0.870452 0.351265
vn 0.464252 -0.874289 0.141733
vn 0.496197 -0.861669 -0.106374
vn 0.317804 -0.364373 -0.875347
vn 0.699765 -0.451803 -0.553357
vn -0.213574 -0.318606 -0.923513
vn -0.681710 -0.355227 -0.639597
vn -0.881524 -0.437068 -0.178566
vn -0.815019 -0.519825 0.255980
vn -0.556491 -0.575321 0.599437
vn -0.161404 -0.586758 0.793513
vn 0.213167 -0.571793 0.792220
vn 0.554275 -0.565439 0.610785
vn 0.774580 -0.562642 0.288895
vn 0.837889 -0.532890 -0.118197
vn 0.368117 -0.106625 -0.923646
vn 0.800202 -0.154853 -0.579394
vn -0.220552 -0.085346 -0.971634
vn -0.739846 -0.106670 -0.664267
vn -0.975098 -0.149384 -0.163915
vn -0.926499 -0.195127 0.321753
vn -0.645886 -0.234942 0.726384
vn -0.185404 -0.250448 0.950211
vn 0.248182 -0.247789 0.936486
vn 0.640836 -0.243080 0.728176
vn 0.901739 -0.234187 0.363349
vn 0.972959 -0.208010 -0.100408
vn 0.377885 0.007383 -0.925823
vn 0.814646 0.055456 -0.577302
vn -0.219573 -0.024538 -0.975287
vn -0.749729 -0.006667 -0.661712
vn -0.987031 0.040721 -0.155278
vn -0.941456 0.082783 0.326815
vn -0.670674 0.103885 0.734442
vn -0.211329 0.101995 0.972079
vn 0.248133 0.084184 0.965061
vn 0.667623 0.078731 0.740325
vn 0.930898 0.085340 0.355169
vn 0.990924 0.082400 -0.106203
vn 0.349535 0.102549 -0.931294
vn 0.771543 0.221184 -0.596488
vn -0.220740 0.039078 -0.974550
vn -0.734336 0.086409 -0.673264
vn -0.963427 0.197213 -0.181428
vn -0.909722 0.315024 0.270494
vn -0.658259 0.415815 0.627529
vn -0.243179 0.475472 0.845453
vn 0.207927 0.474494 0.855349
vn 0.636388 0.441691 0.632392
vn 0.880946 0.394915 0.260721
vn 0.931357 0.327960 -0.158163
vn 0.309021 0.305128 -0.900779
vn 0.701624 0.403584 -0.587234
vn -0.214077 0.258313 -0.942043
vn -0.689244 0.299872 -0.659560
vn -0.898978 0.393720 -0.191895
vn -0.832564 0.505838 0.225757
vn -0.586394 0.610874 0.531954
vn -0.224578 0.679338 0.698617
vn 0.163886 0.693932 0.701142
vn 0.547342 0.659101 0.515754
vn 0.783762 0.589856 0.194386
vn 0.842427 0.507535 -0.180900
vn 0.259577 0.584007 -0.769127
vn 0.599218 0.612614 -0.515405
vn -0.179439 0.575043 -0.798202
vn -0.583336 0.590788 -0.557395
vn -0.769500 0.616376 -0.167186
vn -0.724824 0.662603 0.188645
vn -0.515154 0.725371 0.456568
vn -0.203920 0.775888 0.597005
vn 0.131096 0.794611 0.592796
vn 0.467441 0.771238 0.432077
vn 0.683381 0.713837 0.153059
vn 0.733372 0.657095 -0.174334
vn 0.199603 0.802292 -0.562571
vn 0.464396 0.800912 -0.377990
vn -0.126324 0.807770 -0.575804
vn -0.430106 0.809750 -0.399142
vn -0.582520 0.805691 -0.107387
vn -0.556318 0.813577 0.169121
vn -0.389802 0.838130 0.381565
vn -0.147820 0.861518 0.485732
vn 0.102949 0.874079 0.474750
vn 0.351569 0.866891 0.353412
vn 0.525373 0.838918 0.142126
vn 0.571654 0.812512 -0.114174
vn 0.119886 0.930876 -0.345104
vn 0.293602 0.926676 -0.234670
vn -0.076110 0.934779 -0.346980
vn -0.260084 0.934519 -0.242962
vn -0.363524 0.929453 -0.062988
vn -0.358025 0.925754 0.121648
vn -0.252424 0.928178 0.273437
vn -0.088991 0.931066 0.353831
vn 0.078943 0.933160 0.350686
vn 0.243161 0.932735 0.266230
vn 0.353473 0.927944 0.118222
vn 0.375126 0.925043 -0.059798
vn 0.000000 -1.000000 0.000000
vn 0.011502 0.999459 0.030822
s 1
g foot_main_left foot_left
usemtl head_plateSG
f 1/1/1 2/2/2 14/3/3 13/4/4
f 2/2/2 3/5/5 15/6/6 14/3/3
f 3/5/5 4/7/7 16/8/8 15/6/6
f 4/7/7 5/9/9 17/10/10 16/8/8
f 5/9/9 6/11/11 18/12/12 17/10/10
f 6/11/11 7/13/13 19/14/14 18/12/12
f 7/13/13 8/15/15 20/16/16 19/14/14
f 8/15/15 9/17/17 21/18/18 20/16/16
f 9/17/17 10/19/19 22/20/20 21/18/18
f 10/19/19 11/21/21 23/22/22 22/20/20
f 11/21/21 12/23/23 24/24/24 23/22/22
f 12/23/23 1/1/1 13/4/4 24/24/24
f 13/4/4 14/3/3 26/25/25 25/26/26
f 14/3/3 15/6/6 27/27/27 26/25/25
f 15/6/6 16/8/8 28/28/28 27/27/27
f 16/8/8 17/10/10 29/29/29 28/28/28
f 17/10/10 18/12/12 30/30/30 29/29/29
f 18/12/12 19/14/14 31/31/31 30/30/30
f 19/14/14 20/16/16 32/32/32 31/31/31
f 20/16/16 21/18/18 33/33/33 32/32/32
f 21/18/18 22/20/20 34/34/34 33/33/33
f 22/20/20 23/22/22 35/35/35 34/34/34
f 23/22/22 24/24/24 36/36/36 35/35/35
f 24/24/24 13/4/4 25/26/26 36/36/36
f 25/37/26 26/38/25 38/39/37 37/40/38
f 26/38/25 27/41/27 39/42/39 38/39/37
f 27/41/27 28/43/28 40/44/40 39/42/39
f 28/43/28 29/45/29 41/46/41 40/44/40
f 29/45/29 30/47/30 42/48/42 41/46/41
f 30/47/30 31/49/31 43/50/43 42/48/42
f 31/49/31 32/51/32 44/52/44 43/50/43
f 32/51/32 33/53/33 45/54/45 44/52/44
f 33/53/33 34/55/34 46/56/46 45/54/45
f 34/55/34 35/57/35 47/58/47 46/56/46
f 35/57/35 36/59/36 48/60/48 47/58/47
f 36/59/36 25/37/26 37/40/38 48/60/48
f 37/40/38 38/39/37 50/61/49 49/62/50
f 38/39/37 39/42/39 51/63/51 50/61/49
f 39/42/39 40/44/40 52/64/52 51/63/51
f 40/44/40 41/46/41 53/65/53 52/64/52
f 41/46/41 42/48/42 54/66/54 53/65/53
f 42/48/42 43/50/43 55/67/55 54/66/54
f 43/50/43 44/52/44 56/68/56 55/67/55
f 44/52/44 45/54/45 57/69/57 56/68/56
f 45/54/45 46/56/46 58/70/58 57/69/57
f 46/56/46 47/58/47 59/71/59 58/70/58
f 47/58/47 48/60/48 60/72/60 59/71/59
f 48/60/48 37/40/38 49/62/50 60/72/60
f 49/62/50 50/61/49 62/73/61 61/74/62
f 50/61/49 51/63/51 63/75/63 62/73/61
f 51/63/51 52/64/52 64/76/64 63/75/63
f 52/64/52 53/65/53 65/77/65 64/76/64
f 53/65/53 54/66/54 66/78/66 65/77/65
f 54/66/54 55/67/55 67/79/67 66/78/66
f 55/67/55 56/68/56 68/80/68 67/79/67
f 56/68/56 57/69/57 69/81/69 68/80/68
f 57/69/57 58/70/58 70/82/70 69/81/69
f 58/70/58 59/71/59 71/83/71 70/82/70
f 59/71/59 60/72/60 72/84/72 71/83/71
f 60/72/60 49/62/50 61/74/62 72/84/72
f 61/74/62 62/73/61 74/85/73 73/86/74
f 62/73/61 63/75/63 75/87/75 74/85/73
f 63/75/63 64/76/64 76/88/76 75/87/75
f 64/76/64 65/77/65 77/89/77 76/88/76
f 65/77/65 66/78/66 78/90/78 77/89/77
f 66/78/66 67/79/67 79/91/79 78/90/78
f 67/79/67 68/80/68 80/92/80 79/91/79
f 68/80/68 69/81/69 81/93/81 80/92/80
f 69/81/69 70/82/70 82/94/82 81/93/81
f 70/82/70 71/83/71 83/95/83 82/94/82
f 71/83/71 72/84/72 84/96/84 83/95/83
f 72/84/72 61/74/62 73/86/74 84/96/84
f 73/86/74 74/85/73 86/97/85 85/98/86
f 74/85/73 75/87/75 87/99/87 86/97/85
f 75/87/75 76/88/76 88/100/88 87/99/87
f 76/88/76 77/89/77 89/101/89 88/100/88
f 77/89/77 78/90/78 90/102/90 89/101/89
f 78/90/78 79/91/79 91/103/91 90/102/90
f 79/91/79 80/92/80 92/104/92 91/103/91
f 80/92/80 81/93/81 93/105/93 92/104/92
f 81/93/81 82/94/82 94/106/94 93/105/93
f 82/94/82 83/95/83 95/107/95 94/106/94
f 83/95/83 84/96/84 96/108/96 95/107/95
f 84/96/84 73/86/74 85/98/86 96/108/96
f 85/98/86 86/97/85 98/109/97 97/110/98
f 86/97/85 87/99/87 99/111/99 98/109/97
f 87/99/87 88/100/88 100/112/100 99/111/99
f 88/100/88 89/101/89 101/113/101 100/112/100
f 89/101/89 90/102/90 102/114/102 101/113/101
f 90/102/90 91/103/91 103/115/103 102/114/102
f 91/103/91 92/104/92 104/116/104 103/115/103
f 92/104/92 93/105/93 105/117/105 104/116/104
f 93/105/93 94/106/94 106/118/106 105/117/105
f 94/106/94 95/107/95 107/119/107 106/118/106
f 95/107/95 96/108/96 108/120/108 107/119/107
f 96/108/96 85/98/86 97/110/98 108/120/108
f 97/110/98 98/109/97 110/121/109 109/122/110
f 98/109/97 99/111/99 111/123/111 110/121/109
f 99/111/99 100/112/100 112/124/112 111/123/111
f 100/112/100 101/113/101 113/125/113 112/124/112
f 101/113/101 102/114/102 114/126/114 113/125/113
f 102/114/102 103/115/103 115/127/115 114/126/114
f 103/115/103 104/116/104 116/128/116 115/127/115
f 104/116/104 105/117/105 117/129/117 116/128/116
f 105/117/105 106/118/106 118/130/118 117/129/117
f 106/118/106 107/119/107 119/131/119 118/130/118
f 107/119/107 108/120/108 120/132/120 119/131/119
f 108/120/108 97/110/98 109/122/110 120/132/120
f 109/122/110 110/121/109 122/133/121 121/134/122
f 110/121/109 111/123/111 123/135/123 122/133/121
f 111/123/111 112/124/112 124/136/124 123/135/123
f 112/124/112 113/125/113 125/137/125 124/136/124
f 113/125/113 114/126/114 126/138/126 125/137/125
f 114/126/114 115/127/115 127/139/127 126/138/126
f 115/127/115 116/128/116 128/140/128 127/139/127
f 116/128/116 117/129/117 129/141/129 128/140/128
f 117/129/117 118/130/118 130/142/130 129/141/129
f 118/130/118 119/131/119 131/143/131 130/142/130
f 119/131/119 120/132/120 132/144/132 131/143/131
f 120/132/120 109/122/110 121/134/122 132/144/132
f 2/2/2 1/1/1 133/145/133
f 3/5/5 2/2/2 133/145/133
f 4/7/7 3/5/5 133/145/133
f 5/9/9 4/7/7 133/145/133
f 6/11/11 5/9/9 133/145/133
f 7/13/13 6/11/11 133/145/133
f 8/15/15 7/13/13 133/145/133
f 9/17/17 8/15/15 133/145/133
f 10/19/19 9/17/17 133/145/133
f 11/21/21 10/19/19 133/145/133
f 12/23/23 11/21/21 133/145/133
f 1/1/1 12/23/23 133/145/133
f 121/134/122 122/133/121 134/146/134
f 122/133/121 123/135/123 134/146/134
f 123/135/123 124/136/124 134/146/134
f 124/136/124 125/137/125 134/146/134
f 125/137/125 126/138/126 134/146/134
f 126/138/126 127/139/127 134/146/134
f 127/139/127 128/140/128 134/146/134
f 128/140/128 129/141/129 134/146/134
f 129/141/129 130/142/130 134/146/134
f 130/142/130 131/143/131 134/146/134
f 131/143/131 132/144/132 134/146/134
f 132/144/132 121/134/122 134/146/134
g default
v 0.064914 -0.053840 0.192419
v 0.059390 -0.047994 0.194165
v 0.051523 -0.045224 0.196317
v 0.043116 -0.046166 0.198384
v 0.036094 -0.050602 0.199890
v 0.032065 -0.057518 0.200491
v 0.031954 -0.065329 0.200050
v 0.035119 -0.072016 0.198226
v 0.042681 -0.076681 0.196659
v 0.051061 -0.077622 0.194487
v 0.059007 -0.074853 0.192647
v 0.064698 -0.069007 0.191562
v 0.066829 -0.061423 0.191480
v 0.087623 -0.052481 0.233505
v 0.078282 -0.042550 0.237792
v 0.064754 -0.037857 0.242120
v 0.050100 -0.039452 0.245512
v 0.037632 -0.046978 0.247201
v 0.030184 -0.058748 0.246799
v 0.029484 -0.072104 0.244385
v 0.035743 -0.083994 0.240499
v 0.047556 -0.088260 0.236104
v 0.062273 -0.088960 0.232044
v 0.076391 -0.086651 0.229453
v 0.086580 -0.078420 0.228737
v 0.090633 -0.065417 0.230235
v 0.078917 -0.060126 0.246129
v 0.073423 -0.054290 0.248667
v 0.065465 -0.051533 0.251223
v 0.056842 -0.052470 0.253220
v 0.049502 -0.056893 0.254207
v 0.045112 -0.063811 0.253957
v 0.044687 -0.071663 0.252518
v 0.048343 -0.078641 0.250217
v 0.055161 -0.081457 0.247551
v 0.064015 -0.082009 0.245066
v 0.072393 -0.080270 0.243618
v 0.078313 -0.075365 0.243281
v 0.080689 -0.067728 0.244184
v 0.049163 -0.061423 0.195940
v 0.063478 -0.069077 0.252409
v 0.089639 -0.047383 0.217799
v 0.093142 -0.063014 0.213745
v 0.088135 -0.078645 0.211840
v 0.075831 -0.088481 0.212778
v 0.058992 -0.090058 0.216120
v 0.041417 -0.089533 0.220865
v 0.027122 -0.085318 0.225891
v 0.019546 -0.071063 0.230694
v 0.020321 -0.054965 0.233763
v 0.029269 -0.040710 0.234394
v 0.044340 -0.031565 0.232443
v 0.062082 -0.029625 0.228357
v 0.078430 -0.035333 0.223072
v 0.075676 -0.049198 0.189981
v 0.082356 -0.046469 0.194344
v 0.066516 -0.039543 0.192874
v 0.071200 -0.034703 0.197900
v 0.053176 -0.034868 0.196523
v 0.055325 -0.029131 0.202259
v 0.038849 -0.036472 0.200043
v 0.038356 -0.031025 0.206423
v 0.027061 -0.043894 0.202574
v 0.024169 -0.039952 0.209439
v 0.020465 -0.055153 0.203562
v 0.016009 -0.053876 0.210629
v 0.020266 -0.067703 0.202858
v 0.015754 -0.069618 0.209735
v 0.026717 -0.079319 0.200320
v 0.023471 -0.083573 0.206920
v 0.037311 -0.082181 0.197631
v 0.037526 -0.088266 0.203316
v 0.053204 -0.082617 0.193716
v 0.054532 -0.088812 0.199063
v 0.066487 -0.082307 0.190311
v 0.070548 -0.088331 0.195050
v 0.075332 -0.073652 0.188598
v 0.081963 -0.077040 0.192583
v 0.078779 -0.061423 0.188463
v 0.086243 -0.061745 0.192421
vt 0.482006 0.628626
vt 0.480276 0.631274
vt 0.477847 0.628852
vt 0.478783 0.627431
vt 0.477424 0.632843
vt 0.476328 0.629706
vt 0.474175 0.633345
vt 0.474587 0.629954
vt 0.471115 0.632306
vt 0.472946 0.629405
vt 0.468925 0.630003
vt 0.471753 0.628172
vt 0.467978 0.626880
vt 0.471376 0.626498
vt 0.468899 0.623550
vt 0.471882 0.624782
vt 0.471232 0.621266
vt 0.473145 0.623742
vt 0.474799 0.620149
vt 0.474986 0.623242
vt 0.478323 0.620528
vt 0.476778 0.623311
vt 0.480996 0.622390
vt 0.478166 0.624179
vt 0.482265 0.625490
vt 0.478937 0.625734
vt 0.438998 0.631804
vt 0.436381 0.635582
vt 0.430480 0.627614
vt 0.439665 0.627067
vt 0.438228 0.622455
vt 0.435018 0.619024
vt 0.430768 0.617559
vt 0.426453 0.618397
vt 0.423104 0.621041
vt 0.421360 0.625744
vt 0.421760 0.630557
vt 0.424156 0.634697
vt 0.428000 0.637215
vt 0.432412 0.637534
vt 0.475126 0.626255
vt 0.485545 0.625205
vt 0.485150 0.629748
vt 0.483659 0.620854
vt 0.479972 0.617776
vt 0.474568 0.616534
vt 0.469132 0.618759
vt 0.465895 0.622438
vt 0.464899 0.627294
vt 0.466148 0.631755
vt 0.469330 0.635103
vt 0.473791 0.636655
vt 0.478508 0.635937
vt 0.482641 0.633637
vt 0.491578 0.631446
vt 0.489686 0.631053
vt 0.489695 0.624337
vt 0.491731 0.623779
vt 0.487924 0.638495
vt 0.486421 0.637244
vt 0.481095 0.643097
vt 0.480507 0.641503
vt 0.472825 0.643892
vt 0.473168 0.641951
vt 0.465382 0.640637
vt 0.466586 0.639119
vt 0.460485 0.634597
vt 0.462214 0.633810
vt 0.458749 0.627079
vt 0.460852 0.627205
vt 0.461408 0.619217
vt 0.462747 0.620550
vt 0.465954 0.614103
vt 0.467077 0.615776
vt 0.474326 0.611270
vt 0.474377 0.613225
vt 0.482054 0.612571
vt 0.481175 0.614451
vt 0.487885 0.617182
vt 0.486688 0.618339
vt 0.444433 0.634829
vt 0.440116 0.641088
vt 0.445552 0.626799
vt 0.443104 0.618940
vt 0.437728 0.613177
vt 0.430804 0.610773
vt 0.423866 0.612109
vt 0.418167 0.617104
vt 0.417742 0.623369
vt 0.419243 0.632328
vt 0.420868 0.639759
vt 0.426605 0.643723
vt 0.433719 0.644243
vn 0.855087 0.328203 0.401384
vn 0.592274 0.626004 0.507278
vn 0.511480 0.342412 0.788126
vn 0.684720 0.136914 0.715831
vn 0.249595 0.753803 0.607852
vn 0.281498 0.432453 0.856588
vn -0.109404 0.711003 0.694626
vn 0.039153 0.402138 0.914742
vn -0.433712 0.496636 0.751829
vn -0.177449 0.252542 0.951175
vn -0.648503 0.125421 0.750808
vn -0.319756 -0.000939 0.947499
vn -0.669864 -0.315329 0.672198
vn -0.338050 -0.300485 0.891870
vn -0.437153 -0.747401 0.500288
vn -0.187105 -0.613710 0.767041
vn -0.079475 -0.954973 0.285851
vn 0.046958 -0.788625 0.613079
vn 0.099087 -0.969466 0.224314
vn 0.178297 -0.803716 0.567671
vn 0.408448 -0.885594 0.221120
vn 0.388285 -0.727019 0.566284
vn 0.802386 -0.544026 0.245384
vn 0.650964 -0.466225 0.599066
vn 0.947198 -0.094808 0.306313
vn 0.745590 -0.150273 0.649241
vn -0.244375 0.058176 -0.967934
vn -0.244379 0.058177 -0.967933
vn -0.240047 0.061042 -0.968840
vn -0.244374 0.058173 -0.967935
vn -0.244379 0.058173 -0.967933
vn -0.244376 0.058175 -0.967934
vn -0.244376 0.058177 -0.967934
vn -0.257406 0.078775 -0.963087
vn -0.243618 0.062949 -0.967826
vn -0.224181 0.038701 -0.973779
vn -0.243495 0.055395 -0.968319
vn -0.245025 0.056011 -0.967898
vn -0.244379 0.058171 -0.967933
vn -0.244376 0.058173 -0.967934
vn 0.240313 -0.202728 0.949290
vn 0.991387 -0.003569 -0.130918
vn 0.867848 0.493744 -0.055284
vn 0.839780 -0.525424 -0.136744
vn 0.393440 -0.917490 -0.058459
vn 0.028170 -0.999599 0.002896
vn -0.154240 -0.987165 0.041409
vn -0.612613 -0.765463 0.196907
vn -0.907832 -0.266025 0.324148
vn -0.893241 0.257588 0.368469
vn -0.640332 0.687720 0.342076
vn -0.261794 0.927647 0.266336
vn 0.152224 0.974381 0.165560
vn 0.550912 0.832851 0.053436
vn 0.123482 0.262626 -0.956964
vn 0.766194 0.518463 -0.379662
vn 0.888546 0.028176 -0.457922
vn 0.169907 0.053797 -0.983991
vn -0.002607 0.412335 -0.911029
vn 0.456201 0.849011 -0.266573
vn -0.170092 0.478492 -0.861460
vn 0.068734 0.985727 -0.153680
vn -0.347154 0.456137 -0.819404
vn -0.334269 0.940721 -0.057513
vn -0.503359 0.346884 -0.791392
vn -0.705893 0.708243 0.010340
vn -0.601517 0.162735 -0.782109
vn -0.957563 0.286562 0.030902
vn -0.614373 -0.051115 -0.787358
vn -0.972770 -0.231373 -0.013578
vn -0.491106 -0.308291 -0.814722
vn -0.674063 -0.729983 -0.112976
vn -0.273897 -0.447565 -0.851273
vn -0.209466 -0.949976 -0.231667
vn -0.218997 -0.449956 -0.865783
vn -0.057268 -0.961045 -0.270396
vn -0.059173 -0.382823 -0.921925
vn 0.296873 -0.893652 -0.336530
vn 0.118513 -0.162464 -0.979572
vn 0.746317 -0.484959 -0.455880
s 1
g foot_left foot_tip_left
usemtl head_plateSG
f 148/147/135 149/148/136 162/149/137 161/150/138
f 149/148/136 150/151/139 163/152/140 162/149/137
f 150/151/139 151/153/141 164/154/142 163/152/140
f 151/153/141 152/155/143 165/156/144 164/154/142
f 152/155/143 153/157/145 166/158/146 165/156/144
f 153/157/145 154/159/147 167/160/148 166/158/146
f 154/159/147 155/161/149 168/162/150 167/160/148
f 155/161/149 156/163/151 169/164/152 168/162/150
f 156/163/151 157/165/153 170/166/154 169/164/152
f 157/165/153 158/167/155 171/168/156 170/166/154
f 158/167/155 159/169/157 172/170/158 171/168/156
f 159/169/157 160/171/159 173/172/160 172/170/158
f 160/171/159 148/147/135 161/150/138 173/172/160
f 136/173/161 135/174/162 174/175/163
f 137/176/164 136/173/161 174/175/163
f 138/177/165 137/176/164 174/175/163
f 139/178/166 138/177/165 174/175/163
f 140/179/167 139/178/166 174/175/163
f 141/180/168 140/179/167 174/175/163
f 142/181/169 141/180/168 174/175/163
f 143/182/170 142/181/169 174/175/163
f 144/183/171 143/182/170 174/175/163
f 145/184/172 144/183/171 174/175/163
f 146/185/173 145/184/172 174/175/163
f 147/186/174 146/185/173 174/175/163
f 135/174/162 147/186/174 174/175/163
f 161/150/138 162/149/137 175/187/175
f 162/149/137 163/152/140 175/187/175
f 163/152/140 164/154/142 175/187/175
f 164/154/142 165/156/144 175/187/175
f 165/156/144 166/158/146 175/187/175
f 166/158/146 167/160/148 175/187/175
f 167/160/148 168/162/150 175/187/175
f 168/162/150 169/164/152 175/187/175
f 169/164/152 170/166/154 175/187/175
f 170/166/154 171/168/156 175/187/175
f 171/168/156 172/170/158 175/187/175
f 172/170/158 173/172/160 175/187/175
f 173/172/160 161/150/138 175/187/175
f 177/188/176 176/189/177 148/147/135 160/171/159
f 178/190/178 177/188/176 160/171/159 159/169/157
f 179/191/179 178/190/178 159/169/157 158/167/155
f 180/192/180 179/191/179 158/167/155 157/165/153
f 181/193/181 180/192/180 157/165/153 156/163/151
f 182/194/182 181/193/181 156/163/151 155/161/149
f 183/195/183 182/194/182 155/161/149 154/159/147
f 184/196/184 183/195/183 154/159/147 153/157/145
f 185/197/185 184/196/184 153/157/145 152/155/143
f 186/198/186 185/197/185 152/155/143 151/153/141
f 187/199/187 186/198/186 151/153/141 150/151/139
f 188/200/188 187/199/187 150/151/139 149/148/136
f 176/189/177 188/200/188 149/148/136 148/147/135
f 189/201/189 190/202/190 214/203/191 213/204/192
f 190/202/190 189/201/189 191/205/193 192/206/194
f 192/206/194 191/205/193 193/207/195 194/208/196
f 194/208/196 193/207/195 195/209/197 196/210/198
f 196/210/198 195/209/197 197/211/199 198/212/200
f 198/212/200 197/211/199 199/213/201 200/214/202
f 200/214/202 199/213/201 201/215/203 202/216/204
f 202/216/204 201/215/203 203/217/205 204/218/206
f 204/218/206 203/217/205 205/219/207 206/220/208
f 206/220/208 205/219/207 207/221/209 208/222/210
f 208/222/210 207/221/209 209/223/211 210/224/212
f 210/224/212 209/223/211 211/225/213 212/226/214
f 212/226/214 211/225/213 213/204/192 214/203/191
f 135/174/162 136/173/161 191/227/193 189/228/189
f 136/173/161 137/176/164 193/229/195 191/227/193
f 137/176/164 138/177/165 195/230/197 193/229/195
f 138/177/165 139/178/166 197/231/199 195/230/197
f 139/178/166 140/179/167 199/232/201 197/231/199
f 140/179/167 141/180/168 201/233/203 199/232/201
f 141/180/168 142/181/169 203/234/205 201/233/203
f 142/181/169 143/182/170 205/235/207 203/234/205
f 143/182/170 144/183/171 207/236/209 205/235/207
f 144/183/171 145/184/172 209/237/211 207/236/209
f 145/184/172 146/185/173 211/238/213 209/237/211
f 146/185/173 147/186/174 213/239/192 211/238/213
f 147/186/174 135/174/162 189/228/189 213/239/192
f 190/202/190 192/206/194 188/200/188 176/189/177
f 192/206/194 194/208/196 187/199/187 188/200/188
f 194/208/196 196/210/198 186/198/186 187/199/187
f 196/210/198 198/212/200 185/197/185 186/198/186
f 198/212/200 200/214/202 184/196/184 185/197/185
f 200/214/202 202/216/204 183/195/183 184/196/184
f 202/216/204 204/218/206 182/194/182 183/195/183
f 204/218/206 206/220/208 181/193/181 182/194/182
f 206/220/208 208/222/210 180/192/180 181/193/181
f 208/222/210 210/224/212 179/191/179 180/192/180
f 210/224/212 212/226/214 178/190/178 179/191/179
f 212/226/214 214/203/191 177/188/176 178/190/178
f 214/203/191 190/202/190 176/189/177 177/188/176
g default
v 0.088841 -0.011507 0.196580
v 0.053743 -0.004761 0.209049
v 0.011802 -0.012036 0.210537
v -0.014843 -0.033131 0.209529
v -0.021859 -0.060620 0.205429
v -0.012111 -0.093008 0.205461
v 0.015051 -0.100278 0.198462
v 0.049049 -0.101329 0.190458
v 0.079449 -0.098113 0.181979
v 0.105627 -0.091983 0.175171
v 0.115142 -0.061099 0.176194
v 0.110695 -0.033857 0.183120
v 0.075171 -0.088309 0.187770
v 0.094547 -0.080163 0.182227
v 0.050160 -0.090320 0.194976
v 0.021402 -0.087497 0.201440
v -0.000760 -0.077127 0.206571
v -0.009187 -0.058772 0.205070
v -0.003683 -0.036797 0.207878
v 0.017800 -0.019955 0.208721
v 0.053497 -0.014048 0.208310
v 0.082423 -0.019290 0.197952
v 0.100035 -0.037498 0.187125
v 0.103808 -0.059267 0.182024
v 0.090816 -0.085543 0.210422
v 0.090126 -0.085028 0.211754
v 0.075571 -0.091804 0.214596
v 0.075322 -0.091050 0.215879
v 0.056124 -0.093235 0.220581
v 0.056412 -0.092380 0.221737
v 0.034649 -0.090898 0.225757
v 0.035499 -0.090146 0.226739
v 0.017816 -0.082741 0.230140
v 0.019092 -0.082272 0.230928
v 0.011015 -0.067008 0.234111
v 0.012508 -0.067069 0.234682
v 0.017209 -0.047288 0.238243
v 0.018636 -0.047915 0.238588
v 0.034585 -0.033481 0.238943
v 0.035484 -0.034645 0.239202
v 0.059604 -0.028789 0.234464
v 0.059694 -0.030143 0.234860
v 0.080935 -0.033124 0.227334
v 0.080244 -0.034277 0.227999
v 0.095570 -0.047731 0.218381
v 0.094507 -0.048353 0.219378
v 0.099166 -0.067301 0.211824
v 0.098132 -0.067347 0.213054
v 0.084131 -0.082353 0.212359
v 0.085136 -0.083550 0.213649
v 0.072044 -0.087995 0.216398
v 0.072753 -0.089251 0.217729
v 0.056356 -0.089337 0.221594
v 0.056721 -0.090596 0.223011
v 0.038135 -0.086847 0.225585
v 0.038207 -0.088064 0.227091
v 0.023966 -0.079240 0.228454
v 0.023786 -0.080352 0.230084
v 0.018874 -0.066265 0.230757
v 0.018421 -0.066967 0.232598
v 0.024176 -0.049281 0.233577
v 0.023818 -0.049487 0.235578
v 0.037857 -0.038466 0.234016
v 0.037938 -0.038309 0.236043
v 0.058500 -0.034859 0.230273
v 0.058993 -0.034609 0.232217
v 0.075544 -0.037994 0.224669
v 0.076489 -0.037835 0.226463
v 0.087106 -0.049760 0.217708
v 0.088389 -0.049966 0.219281
v 0.090610 -0.066645 0.212706
v 0.091935 -0.067383 0.214084
v 0.081413 -0.011260 0.173745
v 0.082343 -0.009221 0.171342
v 0.047468 -0.003043 0.184542
v 0.047947 -0.005419 0.186456
v 0.006603 -0.009991 0.190354
v 0.008506 -0.012045 0.192029
v -0.018240 -0.029955 0.188722
v -0.015437 -0.031045 0.190406
v -0.022144 -0.050440 0.183851
v -0.019327 -0.050612 0.185734
v -0.015813 -0.079027 0.178612
v -0.013290 -0.078285 0.180720
v 0.009914 -0.081944 0.171854
v 0.011580 -0.080658 0.174213
v 0.042373 -0.085007 0.164466
v 0.043033 -0.083520 0.167076
v 0.070938 -0.081606 0.156283
v 0.070676 -0.080367 0.159135
v 0.095685 -0.075771 0.150008
v 0.092287 -0.070314 0.153634
v 0.103235 -0.051048 0.152224
v 0.101709 -0.051204 0.155221
v 0.101712 -0.030838 0.158408
v 0.100117 -0.031901 0.161214
v 0.102969 -0.081318 0.144283
v 0.101248 -0.079913 0.143639
v 0.074430 -0.089486 0.151283
v 0.073397 -0.087807 0.150450
v 0.041444 -0.094003 0.160627
v 0.041166 -0.092199 0.159582
v 0.004815 -0.092998 0.169234
v 0.005281 -0.091281 0.168021
v -0.024470 -0.084757 0.177221
v -0.023314 -0.083338 0.175831
v -0.032250 -0.051967 0.183557
v -0.030646 -0.051397 0.181900
v -0.026904 -0.027237 0.189464
v -0.025371 -0.027549 0.187642
v 0.001991 -0.003826 0.191194
v 0.002551 -0.004974 0.189371
v 0.047515 0.004330 0.184552
v 0.047092 0.002975 0.182938
v 0.086998 -0.003247 0.169776
v 0.085538 -0.004402 0.168513
v 0.109959 -0.028066 0.154711
v 0.107761 -0.028355 0.153844
v 0.112262 -0.052566 0.146975
v 0.110054 -0.051969 0.146307
vt 0.407027 0.579479
vt 0.406757 0.579557
vt 0.404873 0.577305
vt 0.405097 0.577109
vt 0.406849 0.583590
vt 0.406572 0.583490
vt 0.401795 0.575689
vt 0.401916 0.575434
vt 0.398172 0.574493
vt 0.398172 0.574199
vt 0.394783 0.574798
vt 0.394652 0.574557
vt 0.392142 0.577068
vt 0.391881 0.576933
vt 0.391365 0.581010
vt 0.391070 0.581012
vt 0.392932 0.584582
vt 0.392690 0.584740
vt 0.396583 0.587041
vt 0.396474 0.587286
vt 0.400350 0.587955
vt 0.400397 0.588238
vt 0.404124 0.586608
vt 0.404316 0.586825
vt 0.410653 0.573890
vt 0.413537 0.579114
vt 0.404791 0.569654
vt 0.397122 0.567626
vt 0.391018 0.568853
vt 0.384850 0.573558
vt 0.382831 0.580113
vt 0.385331 0.588050
vt 0.393711 0.593830
vt 0.402438 0.595170
vt 0.409654 0.591939
vt 0.413224 0.586473
vt 0.397305 0.531221
vt 0.397486 0.530991
vt 0.400116 0.532409
vt 0.400102 0.532747
vt 0.396452 0.528935
vt 0.396772 0.528846
vt 0.396479 0.526077
vt 0.396790 0.526098
vt 0.396976 0.522826
vt 0.397275 0.522964
vt 0.398472 0.520314
vt 0.398630 0.520576
vt 0.400910 0.519246
vt 0.400859 0.519584
vt 0.404199 0.520256
vt 0.403979 0.520514
vt 0.406223 0.522788
vt 0.405916 0.522932
vt 0.406655 0.526612
vt 0.406342 0.526595
vt 0.405854 0.529821
vt 0.405564 0.529663
vt 0.403466 0.532129
vt 0.403292 0.531847
vt 0.395165 0.535953
vt 0.392723 0.531865
vt 0.391896 0.526032
vt 0.393449 0.519497
vt 0.396984 0.515047
vt 0.401052 0.512786
vt 0.406563 0.513726
vt 0.411128 0.518603
vt 0.412007 0.527106
vt 0.409792 0.533968
vt 0.404814 0.537977
vt 0.399562 0.538385
vt 0.405830 0.579449
vt 0.404222 0.577467
vt 0.401613 0.576073
vt 0.398387 0.575094
vt 0.395355 0.575456
vt 0.393217 0.577481
vt 0.392505 0.581015
vt 0.393806 0.584001
vt 0.396980 0.586138
vt 0.400188 0.586936
vt 0.403347 0.585752
vt 0.405566 0.582935
vt 0.413026 0.537643
vt 0.413465 0.538222
vt 0.405519 0.543629
vt 0.405442 0.542889
vt 0.416808 0.527482
vt 0.417472 0.527522
vt 0.414243 0.515951
vt 0.414756 0.515446
vt 0.407909 0.509792
vt 0.408096 0.509059
vt 0.402185 0.508328
vt 0.402152 0.507596
vt 0.393927 0.510477
vt 0.393696 0.509771
vt 0.388997 0.516416
vt 0.388543 0.515901
vt 0.386192 0.525970
vt 0.385536 0.525936
vt 0.388288 0.534913
vt 0.387780 0.535342
vt 0.392989 0.541013
vt 0.391759 0.542075
vt 0.399265 0.543197
vt 0.399127 0.543897
vt 0.419165 0.580371
vt 0.419528 0.580314
vt 0.418732 0.589156
vt 0.418300 0.588960
vt 0.416559 0.571339
vt 0.416877 0.571048
vt 0.407855 0.563527
vt 0.408056 0.563146
vt 0.395610 0.561566
vt 0.395660 0.561149
vt 0.386868 0.565089
vt 0.386675 0.564778
vt 0.379944 0.571998
vt 0.379517 0.571798
vt 0.378259 0.579032
vt 0.377820 0.579137
vt 0.380791 0.589639
vt 0.380451 0.589895
vt 0.391476 0.599201
vt 0.391307 0.599582
vt 0.404672 0.600376
vt 0.404702 0.600798
vt 0.414364 0.595128
vt 0.414585 0.595517
vt 0.404328 0.602052
vt 0.390790 0.600729
vt 0.379746 0.591043
vt 0.376538 0.579925
vt 0.377857 0.571353
vt 0.386123 0.563267
vt 0.396059 0.558860
vt 0.408865 0.561554
vt 0.417915 0.569405
vt 0.421091 0.579704
vt 0.420209 0.590165
vt 0.414930 0.597065
vn 0.665268 -0.656822 0.354970
vn 0.390303 -0.308262 0.867547
vn 0.351743 -0.503905 0.788896
vn 0.225912 -0.943613 0.241990
vn 0.900586 -0.156333 0.405593
vn 0.348424 -0.237796 0.906672
vn 0.185330 -0.644265 0.742007
vn 0.077322 -0.961182 0.264861
vn 0.084080 -0.467501 0.879985
vn -0.063144 -0.923518 0.378323
vn 0.079740 -0.283716 0.955587
vn -0.427990 -0.603746 0.672544
vn 0.139309 -0.226090 0.964094
vn -0.636791 -0.112161 0.762835
vn 0.202451 -0.257568 0.944813
vn -0.540258 0.322767 0.777138
vn 0.227720 -0.306900 0.924097
vn -0.225358 0.655347 0.720926
vn 0.232138 -0.327512 0.915886
vn 0.125396 0.741465 0.659170
vn 0.240328 -0.299420 0.923358
vn 0.541212 0.609006 0.579829
vn 0.275027 -0.254863 0.927041
vn 0.835440 0.270360 0.478483
vn 0.173538 -0.982972 -0.060427
vn 0.700625 -0.713529 0.001097
vn 0.023897 -0.999526 -0.019416
vn -0.144485 -0.986067 0.082436
vn -0.597909 -0.698660 0.392911
vn -0.798387 -0.122623 0.589527
vn -0.642975 0.353209 0.679578
vn -0.291667 0.738656 0.607715
vn 0.105985 0.851384 0.513725
vn 0.560469 0.729934 0.391243
vn 0.896112 0.355826 0.265277
vn 0.981466 -0.133088 0.137881
vn -0.682982 0.718691 -0.130456
vn 0.151191 -0.021307 0.988275
vn 0.000028 -0.194158 0.980970
vn -0.936037 0.155710 -0.315577
vn -0.188680 0.982025 0.005200
vn 0.265731 0.015615 0.963921
vn 0.023744 0.999659 -0.010860
vn 0.262540 0.026904 0.964546
vn 0.206728 0.971111 -0.119196
vn 0.263189 0.040807 0.963881
vn 0.540158 0.715710 -0.442706
vn 0.352592 0.037444 0.935028
vn 0.702217 0.088273 -0.706470
vn 0.489417 -0.178388 0.853609
vn 0.571937 -0.353899 -0.740030
vn 0.481470 -0.447355 0.753698
vn 0.238491 -0.691527 -0.681845
vn 0.329782 -0.633124 0.700284
vn -0.106135 -0.775321 -0.622586
vn 0.183489 -0.685293 0.704774
vn -0.537515 -0.643457 -0.545014
vn 0.033214 -0.616135 0.786940
vn -0.848785 -0.300108 -0.435315
vn -0.062323 -0.436659 0.897466
vn -0.704020 0.707133 0.065718
vn -0.199518 0.968177 0.151085
vn 0.039960 0.993146 0.109833
vn 0.218943 0.975543 -0.019500
vn 0.606263 0.697097 -0.382754
vn 0.795523 0.113896 -0.595123
vn 0.634056 -0.353096 -0.687966
vn 0.281827 -0.738675 -0.612317
vn -0.100180 -0.847717 -0.520902
vn -0.555930 -0.729176 -0.399053
vn -0.893775 -0.356171 -0.272596
vn -0.980439 0.159234 -0.115690
vn -0.568408 -0.768914 -0.292718
vn -0.516736 -0.257733 -0.816430
vn -0.672128 -0.001768 -0.740433
vn -0.917201 -0.370943 -0.145408
vn -0.092990 -0.901814 -0.422000
vn -0.220440 -0.384383 -0.896468
vn 0.299926 -0.762700 -0.573003
vn 0.045520 -0.279060 -0.959194
vn 0.681116 -0.351912 -0.642059
vn 0.228217 -0.011556 -0.973542
vn 0.835990 0.120416 -0.535370
vn 0.289481 0.208525 -0.934194
vn 0.593572 0.749857 -0.292212
vn 0.088455 0.422089 -0.902229
vn 0.177332 0.983141 0.044584
vn -0.125900 0.611990 -0.780780
vn 0.045514 0.985383 0.164161
vn -0.204153 0.632351 -0.747298
vn -0.198225 0.962372 0.185868
vn -0.314997 0.611569 -0.725783
vn -0.720226 0.688554 0.084663
vn -0.486944 0.446370 -0.750759
vn -0.987255 0.159100 -0.003847
vn -0.657075 0.224510 -0.719616
vn 0.699567 -0.640486 -0.316835
vn -0.347920 0.212507 -0.913122
vn -0.416764 0.232757 -0.878710
vn 0.982710 -0.074872 -0.169337
vn 0.094290 -0.939284 -0.329931
vn -0.309964 0.383853 -0.869816
vn -0.030405 -0.959743 -0.279231
vn -0.237278 0.354048 -0.904626
vn -0.196326 -0.955180 -0.221555
vn -0.189016 0.320474 -0.928208
vn -0.749124 -0.657081 0.084005
vn -0.152079 0.177774 -0.972249
vn -0.935413 -0.083637 0.343522
vn -0.046647 0.209447 -0.976707
vn -0.771122 0.422053 0.476700
vn -0.105371 0.257995 -0.960383
vn -0.357776 0.835378 0.417302
vn -0.114138 0.160047 -0.980488
vn 0.064292 0.955893 0.286594
vn -0.243063 0.081657 -0.966567
vn 0.540977 0.828303 0.145801
vn -0.373475 0.170802 -0.911780
vn 0.905128 0.425073 -0.007562
vn -0.379477 0.244666 -0.892264
s 1
g foot_left foot_part3_left
usemtl head_plateSG
f 239/240/215 240/241/216 242/242/217 241/243/218
f 240/241/216 239/240/215 261/244/219 262/245/220
f 241/243/218 242/242/217 244/246/221 243/247/222
f 243/247/222 244/246/221 246/248/223 245/249/224
f 245/249/224 246/248/223 248/250/225 247/251/226
f 247/251/226 248/250/225 250/252/227 249/253/228
f 249/253/228 250/252/227 252/254/229 251/255/230
f 251/255/230 252/254/229 254/256/231 253/257/232
f 253/257/232 254/256/231 256/258/233 255/259/234
f 255/259/234 256/258/233 258/260/235 257/261/236
f 257/261/236 258/260/235 260/262/237 259/263/238
f 259/263/238 260/262/237 262/245/220 261/244/219
f 239/240/215 241/243/218 223/264/239 224/265/240
f 241/243/218 243/247/222 222/266/241 223/264/239
f 243/247/222 245/249/224 221/267/242 222/266/241
f 245/249/224 247/251/226 220/268/243 221/267/242
f 247/251/226 249/253/228 219/269/244 220/268/243
f 249/253/228 251/255/230 218/270/245 219/269/244
f 251/255/230 253/257/232 217/271/246 218/270/245
f 253/257/232 255/259/234 216/272/247 217/271/246
f 255/259/234 257/261/236 215/273/248 216/272/247
f 257/261/236 259/263/238 226/274/249 215/273/248
f 259/263/238 261/244/219 225/275/250 226/274/249
f 261/244/219 239/240/215 224/265/240 225/275/250
f 263/276/251 264/277/252 286/278/253 285/279/254
f 264/277/252 263/276/251 265/280/255 266/281/256
f 266/281/256 265/280/255 267/282/257 268/283/258
f 268/283/258 267/282/257 269/284/259 270/285/260
f 270/285/260 269/284/259 271/286/261 272/287/262
f 272/287/262 271/286/261 273/288/263 274/289/264
f 274/289/264 273/288/263 275/290/265 276/291/266
f 276/291/266 275/290/265 277/292/267 278/293/268
f 278/293/268 277/292/267 279/294/269 280/295/270
f 280/295/270 279/294/269 281/296/271 282/297/272
f 282/297/272 281/296/271 283/298/273 284/299/274
f 284/299/274 283/298/273 285/279/254 286/278/253
f 263/276/251 228/300/275 227/301/276 265/280/255
f 265/280/255 227/301/276 229/302/277 267/282/257
f 267/282/257 229/302/277 230/303/278 269/284/259
f 269/284/259 230/303/278 231/304/279 271/286/261
f 271/286/261 231/304/279 232/305/280 273/288/263
f 273/288/263 232/305/280 233/306/281 275/290/265
f 275/290/265 233/306/281 234/307/282 277/292/267
f 277/292/267 234/307/282 235/308/283 279/294/269
f 279/294/269 235/308/283 236/309/284 281/296/271
f 281/296/271 236/309/284 237/310/285 283/298/273
f 283/298/273 237/310/285 238/311/286 285/279/254
f 285/279/254 238/311/286 228/300/275 263/276/251
f 240/241/216 264/312/252 266/313/256 242/242/217
f 242/242/217 266/313/256 268/314/258 244/246/221
f 244/246/221 268/314/258 270/315/260 246/248/223
f 246/248/223 270/315/260 272/316/262 248/250/225
f 248/250/225 272/316/262 274/317/264 250/252/227
f 250/252/227 274/317/264 276/318/266 252/254/229
f 252/254/229 276/318/266 278/319/268 254/256/231
f 254/256/231 278/319/268 280/320/270 256/258/233
f 256/258/233 280/320/270 282/321/272 258/260/235
f 258/260/235 282/321/272 284/322/274 260/262/237
f 260/262/237 284/322/274 286/323/253 262/245/220
f 262/245/220 286/323/253 264/312/252 240/241/216
f 287/324/287 288/325/288 309/326/289 310/327/290
f 288/325/288 287/324/287 290/328/291 289/329/292
f 289/329/292 290/328/291 292/330/293 291/331/294
f 291/331/294 292/330/293 294/332/295 293/333/296
f 293/333/296 294/332/295 296/334/297 295/335/298
f 295/335/298 296/334/297 298/336/299 297/337/300
f 297/337/300 298/336/299 300/338/301 299/339/302
f 299/339/302 300/338/301 302/340/303 301/341/304
f 301/341/304 302/340/303 304/342/305 303/343/306
f 303/343/306 304/342/305 306/344/307 305/345/308
f 305/345/308 306/344/307 308/346/309 307/347/310
f 307/347/310 308/346/309 310/327/290 309/326/289
f 235/308/283 290/328/291 287/324/287 236/309/284
f 234/307/282 292/330/293 290/328/291 235/308/283
f 233/306/281 294/332/295 292/330/293 234/307/282
f 232/305/280 296/334/297 294/332/295 233/306/281
f 231/304/279 298/336/299 296/334/297 232/305/280
f 230/303/278 300/338/301 298/336/299 231/304/279
f 229/302/277 302/340/303 300/338/301 230/303/278
f 227/301/276 304/342/305 302/340/303 229/302/277
f 228/300/275 306/344/307 304/342/305 227/301/276
f 238/311/286 308/346/309 306/344/307 228/300/275
f 237/310/285 310/327/290 308/346/309 238/311/286
f 236/309/284 287/324/287 310/327/290 237/310/285
f 311/348/311 312/349/312 334/350/313 333/351/314
f 312/349/312 311/348/311 313/352/315 314/353/316
f 314/353/316 313/352/315 315/354/317 316/355/318
f 316/355/318 315/354/317 317/356/319 318/357/320
f 318/357/320 317/356/319 319/358/321 320/359/322
f 320/359/322 319/358/321 321/360/323 322/361/324
f 322/361/324 321/360/323 323/362/325 324/363/326
f 324/363/326 323/362/325 325/364/327 326/365/328
f 326/365/328 325/364/327 327/366/329 328/367/330
f 328/367/330 327/366/329 329/368/331 330/369/332
f 330/369/332 329/368/331 331/370/333 332/371/334
f 332/371/334 331/370/333 333/351/314 334/350/313
f 216/272/247 215/273/248 329/368/331 327/366/329
f 217/271/246 216/272/247 327/366/329 325/364/327
f 218/270/245 217/271/246 325/364/327 323/362/325
f 219/269/244 218/270/245 323/362/325 321/360/323
f 220/268/243 219/269/244 321/360/323 319/358/321
f 221/267/242 220/268/243 319/358/321 317/356/319
f 222/266/241 221/267/242 317/356/319 315/354/317
f 223/264/239 222/266/241 315/354/317 313/352/315
f 224/265/240 223/264/239 313/352/315 311/348/311
f 225/275/250 224/265/240 311/348/311 333/351/314
f 226/274/249 225/275/250 333/351/314 331/370/333
f 215/273/248 226/274/249 331/370/333 329/368/331
f 330/369/332 288/372/288 289/373/292 328/367/330
f 328/367/330 289/373/292 291/374/294 326/365/328
f 326/365/328 291/374/294 293/375/296 324/363/326
f 324/363/326 293/375/296 295/376/298 322/361/324
f 322/361/324 295/376/298 297/377/300 320/359/322
f 320/359/322 297/377/300 299/378/302 318/357/320
f 318/357/320 299/378/302 301/379/304 316/355/318
f 316/355/318 301/379/304 303/380/306 314/353/316
f 314/353/316 303/380/306 305/381/308 312/349/312
f 312/349/312 305/381/308 307/382/310 334/350/313
f 334/350/313 307/382/310 309/383/289 332/371/334
f 332/371/334 309/383/289 288/372/288 330/369/332
g default
v 0.093328 0.034686 0.126314
v 0.038003 0.046625 0.146519
v -0.026480 0.033752 0.155924
v -0.068559 -0.003531 0.154400
v -0.077353 -0.051766 0.149608
v -0.059756 -0.084271 0.145365
v -0.026389 -0.106469 0.142425
v 0.034819 -0.109041 0.133914
v 0.087419 -0.106469 0.114513
v 0.117912 -0.084259 0.101756
v 0.135184 -0.051766 0.097391
v 0.128170 -0.004813 0.106292
v 0.082848 -0.088189 0.124487
v 0.105199 -0.071700 0.114950
v 0.036736 -0.089570 0.141691
v -0.017709 -0.088158 0.149133
v -0.042383 -0.071623 0.151036
v -0.056143 -0.047845 0.153358
v -0.049851 -0.009973 0.156058
v -0.016002 0.019797 0.157022
v 0.038561 0.030252 0.149105
v 0.084175 0.020969 0.132391
v 0.112369 -0.011207 0.116744
v 0.118174 -0.048247 0.110779
v 0.110565 -0.086874 0.158469
v 0.109308 -0.085800 0.161111
v 0.083738 -0.101922 0.170573
v 0.083279 -0.100169 0.172897
v 0.046931 -0.102050 0.183158
v 0.047430 -0.100295 0.185162
v 0.003487 -0.101914 0.190223
v 0.004971 -0.100220 0.192061
v -0.025901 -0.086874 0.191963
v -0.023582 -0.085843 0.193700
v -0.041254 -0.062820 0.193615
v -0.038283 -0.062762 0.195092
v -0.031304 -0.024442 0.195451
v -0.028514 -0.025648 0.196552
v 0.001013 0.003074 0.195704
v 0.002822 0.000798 0.196676
v 0.047987 0.012424 0.187531
v 0.048275 0.009768 0.188740
v 0.088035 0.003779 0.174336
v 0.086858 0.001523 0.176060
v 0.115949 -0.025336 0.159405
v 0.114060 -0.026531 0.161691
v 0.124825 -0.062827 0.152763
v 0.122929 -0.062813 0.155488
v 0.102615 -0.083249 0.162608
v 0.104476 -0.085655 0.164549
v 0.081699 -0.095068 0.172444
v 0.082382 -0.097905 0.174690
v 0.047389 -0.097843 0.184370
v 0.047984 -0.100381 0.186672
v 0.006132 -0.095474 0.190980
v 0.006641 -0.098212 0.193287
v -0.016989 -0.083213 0.191910
v -0.017544 -0.085510 0.194492
v -0.029947 -0.059101 0.191711
v -0.031321 -0.060641 0.194638
v -0.021782 -0.027487 0.191639
v -0.022711 -0.027765 0.194858
v 0.005497 -0.004282 0.191279
v 0.005445 -0.003782 0.194522
v 0.047153 0.003469 0.183819
v 0.047938 0.004169 0.186907
v 0.081582 -0.003270 0.172724
v 0.083275 -0.002767 0.175499
v 0.105405 -0.028499 0.160680
v 0.107792 -0.028778 0.163056
v 0.113914 -0.059443 0.156473
v 0.116587 -0.060931 0.158367
v 0.083773 0.042602 0.109701
v 0.084943 0.046599 0.104718
v 0.030218 0.058116 0.127057
v 0.031248 0.053490 0.131166
v -0.034841 0.045157 0.134279
v -0.032031 0.033439 0.125324
v -0.074447 0.007582 0.130291
v -0.069719 0.005382 0.134138
v -0.078722 -0.038372 0.124255
v -0.074187 -0.038638 0.128286
v -0.064243 -0.070210 0.119026
v -0.060393 -0.068950 0.123260
v -0.039281 -0.093978 0.115394
v -0.036532 -0.091495 0.119789
v 0.025225 -0.097205 0.107444
v 0.026365 -0.094496 0.111952
v 0.080667 -0.094063 0.085940
v 0.080315 -0.091582 0.091107
v 0.103729 -0.070369 0.077910
v 0.102351 -0.069116 0.083459
v 0.120085 -0.038850 0.075994
v 0.116584 -0.039170 0.081698
v 0.122307 0.005783 0.084193
v 0.120081 0.003634 0.089790
v 0.113927 -0.080653 0.065998
v 0.111394 -0.077957 0.065304
v 0.083935 -0.108900 0.077221
v 0.082925 -0.105183 0.075950
v 0.023485 -0.114100 0.100303
v 0.023053 -0.110634 0.098679
v -0.046214 -0.110204 0.109144
v -0.045956 -0.106486 0.107566
v -0.078753 -0.080620 0.113313
v -0.076970 -0.077931 0.111475
v -0.095927 -0.041701 0.120019
v -0.093317 -0.040195 0.117931
v -0.088956 0.012917 0.128209
v -0.086395 0.012357 0.125881
v -0.042853 0.056982 0.132730
v -0.041888 0.054852 0.130168
v 0.029607 0.072216 0.124357
v 0.029007 0.069697 0.122084
v 0.091584 0.058062 0.099411
v 0.089355 0.055917 0.097727
v 0.134512 0.011226 0.075086
v 0.131171 0.010712 0.074236
v 0.133294 -0.041760 0.064041
v 0.129923 -0.040353 0.063582
vt 0.229729 0.586307
vt 0.229368 0.586333
vt 0.227536 0.583078
vt 0.227845 0.582887
vt 0.229684 0.589882
vt 0.229344 0.589728
vt 0.224043 0.580616
vt 0.224234 0.580333
vt 0.219949 0.577961
vt 0.220011 0.577607
vt 0.216224 0.577442
vt 0.216115 0.577100
vt 0.213064 0.578711
vt 0.212795 0.578446
vt 0.210762 0.583259
vt 0.210362 0.583162
vt 0.211850 0.588445
vt 0.211487 0.588580
vt 0.215924 0.592595
vt 0.215726 0.592894
vt 0.220677 0.594503
vt 0.220692 0.594885
vt 0.225961 0.593436
vt 0.226198 0.593771
vt 0.234291 0.581418
vt 0.236131 0.587665
vt 0.228135 0.574828
vt 0.218945 0.571041
vt 0.212403 0.571566
vt 0.207253 0.574691
vt 0.203582 0.581820
vt 0.204777 0.590852
vt 0.211841 0.598881
vt 0.221013 0.601920
vt 0.229864 0.599506
vt 0.235076 0.593610
vt 0.228411 0.586271
vt 0.228779 0.586020
vt 0.228536 0.589588
vt 0.228111 0.589567
vt 0.226969 0.583662
vt 0.227215 0.583264
vt 0.223699 0.581156
vt 0.223947 0.580794
vt 0.219633 0.578678
vt 0.219912 0.578312
vt 0.216625 0.578329
vt 0.216732 0.577907
vt 0.213646 0.579834
vt 0.213482 0.579440
vt 0.211950 0.583605
vt 0.211539 0.583489
vt 0.212873 0.587951
vt 0.212503 0.588147
vt 0.216553 0.591675
vt 0.216332 0.592009
vt 0.220681 0.593396
vt 0.220662 0.593808
vt 0.225153 0.592425
vt 0.225423 0.592760
vt 0.269381 0.582693
vt 0.264303 0.581240
vt 0.267764 0.577970
vt 0.271891 0.581534
vt 0.275289 0.575760
vt 0.275829 0.581186
vt 0.283948 0.576881
vt 0.280323 0.580900
vt 0.287886 0.579707
vt 0.282927 0.581725
vt 0.290162 0.583700
vt 0.284835 0.584101
vt 0.289974 0.590120
vt 0.284750 0.588270
vt 0.285302 0.595819
vt 0.281696 0.591663
vt 0.276670 0.598427
vt 0.276462 0.592924
vt 0.268865 0.596885
vt 0.271955 0.592289
vt 0.263713 0.591562
vt 0.268613 0.589081
vt 0.262634 0.585399
vt 0.267847 0.585140
vt 0.265743 0.600825
vt 0.265128 0.601533
vt 0.258232 0.593846
vt 0.259110 0.593526
vt 0.276871 0.603281
vt 0.276910 0.604154
vt 0.288824 0.599357
vt 0.289496 0.599997
vt 0.294887 0.591531
vt 0.295810 0.591746
vt 0.295368 0.583330
vt 0.296252 0.583229
vt 0.292642 0.577419
vt 0.293397 0.577028
vt 0.287676 0.572952
vt 0.288198 0.572290
vt 0.274854 0.570582
vt 0.274799 0.569854
vt 0.263535 0.574585
vt 0.262917 0.574009
vt 0.259343 0.579575
vt 0.258544 0.579286
vt 0.257474 0.585670
vt 0.256590 0.585679
vt 0.241737 0.589184
vt 0.242188 0.589325
vt 0.240040 0.597048
vt 0.239737 0.596719
vt 0.240159 0.581050
vt 0.240646 0.581023
vt 0.231593 0.569868
vt 0.231874 0.569457
vt 0.217205 0.565401
vt 0.217064 0.564943
vt 0.208885 0.566834
vt 0.208588 0.566467
vt 0.202585 0.571437
vt 0.202157 0.571282
vt 0.198255 0.580159
vt 0.197826 0.580195
vt 0.199175 0.592065
vt 0.198792 0.592237
vt 0.208657 0.603729
vt 0.208421 0.604072
vt 0.221944 0.607524
vt 0.221909 0.607941
vt 0.233318 0.603854
vt 0.233446 0.604278
vt 0.221344 0.609423
vt 0.207515 0.605407
vt 0.197598 0.593366
vt 0.196187 0.580525
vt 0.200341 0.570095
vt 0.207985 0.564456
vt 0.217414 0.563066
vt 0.233114 0.567676
vt 0.242147 0.580000
vt 0.244258 0.589207
vt 0.241789 0.598283
vt 0.233814 0.606058
vn 0.700027 -0.707983 0.093397
vn 0.595493 -0.279163 0.753297
vn 0.401646 -0.644181 0.650931
vn 0.240925 -0.963686 0.115169
vn 0.969237 -0.158838 0.188014
vn 0.608297 -0.080661 0.789600
vn 0.145646 -0.791772 0.593198
vn 0.033441 -0.990017 0.136924
vn -0.045555 -0.659464 0.750355
vn -0.144444 -0.967235 0.208787
vn -0.171629 -0.275839 0.945757
vn -0.569621 -0.708993 0.415765
vn -0.160901 -0.082668 0.983502
vn -0.758673 -0.173655 0.627900
vn -0.033982 -0.004618 0.999412
vn -0.603232 0.334807 0.723889
vn 0.110134 -0.007666 0.993887
vn -0.236530 0.671684 0.702064
vn 0.238182 -0.009709 0.971172
vn 0.145997 0.772527 0.617971
vn 0.374308 -0.002890 0.927300
vn 0.567998 0.655612 0.497546
vn 0.492954 -0.003712 0.870048
vn 0.876188 0.339561 0.342042
vn 0.322874 -0.944501 0.060588
vn 0.761591 -0.647911 -0.013822
vn 0.031370 -0.993068 0.113278
vn -0.227067 -0.947554 0.224903
vn -0.654191 -0.640470 0.402284
vn -0.801988 -0.150982 0.577944
vn -0.642534 0.303305 0.703674
vn -0.263973 0.629936 0.730410
vn 0.159719 0.745140 0.647500
vn 0.602053 0.627016 0.494352
vn 0.900749 0.317496 0.296391
vn 0.985151 -0.150214 0.083148
vn -0.635303 0.751102 0.179544
vn 0.315960 0.076207 0.945707
vn 0.179609 -0.015463 0.983617
vn -0.989765 0.142191 -0.012131
vn -0.110480 0.971527 0.209591
vn 0.329935 0.111742 0.937367
vn 0.047633 0.977853 0.203802
vn 0.235389 0.213077 0.948256
vn 0.179899 0.973439 0.141610
vn 0.148974 0.106968 0.983038
vn 0.644935 0.749157 -0.151072
vn 0.162920 0.080872 0.983319
vn 0.859049 0.163653 -0.485029
vn 0.312215 -0.007994 0.949978
vn 0.664268 -0.389415 -0.638048
vn 0.426073 -0.298454 0.854041
vn 0.260544 -0.738620 -0.621738
vn 0.318944 -0.525894 0.788487
vn -0.121281 -0.834532 -0.537446
vn 0.198684 -0.588616 0.783617
vn -0.559607 -0.718980 -0.412199
vn 0.075776 -0.503745 0.860523
vn -0.888503 -0.394623 -0.234169
vn 0.022183 -0.291727 0.956244
vn -0.765579 0.637308 0.087912
vn -0.261902 0.963898 0.048045
vn 0.005995 0.999360 0.035270
vn 0.225254 0.970136 -0.089984
vn 0.691119 0.633470 -0.347952
vn 0.814274 0.140233 -0.563287
vn 0.637061 -0.372339 -0.674920
vn 0.285545 -0.700482 -0.654056
vn -0.114286 -0.774452 -0.622224
vn -0.594964 -0.625798 -0.504375
vn -0.898028 -0.326148 -0.295252
vn -0.989774 0.134780 -0.046706
vn -0.578383 -0.578816 -0.574843
vn -0.559966 -0.391224 -0.730330
vn -0.758266 -0.091306 -0.645520
vn -0.886968 -0.275103 -0.370954
vn -0.099003 -0.641708 -0.760532
vn -0.222248 -0.317724 -0.921768
vn 0.228884 -0.525854 -0.819201
vn 0.030442 -0.143149 -0.989233
vn 0.531289 -0.301354 -0.791781
vn 0.293956 -0.012400 -0.955739
vn 0.770986 0.147096 -0.619632
vn 0.433440 0.187042 -0.881558
vn 0.674547 0.575824 -0.461967
vn 0.363306 0.389358 -0.846410
vn 0.256232 0.909982 -0.326004
vn 0.077742 0.568804 -0.818791
vn -0.041467 0.982548 -0.181326
vn -0.178796 0.660469 -0.729254
vn -0.360226 0.924797 -0.122425
vn -0.461626 0.580553 -0.670716
vn -0.798962 0.601244 0.012847
vn -0.712077 0.402061 -0.575580
vn -0.976271 0.189228 -0.105297
vn -0.780207 0.235665 -0.579431
vn 0.750314 -0.623513 -0.219685
vn -0.561069 0.259966 -0.785887
vn -0.573765 0.214207 -0.790512
vn 0.982763 -0.150313 -0.107625
vn 0.326694 -0.941563 -0.082034
vn -0.430373 0.307360 -0.848710
vn 0.007613 -0.999635 0.025942
vn -0.218411 0.385807 -0.896354
vn -0.322940 -0.934669 0.148672
vn -0.031614 0.299879 -0.953453
vn -0.745697 -0.604239 0.280769
vn 0.124529 0.245683 -0.961318
vn -0.880867 -0.130287 0.455080
vn 0.124187 0.180390 -0.975724
vn -0.702029 0.331164 0.630464
vn 0.091647 0.099441 -0.990814
vn -0.301681 0.647128 0.700153
vn -0.004971 -0.035901 -0.999343
vn 0.139767 0.758395 0.636633
vn -0.236219 -0.123491 -0.963821
vn 0.586422 0.675301 0.447300
vn -0.465223 -0.058626 -0.883250
vn 0.916261 0.351855 0.191476
vn -0.531436 0.100937 -0.841063
s 1
g foot_left foot_part_2_left
usemtl head_plateSG
f 359/384/335 360/385/336 362/386/337 361/387/338
f 360/385/336 359/384/335 381/388/339 382/389/340
f 361/387/338 362/386/337 364/390/341 363/391/342
f 363/391/342 364/390/341 366/392/343 365/393/344
f 365/393/344 366/392/343 368/394/345 367/395/346
f 367/395/346 368/394/345 370/396/347 369/397/348
f 369/397/348 370/396/347 372/398/349 371/399/350
f 371/399/350 372/398/349 374/400/351 373/401/352
f 373/401/352 374/400/351 376/402/353 375/403/354
f 375/403/354 376/402/353 378/404/355 377/405/356
f 377/405/356 378/404/355 380/406/357 379/407/358
f 379/407/358 380/406/357 382/389/340 381/388/339
f 359/384/335 361/387/338 343/408/359 344/409/360
f 361/387/338 363/391/342 342/410/361 343/408/359
f 363/391/342 365/393/344 341/411/362 342/410/361
f 365/393/344 367/395/346 340/412/363 341/411/362
f 367/395/346 369/397/348 339/413/364 340/412/363
f 369/397/348 371/399/350 338/414/365 339/413/364
f 371/399/350 373/401/352 337/415/366 338/414/365
f 373/401/352 375/403/354 336/416/367 337/415/366
f 375/403/354 377/405/356 335/417/368 336/416/367
f 377/405/356 379/407/358 346/418/369 335/417/368
f 379/407/358 381/388/339 345/419/370 346/418/369
f 381/388/339 359/384/335 344/409/360 345/419/370
f 383/420/371 384/421/372 406/422/373 405/423/374
f 384/421/372 383/420/371 385/424/375 386/425/376
f 386/425/376 385/424/375 387/426/377 388/427/378
f 388/427/378 387/426/377 389/428/379 390/429/380
f 390/429/380 389/428/379 391/430/381 392/431/382
f 392/431/382 391/430/381 393/432/383 394/433/384
f 394/433/384 393/432/383 395/434/385 396/435/386
f 396/435/386 395/434/385 397/436/387 398/437/388
f 398/437/388 397/436/387 399/438/389 400/439/390
f 400/439/390 399/438/389 401/440/391 402/441/392
f 402/441/392 401/440/391 403/442/393 404/443/394
f 404/443/394 403/442/393 405/423/374 406/422/373
f 383/444/371 348/445/395 347/446/396 385/447/375
f 385/447/375 347/446/396 349/448/397 387/449/377
f 387/449/377 349/448/397 350/450/398 389/451/379
f 389/451/379 350/450/398 351/452/399 391/453/381
f 391/453/381 351/452/399 352/454/400 393/455/383
f 393/455/383 352/454/400 353/456/401 395/457/385
f 395/457/385 353/456/401 354/458/402 397/459/387
f 397/459/387 354/458/402 355/460/403 399/461/389
f 399/461/389 355/460/403 356/462/404 401/463/391
f 401/463/391 356/462/404 357/464/405 403/465/393
f 403/465/393 357/464/405 358/466/406 405/467/374
f 405/467/374 358/466/406 348/445/395 383/444/371
f 360/385/336 384/421/372 386/425/376 362/386/337
f 362/386/337 386/425/376 388/427/378 364/390/341
f 364/390/341 388/427/378 390/429/380 366/392/343
f 366/392/343 390/429/380 392/431/382 368/394/345
f 368/394/345 392/431/382 394/433/384 370/396/347
f 370/396/347 394/433/384 396/435/386 372/398/349
f 372/398/349 396/435/386 398/437/388 374/400/351
f 374/400/351 398/437/388 400/439/390 376/402/353
f 376/402/353 400/439/390 402/441/392 378/404/355
f 378/404/355 402/441/392 404/443/394 380/406/357
f 380/406/357 404/443/394 406/422/373 382/389/340
f 382/389/340 406/422/373 384/421/372 360/385/336
f 407/468/407 408/469/408 429/470/409 430/471/410
f 408/469/408 407/468/407 410/472/411 409/473/412
f 409/473/412 410/472/411 412/474/413 411/475/414
f 411/475/414 412/474/413 414/476/415 413/477/416
f 413/477/416 414/476/415 416/478/417 415/479/418
f 415/479/418 416/478/417 418/480/419 417/481/420
f 417/481/420 418/480/419 420/482/421 419/483/422
f 419/483/422 420/482/421 422/484/423 421/485/424
f 421/485/424 422/484/423 424/486/425 423/487/426
f 423/487/426 424/486/425 426/488/427 425/489/428
f 425/489/428 426/488/427 428/490/429 427/491/430
f 427/491/430 428/490/429 430/471/410 429/470/409
f 355/460/403 410/472/411 407/468/407 356/462/404
f 354/458/402 412/474/413 410/472/411 355/460/403
f 353/456/401 414/476/415 412/474/413 354/458/402
f 352/454/400 416/478/417 414/476/415 353/456/401
f 351/452/399 418/480/419 416/478/417 352/454/400
f 350/450/398 420/482/421 418/480/419 351/452/399
f 349/448/397 422/484/423 420/482/421 350/450/398
f 347/446/396 424/486/425 422/484/423 349/448/397
f 348/445/395 426/488/427 424/486/425 347/446/396
f 358/466/406 428/490/429 426/488/427 348/445/395
f 357/464/405 430/471/410 428/490/429 358/466/406
f 356/462/404 407/468/407 430/471/410 357/464/405
f 431/492/431 432/493/432 454/494/433 453/495/434
f 432/493/432 431/492/431 433/496/435 434/497/436
f 434/497/436 433/496/435 435/498/437 436/499/438
f 436/499/438 435/498/437 437/500/439 438/501/440
f 438/501/440 437/500/439 439/502/441 440/503/442
f 440/503/442 439/502/441 441/504/443 442/505/444
f 442/505/444 441/504/443 443/506/445 444/507/446
f 444/507/446 443/506/445 445/508/447 446/509/448
f 446/509/448 445/508/447 447/510/449 448/511/450
f 448/511/450 447/510/449 449/512/451 450/513/452
f 450/513/452 449/512/451 451/514/453 452/515/454
f 452/515/454 451/514/453 453/495/434 454/494/433
f 336/416/367 335/417/368 449/512/451 447/510/449
f 337/415/366 336/416/367 447/510/449 445/508/447
f 338/414/365 337/415/366 445/508/447 443/506/445
f 339/413/364 338/414/365 443/506/445 441/504/443
f 340/412/363 339/413/364 441/504/443 439/502/441
f 341/411/362 340/412/363 439/502/441 437/500/439
f 342/410/361 341/411/362 437/500/439 435/498/437
f 343/408/359 342/410/361 435/498/437 433/496/435
f 344/409/360 343/408/359 433/496/435 431/492/431
f 345/419/370 344/409/360 431/492/431 453/495/434
f 346/418/369 345/419/370 453/495/434 451/514/453
f 335/417/368 346/418/369 451/514/453 449/512/451
f 450/513/452 408/516/408 409/517/412 448/511/450
f 448/511/450 409/517/412 411/518/414 446/509/448
f 446/509/448 411/518/414 413/519/416 444/507/446
f 444/507/446 413/519/416 415/520/418 442/505/444
f 442/505/444 415/520/418 417/521/420 440/503/442
f 440/503/442 417/521/420 419/522/422 438/501/440
f 438/501/440 419/522/422 421/523/424 436/499/438
f 436/499/438 421/523/424 423/524/426 434/497/436
f 434/497/436 423/524/426 425/525/428 432/493/432
f 432/493/432 425/525/428 427/526/430 454/494/433
f 454/494/433 427/526/430 429/527/409 452/515/454
f 452/515/454 429/527/409 408/516/408 450/513/452
