# This file uses centimeters as units for non-parametric coordinates.

mtllib bot.mtl
g default
v -0.089415 -0.013904 0.196027
v -0.054317 -0.007159 0.208496
v -0.012376 -0.014434 0.209984
v 0.014269 -0.035528 0.208975
v 0.021285 -0.063017 0.204876
v 0.011537 -0.095406 0.204908
v -0.015625 -0.102675 0.197908
v -0.049623 -0.103727 0.189905
v -0.080023 -0.100510 0.181426
v -0.106201 -0.094380 0.174617
v -0.115716 -0.063497 0.175641
v -0.111269 -0.036254 0.182567
v -0.075745 -0.090706 0.187216
v -0.095121 -0.082560 0.181674
v -0.050734 -0.092717 0.194423
v -0.021976 -0.089895 0.200887
v 0.000186 -0.079525 0.206018
v 0.008613 -0.061170 0.204517
v 0.003109 -0.039195 0.207325
v -0.018374 -0.022352 0.208168
v -0.054071 -0.016445 0.207757
v -0.082997 -0.021688 0.197399
v -0.100609 -0.039895 0.186572
v -0.104382 -0.061665 0.181471
v -0.091390 -0.087940 0.209868
v -0.090700 -0.087426 0.211201
v -0.076145 -0.094201 0.214043
v -0.075896 -0.093448 0.215326
v -0.056698 -0.095633 0.220027
v -0.056986 -0.094777 0.221184
v -0.035223 -0.093295 0.225204
v -0.036073 -0.092544 0.226186
v -0.018390 -0.085138 0.229587
v -0.019666 -0.084670 0.230375
v -0.011589 -0.069406 0.233557
v -0.013082 -0.069466 0.234128
v -0.017783 -0.049686 0.237690
v -0.019210 -0.050313 0.238034
v -0.035159 -0.035879 0.238389
v -0.036058 -0.037042 0.238649
v -0.060178 -0.031186 0.233911
v -0.060268 -0.032541 0.234307
v -0.081509 -0.035521 0.226781
v -0.080818 -0.036675 0.227446
v -0.096144 -0.050128 0.217828
v -0.095081 -0.050751 0.218825
v -0.099740 -0.069699 0.211270
v -0.098706 -0.069745 0.212501
v -0.084705 -0.084750 0.211806
v -0.085710 -0.085948 0.213095
v -0.072618 -0.090392 0.215844
v -0.073327 -0.091648 0.217176
v -0.056930 -0.091734 0.221041
v -0.057295 -0.092993 0.222458
v -0.038709 -0.089245 0.225032
v -0.038782 -0.090462 0.226538
v -0.024540 -0.081638 0.227901
v -0.024360 -0.082749 0.229531
v -0.019448 -0.068662 0.230204
v -0.018995 -0.069365 0.232045
v -0.024750 -0.051678 0.233024
v -0.024392 -0.051884 0.235025
v -0.038431 -0.040863 0.233463
v -0.038512 -0.040707 0.235490
v -0.059074 -0.037257 0.229719
v -0.059567 -0.037006 0.231664
v -0.076118 -0.040391 0.224115
v -0.077063 -0.040233 0.225910
v -0.087680 -0.052157 0.217154
v -0.088963 -0.052363 0.218728
v -0.091184 -0.069042 0.212153
v -0.092509 -0.069780 0.213531
v -0.081987 -0.013657 0.173191
v -0.082917 -0.011618 0.170789
v -0.048042 -0.005440 0.183989
v -0.048521 -0.007816 0.185903
v -0.007177 -0.012389 0.189800
v -0.009080 -0.014442 0.191476
v 0.017666 -0.032353 0.188169
v 0.014863 -0.033442 0.189853
v 0.021570 -0.052838 0.183298
v 0.018753 -0.053009 0.185181
v 0.015239 -0.081424 0.178058
v 0.012716 -0.080682 0.180167
v -0.010488 -0.084342 0.171301
v -0.012154 -0.083056 0.173660
v -0.042947 -0.087405 0.163912
v -0.043607 -0.085917 0.166523
v -0.071512 -0.084003 0.155730
v -0.071250 -0.082765 0.158582
v -0.096259 -0.078168 0.149454
v -0.092861 -0.072712 0.153080
v -0.103809 -0.053446 0.151671
v -0.102283 -0.053602 0.154668
v -0.102286 -0.033236 0.157855
v -0.100691 -0.034298 0.160661
v -0.103543 -0.083715 0.143730
v -0.101822 -0.082311 0.143085
v -0.075005 -0.091883 0.150730
v -0.073971 -0.090205 0.149896
v -0.042018 -0.096400 0.160074
v -0.041740 -0.094596 0.159029
v -0.005389 -0.095395 0.168681
v -0.005855 -0.093678 0.167468
v 0.023896 -0.087154 0.176668
v 0.022740 -0.085736 0.175278
v 0.031676 -0.054364 0.183004
v 0.030072 -0.053794 0.181347
v 0.026330 -0.029634 0.188910
v 0.024797 -0.029946 0.187089
v -0.002565 -0.006224 0.190641
v -0.003125 -0.007371 0.188818
v -0.048089 0.001933 0.183999
v -0.047666 0.000578 0.182385
v -0.087573 -0.005644 0.169222
v -0.086112 -0.006799 0.167960
v -0.110533 -0.030463 0.154158
v -0.108335 -0.030752 0.153290
v -0.112836 -0.054964 0.146422
v -0.110628 -0.054366 0.145754
vt 0.340224 0.576362
vt 0.340061 0.576592
vt 0.337186 0.575999
vt 0.337240 0.575705
vt 0.342640 0.579695
vt 0.342361 0.579788
vt 0.333770 0.576645
vt 0.333706 0.576370
vt 0.330188 0.577960
vt 0.330005 0.577730
vt 0.327723 0.580306
vt 0.327470 0.580197
vt 0.327065 0.583725
vt 0.326776 0.583782
vt 0.328905 0.587296
vt 0.328676 0.587480
vt 0.332353 0.589121
vt 0.332262 0.589395
vt 0.336742 0.588778
vt 0.336809 0.589038
vt 0.340261 0.587153
vt 0.340474 0.587345
vt 0.342380 0.583752
vt 0.342666 0.583803
vt 0.339592 0.569731
vt 0.345097 0.572031
vt 0.332367 0.570055
vt 0.325098 0.573233
vt 0.321078 0.577988
vt 0.319170 0.585507
vt 0.321663 0.591897
vt 0.328554 0.596561
vt 0.338711 0.595882
vt 0.346381 0.591508
vt 0.350026 0.584492
vt 0.349426 0.577991
vt 0.357054 0.518942
vt 0.356895 0.519188
vt 0.354141 0.518030
vt 0.354123 0.517692
vt 0.358123 0.521135
vt 0.357812 0.521255
vt 0.358371 0.523983
vt 0.358059 0.523991
vt 0.358188 0.527266
vt 0.357877 0.527158
vt 0.356941 0.529910
vt 0.356758 0.529665
vt 0.354617 0.531208
vt 0.354635 0.530866
vt 0.351246 0.530519
vt 0.351440 0.530241
vt 0.348988 0.528193
vt 0.349280 0.528021
vt 0.348190 0.524428
vt 0.348503 0.524415
vt 0.348679 0.521158
vt 0.348983 0.521287
vt 0.350834 0.518630
vt 0.351034 0.518894
vt 0.358729 0.514026
vt 0.361553 0.517861
vt 0.362936 0.523588
vt 0.362019 0.530241
vt 0.358928 0.535010
vt 0.355096 0.537652
vt 0.349520 0.537246
vt 0.344507 0.532830
vt 0.342815 0.524451
vt 0.344360 0.517408
vt 0.348931 0.512939
vt 0.354119 0.512028
vt 0.339268 0.577084
vt 0.336776 0.576530
vt 0.333866 0.577060
vt 0.330730 0.578298
vt 0.328580 0.580465
vt 0.328164 0.583381
vt 0.329802 0.586592
vt 0.332677 0.588122
vt 0.336492 0.587824
vt 0.339500 0.586455
vt 0.341240 0.583564
vt 0.341228 0.579979
vt 0.340789 0.514061
vt 0.340296 0.513527
vt 0.347685 0.507381
vt 0.347833 0.508111
vt 0.338000 0.524538
vt 0.337335 0.524562
vt 0.341662 0.535769
vt 0.341199 0.536321
vt 0.348559 0.541291
vt 0.348442 0.542039
vt 0.354397 0.542198
vt 0.354500 0.542924
vt 0.362410 0.539265
vt 0.362707 0.539946
vt 0.366747 0.532879
vt 0.367248 0.533349
vt 0.368620 0.523100
vt 0.369277 0.523072
vt 0.365675 0.514400
vt 0.366139 0.513924
vt 0.360409 0.508780
vt 0.361531 0.507605
vt 0.353952 0.507210
vt 0.354021 0.506499
vt 0.350288 0.569518
vt 0.350537 0.569248
vt 0.355408 0.576670
vt 0.354948 0.576785
vt 0.342633 0.564062
vt 0.342702 0.563637
vt 0.330959 0.563352
vt 0.330879 0.562928
vt 0.320147 0.569425
vt 0.319927 0.569067
vt 0.315488 0.577618
vt 0.315143 0.577494
vt 0.314357 0.587334
vt 0.313899 0.587442
vt 0.317409 0.593891
vt 0.317130 0.594246
vt 0.325984 0.600627
vt 0.325877 0.601040
vt 0.340298 0.601479
vt 0.340402 0.601882
vt 0.351367 0.594198
vt 0.351652 0.594510
vt 0.355697 0.584063
vt 0.356113 0.584230
vt 0.352139 0.595724
vt 0.340710 0.603102
vt 0.326038 0.602378
vt 0.316615 0.595660
vt 0.312321 0.588125
vt 0.313772 0.576653
vt 0.318817 0.567026
vt 0.330524 0.561178
vt 0.342494 0.561704
vt 0.351382 0.567798
vt 0.357192 0.576543
vt 0.357345 0.585229
vn -0.665268 -0.656822 0.354970
vn -0.225912 -0.943613 0.241989
vn -0.351743 -0.503891 0.788905
vn -0.390303 -0.308259 0.867548
vn -0.348426 -0.237796 0.906671
vn -0.900586 -0.156332 0.405593
vn -0.077322 -0.961182 0.264861
vn -0.185332 -0.644255 0.742016
vn 0.063144 -0.923518 0.378322
vn -0.084082 -0.467499 0.879986
vn 0.427990 -0.603746 0.672544
vn -0.079729 -0.283725 0.955585
vn 0.636791 -0.112161 0.762835
vn -0.139298 -0.226091 0.964095
vn 0.540258 0.322768 0.777138
vn -0.202440 -0.257561 0.944818
vn 0.225359 0.655348 0.720925
vn -0.227718 -0.306895 0.924100
vn -0.125395 0.741465 0.659170
vn -0.232138 -0.327512 0.915886
vn -0.541212 0.609005 0.579830
vn -0.240327 -0.299421 0.923358
vn -0.835440 0.270360 0.478483
vn -0.275032 -0.254860 0.927040
vn -0.700625 -0.713529 0.001098
vn -0.173539 -0.982971 -0.060427
vn -0.023897 -0.999526 -0.019416
vn 0.144485 -0.986067 0.082437
vn 0.597909 -0.698660 0.392911
vn 0.798387 -0.122623 0.589527
vn 0.642974 0.353210 0.679578
vn 0.291667 0.738656 0.607716
vn -0.105984 0.851384 0.513725
vn -0.560469 0.729934 0.391243
vn -0.896112 0.355826 0.265277
vn -0.981467 -0.133088 0.137881
vn 0.682982 0.718691 -0.130456
vn 0.936037 0.155711 -0.315577
vn -0.000032 -0.194161 0.980970
vn -0.151197 -0.021313 0.988274
vn -0.265733 0.015617 0.963920
vn 0.188680 0.982025 0.005200
vn -0.262540 0.026923 0.964545
vn -0.023743 0.999659 -0.010860
vn -0.263194 0.040826 0.963879
vn -0.206728 0.971111 -0.119196
vn -0.352596 0.037450 0.935026
vn -0.540159 0.715710 -0.442704
vn -0.489417 -0.178389 0.853609
vn -0.702217 0.088274 -0.706469
vn -0.481471 -0.447355 0.753697
vn -0.571937 -0.353899 -0.740029
vn -0.329785 -0.633125 0.700282
vn -0.238491 -0.691526 -0.681846
vn -0.183489 -0.685295 0.704771
vn 0.106136 -0.775320 -0.622586
vn -0.033211 -0.616138 0.786938
vn 0.537515 -0.643456 -0.545015
vn 0.062325 -0.436660 0.897465
vn 0.848785 -0.300108 -0.435315
vn 0.199517 0.968177 0.151085
vn 0.704020 0.707133 0.065718
vn -0.039960 0.993146 0.109833
vn -0.218943 0.975543 -0.019500
vn -0.606263 0.697098 -0.382754
vn -0.795523 0.113897 -0.595123
vn -0.634056 -0.353096 -0.687965
vn -0.281828 -0.738675 -0.612317
vn 0.100180 -0.847717 -0.520903
vn 0.555931 -0.729176 -0.399054
vn 0.893775 -0.356171 -0.272597
vn 0.980439 0.159234 -0.115690
vn 0.568408 -0.768914 -0.292718
vn 0.917201 -0.370942 -0.145409
vn 0.672131 -0.001773 -0.740430
vn 0.516738 -0.257738 -0.816427
vn 0.220440 -0.384385 -0.896468
vn 0.092989 -0.901815 -0.421999
vn -0.045519 -0.279058 -0.959195
vn -0.299925 -0.762702 -0.573002
vn -0.228217 -0.011557 -0.973542
vn -0.681114 -0.351913 -0.642060
vn -0.289484 0.208525 -0.934193
vn -0.835989 0.120416 -0.535372
vn -0.088459 0.422090 -0.902228
vn -0.593570 0.749857 -0.292213
vn 0.125901 0.611988 -0.780782
vn -0.177332 0.983141 0.044584
vn 0.204153 0.632351 -0.747298
vn -0.045514 0.985383 0.164160
vn 0.314997 0.611570 -0.725782
vn 0.198225 0.962372 0.185868
vn 0.486944 0.446369 -0.750760
vn 0.720226 0.688554 0.084663
vn 0.657075 0.224510 -0.719616
vn 0.987255 0.159101 -0.003847
vn -0.699566 -0.640486 -0.316835
vn -0.982710 -0.074872 -0.169336
vn 0.416765 0.232756 -0.878710
vn 0.347920 0.212507 -0.913123
vn 0.309965 0.383852 -0.869816
vn -0.094290 -0.939284 -0.329931
vn 0.237279 0.354047 -0.904627
vn 0.030405 -0.959743 -0.279231
vn 0.189017 0.320473 -0.928208
vn 0.196326 -0.955180 -0.221555
vn 0.152078 0.177772 -0.972250
vn 0.749125 -0.657081 0.084005
vn 0.046640 0.209447 -0.976707
vn 0.935413 -0.083636 0.343522
vn 0.105366 0.257995 -0.960384
vn 0.771122 0.422053 0.476700
vn 0.114138 0.160052 -0.980488
vn 0.357776 0.835377 0.417303
vn 0.243064 0.081664 -0.966566
vn -0.064292 0.955893 0.286594
vn 0.373478 0.170798 -0.911780
vn -0.540978 0.828303 0.145800
vn 0.379479 0.244663 -0.892264
vn -0.905127 0.425074 -0.007561
s 1
g foot_part_3_right foot_right
usemtl head_plateSG
f 25/1/1 27/4/2 28/3/3 26/2/4
f 26/2/4 48/6/5 47/5/6 25/1/1
f 27/4/2 29/8/7 30/7/8 28/3/3
f 29/8/7 31/10/9 32/9/10 30/7/8
f 31/10/9 33/12/11 34/11/12 32/9/10
f 33/12/11 35/14/13 36/13/14 34/11/12
f 35/14/13 37/16/15 38/15/16 36/13/14
f 37/16/15 39/18/17 40/17/18 38/15/16
f 39/18/17 41/20/19 42/19/20 40/17/18
f 41/20/19 43/22/21 44/21/22 42/19/20
f 43/22/21 45/24/23 46/23/24 44/21/22
f 45/24/23 47/5/6 48/6/5 46/23/24
f 25/1/1 10/26/25 9/25/26 27/4/2
f 27/4/2 9/25/26 8/27/27 29/8/7
f 29/8/7 8/27/27 7/28/28 31/10/9
f 31/10/9 7/28/28 6/29/29 33/12/11
f 33/12/11 6/29/29 5/30/30 35/14/13
f 35/14/13 5/30/30 4/31/31 37/16/15
f 37/16/15 4/31/31 3/32/32 39/18/17
f 39/18/17 3/32/32 2/33/33 41/20/19
f 41/20/19 2/33/33 1/34/34 43/22/21
f 43/22/21 1/34/34 12/35/35 45/24/23
f 45/24/23 12/35/35 11/36/36 47/5/6
f 47/5/6 11/36/36 10/26/25 25/1/1
f 49/37/37 71/40/38 72/39/39 50/38/40
f 50/38/40 52/42/41 51/41/42 49/37/37
f 52/42/41 54/44/43 53/43/44 51/41/42
f 54/44/43 56/46/45 55/45/46 53/43/44
f 56/46/45 58/48/47 57/47/48 55/45/46
f 58/48/47 60/50/49 59/49/50 57/47/48
f 60/50/49 62/52/51 61/51/52 59/49/50
f 62/52/51 64/54/53 63/53/54 61/51/52
f 64/54/53 66/56/55 65/55/56 63/53/54
f 66/56/55 68/58/57 67/57/58 65/55/56
f 68/58/57 70/60/59 69/59/60 67/57/58
f 70/60/59 72/39/39 71/40/38 69/59/60
f 49/37/37 51/41/42 13/62/61 14/61/62
f 51/41/42 53/43/44 15/63/63 13/62/61
f 53/43/44 55/45/46 16/64/64 15/63/63
f 55/45/46 57/47/48 17/65/65 16/64/64
f 57/47/48 59/49/50 18/66/66 17/65/65
f 59/49/50 61/51/52 19/67/67 18/66/66
f 61/51/52 63/53/54 20/68/68 19/67/67
f 63/53/54 65/55/56 21/69/69 20/68/68
f 65/55/56 67/57/58 22/70/70 21/69/69
f 67/57/58 69/59/60 23/71/71 22/70/70
f 69/59/60 71/40/38 24/72/72 23/71/71
f 71/40/38 49/37/37 14/61/62 24/72/72
f 26/2/4 28/3/3 52/74/41 50/73/40
f 28/3/3 30/7/8 54/75/43 52/74/41
f 30/7/8 32/9/10 56/76/45 54/75/43
f 32/9/10 34/11/12 58/77/47 56/76/45
f 34/11/12 36/13/14 60/78/49 58/77/47
f 36/13/14 38/15/16 62/79/51 60/78/49
f 38/15/16 40/17/18 64/80/53 62/79/51
f 40/17/18 42/19/20 66/81/55 64/80/53
f 42/19/20 44/21/22 68/82/57 66/81/55
f 44/21/22 46/23/24 70/83/59 68/82/57
f 46/23/24 48/6/5 72/84/39 70/83/59
f 48/6/5 26/2/4 50/73/40 72/84/39
f 73/85/73 96/88/74 95/87/75 74/86/76
f 74/86/76 75/90/77 76/89/78 73/85/73
f 75/90/77 77/92/79 78/91/80 76/89/78
f 77/92/79 79/94/81 80/93/82 78/91/80
f 79/94/81 81/96/83 82/95/84 80/93/82
f 81/96/83 83/98/85 84/97/86 82/95/84
f 83/98/85 85/100/87 86/99/88 84/97/86
f 85/100/87 87/102/89 88/101/90 86/99/88
f 87/102/89 89/104/91 90/103/92 88/101/90
f 89/104/91 91/106/93 92/105/94 90/103/92
f 91/106/93 93/108/95 94/107/96 92/105/94
f 93/108/95 95/87/75 96/88/74 94/107/96
f 21/69/69 22/70/70 73/85/73 76/89/78
f 20/68/68 21/69/69 76/89/78 78/91/80
f 19/67/67 20/68/68 78/91/80 80/93/82
f 18/66/66 19/67/67 80/93/82 82/95/84
f 17/65/65 18/66/66 82/95/84 84/97/86
f 16/64/64 17/65/65 84/97/86 86/99/88
f 15/63/63 16/64/64 86/99/88 88/101/90
f 13/62/61 15/63/63 88/101/90 90/103/92
f 14/61/62 13/62/61 90/103/92 92/105/94
f 24/72/72 14/61/62 92/105/94 94/107/96
f 23/71/71 24/72/72 94/107/96 96/88/74
f 22/70/70 23/71/71 96/88/74 73/85/73
f 97/109/97 119/112/98 120/111/99 98/110/100
f 98/110/100 100/114/101 99/113/102 97/109/97
f 100/114/101 102/116/103 101/115/104 99/113/102
f 102/116/103 104/118/105 103/117/106 101/115/104
f 104/118/105 106/120/107 105/119/108 103/117/106
f 106/120/107 108/122/109 107/121/110 105/119/108
f 108/122/109 110/124/111 109/123/112 107/121/110
f 110/124/111 112/126/113 111/125/114 109/123/112
f 112/126/113 114/128/115 113/127/116 111/125/114
f 114/128/115 116/130/117 115/129/118 113/127/116
f 116/130/117 118/132/119 117/131/120 115/129/118
f 118/132/119 120/111/99 119/112/98 117/131/120
f 2/33/33 113/127/116 115/129/118 1/34/34
f 3/32/32 111/125/114 113/127/116 2/33/33
f 4/31/31 109/123/112 111/125/114 3/32/32
f 5/30/30 107/121/110 109/123/112 4/31/31
f 6/29/29 105/119/108 107/121/110 5/30/30
f 7/28/28 103/117/106 105/119/108 6/29/29
f 8/27/27 101/115/104 103/117/106 7/28/28
f 9/25/26 99/113/102 101/115/104 8/27/27
f 10/26/25 97/109/97 99/113/102 9/25/26
f 11/36/36 119/112/98 97/109/97 10/26/25
f 12/35/35 117/131/120 119/112/98 11/36/36
f 1/34/34 115/129/118 117/131/120 12/35/35
f 116/130/117 114/128/115 75/134/77 74/133/76
f 114/128/115 112/126/113 77/135/79 75/134/77
f 112/126/113 110/124/111 79/136/81 77/135/79
f 110/124/111 108/122/109 81/137/83 79/136/81
f 108/122/109 106/120/107 83/138/85 81/137/83
f 106/120/107 104/118/105 85/139/87 83/138/85
f 104/118/105 102/116/103 87/140/89 85/139/87
f 102/116/103 100/114/101 89/141/91 87/140/89
f 100/114/101 98/110/100 91/142/93 89/141/91
f 98/110/100 120/111/99 93/143/95 91/142/93
f 120/111/99 118/132/119 95/144/75 93/143/95
f 118/132/119 116/130/117 74/133/76 95/144/75
g default
v -0.093902 0.032289 0.125761
v -0.038577 0.044228 0.145966
v 0.025906 0.031354 0.155371
v 0.067985 -0.005929 0.153847
v 0.076779 -0.054163 0.149055
v 0.059182 -0.086669 0.144812
v 0.025815 -0.108867 0.141872
v -0.035393 -0.111438 0.133361
v -0.087993 -0.108867 0.113959
v -0.118486 -0.086656 0.101203
v -0.135758 -0.054163 0.096838
v -0.128744 -0.007210 0.105739
v -0.083422 -0.090587 0.123934
v -0.105773 -0.074097 0.114397
v -0.037310 -0.091968 0.141138
v 0.017135 -0.090555 0.148579
v 0.041808 -0.074020 0.150482
v 0.055569 -0.050243 0.152804
v 0.049277 -0.012371 0.155505
v 0.015428 0.017399 0.156469
v -0.039135 0.027855 0.148552
v -0.084749 0.018572 0.131838
v -0.112943 -0.013605 0.116190
v -0.118748 -0.050644 0.110225
v -0.111139 -0.089271 0.157916
v -0.109882 -0.088197 0.160558
v -0.084312 -0.104319 0.170019
v -0.083853 -0.102567 0.172344
v -0.047505 -0.104447 0.182604
v -0.048004 -0.102692 0.184609
v -0.004061 -0.104312 0.189670
v -0.005545 -0.102617 0.191507
v 0.025327 -0.089271 0.191409
v 0.023008 -0.088241 0.193147
v 0.040680 -0.065217 0.193061
v 0.037709 -0.065159 0.194539
v 0.030730 -0.026840 0.194898
v 0.027940 -0.028046 0.195999
v -0.001587 0.000677 0.195151
v -0.003396 -0.001599 0.196123
v -0.048561 0.010027 0.186978
v -0.048849 0.007371 0.188186
v -0.088609 0.001381 0.173783
v -0.087432 -0.000874 0.175507
v -0.116523 -0.027734 0.158851
v -0.114634 -0.028928 0.161137
v -0.125399 -0.065224 0.152210
v -0.123503 -0.065210 0.154934
v -0.103189 -0.085646 0.162055
v -0.105050 -0.088053 0.163996
v -0.082273 -0.097465 0.171891
v -0.082956 -0.100302 0.174137
v -0.047963 -0.100240 0.183817
v -0.048558 -0.102779 0.186118
v -0.006706 -0.097872 0.190427
v -0.007215 -0.100610 0.192734
v 0.016415 -0.085611 0.191357
v 0.016970 -0.087908 0.193939
v 0.029372 -0.061498 0.191157
v 0.030747 -0.063038 0.194085
v 0.021208 -0.029885 0.191086
v 0.022137 -0.030163 0.194305
v -0.006071 -0.006680 0.190726
v -0.006019 -0.006180 0.193968
v -0.047727 0.001072 0.183266
v -0.048512 0.001772 0.186354
v -0.082156 -0.005667 0.172171
v -0.083849 -0.005165 0.174946
v -0.105979 -0.030897 0.160127
v -0.108366 -0.031176 0.162503
v -0.114488 -0.061840 0.155920
v -0.117161 -0.063328 0.157814
v -0.084347 0.040205 0.109148
v -0.085517 0.044202 0.104165
v -0.030792 0.055718 0.126504
v -0.031822 0.051092 0.130612
v 0.034267 0.042759 0.133725
v 0.031457 0.031042 0.124771
v 0.073873 0.005185 0.129738
v 0.069145 0.002985 0.133585
v 0.078148 -0.040769 0.123702
v 0.073613 -0.041036 0.127733
v 0.063669 -0.072608 0.118473
v 0.059819 -0.071347 0.122706
v 0.038707 -0.096375 0.114841
v 0.035958 -0.093893 0.119236
v -0.025799 -0.099603 0.106891
v -0.026939 -0.096894 0.111399
v -0.081241 -0.096460 0.085387
v -0.080889 -0.093979 0.090554
v -0.104303 -0.072766 0.077357
v -0.102925 -0.071514 0.082906
v -0.120659 -0.041247 0.075441
v -0.117158 -0.041567 0.081145
v -0.122881 0.003386 0.083639
v -0.120655 0.001237 0.089236
v -0.114501 -0.083050 0.065445
v -0.111968 -0.080355 0.064751
v -0.084509 -0.111297 0.076667
v -0.083499 -0.107580 0.075397
v -0.024059 -0.116498 0.099749
v -0.023627 -0.113031 0.098126
v 0.045640 -0.112602 0.108591
v 0.045382 -0.108883 0.107013
v 0.078179 -0.083017 0.112760
v 0.076396 -0.080328 0.110921
v 0.095353 -0.044098 0.119466
v 0.092743 -0.042592 0.117377
v 0.088382 0.010520 0.127656
v 0.085821 0.009960 0.125328
v 0.042279 0.054584 0.132177
v 0.041314 0.052455 0.129615
v -0.030181 0.069819 0.123803
v -0.029581 0.067300 0.121530
v -0.092158 0.055665 0.098857
v -0.089929 0.053519 0.097174
v -0.135086 0.008829 0.074533
v -0.131745 0.008314 0.073683
v -0.133868 -0.044157 0.063487
v -0.130497 -0.042750 0.063028
vt 0.097675 0.577575
vt 0.097408 0.577820
vt 0.093950 0.576409
vt 0.094073 0.576067
vt 0.099862 0.580404
vt 0.099499 0.580495
vt 0.089683 0.576651
vt 0.089657 0.576310
vt 0.084826 0.577115
vt 0.084655 0.576799
vt 0.081586 0.579023
vt 0.081287 0.578823
vt 0.079898 0.581982
vt 0.079523 0.581941
vt 0.080922 0.586975
vt 0.080548 0.587148
vt 0.084997 0.590361
vt 0.084797 0.590693
vt 0.090768 0.591081
vt 0.090798 0.591438
vt 0.095677 0.589621
vt 0.095927 0.589912
vt 0.099154 0.585502
vt 0.099547 0.585618
vt 0.098210 0.570910
vt 0.103534 0.574661
vt 0.089293 0.569573
vt 0.079739 0.572317
vt 0.074940 0.576794
vt 0.072848 0.582443
vt 0.074402 0.590310
vt 0.080951 0.596643
vt 0.091475 0.598543
vt 0.100550 0.595224
vt 0.105983 0.587832
vt 0.106403 0.579974
vt 0.096620 0.578366
vt 0.096752 0.577941
vt 0.098779 0.580887
vt 0.098434 0.581135
vt 0.093869 0.577218
vt 0.093814 0.576754
vt 0.089750 0.577287
vt 0.089719 0.576850
vt 0.085024 0.577873
vt 0.085015 0.577413
vt 0.082451 0.579469
vt 0.082272 0.579072
vt 0.081053 0.582499
vt 0.080679 0.582293
vt 0.082067 0.586508
vt 0.081673 0.586672
vt 0.085491 0.589339
vt 0.085323 0.589723
vt 0.090689 0.589969
vt 0.090723 0.590369
vt 0.094993 0.588752
vt 0.095233 0.589087
vt 0.097892 0.585213
vt 0.098312 0.585307
vt 0.145557 0.575727
vt 0.142606 0.571347
vt 0.147359 0.571072
vt 0.148224 0.576456
vt 0.154541 0.574224
vt 0.151462 0.578725
vt 0.160446 0.580656
vt 0.155085 0.581398
vt 0.161641 0.585353
vt 0.156547 0.583705
vt 0.160812 0.589874
vt 0.156477 0.586752
vt 0.156536 0.594667
vt 0.153729 0.589888
vt 0.149293 0.596020
vt 0.149208 0.590519
vt 0.141007 0.592460
vt 0.144391 0.588115
vt 0.136027 0.586257
vt 0.141351 0.584728
vt 0.135510 0.578867
vt 0.140858 0.580122
vt 0.138652 0.573456
vt 0.142807 0.576613
vt 0.131101 0.587262
vt 0.130175 0.587409
vt 0.129846 0.577086
vt 0.130724 0.577407
vt 0.138037 0.596305
vt 0.137505 0.596997
vt 0.149711 0.600996
vt 0.149813 0.601918
vt 0.159388 0.598909
vt 0.159956 0.599667
vt 0.165035 0.592942
vt 0.165776 0.593433
vt 0.166754 0.586664
vt 0.167583 0.586850
vt 0.165828 0.580049
vt 0.166654 0.579878
vt 0.157541 0.569981
vt 0.157968 0.569389
vt 0.146302 0.565759
vt 0.146200 0.564921
vt 0.139881 0.566880
vt 0.139456 0.566144
vt 0.134529 0.570342
vt 0.133846 0.569779
vt 0.108870 0.572366
vt 0.109312 0.572197
vt 0.112428 0.579582
vt 0.111986 0.579513
vt 0.102579 0.566975
vt 0.102944 0.566651
vt 0.088918 0.563538
vt 0.088883 0.563041
vt 0.074870 0.568980
vt 0.074476 0.568709
vt 0.069243 0.575273
vt 0.068782 0.575171
vt 0.067168 0.582795
vt 0.066736 0.582940
vt 0.069196 0.592319
vt 0.068882 0.592614
vt 0.077316 0.601075
vt 0.077123 0.601448
vt 0.091994 0.604321
vt 0.092022 0.604735
vt 0.104762 0.599036
vt 0.104994 0.599384
vt 0.111392 0.589091
vt 0.111756 0.589344
vt 0.105472 0.600896
vt 0.092143 0.606344
vt 0.076889 0.603074
vt 0.067804 0.593891
vt 0.064576 0.583138
vt 0.067059 0.573970
vt 0.073583 0.567021
vt 0.088748 0.560876
vt 0.103484 0.564917
vt 0.110860 0.570818
vt 0.114566 0.579462
vt 0.113150 0.590510
vn -0.700027 -0.707983 0.093397
vn -0.240925 -0.963686 0.115169
vn -0.401646 -0.644177 0.650935
vn -0.595493 -0.279162 0.753297
vn -0.608301 -0.080660 0.789597
vn -0.969237 -0.158839 0.188014
vn -0.033441 -0.990017 0.136924
vn -0.145646 -0.791774 0.593196
vn 0.144443 -0.967235 0.208787
vn 0.045557 -0.659466 0.750353
vn 0.569621 -0.708993 0.415765
vn 0.171630 -0.275841 0.945756
vn 0.758674 -0.173655 0.627900
vn 0.160899 -0.082667 0.983503
vn 0.603232 0.334807 0.723889
vn 0.033981 -0.004619 0.999412
vn 0.236529 0.671684 0.702065
vn -0.110137 -0.007670 0.993887
vn -0.145997 0.772526 0.617971
vn -0.238182 -0.009714 0.971172
vn -0.567997 0.655612 0.497546
vn -0.374307 -0.002895 0.927300
vn -0.876189 0.339560 0.342042
vn -0.492955 -0.003712 0.870047
vn -0.761591 -0.647911 -0.013822
vn -0.322874 -0.944501 0.060588
vn -0.031370 -0.993068 0.113278
vn 0.227067 -0.947554 0.224903
vn 0.654191 -0.640470 0.402284
vn 0.801988 -0.150982 0.577944
vn 0.642534 0.303305 0.703673
vn 0.263973 0.629936 0.730410
vn -0.159719 0.745140 0.647500
vn -0.602052 0.627016 0.494352
vn -0.900749 0.317496 0.296391
vn -0.985151 -0.150214 0.083148
vn 0.635304 0.751101 0.179543
vn 0.989765 0.142191 -0.012131
vn -0.179607 -0.015462 0.983617
vn -0.315956 0.076211 0.945708
vn -0.329936 0.111739 0.937367
vn 0.110480 0.971528 0.209591
vn -0.235391 0.213073 0.948257
vn -0.047633 0.977853 0.203802
vn -0.148973 0.106966 0.983039
vn -0.179899 0.973439 0.141610
vn -0.162913 0.080871 0.983321
vn -0.644934 0.749158 -0.151071
vn -0.312211 -0.007997 0.949979
vn -0.859049 0.163652 -0.485029
vn -0.426073 -0.298452 0.854043
vn -0.664268 -0.389414 -0.638048
vn -0.318943 -0.525887 0.788491
vn -0.260543 -0.738620 -0.621738
vn -0.198684 -0.588610 0.783622
vn 0.121281 -0.834532 -0.537446
vn -0.075780 -0.503739 0.860526
vn 0.559607 -0.718980 -0.412199
vn -0.022186 -0.291724 0.956245
vn 0.888503 -0.394623 -0.234168
vn 0.261902 0.963898 0.048045
vn 0.765579 0.637307 0.087912
vn -0.005995 0.999360 0.035270
vn -0.225255 0.970136 -0.089984
vn -0.691119 0.633471 -0.347951
vn -0.814274 0.140233 -0.563287
vn -0.637061 -0.372338 -0.674920
vn -0.285545 -0.700482 -0.654056
vn 0.114286 -0.774452 -0.622224
vn 0.594964 -0.625798 -0.504375
vn 0.898028 -0.326148 -0.295252
vn 0.989774 0.134780 -0.046706
vn 0.578384 -0.578817 -0.574842
vn 0.886967 -0.275104 -0.370954
vn 0.758266 -0.091306 -0.645520
vn 0.559965 -0.391224 -0.730331
vn 0.222248 -0.317727 -0.921768
vn 0.099003 -0.641708 -0.760532
vn -0.030442 -0.143151 -0.989233
vn -0.228884 -0.525854 -0.819201
vn -0.293956 -0.012401 -0.955739
vn -0.531289 -0.301355 -0.791781
vn -0.433440 0.187042 -0.881558
vn -0.770985 0.147096 -0.619633
vn -0.363307 0.389358 -0.846409
vn -0.674546 0.575824 -0.461967
vn -0.077742 0.568804 -0.818791
vn -0.256232 0.909981 -0.326004
vn 0.178796 0.660469 -0.729255
vn 0.041467 0.982548 -0.181327
vn 0.461627 0.580553 -0.670716
vn 0.360226 0.924797 -0.122425
vn 0.712077 0.402062 -0.575580
vn 0.798962 0.601245 0.012847
vn 0.780207 0.235665 -0.579430
vn 0.976271 0.189228 -0.105297
vn -0.750314 -0.623512 -0.219685
vn -0.982763 -0.150314 -0.107625
vn 0.573765 0.214207 -0.790512
vn 0.561069 0.259965 -0.785888
vn 0.430373 0.307361 -0.848710
vn -0.326694 -0.941563 -0.082034
vn 0.218411 0.385809 -0.896353
vn -0.007613 -0.999635 0.025942
vn 0.031613 0.299881 -0.953453
vn 0.322940 -0.934669 0.148672
vn -0.124533 0.245686 -0.961317
vn 0.745697 -0.604238 0.280770
vn -0.124193 0.180390 -0.975723
vn 0.880867 -0.130287 0.455081
vn -0.091651 0.099438 -0.990814
vn 0.702029 0.331164 0.630464
vn 0.004969 -0.035903 -0.999343
vn 0.301682 0.647129 0.700152
vn 0.236219 -0.123488 -0.963821
vn -0.139766 0.758396 0.636633
vn 0.465221 -0.058623 -0.883251
vn -0.586422 0.675302 0.447300
vn 0.531435 0.100937 -0.841064
vn -0.916261 0.351855 0.191475
s 1
g foot_right foot_part_2_right
usemtl head_plateSG
f 145/145/121 147/148/122 148/147/123 146/146/124
f 146/146/124 168/150/125 167/149/126 145/145/121
f 147/148/122 149/152/127 150/151/128 148/147/123
f 149/152/127 151/154/129 152/153/130 150/151/128
f 151/154/129 153/156/131 154/155/132 152/153/130
f 153/156/131 155/158/133 156/157/134 154/155/132
f 155/158/133 157/160/135 158/159/136 156/157/134
f 157/160/135 159/162/137 160/161/138 158/159/136
f 159/162/137 161/164/139 162/163/140 160/161/138
f 161/164/139 163/166/141 164/165/142 162/163/140
f 163/166/141 165/168/143 166/167/144 164/165/142
f 165/168/143 167/149/126 168/150/125 166/167/144
f 145/145/121 130/170/145 129/169/146 147/148/122
f 147/148/122 129/169/146 128/171/147 149/152/127
f 149/152/127 128/171/147 127/172/148 151/154/129
f 151/154/129 127/172/148 126/173/149 153/156/131
f 153/156/131 126/173/149 125/174/150 155/158/133
f 155/158/133 125/174/150 124/175/151 157/160/135
f 157/160/135 124/175/151 123/176/152 159/162/137
f 159/162/137 123/176/152 122/177/153 161/164/139
f 161/164/139 122/177/153 121/178/154 163/166/141
f 163/166/141 121/178/154 132/179/155 165/168/143
f 165/168/143 132/179/155 131/180/156 167/149/126
f 167/149/126 131/180/156 130/170/145 145/145/121
f 169/181/157 191/184/158 192/183/159 170/182/160
f 170/182/160 172/186/161 171/185/162 169/181/157
f 172/186/161 174/188/163 173/187/164 171/185/162
f 174/188/163 176/190/165 175/189/166 173/187/164
f 176/190/165 178/192/167 177/191/168 175/189/166
f 178/192/167 180/194/169 179/193/170 177/191/168
f 180/194/169 182/196/171 181/195/172 179/193/170
f 182/196/171 184/198/173 183/197/174 181/195/172
f 184/198/173 186/200/175 185/199/176 183/197/174
f 186/200/175 188/202/177 187/201/178 185/199/176
f 188/202/177 190/204/179 189/203/180 187/201/178
f 190/204/179 192/183/159 191/184/158 189/203/180
f 169/205/157 171/208/162 133/207/181 134/206/182
f 171/208/162 173/210/164 135/209/183 133/207/181
f 173/210/164 175/212/166 136/211/184 135/209/183
f 175/212/166 177/214/168 137/213/185 136/211/184
f 177/214/168 179/216/170 138/215/186 137/213/185
f 179/216/170 181/218/172 139/217/187 138/215/186
f 181/218/172 183/220/174 140/219/188 139/217/187
f 183/220/174 185/222/176 141/221/189 140/219/188
f 185/222/176 187/224/178 142/223/190 141/221/189
f 187/224/178 189/226/180 143/225/191 142/223/190
f 189/226/180 191/228/158 144/227/192 143/225/191
f 191/228/158 169/205/157 134/206/182 144/227/192
f 146/146/124 148/147/123 172/186/161 170/182/160
f 148/147/123 150/151/128 174/188/163 172/186/161
f 150/151/128 152/153/130 176/190/165 174/188/163
f 152/153/130 154/155/132 178/192/167 176/190/165
f 154/155/132 156/157/134 180/194/169 178/192/167
f 156/157/134 158/159/136 182/196/171 180/194/169
f 158/159/136 160/161/138 184/198/173 182/196/171
f 160/161/138 162/163/140 186/200/175 184/198/173
f 162/163/140 164/165/142 188/202/177 186/200/175
f 164/165/142 166/167/144 190/204/179 188/202/177
f 166/167/144 168/150/125 192/183/159 190/204/179
f 168/150/125 146/146/124 170/182/160 192/183/159
f 193/229/193 216/232/194 215/231/195 194/230/196
f 194/230/196 195/234/197 196/233/198 193/229/193
f 195/234/197 197/236/199 198/235/200 196/233/198
f 197/236/199 199/238/201 200/237/202 198/235/200
f 199/238/201 201/240/203 202/239/204 200/237/202
f 201/240/203 203/242/205 204/241/206 202/239/204
f 203/242/205 205/244/207 206/243/208 204/241/206
f 205/244/207 207/246/209 208/245/210 206/243/208
f 207/246/209 209/248/211 210/247/212 208/245/210
f 209/248/211 211/250/213 212/249/214 210/247/212
f 211/250/213 213/252/215 214/251/216 212/249/214
f 213/252/215 215/231/195 216/232/194 214/251/216
f 141/221/189 142/223/190 193/229/193 196/233/198
f 140/219/188 141/221/189 196/233/198 198/235/200
f 139/217/187 140/219/188 198/235/200 200/237/202
f 138/215/186 139/217/187 200/237/202 202/239/204
f 137/213/185 138/215/186 202/239/204 204/241/206
f 136/211/184 137/213/185 204/241/206 206/243/208
f 135/209/183 136/211/184 206/243/208 208/245/210
f 133/207/181 135/209/183 208/245/210 210/247/212
f 134/206/182 133/207/181 210/247/212 212/249/214
f 144/227/192 134/206/182 212/249/214 214/251/216
f 143/225/191 144/227/192 214/251/216 216/232/194
f 142/223/190 143/225/191 216/232/194 193/229/193
f 217/253/217 239/256/218 240/255/219 218/254/220
f 218/254/220 220/258/221 219/257/222 217/253/217
f 220/258/221 222/260/223 221/259/224 219/257/222
f 222/260/223 224/262/225 223/261/226 221/259/224
f 224/262/225 226/264/227 225/263/228 223/261/226
f 226/264/227 228/266/229 227/265/230 225/263/228
f 228/266/229 230/268/231 229/267/232 227/265/230
f 230/268/231 232/270/233 231/269/234 229/267/232
f 232/270/233 234/272/235 233/271/236 231/269/234
f 234/272/235 236/274/237 235/273/238 233/271/236
f 236/274/237 238/276/239 237/275/240 235/273/238
f 238/276/239 240/255/219 239/256/218 237/275/240
f 122/177/153 233/271/236 235/273/238 121/178/154
f 123/176/152 231/269/234 233/271/236 122/177/153
f 124/175/151 229/267/232 231/269/234 123/176/152
f 125/174/150 227/265/230 229/267/232 124/175/151
f 126/173/149 225/263/228 227/265/230 125/174/150
f 127/172/148 223/261/226 225/263/228 126/173/149
f 128/171/147 221/259/224 223/261/226 127/172/148
f 129/169/146 219/257/222 221/259/224 128/171/147
f 130/170/145 217/253/217 219/257/222 129/169/146
f 131/180/156 239/256/218 217/253/217 130/170/145
f 132/179/155 237/275/240 239/256/218 131/180/156
f 121/178/154 235/273/238 237/275/240 132/179/155
f 236/274/237 234/272/235 195/278/197 194/277/196
f 234/272/235 232/270/233 197/279/199 195/278/197
f 232/270/233 230/268/231 199/280/201 197/279/199
f 230/268/231 228/266/229 201/281/203 199/280/201
f 228/266/229 226/264/227 203/282/205 201/281/203
f 226/264/227 224/262/225 205/283/207 203/282/205
f 224/262/225 222/260/223 207/284/209 205/283/207
f 222/260/223 220/258/221 209/285/211 207/284/209
f 220/258/221 218/254/220 211/286/213 209/285/211
f 218/254/220 240/255/219 213/287/215 211/286/213
f 240/255/219 238/276/239 215/288/195 213/287/215
f 238/276/239 236/274/237 194/277/196 215/288/195
g default
v -0.065488 -0.056237 0.191866
v -0.059964 -0.050391 0.193612
v -0.052097 -0.047622 0.195764
v -0.043690 -0.048563 0.197830
v -0.036668 -0.053000 0.199337
v -0.032639 -0.059916 0.199938
v -0.032528 -0.067726 0.199497
v -0.035693 -0.074414 0.197673
v -0.043255 -0.079078 0.196106
v -0.051635 -0.080020 0.193934
v -0.059581 -0.077250 0.192094
v -0.065272 -0.071404 0.191009
v -0.067403 -0.063821 0.190926
v -0.088197 -0.054878 0.232952
v -0.078856 -0.044948 0.237238
v -0.065328 -0.040255 0.241567
v -0.050674 -0.041849 0.244959
v -0.038206 -0.049375 0.246648
v -0.030758 -0.061146 0.246245
v -0.030058 -0.074502 0.243832
v -0.036317 -0.086391 0.239946
v -0.048130 -0.090657 0.235551
v -0.062847 -0.091357 0.231491
v -0.076966 -0.089048 0.228899
v -0.087154 -0.080817 0.228184
v -0.091207 -0.067814 0.229682
v -0.079491 -0.062523 0.245576
v -0.073997 -0.056688 0.248114
v -0.066039 -0.053930 0.250670
v -0.057416 -0.054868 0.252667
v -0.050076 -0.059291 0.253654
v -0.045686 -0.066208 0.253403
v -0.045261 -0.074060 0.251965
v -0.048917 -0.081039 0.249664
v -0.055736 -0.083854 0.246998
v -0.064589 -0.084406 0.244513
v -0.072967 -0.082667 0.243065
v -0.078887 -0.077763 0.242728
v -0.081264 -0.070125 0.243631
v -0.049737 -0.063821 0.195387
v -0.064052 -0.071475 0.251856
v -0.090213 -0.049781 0.217246
v -0.093716 -0.065411 0.213192
v -0.088709 -0.081042 0.211287
v -0.076405 -0.090878 0.212224
v -0.059566 -0.092455 0.215567
v -0.041991 -0.091930 0.220312
v -0.027696 -0.087715 0.225338
v -0.020120 -0.073461 0.230141
v -0.020895 -0.057362 0.233209
v -0.029843 -0.043108 0.233841
v -0.044914 -0.033963 0.231890
v -0.062656 -0.032022 0.227804
v -0.079004 -0.037731 0.222519
v -0.076250 -0.051595 0.189427
v -0.082930 -0.048866 0.193791
v -0.067090 -0.041941 0.192320
v -0.071774 -0.037100 0.197347
v -0.053750 -0.037265 0.195970
v -0.055899 -0.031528 0.201706
v -0.039423 -0.038869 0.199490
v -0.038930 -0.033422 0.205870
v -0.027635 -0.046291 0.202020
v -0.024743 -0.042349 0.208886
v -0.021039 -0.057551 0.203009
v -0.016583 -0.056273 0.210076
v -0.020840 -0.070101 0.202305
v -0.016328 -0.072015 0.209182
v -0.027291 -0.081716 0.199767
v -0.024045 -0.085971 0.206367
v -0.037885 -0.084578 0.197078
v -0.038100 -0.090663 0.202763
v -0.053778 -0.085014 0.193163
v -0.055106 -0.091210 0.198510
v -0.067061 -0.084704 0.189758
v -0.071122 -0.090728 0.194497
v -0.075906 -0.076049 0.188045
v -0.082537 -0.079437 0.192029
v -0.079353 -0.063821 0.187910
v -0.086817 -0.064142 0.191868
vt 0.502537 0.585335
vt 0.500807 0.587983
vt 0.498379 0.585561
vt 0.499314 0.584141
vt 0.497955 0.589553
vt 0.496859 0.586416
vt 0.494706 0.590055
vt 0.495118 0.586664
vt 0.491646 0.589016
vt 0.493477 0.586114
vt 0.489456 0.586713
vt 0.492284 0.584882
vt 0.488509 0.583590
vt 0.491907 0.583208
vt 0.489430 0.580260
vt 0.492413 0.581492
vt 0.491763 0.577976
vt 0.493677 0.580452
vt 0.495330 0.576859
vt 0.495517 0.579952
vt 0.498855 0.577238
vt 0.497309 0.580021
vt 0.501528 0.579100
vt 0.498697 0.580889
vt 0.502796 0.582200
vt 0.499468 0.582444
vt 0.462743 0.588516
vt 0.460126 0.592293
vt 0.454225 0.584325
vt 0.463410 0.583779
vt 0.461974 0.579166
vt 0.458763 0.575735
vt 0.454513 0.574270
vt 0.450198 0.575108
vt 0.446849 0.577752
vt 0.445106 0.582456
vt 0.445505 0.587268
vt 0.447902 0.591408
vt 0.451746 0.593926
vt 0.456157 0.594245
vt 0.495657 0.582965
vt 0.506076 0.581915
vt 0.505681 0.586458
vt 0.504190 0.577564
vt 0.500503 0.574486
vt 0.495099 0.573244
vt 0.489663 0.575469
vt 0.486426 0.579148
vt 0.485430 0.584004
vt 0.486679 0.588465
vt 0.489861 0.591813
vt 0.494322 0.593365
vt 0.499039 0.592647
vt 0.503172 0.590347
vt 0.512109 0.588156
vt 0.510217 0.587763
vt 0.510226 0.581047
vt 0.512262 0.580489
vt 0.508455 0.595205
vt 0.506952 0.593954
vt 0.501626 0.599807
vt 0.501039 0.598213
vt 0.493356 0.600602
vt 0.493700 0.598661
vt 0.485913 0.597347
vt 0.487117 0.595829
vt 0.481017 0.591307
vt 0.482745 0.590520
vt 0.479280 0.583789
vt 0.481383 0.583915
vt 0.481939 0.575927
vt 0.483278 0.577260
vt 0.486485 0.570813
vt 0.487608 0.572486
vt 0.494857 0.567980
vt 0.494908 0.569935
vt 0.502585 0.569281
vt 0.501706 0.571161
vt 0.508417 0.573892
vt 0.507219 0.575049
vt 0.468178 0.591540
vt 0.463861 0.597799
vt 0.469297 0.583510
vt 0.466849 0.575651
vt 0.461473 0.569888
vt 0.454549 0.567484
vt 0.447611 0.568821
vt 0.441913 0.573815
vt 0.441487 0.580080
vt 0.442988 0.589039
vt 0.444613 0.596470
vt 0.450350 0.600434
vt 0.457464 0.600954
vn -0.855086 0.328204 0.401385
vn -0.684718 0.136918 0.715831
vn -0.511480 0.342412 0.788126
vn -0.592274 0.626005 0.507277
vn -0.281499 0.432451 0.856589
vn -0.249595 0.753803 0.607852
vn -0.039153 0.402139 0.914741
vn 0.109404 0.711003 0.694626
vn 0.177448 0.252542 0.951176
vn 0.433712 0.496636 0.751829
vn 0.319757 -0.000940 0.947499
vn 0.648505 0.125420 0.750807
vn 0.338048 -0.300485 0.891870
vn 0.669865 -0.315329 0.672196
vn 0.187105 -0.613712 0.767040
vn 0.437154 -0.747400 0.500289
vn -0.046958 -0.788625 0.613079
vn 0.079474 -0.954973 0.285850
vn -0.178297 -0.803717 0.567670
vn -0.099088 -0.969466 0.224315
vn -0.388285 -0.727020 0.566283
vn -0.408447 -0.885594 0.221120
vn -0.650964 -0.466229 0.599064
vn -0.802385 -0.544027 0.245384
vn -0.745589 -0.150274 0.649242
vn -0.947198 -0.094809 0.306313
vn 0.244376 0.058175 -0.967934
vn 0.240048 0.061043 -0.968840
vn 0.244378 0.058174 -0.967933
vn 0.244373 0.058173 -0.967935
vn 0.244377 0.058173 -0.967934
vn 0.244377 0.058173 -0.967934
vn 0.244375 0.058175 -0.967934
vn 0.257402 0.078776 -0.963088
vn 0.243615 0.062952 -0.967827
vn 0.224184 0.038706 -0.973778
vn 0.243498 0.055396 -0.968318
vn 0.245022 0.056011 -0.967898
vn 0.244374 0.058174 -0.967935
vn 0.244374 0.058171 -0.967935
vn -0.240313 -0.202727 0.949290
vn -0.991387 -0.003569 -0.130917
vn -0.867848 0.493744 -0.055284
vn -0.839780 -0.525424 -0.136742
vn -0.393440 -0.917490 -0.058459
vn -0.028170 -0.999599 0.002896
vn 0.154240 -0.987165 0.041410
vn 0.612613 -0.765463 0.196907
vn 0.907832 -0.266025 0.324148
vn 0.893241 0.257588 0.368468
vn 0.640332 0.687720 0.342077
vn 0.261793 0.927647 0.266336
vn -0.152223 0.974381 0.165560
vn -0.550912 0.832851 0.053436
vn -0.123482 0.262625 -0.956964
vn -0.169906 0.053796 -0.983991
vn -0.888546 0.028176 -0.457922
vn -0.766193 0.518463 -0.379664
vn -0.456201 0.849011 -0.266573
vn 0.002606 0.412335 -0.911028
vn -0.068734 0.985727 -0.153681
vn 0.170091 0.478491 -0.861462
vn 0.334269 0.940721 -0.057513
vn 0.347155 0.456136 -0.819404
vn 0.705893 0.708243 0.010340
vn 0.503361 0.346884 -0.791391
vn 0.957563 0.286561 0.030902
vn 0.601517 0.162737 -0.782109
vn 0.972770 -0.231373 -0.013579
vn 0.614371 -0.051115 -0.787360
vn 0.674063 -0.729983 -0.112976
vn 0.491105 -0.308293 -0.814722
vn 0.209466 -0.949976 -0.231667
vn 0.273898 -0.447565 -0.851273
vn 0.057268 -0.961044 -0.270397
vn 0.218997 -0.449957 -0.865782
vn -0.296873 -0.893652 -0.336531
vn 0.059172 -0.382819 -0.921926
vn -0.746317 -0.484958 -0.455880
vn -0.118513 -0.162460 -0.979572
s 1
g foot_right foot_tip_right
usemtl head_plateSG
f 254/289/241 267/292/242 268/291/243 255/290/244
f 255/290/244 268/291/243 269/294/245 256/293/246
f 256/293/246 269/294/245 270/296/247 257/295/248
f 257/295/248 270/296/247 271/298/249 258/297/250
f 258/297/250 271/298/249 272/300/251 259/299/252
f 259/299/252 272/300/251 273/302/253 260/301/254
f 260/301/254 273/302/253 274/304/255 261/303/256
f 261/303/256 274/304/255 275/306/257 262/305/258
f 262/305/258 275/306/257 276/308/259 263/307/260
f 263/307/260 276/308/259 277/310/261 264/309/262
f 264/309/262 277/310/261 278/312/263 265/311/264
f 265/311/264 278/312/263 279/314/265 266/313/266
f 266/313/266 279/314/265 267/292/242 254/289/241
f 242/315/267 280/317/268 241/316/269
f 243/318/270 280/317/268 242/315/267
f 244/319/271 280/317/268 243/318/270
f 245/320/272 280/317/268 244/319/271
f 246/321/273 280/317/268 245/320/272
f 247/322/274 280/317/268 246/321/273
f 248/323/275 280/317/268 247/322/274
f 249/324/276 280/317/268 248/323/275
f 250/325/277 280/317/268 249/324/276
f 251/326/278 280/317/268 250/325/277
f 252/327/279 280/317/268 251/326/278
f 253/328/280 280/317/268 252/327/279
f 241/316/269 280/317/268 253/328/280
f 267/292/242 281/329/281 268/291/243
f 268/291/243 281/329/281 269/294/245
f 269/294/245 281/329/281 270/296/247
f 270/296/247 281/329/281 271/298/249
f 271/298/249 281/329/281 272/300/251
f 272/300/251 281/329/281 273/302/253
f 273/302/253 281/329/281 274/304/255
f 274/304/255 281/329/281 275/306/257
f 275/306/257 281/329/281 276/308/259
f 276/308/259 281/329/281 277/310/261
f 277/310/261 281/329/281 278/312/263
f 278/312/263 281/329/281 279/314/265
f 279/314/265 281/329/281 267/292/242
f 283/330/282 266/313/266 254/289/241 282/331/283
f 284/332/284 265/311/264 266/313/266 283/330/282
f 285/333/285 264/309/262 265/311/264 284/332/284
f 286/334/286 263/307/260 264/309/262 285/333/285
f 287/335/287 262/305/258 263/307/260 286/334/286
f 288/336/288 261/303/256 262/305/258 287/335/287
f 289/337/289 260/301/254 261/303/256 288/336/288
f 290/338/290 259/299/252 260/301/254 289/337/289
f 291/339/291 258/297/250 259/299/252 290/338/290
f 292/340/292 257/295/248 258/297/250 291/339/291
f 293/341/293 256/293/246 257/295/248 292/340/292
f 294/342/294 255/290/244 256/293/246 293/341/293
f 282/331/283 254/289/241 255/290/244 294/342/294
f 295/343/295 319/346/296 320/345/297 296/344/298
f 296/344/298 298/348/299 297/347/300 295/343/295
f 298/348/299 300/350/301 299/349/302 297/347/300
f 300/350/301 302/352/303 301/351/304 299/349/302
f 302/352/303 304/354/305 303/353/306 301/351/304
f 304/354/305 306/356/307 305/355/308 303/353/306
f 306/356/307 308/358/309 307/357/310 305/355/308
f 308/358/309 310/360/311 309/359/312 307/357/310
f 310/360/311 312/362/313 311/361/314 309/359/312
f 312/362/313 314/364/315 313/363/316 311/361/314
f 314/364/315 316/366/317 315/365/318 313/363/316
f 316/366/317 318/368/319 317/367/320 315/365/318
f 318/368/319 320/345/297 319/346/296 317/367/320
f 241/316/269 295/370/295 297/369/300 242/315/267
f 242/315/267 297/369/300 299/371/302 243/318/270
f 243/318/270 299/371/302 301/372/304 244/319/271
f 244/319/271 301/372/304 303/373/306 245/320/272
f 245/320/272 303/373/306 305/374/308 246/321/273
f 246/321/273 305/374/308 307/375/310 247/322/274
f 247/322/274 307/375/310 309/376/312 248/323/275
f 248/323/275 309/376/312 311/377/314 249/324/276
f 249/324/276 311/377/314 313/378/316 250/325/277
f 250/325/277 313/378/316 315/379/318 251/326/278
f 251/326/278 315/379/318 317/380/320 252/327/279
f 252/327/279 317/380/320 319/381/296 253/328/280
f 253/328/280 319/381/296 295/370/295 241/316/269
f 296/344/298 282/331/283 294/342/294 298/348/299
f 298/348/299 294/342/294 293/341/293 300/350/301
f 300/350/301 293/341/293 292/340/292 302/352/303
f 302/352/303 292/340/292 291/339/291 304/354/305
f 304/354/305 291/339/291 290/338/290 306/356/307
f 306/356/307 290/338/290 289/337/289 308/358/309
f 308/358/309 289/337/289 288/336/288 310/360/311
f 310/360/311 288/336/288 287/335/287 312/362/313
f 312/362/313 287/335/287 286/334/286 314/364/315
f 314/364/315 286/334/286 285/333/285 316/366/317
f 316/366/317 285/333/285 284/332/284 318/368/319
f 318/368/319 284/332/284 283/330/282 320/345/297
f 320/345/297 283/330/282 282/331/283 296/344/298
g default
v -0.021381 -0.109101 -0.040196
v -0.005663 -0.109101 -0.050107
v 0.012296 -0.109101 -0.050739
v 0.027939 -0.109101 -0.042573
v 0.037168 -0.109101 -0.025363
v 0.037129 -0.109101 -0.004939
v 0.028299 -0.109101 0.013301
v 0.012325 -0.109101 0.024032
v -0.006188 -0.109101 0.025311
v -0.022318 -0.109101 0.016340
v -0.031191 -0.109101 -0.001288
v -0.031089 -0.109101 -0.021845
v -0.046900 -0.109101 -0.058846
v -0.015969 -0.109101 -0.079880
v 0.019763 -0.109101 -0.081329
v 0.050851 -0.109101 -0.064751
v 0.068306 -0.109101 -0.030284
v 0.067422 -0.109101 0.009348
v 0.049615 -0.109101 0.044355
v 0.018713 -0.109101 0.064209
v -0.016685 -0.109101 0.066118
v -0.047337 -0.109101 0.048892
v -0.064285 -0.109101 0.015640
v -0.064556 -0.109101 -0.023273
v -0.073102 -0.109101 -0.070032
v -0.028146 -0.109101 -0.102078
v 0.025007 -0.109101 -0.104259
v 0.071304 -0.109101 -0.079149
v 0.096344 -0.109101 -0.028533
v 0.093883 -0.109101 0.026888
v 0.067461 -0.109101 0.074798
v 0.023637 -0.109101 0.099353
v -0.025359 -0.109101 0.099579
v -0.067990 -0.109101 0.075623
v -0.092853 -0.109101 0.031534
v -0.095701 -0.109101 -0.020469
v -0.099350 -0.083129 -0.073813
v -0.041692 -0.081711 -0.118294
v 0.028293 -0.081096 -0.121664
v 0.089269 -0.081465 -0.088057
v 0.120106 -0.082989 -0.021968
v 0.115185 -0.083236 0.046907
v 0.080569 -0.082228 0.105356
v 0.026502 -0.080127 0.132808
v -0.032897 -0.078804 0.131610
v -0.085199 -0.079506 0.103263
v -0.117725 -0.081697 0.051102
v -0.124297 -0.083522 -0.011378
v -0.114661 -0.047850 -0.072320
v -0.050239 -0.045845 -0.123800
v 0.029120 -0.044919 -0.128030
v 0.098301 -0.045422 -0.089832
v 0.132308 -0.047671 -0.015085
v 0.125810 -0.047377 0.060760
v 0.086602 -0.044734 0.124364
v 0.027482 -0.040335 0.152354
v -0.036716 -0.037753 0.149988
v -0.093730 -0.039299 0.120089
v -0.131070 -0.043948 0.064499
v -0.140515 -0.048012 -0.002823
v -0.116063 -0.007841 -0.071964
v -0.050838 -0.006058 -0.124076
v 0.029429 -0.005092 -0.128557
v 0.099323 -0.005451 -0.090123
v 0.133516 -0.007618 -0.014247
v 0.126672 -0.006103 0.062932
v 0.086683 -0.001360 0.127651
v 0.026955 0.005398 0.156219
v -0.037779 0.009159 0.154186
v -0.095104 0.006733 0.124402
v -0.133211 -0.000517 0.067862
v -0.142743 -0.007137 -0.000726
v -0.104256 0.031027 -0.078929
v -0.043077 0.032732 -0.125692
v 0.030697 0.033595 -0.129531
v 0.094879 0.033323 -0.094531
v 0.127400 0.031613 -0.024448
v 0.122157 0.031678 0.049738
v 0.085148 0.033440 0.113175
v 0.027542 0.036540 0.144212
v -0.035873 0.038299 0.144523
v -0.091362 0.036983 0.114936
v -0.126131 0.033471 0.057741
v -0.132293 0.030571 -0.010759
v -0.084168 0.067067 -0.084032
v -0.031294 0.069462 -0.121656
v 0.030523 0.070591 -0.124478
v 0.084267 0.070183 -0.095596
v 0.113223 0.067882 -0.036173
v 0.110603 0.065619 0.030872
v 0.079480 0.064026 0.089696
v 0.027319 0.063738 0.122343
v -0.031854 0.063935 0.125228
v -0.082849 0.063908 0.096638
v -0.111428 0.063999 0.041373
v -0.112575 0.064832 -0.023568
v -0.062871 0.097707 -0.080048
v -0.020813 0.099226 -0.108087
v 0.027468 0.099993 -0.109896
v 0.069472 0.099748 -0.087529
v 0.092991 0.098187 -0.041681
v 0.091968 0.096109 0.011937
v 0.068060 0.094224 0.059595
v 0.025589 0.093232 0.087902
v -0.023591 0.093065 0.091497
v -0.066019 0.093474 0.067857
v -0.088295 0.094406 0.021861
v -0.087463 0.095822 -0.031861
v -0.041835 0.121511 -0.064120
v -0.012349 0.122195 -0.083675
v 0.021184 0.122539 -0.084988
v 0.050343 0.122440 -0.069539
v 0.066866 0.121758 -0.037301
v 0.066391 0.119826 0.000967
v 0.049700 0.117304 0.035154
v 0.019615 0.114911 0.056005
v -0.015539 0.113749 0.059075
v -0.045757 0.114546 0.042184
v -0.061150 0.116933 0.008946
v -0.059809 0.119657 -0.029770
v -0.017932 0.135818 -0.046063
v -0.002995 0.135822 -0.055583
v 0.013970 0.135808 -0.056121
v 0.028721 0.135812 -0.048295
v 0.037079 0.135872 -0.032409
v 0.036884 0.135432 -0.013415
v 0.028584 0.134616 0.003591
v 0.013368 0.133570 0.014144
v -0.004481 0.132918 0.015790
v -0.019931 0.133163 0.007341
v -0.027773 0.134178 -0.009396
v -0.027102 0.135286 -0.028918
v 0.003955 -0.109101 -0.017685
v 0.005431 0.140153 -0.023534
vt 0.079507 0.645129
vt 0.081656 0.647425
vt 0.078693 0.651858
vt 0.074530 0.647090
vt 0.084569 0.648298
vt 0.084481 0.653626
vt 0.087480 0.647630
vt 0.090281 0.652243
vt 0.089728 0.645208
vt 0.094616 0.647347
vt 0.090596 0.641862
vt 0.096168 0.640820
vt 0.089932 0.638497
vt 0.094752 0.634326
vt 0.087776 0.636056
vt 0.090543 0.629752
vt 0.084800 0.635054
vt 0.084828 0.627923
vt 0.081774 0.635832
vt 0.079072 0.629431
vt 0.079567 0.638338
vt 0.074873 0.634149
vt 0.078703 0.641709
vt 0.073162 0.640509
vt 0.075749 0.654971
vt 0.069760 0.647799
vt 0.084358 0.657605
vt 0.093014 0.655476
vt 0.099281 0.648261
vt 0.101252 0.639082
vt 0.098978 0.630106
vt 0.092854 0.624209
vt 0.084841 0.622073
vt 0.076835 0.624170
vt 0.070876 0.630324
vt 0.068183 0.638716
vt 0.076769 0.707834
vt 0.068492 0.700543
vt 0.071248 0.700205
vt 0.079942 0.706480
vt 0.065298 0.690689
vt 0.067517 0.690613
vt 0.066573 0.680500
vt 0.069218 0.680519
vt 0.073514 0.671636
vt 0.076559 0.672603
vt 0.084141 0.667491
vt 0.086526 0.670007
vt 0.095594 0.669589
vt 0.096026 0.672912
vt 0.104114 0.676815
vt 0.102192 0.679163
vt 0.108154 0.687104
vt 0.104826 0.687292
vt 0.105702 0.697946
vt 0.103525 0.695777
vt 0.098395 0.706507
vt 0.098293 0.703109
vt 0.087814 0.710123
vt 0.089906 0.707216
vt 0.073576 0.699330
vt 0.081889 0.704585
vt 0.069707 0.690478
vt 0.071588 0.681020
vt 0.078706 0.674187
vt 0.087504 0.672469
vt 0.095396 0.675450
vt 0.100089 0.680826
vt 0.101981 0.687465
vt 0.101225 0.694358
vt 0.097296 0.700635
vt 0.090596 0.704608
vt 0.075428 0.697817
vt 0.082559 0.702464
vt 0.072096 0.690196
vt 0.073920 0.682197
vt 0.079802 0.676158
vt 0.087406 0.674991
vt 0.094051 0.677688
vt 0.097725 0.682304
vt 0.099041 0.687713
vt 0.098653 0.693284
vt 0.095620 0.698603
vt 0.090121 0.702169
vt 0.076805 0.695895
vt 0.082238 0.699819
vt 0.074508 0.689904
vt 0.075646 0.683675
vt 0.080168 0.678768
vt 0.086324 0.677319
vt 0.092193 0.679161
vt 0.095864 0.683045
vt 0.097226 0.687931
vt 0.096702 0.692889
vt 0.093669 0.697401
vt 0.088557 0.700116
vt 0.078235 0.694024
vt 0.081989 0.697187
vt 0.076795 0.689636
vt 0.077414 0.685134
vt 0.080575 0.681313
vt 0.085344 0.679689
vt 0.090304 0.680713
vt 0.093829 0.683851
vt 0.095319 0.688127
vt 0.094636 0.692521
vt 0.091628 0.696157
vt 0.087010 0.697966
vt 0.079767 0.692556
vt 0.082320 0.694870
vt 0.078801 0.689434
vt 0.079181 0.686240
vt 0.081353 0.683497
vt 0.084751 0.682160
vt 0.088425 0.682681
vt 0.091284 0.684986
vt 0.092619 0.688341
vt 0.091993 0.691840
vt 0.089521 0.694494
vt 0.085959 0.695634
vt 0.081520 0.691311
vt 0.083204 0.692810
vt 0.080860 0.689266
vt 0.081111 0.687168
vt 0.082576 0.685387
vt 0.084835 0.684485
vt 0.087291 0.684761
vt 0.089283 0.686253
vt 0.090270 0.688531
vt 0.089812 0.690931
vt 0.088054 0.692665
vt 0.085627 0.693341
vt 0.083152 0.690115
vt 0.083970 0.690842
vt 0.082810 0.689103
vt 0.082949 0.688059
vt 0.083666 0.687213
vt 0.084751 0.686804
vt 0.085915 0.686941
vt 0.086874 0.687659
vt 0.087366 0.688754
vt 0.087152 0.689918
vt 0.086301 0.690752
vt 0.085135 0.691085
vt 0.084619 0.642528
vt 0.084881 0.688954
vn 0.000000 -1.000000 -0.000000
vn 0.000000 -1.000000 0.000000
vn 0.000000 -1.000000 0.000000
vn 0.000000 -1.000000 0.000000
vn 0.000000 -1.000000 0.000000
vn 0.000000 -1.000000 0.000000
vn 0.000000 -1.000000 0.000000
vn 0.000000 -1.000000 -0.000000
vn 0.000000 -1.000000 -0.000000
vn 0.000000 -1.000000 -0.000000
vn 0.000000 -1.000000 0.000000
vn 0.000000 -1.000000 -0.000000
vn 0.000000 -1.000000 -0.000000
vn 0.000000 -1.000000 -0.000000
vn 0.000000 -1.000000 -0.000000
vn 0.000000 -1.000000 -0.000000
vn 0.000000 -1.000000 0.000000
vn 0.000000 -1.000000 -0.000000
vn 0.000000 -1.000000 -0.000000
vn 0.000000 -1.000000 0.000000
vn 0.000000 -1.000000 -0.000000
vn 0.000000 -1.000000 -0.000000
vn 0.000000 -1.000000 0.000000
vn 0.000000 -1.000000 -0.000000
vn -0.423693 -0.818634 -0.387714
vn -0.190458 -0.765307 -0.614842
vn 0.154989 -0.737220 -0.657636
vn 0.458014 -0.758813 -0.463062
vn 0.564090 -0.812449 -0.147409
vn 0.498698 -0.857793 0.124469
vn 0.345736 -0.878320 0.330184
vn 0.109237 -0.883154 0.456187
vn -0.126363 -0.873972 0.469262
vn -0.344857 -0.870452 0.351265
vn -0.464252 -0.874289 0.141734
vn -0.496197 -0.861669 -0.106374
vn -0.699765 -0.451803 -0.553357
vn -0.317804 -0.364373 -0.875347
vn 0.213574 -0.318606 -0.923513
vn 0.681711 -0.355226 -0.639597
vn 0.881524 -0.437068 -0.178566
vn 0.815019 -0.519825 0.255980
vn 0.556491 -0.575320 0.599437
vn 0.161404 -0.586758 0.793514
vn -0.213167 -0.571792 0.792220
vn -0.554275 -0.565440 0.610784
vn -0.774580 -0.562642 0.288895
vn -0.837889 -0.532890 -0.118197
vn -0.800202 -0.154853 -0.579394
vn -0.368117 -0.106625 -0.923646
vn 0.220552 -0.085346 -0.971634
vn 0.739846 -0.106670 -0.664267
vn 0.975098 -0.149384 -0.163915
vn 0.926499 -0.195127 0.321753
vn 0.645886 -0.234942 0.726384
vn 0.185404 -0.250448 0.950211
vn -0.248182 -0.247789 0.936486
vn -0.640836 -0.243081 0.728177
vn -0.901739 -0.234188 0.363349
vn -0.972960 -0.208010 -0.100408
vn -0.814646 0.055456 -0.577301
vn -0.377885 0.007384 -0.925823
vn 0.219573 -0.024538 -0.975287
vn 0.749729 -0.006667 -0.661712
vn 0.987031 0.040721 -0.155278
vn 0.941456 0.082783 0.326815
vn 0.670674 0.103885 0.734441
vn 0.211328 0.101996 0.972079
vn -0.248133 0.084185 0.965061
vn -0.667622 0.078731 0.740326
vn -0.930898 0.085340 0.355169
vn -0.990924 0.082400 -0.106203
vn -0.771543 0.221184 -0.596488
vn -0.349535 0.102549 -0.931294
vn 0.220740 0.039078 -0.974550
vn 0.734336 0.086409 -0.673264
vn 0.963427 0.197213 -0.181428
vn 0.909722 0.315024 0.270494
vn 0.658260 0.415815 0.627528
vn 0.243179 0.475472 0.845452
vn -0.207927 0.474494 0.855349
vn -0.636387 0.441692 0.632392
vn -0.880946 0.394915 0.260721
vn -0.931358 0.327960 -0.158163
vn -0.701624 0.403584 -0.587235
vn -0.309021 0.305128 -0.900779
vn 0.214077 0.258313 -0.942043
vn 0.689244 0.299872 -0.659560
vn 0.898978 0.393720 -0.191895
vn 0.832564 0.505838 0.225757
vn 0.586394 0.610874 0.531954
vn 0.224577 0.679338 0.698617
vn -0.163886 0.693932 0.701142
vn -0.547341 0.659101 0.515754
vn -0.783763 0.589856 0.194386
vn -0.842427 0.507535 -0.180900
vn -0.599218 0.612614 -0.515405
vn -0.259577 0.584006 -0.769127
vn 0.179439 0.575043 -0.798202
vn 0.583336 0.590787 -0.557395
vn 0.769500 0.616376 -0.167186
vn 0.724824 0.662603 0.188645
vn 0.515153 0.725371 0.456568
vn 0.203920 0.775888 0.597005
vn -0.131096 0.794611 0.592796
vn -0.467441 0.771238 0.432077
vn -0.683381 0.713837 0.153059
vn -0.733372 0.657095 -0.174334
vn -0.464396 0.800912 -0.377990
vn -0.199604 0.802292 -0.562571
vn 0.126325 0.807769 -0.575804
vn 0.430106 0.809749 -0.399143
vn 0.582520 0.805691 -0.107387
vn 0.556318 0.813577 0.169122
vn 0.389801 0.838130 0.381566
vn 0.147820 0.861518 0.485733
vn -0.102949 0.874079 0.474751
vn -0.351569 0.866891 0.353412
vn -0.525373 0.838918 0.142126
vn -0.571653 0.812513 -0.114174
vn -0.293603 0.926676 -0.234669
vn -0.119886 0.930877 -0.345102
vn 0.076111 0.934780 -0.346978
vn 0.260083 0.934519 -0.242962
vn 0.363523 0.929453 -0.062988
vn 0.358024 0.925754 0.121649
vn 0.252423 0.928178 0.273438
vn 0.088991 0.931067 0.353830
vn -0.078943 0.933160 0.350685
vn -0.243160 0.932735 0.266229
vn -0.353473 0.927944 0.118222
vn -0.375126 0.925043 -0.059798
vn 0.000000 -1.000000 -0.000000
vn -0.011503 0.999459 0.030823
s 1
g foot_right foot_main_right pivot
usemtl head_plateSG
f 321/382/321 333/385/322 334/384/323 322/383/324
f 322/383/324 334/384/323 335/387/325 323/386/326
f 323/386/326 335/387/325 336/389/327 324/388/328
f 324/388/328 336/389/327 337/391/329 325/390/330
f 325/390/330 337/391/329 338/393/331 326/392/332
f 326/392/332 338/393/331 339/395/333 327/394/334
f 327/394/334 339/395/333 340/397/335 328/396/336
f 328/396/336 340/397/335 341/399/337 329/398/338
f 329/398/338 341/399/337 342/401/339 330/400/340
f 330/400/340 342/401/339 343/403/341 331/402/342
f 331/402/342 343/403/341 344/405/343 332/404/344
f 332/404/344 344/405/343 333/385/322 321/382/321
f 333/385/322 345/407/345 346/406/346 334/384/323
f 334/384/323 346/406/346 347/408/347 335/387/325
f 335/387/325 347/408/347 348/409/348 336/389/327
f 336/389/327 348/409/348 349/410/349 337/391/329
f 337/391/329 349/410/349 350/411/350 338/393/331
f 338/393/331 350/411/350 351/412/351 339/395/333
f 339/395/333 351/412/351 352/413/352 340/397/335
f 340/397/335 352/413/352 353/414/353 341/399/337
f 341/399/337 353/414/353 354/415/354 342/401/339
f 342/401/339 354/415/354 355/416/355 343/403/341
f 343/403/341 355/416/355 356/417/356 344/405/343
f 344/405/343 356/417/356 345/407/345 333/385/322
f 345/418/345 357/421/357 358/420/358 346/419/346
f 346/419/346 358/420/358 359/423/359 347/422/347
f 347/422/347 359/423/359 360/425/360 348/424/348
f 348/424/348 360/425/360 361/427/361 349/426/349
f 349/426/349 361/427/361 362/429/362 350/428/350
f 350/428/350 362/429/362 363/431/363 351/430/351
f 351/430/351 363/431/363 364/433/364 352/432/352
f 352/432/352 364/433/364 365/435/365 353/434/353
f 353/434/353 365/435/365 366/437/366 354/436/354
f 354/436/354 366/437/366 367/439/367 355/438/355
f 355/438/355 367/439/367 368/441/368 356/440/356
f 356/440/356 368/441/368 357/421/357 345/418/345
f 357/421/357 369/443/369 370/442/370 358/420/358
f 358/420/358 370/442/370 371/444/371 359/423/359
f 359/423/359 371/444/371 372/445/372 360/425/360
f 360/425/360 372/445/372 373/446/373 361/427/361
f 361/427/361 373/446/373 374/447/374 362/429/362
f 362/429/362 374/447/374 375/448/375 363/431/363
f 363/431/363 375/448/375 376/449/376 364/433/364
f 364/433/364 376/449/376 377/450/377 365/435/365
f 365/435/365 377/450/377 378/451/378 366/437/366
f 366/437/366 378/451/378 379/452/379 367/439/367
f 367/439/367 379/452/379 380/453/380 368/441/368
f 368/441/368 380/453/380 369/443/369 357/421/357
f 369/443/369 381/455/381 382/454/382 370/442/370
f 370/442/370 382/454/382 383/456/383 371/444/371
f 371/444/371 383/456/383 384/457/384 372/445/372
f 372/445/372 384/457/384 385/458/385 373/446/373
f 373/446/373 385/458/385 386/459/386 374/447/374
f 374/447/374 386/459/386 387/460/387 375/448/375
f 375/448/375 387/460/387 388/461/388 376/449/376
f 376/449/376 388/461/388 389/462/389 377/450/377
f 377/450/377 389/462/389 390/463/390 378/451/378
f 378/451/378 390/463/390 391/464/391 379/452/379
f 379/452/379 391/464/391 392/465/392 380/453/380
f 380/453/380 392/465/392 381/455/381 369/443/369
f 381/455/381 393/467/393 394/466/394 382/454/382
f 382/454/382 394/466/394 395/468/395 383/456/383
f 383/456/383 395/468/395 396/469/396 384/457/384
f 384/457/384 396/469/396 397/470/397 385/458/385
f 385/458/385 397/470/397 398/471/398 386/459/386
f 386/459/386 398/471/398 399/472/399 387/460/387
f 387/460/387 399/472/399 400/473/400 388/461/388
f 388/461/388 400/473/400 401/474/401 389/462/389
f 389/462/389 401/474/401 402/475/402 390/463/390
f 390/463/390 402/475/402 403/476/403 391/464/391
f 391/464/391 403/476/403 404/477/404 392/465/392
f 392/465/392 404/477/404 393/467/393 381/455/381
f 393/467/393 405/479/405 406/478/406 394/466/394
f 394/466/394 406/478/406 407/480/407 395/468/395
f 395/468/395 407/480/407 408/481/408 396/469/396
f 396/469/396 408/481/408 409/482/409 397/470/397
f 397/470/397 409/482/409 410/483/410 398/471/398
f 398/471/398 410/483/410 411/484/411 399/472/399
f 399/472/399 411/484/411 412/485/412 400/473/400
f 400/473/400 412/485/412 413/486/413 401/474/401
f 401/474/401 413/486/413 414/487/414 402/475/402
f 402/475/402 414/487/414 415/488/415 403/476/403
f 403/476/403 415/488/415 416/489/416 404/477/404
f 404/477/404 416/489/416 405/479/405 393/467/393
f 405/479/405 417/491/417 418/490/418 406/478/406
f 406/478/406 418/490/418 419/492/419 407/480/407
f 407/480/407 419/492/419 420/493/420 408/481/408
f 408/481/408 420/493/420 421/494/421 409/482/409
f 409/482/409 421/494/421 422/495/422 410/483/410
f 410/483/410 422/495/422 423/496/423 411/484/411
f 411/484/411 423/496/423 424/497/424 412/485/412
f 412/485/412 424/497/424 425/498/425 413/486/413
f 413/486/413 425/498/425 426/499/426 414/487/414
f 414/487/414 426/499/426 427/500/427 415/488/415
f 415/488/415 427/500/427 428/501/428 416/489/416
f 416/489/416 428/501/428 417/491/417 405/479/405
f 417/491/417 429/503/429 430/502/430 418/490/418
f 418/490/418 430/502/430 431/504/431 419/492/419
f 419/492/419 431/504/431 432/505/432 420/493/420
f 420/493/420 432/505/432 433/506/433 421/494/421
f 421/494/421 433/506/433 434/507/434 422/495/422
f 422/495/422 434/507/434 435/508/435 423/496/423
f 423/496/423 435/508/435 436/509/436 424/497/424
f 424/497/424 436/509/436 437/510/437 425/498/425
f 425/498/425 437/510/437 438/511/438 426/499/426
f 426/499/426 438/511/438 439/512/439 427/500/427
f 427/500/427 439/512/439 440/513/440 428/501/428
f 428/501/428 440/513/440 429/503/429 417/491/417
f 429/503/429 441/515/441 442/514/442 430/502/430
f 430/502/430 442/514/442 443/516/443 431/504/431
f 431/504/431 443/516/443 444/517/444 432/505/432
f 432/505/432 444/517/444 445/518/445 433/506/433
f 433/506/433 445/518/445 446/519/446 434/507/434
f 434/507/434 446/519/446 447/520/447 435/508/435
f 435/508/435 447/520/447 448/521/448 436/509/436
f 436/509/436 448/521/448 449/522/449 437/510/437
f 437/510/437 449/522/449 450/523/450 438/511/438
f 438/511/438 450/523/450 451/524/451 439/512/439
f 439/512/439 451/524/451 452/525/452 440/513/440
f 440/513/440 452/525/452 441/515/441 429/503/429
f 322/383/324 453/526/453 321/382/321
f 323/386/326 453/526/453 322/383/324
f 324/388/328 453/526/453 323/386/326
f 325/390/330 453/526/453 324/388/328
f 326/392/332 453/526/453 325/390/330
f 327/394/334 453/526/453 326/392/332
f 328/396/336 453/526/453 327/394/334
f 329/398/338 453/526/453 328/396/336
f 330/400/340 453/526/453 329/398/338
f 331/402/342 453/526/453 330/400/340
f 332/404/344 453/526/453 331/402/342
f 321/382/321 453/526/453 332/404/344
f 441/515/441 454/527/454 442/514/442
f 442/514/442 454/527/454 443/516/443
f 443/516/443 454/527/454 444/517/444
f 444/517/444 454/527/454 445/518/445
f 445/518/445 454/527/454 446/519/446
f 446/519/446 454/527/454 447/520/447
f 447/520/447 454/527/454 448/521/448
f 448/521/448 454/527/454 449/522/449
f 449/522/449 454/527/454 450/523/450
f 450/523/450 454/527/454 451/524/451
f 451/524/451 454/527/454 452/525/452
f 452/525/452 454/527/454 441/515/441
