# This file uses centimeters as units for non-parametric coordinates.

mtllib bot.mtl
g default
v -0.018653 -0.102781 -0.049169
v 0.002226 -0.072696 -0.049169
v -0.015305 -0.104522 -0.054410
v -0.015911 -0.104684 -0.054092
v -0.018380 -0.102387 -0.056581
v -0.018653 -0.102781 -0.056027
v -0.021456 -0.100253 -0.054410
v -0.021396 -0.100878 -0.054092
v -0.022730 -0.099369 -0.049169
v -0.022592 -0.100047 -0.049169
v -0.021456 -0.100253 -0.043929
v -0.021396 -0.100878 -0.044247
v -0.018380 -0.102387 -0.041758
v -0.018653 -0.102781 -0.042311
v -0.015305 -0.104522 -0.043929
v -0.015911 -0.104684 -0.044247
v -0.014031 -0.105406 -0.049169
v -0.014714 -0.105515 -0.049169
v 0.005028 -0.075224 -0.054410
v 0.004968 -0.074600 -0.054092
v 0.001952 -0.073090 -0.056581
v 0.002226 -0.072696 -0.056027
v -0.001123 -0.070955 -0.054410
v -0.000517 -0.070793 -0.054092
v -0.002397 -0.070071 -0.049169
v -0.001713 -0.069963 -0.049169
v -0.001123 -0.070955 -0.043929
v -0.000517 -0.070793 -0.044247
v 0.001952 -0.073090 -0.041758
v 0.002226 -0.072696 -0.042311
v 0.005028 -0.075224 -0.043929
v 0.004968 -0.074600 -0.044247
v 0.006302 -0.076108 -0.049169
v 0.006165 -0.075430 -0.049169
v -0.012612 -0.084790 -0.049169
v -0.011338 -0.085674 -0.054410
v -0.008262 -0.087808 -0.056581
v -0.005187 -0.089943 -0.054410
v -0.003913 -0.090827 -0.049169
v -0.005187 -0.089943 -0.043929
v -0.008262 -0.087808 -0.041758
v -0.011338 -0.085674 -0.043929
vt 0.438764 0.666749
vt 0.438694 0.666311
vt 0.440563 0.666089
vt 0.440723 0.666487
vt 0.436417 0.666550
vt 0.436450 0.666088
vt 0.442064 0.665009
vt 0.442449 0.665395
vt 0.443513 0.662448
vt 0.444437 0.662645
vt 0.428779 0.662837
vt 0.429651 0.662586
vt 0.430944 0.664833
vt 0.430504 0.665151
vt 0.432296 0.665899
vt 0.432080 0.666277
vt 0.434164 0.666181
vt 0.434015 0.666599
vt 0.439048 0.688194
vt 0.438896 0.688611
vt 0.436622 0.688693
vt 0.436651 0.688228
vt 0.440972 0.688543
vt 0.440754 0.688919
vt 0.442522 0.689710
vt 0.442081 0.690022
vt 0.444168 0.692099
vt 0.443290 0.692315
vt 0.429614 0.692326
vt 0.428697 0.692157
vt 0.430651 0.689374
vt 0.431056 0.689744
vt 0.432367 0.688277
vt 0.432546 0.688678
vt 0.434300 0.688058
vt 0.434417 0.688484
vt 0.443303 0.677242
vt 0.440294 0.677283
vt 0.446315 0.677214
vt 0.450003 0.677359
vt 0.426814 0.677556
vt 0.423120 0.677507
vt 0.429832 0.677470
vt 0.432848 0.677399
vt 0.436569 0.677341
vt 0.436513 0.662499
vt 0.436527 0.692293
vn 0.655574 -0.482337 -0.581011
vn -0.416383 -0.901051 -0.121382
vn -0.557961 -0.803953 -0.205765
vn -0.012411 -0.017888 -0.999763
vn 0.808107 -0.589036 0.000000
vn -0.380266 -0.924877 -0.000000
vn -0.698451 -0.705288 -0.121389
vn -0.681204 0.445394 -0.581021
vn -0.733419 -0.679777 0.000004
vn -0.834530 0.550962 0.000000
vn -0.698447 -0.705291 0.121393
vn -0.681204 0.445394 0.581021
vn -0.557956 -0.803957 0.205761
vn -0.012410 -0.017888 0.999763
vn -0.416381 -0.901052 0.121379
vn 0.655574 -0.482338 0.581010
vn 0.681090 -0.445571 -0.581019
vn 0.698463 0.705275 -0.121392
vn 0.733422 0.679774 0.000000
vn 0.834410 -0.551144 0.000000
vn 0.012296 0.017723 -0.999767
vn 0.557949 0.803960 -0.205769
vn -0.655689 0.482167 -0.581022
vn 0.416361 0.901059 -0.121391
vn -0.808231 0.588865 -0.000002
vn 0.380260 0.924880 -0.000002
vn -0.655691 0.482168 0.581020
vn 0.416366 0.901057 0.121389
vn 0.012297 0.017721 0.999767
vn 0.557955 0.803957 0.205767
vn 0.681090 -0.445571 0.581019
vn 0.698463 0.705275 0.121390
vn -0.000001 0.000001 -1.000000
vn 0.668511 -0.463950 -0.581243
vn -0.668507 0.463948 -0.581249
vn -0.821539 0.570153 -0.000001
vn -0.668508 0.463948 0.581248
vn 0.000000 0.000001 1.000000
vn 0.668511 -0.463950 0.581243
vn 0.821538 -0.570153 0.000000
vn -0.570150 -0.821540 0.000002
vn 0.570151 0.821540 -0.000000
s 1
g middle_joint_left hand_left
usemtl head_plateSG
f 3/1/1 4/2/2 6/3/3 5/4/4
f 4/2/2 3/1/1 17/5/5 18/6/6
f 5/4/4 6/3/3 8/7/7 7/8/8
f 7/8/8 8/7/7 10/9/9 9/10/10
f 9/11/10 10/12/9 12/13/11 11/14/12
f 11/14/12 12/13/11 14/15/13 13/16/14
f 13/16/14 14/15/13 16/17/15 15/18/16
f 15/18/16 16/17/15 18/6/6 17/5/5
f 19/19/17 20/20/18 34/21/19 33/22/20
f 20/20/18 19/19/17 21/23/21 22/24/22
f 22/24/22 21/23/21 23/25/23 24/26/24
f 24/26/24 23/25/23 25/27/25 26/28/26
f 26/29/26 25/30/25 27/31/27 28/32/28
f 28/32/28 27/31/27 29/33/29 30/34/30
f 30/34/30 29/33/29 31/35/31 32/36/32
f 32/36/32 31/35/31 33/22/20 34/21/19
f 3/1/1 5/4/4 37/37/33 38/38/34
f 5/4/4 7/8/8 36/39/35 37/37/33
f 7/8/8 9/10/10 35/40/36 36/39/35
f 9/11/10 11/14/12 42/41/37 35/42/36
f 11/14/12 13/16/14 41/43/38 42/41/37
f 13/16/14 15/18/16 40/44/39 41/43/38
f 15/18/16 17/5/5 39/45/40 40/44/39
f 17/5/5 3/1/1 38/38/34 39/45/40
f 6/3/3 4/2/2 1/46/41
f 8/7/7 6/3/3 1/46/41
f 10/9/9 8/7/7 1/46/41
f 12/13/11 10/12/9 1/46/41
f 14/15/13 12/13/11 1/46/41
f 16/17/15 14/15/13 1/46/41
f 18/6/6 16/17/15 1/46/41
f 4/2/2 18/6/6 1/46/41
f 20/20/18 22/24/22 2/47/42
f 22/24/22 24/26/24 2/47/42
f 24/26/24 26/28/26 2/47/42
f 26/29/26 28/32/28 2/47/42
f 28/32/28 30/34/30 2/47/42
f 30/34/30 32/36/32 2/47/42
f 32/36/32 34/21/19 2/47/42
f 34/21/19 20/20/18 2/47/42
f 36/39/35 35/40/36 25/27/25 23/25/23
f 37/37/33 36/39/35 23/25/23 21/23/21
f 38/38/34 37/37/33 21/23/21 19/19/17
f 39/45/40 38/38/34 19/19/17 33/22/20
f 40/44/39 39/45/40 33/22/20 31/35/31
f 41/43/38 40/44/39 31/35/31 29/33/29
f 42/41/37 41/43/38 29/33/29 27/31/27
f 35/42/36 42/41/37 27/31/27 25/30/25
g default
v -0.148679 -0.044463 0.014111
v -0.123718 -0.060726 0.014111
v -0.125473 -0.003436 -0.006389
v -0.093841 -0.024045 -0.006389
v -0.133017 -0.015015 -0.038103
v -0.101386 -0.035624 -0.038103
v -0.156224 -0.056042 -0.017603
v -0.131262 -0.072305 -0.017603
v -0.130544 0.000884 -0.025628
v -0.109026 -0.060000 -0.033989
v -0.149300 -0.072703 -0.019771
v -0.152228 -0.031852 -0.033989
v -0.127359 -0.075864 0.001636
v -0.161057 -0.053909 0.001636
v -0.139115 -0.057071 0.023043
v -0.098841 -0.044368 0.008824
v -0.104100 -0.005211 -0.004221
v -0.142043 -0.016220 0.008824
v -0.087841 -0.026938 -0.025628
v -0.114285 -0.020843 -0.047035
v -0.118745 -0.027689 0.015960
v -0.103745 -0.004666 -0.029977
v -0.132324 -0.048531 -0.041125
v -0.149655 -0.073247 0.005985
v -0.096733 -0.056875 -0.012583
v -0.154336 -0.019344 -0.012583
vt 0.237137 0.674266
vt 0.241438 0.674216
vt 0.238707 0.682800
vt 0.234119 0.682555
vt 0.243870 0.676079
vt 0.243538 0.683099
vt 0.243901 0.689005
vt 0.241125 0.690849
vt 0.235837 0.690327
vt 0.247352 0.697051
vt 0.234261 0.694838
vt 0.247467 0.690143
vt 0.251070 0.689129
vt 0.253779 0.691074
vt 0.260523 0.695273
vt 0.259081 0.690742
vt 0.256521 0.683119
vt 0.261107 0.683059
vt 0.251660 0.683214
vt 0.251575 0.676215
vt 0.254068 0.674428
vt 0.258358 0.674616
vt 0.247849 0.668549
vt 0.258887 0.669760
vt 0.247747 0.674727
vt 0.236773 0.669403
vt 0.247597 0.683093
vt 0.267462 0.682773
vt 0.227757 0.682111
vn -0.606849 0.224703 0.762393
vn -0.117235 -0.170817 0.978303
vn 0.220774 0.332286 0.916976
vn -0.445665 0.599865 0.664489
vn 0.426389 -0.478191 0.767806
vn 0.719331 -0.186677 0.669115
vn 0.872862 0.247586 0.420493
vn 0.477903 0.733496 0.483314
vn -0.126151 0.898483 0.420492
vn 0.500443 0.768092 -0.399489
vn -0.321354 0.911590 -0.256389
vn 0.963713 0.074317 -0.256388
vn 0.585562 -0.193366 -0.787228
vn 0.132117 0.202776 -0.970272
vn -0.413449 0.457529 -0.787228
vn -0.215381 -0.337133 -0.916489
vn -0.756537 0.122731 -0.642331
vn 0.410623 -0.660488 -0.628605
vn 0.148641 -0.904487 -0.399762
vn -0.472315 -0.715802 -0.514341
vn -0.886769 -0.204923 -0.414303
vn -0.500443 -0.768091 0.399492
vn -0.970121 -0.028001 0.241001
vn 0.342142 -0.905951 0.249383
vn 0.789953 -0.612135 0.035579
vn -0.864908 0.501417 0.022675
s 1
g hand_left pinky_2_left
usemtl head_plateSG
f 43/48/43 57/49/44 63/50/45 60/51/46
f 57/49/44 44/52/47 58/53/48 63/50/45
f 63/50/45 58/53/48 46/54/49 59/55/50
f 60/51/46 63/50/45 59/55/50 45/56/51
f 45/56/51 59/55/50 64/57/52 51/58/53
f 59/55/50 46/54/49 61/59/54 64/57/52
f 64/57/52 61/59/54 48/60/55 62/61/56
f 51/62/53 64/57/52 62/61/56 47/63/57
f 47/63/57 62/61/56 65/64/58 54/65/59
f 62/61/56 48/60/55 52/66/60 65/64/58
f 65/64/58 52/66/60 50/67/61 53/68/62
f 54/65/59 65/64/58 53/68/62 49/69/63
f 49/69/63 53/68/62 66/70/64 56/71/65
f 53/68/62 50/67/61 55/72/66 66/70/64
f 66/70/64 55/72/66 44/52/47 57/49/44
f 56/73/65 66/70/64 57/49/44 43/48/43
f 44/52/47 55/72/66 67/74/67 58/53/48
f 55/72/66 50/67/61 52/66/60 67/74/67
f 67/74/67 52/66/60 48/60/55 61/59/54
f 58/53/48 67/74/67 61/59/54 46/54/49
f 49/69/63 56/71/65 68/75/68 54/65/59
f 56/73/65 43/48/43 60/51/46 68/76/68
f 68/76/68 60/51/46 45/56/51 51/58/53
f 54/65/59 68/75/68 51/62/53 47/63/57
g default
v -0.015119 -0.086759 -0.036807
v 0.016742 -0.086759 -0.036807
v -0.015119 -0.054898 -0.036807
v 0.016742 -0.054898 -0.036807
v -0.015119 -0.054898 -0.068668
v 0.016742 -0.054898 -0.068668
v -0.015119 -0.086759 -0.068668
v 0.016742 -0.086759 -0.068668
v -0.020694 -0.049322 -0.052737
v 0.022318 -0.070828 -0.074244
v 0.000812 -0.092335 -0.074244
v -0.020694 -0.070828 -0.074244
v 0.022318 -0.092335 -0.052737
v -0.020694 -0.092335 -0.052737
v 0.000812 -0.092335 -0.031231
v 0.022318 -0.070828 -0.031231
v 0.000812 -0.049322 -0.031231
v -0.020694 -0.070828 -0.031231
v 0.022318 -0.049322 -0.052737
v 0.000812 -0.049322 -0.074244
v 0.000812 -0.070828 -0.024063
v 0.000812 -0.042154 -0.052737
v 0.000812 -0.070828 -0.081412
v 0.000812 -0.099503 -0.052737
v 0.029487 -0.070828 -0.052737
v -0.027863 -0.070828 -0.052737
vt 0.216482 0.726358
vt 0.221211 0.726773
vt 0.221180 0.730889
vt 0.215193 0.729022
vt 0.225946 0.726435
vt 0.227194 0.729123
vt 0.227141 0.733580
vt 0.221146 0.734715
vt 0.215170 0.733477
vt 0.221093 0.740748
vt 0.211267 0.735294
vt 0.231011 0.735467
vt 0.221403 0.705664
vt 0.231227 0.711120
vt 0.227323 0.712937
vt 0.221348 0.711695
vt 0.211483 0.710943
vt 0.215352 0.712830
vt 0.221314 0.715518
vt 0.215298 0.717287
vt 0.227298 0.717394
vt 0.226006 0.720060
vt 0.221280 0.719626
vt 0.216544 0.719975
vt 0.221241 0.723203
vt 0.215712 0.723158
vt 0.226776 0.723255
vt 0.233227 0.723313
vt 0.209264 0.723100
vn -0.577350 -0.577350 0.577351
vn -0.000000 -0.707107 0.707107
vn -0.000000 0.000000 1.000000
vn -0.707107 0.000000 0.707107
vn 0.577350 -0.577349 0.577351
vn 0.707107 0.000000 0.707107
vn 0.577350 0.577349 0.577352
vn 0.000000 0.707106 0.707108
vn -0.577350 0.577350 0.577351
vn 0.000000 1.000000 -0.000000
vn -0.707107 0.707107 -0.000000
vn 0.707108 0.707106 0.000000
vn 0.577350 0.577349 -0.577352
vn 0.000000 0.707106 -0.707107
vn -0.577350 0.577349 -0.577352
vn 0.000000 0.000000 -1.000000
vn -0.707107 0.000000 -0.707107
vn 0.707107 0.000000 -0.707107
vn 0.577350 -0.577350 -0.577351
vn 0.000000 -0.707107 -0.707106
vn -0.577350 -0.577350 -0.577351
vn 0.000000 -1.000000 0.000000
vn -0.707106 -0.707107 0.000000
vn 0.707107 -0.707106 0.000000
vn 1.000000 0.000000 0.000000
vn -1.000000 0.000000 -0.000000
s 1
g hand_left middle_1_left
usemtl head_plateSG
f 69/77/69 83/78/70 89/79/71 86/80/72
f 83/78/70 70/81/73 84/82/74 89/79/71
f 89/79/71 84/82/74 72/83/75 85/84/76
f 86/80/72 89/79/71 85/84/76 71/85/77
f 71/85/77 85/84/76 90/86/78 77/87/79
f 85/84/76 72/83/75 87/88/80 90/86/78
f 90/89/78 87/90/80 74/91/81 88/92/82
f 77/93/79 90/89/78 88/92/82 73/94/83
f 73/94/83 88/92/82 91/95/84 80/96/85
f 88/92/82 74/91/81 78/97/86 91/95/84
f 91/95/84 78/97/86 76/98/87 79/99/88
f 80/96/85 91/95/84 79/99/88 75/100/89
f 75/100/89 79/99/88 92/101/90 82/102/91
f 79/99/88 76/98/87 81/103/92 92/101/90
f 92/101/90 81/103/92 70/81/73 83/78/70
f 82/102/91 92/101/90 83/78/70 69/77/69
f 70/81/73 81/103/92 93/104/93 84/82/74
f 81/103/92 76/98/87 78/97/86 93/104/93
f 93/104/93 78/97/86 74/91/81 87/90/80
f 84/82/74 93/104/93 87/88/80 72/83/75
f 75/100/89 82/102/91 94/105/94 80/96/85
f 82/102/91 69/77/69 86/80/72 94/105/94
f 94/105/94 86/80/72 71/85/77 77/87/79
f 80/96/85 94/105/94 77/93/79 73/94/83
g default
v 0.012887 -0.099962 0.051629
v 0.044748 -0.099962 0.051629
v 0.012887 -0.066963 0.051629
v 0.044748 -0.066963 0.051629
v 0.012887 -0.066963 0.018263
v 0.044748 -0.066963 0.018263
v 0.012887 -0.099962 0.018263
v 0.044748 -0.099962 0.018263
v 0.007311 -0.061188 0.034946
v 0.050324 -0.083462 0.012424
v 0.028817 -0.105737 0.012424
v 0.007311 -0.083462 0.012424
v 0.050324 -0.105737 0.034946
v 0.007311 -0.105737 0.034946
v 0.028817 -0.105737 0.057468
v 0.050324 -0.083462 0.057468
v 0.028817 -0.061188 0.057468
v 0.007311 -0.083462 0.057468
v 0.050324 -0.061188 0.034946
v 0.028817 -0.061188 0.012424
v 0.028817 -0.083462 0.064975
v 0.028817 -0.053764 0.034946
v 0.028817 -0.083462 0.004917
v 0.028817 -0.113161 0.034946
v 0.057492 -0.083462 0.034946
v 0.000143 -0.083462 0.034946
vt 0.254706 0.762832
vt 0.258845 0.763176
vt 0.258832 0.766798
vt 0.253634 0.765227
vt 0.262986 0.762867
vt 0.264039 0.765274
vt 0.264023 0.769201
vt 0.258814 0.770167
vt 0.253613 0.769151
vt 0.258787 0.775556
vt 0.250197 0.770865
vt 0.267422 0.770951
vt 0.258945 0.744492
vt 0.267533 0.749186
vt 0.264117 0.750899
vt 0.258916 0.749881
vt 0.250308 0.749095
vt 0.253706 0.750845
vt 0.258899 0.753246
vt 0.253689 0.754772
vt 0.264094 0.754826
vt 0.263019 0.757222
vt 0.258883 0.756859
vt 0.254740 0.757179
vt 0.258859 0.760021
vt 0.254028 0.760001
vt 0.263697 0.760049
vt 0.269463 0.760079
vt 0.248265 0.759970
vn -0.594162 -0.572156 0.565341
vn 0.000000 -0.710186 0.704014
vn 0.000000 0.000000 1.000000
vn -0.720032 0.000001 0.693941
vn 0.594161 -0.572156 0.565341
vn 0.720031 -0.000000 0.693942
vn 0.594161 0.572157 0.565341
vn 0.000000 0.710186 0.704014
vn -0.594161 0.572156 0.565340
vn -0.000000 1.000000 0.000000
vn -0.716997 0.697077 -0.000000
vn 0.716996 0.697077 0.000000
vn 0.594160 0.572157 -0.565341
vn 0.000000 0.710186 -0.704015
vn -0.594161 0.572156 -0.565341
vn 0.000000 0.000000 -1.000000
vn -0.720031 0.000000 -0.693941
vn 0.720031 0.000000 -0.693942
vn 0.594161 -0.572157 -0.565340
vn 0.000000 -0.710186 -0.704014
vn -0.594161 -0.572156 -0.565341
vn 0.000000 -1.000000 0.000000
vn -0.716997 -0.697076 -0.000000
vn 0.716996 -0.697077 0.000000
vn 1.000000 -0.000000 0.000000
vn -1.000000 0.000001 -0.000000
s 1
g hand_left thumb_1_left
usemtl head_plateSG
f 95/106/95 109/107/96 115/108/97 112/109/98
f 109/107/96 96/110/99 110/111/100 115/108/97
f 115/108/97 110/111/100 98/112/101 111/113/102
f 112/109/98 115/108/97 111/113/102 97/114/103
f 97/114/103 111/113/102 116/115/104 103/116/105
f 111/113/102 98/112/101 113/117/106 116/115/104
f 116/118/104 113/119/106 100/120/107 114/121/108
f 103/122/105 116/118/104 114/121/108 99/123/109
f 99/123/109 114/121/108 117/124/110 106/125/111
f 114/121/108 100/120/107 104/126/112 117/124/110
f 117/124/110 104/126/112 102/127/113 105/128/114
f 106/125/111 117/124/110 105/128/114 101/129/115
f 101/129/115 105/128/114 118/130/116 108/131/117
f 105/128/114 102/127/113 107/132/118 118/130/116
f 118/130/116 107/132/118 96/110/99 109/107/96
f 108/131/117 118/130/116 109/107/96 95/106/95
f 96/110/99 107/132/118 119/133/119 110/111/100
f 107/132/118 102/127/113 104/126/112 119/133/119
f 119/133/119 104/126/112 100/120/107 113/119/106
f 110/111/100 119/133/119 113/117/106 98/112/101
f 101/129/115 108/131/117 120/134/120 106/125/111
f 108/131/117 95/106/95 112/109/98 120/134/120
f 120/134/120 112/109/98 97/114/103 103/116/105
f 106/125/111 120/134/120 103/122/105 99/123/109
g default
v -0.095039 -0.008002 -0.014350
v -0.077337 -0.008002 -0.014350
v -0.095039 0.010333 -0.014350
v -0.077337 0.010333 -0.014350
v -0.095039 0.010333 -0.032888
v -0.077337 0.010333 -0.032888
v -0.095039 -0.008002 -0.032888
v -0.077337 -0.008002 -0.032888
v -0.098137 0.013541 -0.023619
v -0.074239 0.001166 -0.036133
v -0.086188 -0.011210 -0.036133
v -0.098137 0.001166 -0.036133
v -0.074239 -0.011210 -0.023619
v -0.098137 -0.011210 -0.023619
v -0.086188 -0.011210 -0.011106
v -0.074239 0.001166 -0.011106
v -0.086188 0.013541 -0.011106
v -0.098137 0.001166 -0.011106
v -0.074239 0.013541 -0.023619
v -0.086188 0.013541 -0.036133
v -0.086188 0.001166 -0.006935
v -0.086188 0.017667 -0.023619
v -0.086188 0.001166 -0.040304
v -0.086188 -0.015336 -0.023619
v -0.070256 0.001166 -0.023619
v -0.102120 0.001166 -0.023619
vt 0.283004 0.764539
vt 0.287004 0.764879
vt 0.286985 0.768380
vt 0.281964 0.766851
vt 0.291008 0.764588
vt 0.292021 0.766917
vt 0.291999 0.770712
vt 0.286962 0.771635
vt 0.281936 0.770645
vt 0.286925 0.776845
vt 0.278631 0.772294
vt 0.295280 0.772409
vt 0.287136 0.746818
vt 0.295429 0.751371
vt 0.292123 0.753021
vt 0.287099 0.752028
vt 0.278779 0.751252
vt 0.282060 0.752950
vt 0.287076 0.755281
vt 0.282037 0.756745
vt 0.292094 0.756817
vt 0.291050 0.759131
vt 0.287053 0.758773
vt 0.283048 0.759074
vt 0.287024 0.761829
vt 0.282354 0.761800
vt 0.291700 0.761864
vt 0.297275 0.761904
vt 0.276783 0.761759
vn -0.594163 -0.572157 0.565337
vn 0.000000 -0.710182 0.704018
vn 0.000000 -0.000000 1.000000
vn -0.720028 0.000000 0.693946
vn 0.594164 -0.572157 0.565337
vn 0.720028 -0.000000 0.693945
vn 0.594164 0.572155 0.565338
vn -0.000000 0.710181 0.704020
vn -0.594164 0.572156 0.565338
vn 0.000000 1.000000 -0.000000
vn -0.716998 0.697075 0.000000
vn 0.716998 0.697075 -0.000000
vn 0.594164 0.572156 -0.565338
vn 0.000000 0.710180 -0.704020
vn -0.594164 0.572155 -0.565338
vn -0.000000 -0.000000 -1.000000
vn -0.720028 -0.000000 -0.693945
vn 0.720027 0.000001 -0.693946
vn 0.594164 -0.572157 -0.565337
vn 0.000000 -0.710182 -0.704018
vn -0.594163 -0.572157 -0.565337
vn 0.000000 -1.000000 0.000000
vn -0.716997 -0.697077 0.000000
vn 0.716997 -0.697076 -0.000000
vn 1.000000 0.000001 -0.000000
vn -1.000000 0.000000 0.000000
s 1
g hand_left pinky_1_left
usemtl head_plateSG
f 121/135/121 135/136/122 141/137/123 138/138/124
f 135/136/122 122/139/125 136/140/126 141/137/123
f 141/137/123 136/140/126 124/141/127 137/142/128
f 138/138/124 141/137/123 137/142/128 123/143/129
f 123/143/129 137/142/128 142/144/130 129/145/131
f 137/142/128 124/141/127 139/146/132 142/144/130
f 142/147/130 139/148/132 126/149/133 140/150/134
f 129/151/131 142/147/130 140/150/134 125/152/135
f 125/152/135 140/150/134 143/153/136 132/154/137
f 140/150/134 126/149/133 130/155/138 143/153/136
f 143/153/136 130/155/138 128/156/139 131/157/140
f 132/154/137 143/153/136 131/157/140 127/158/141
f 127/158/141 131/157/140 144/159/142 134/160/143
f 131/157/140 128/156/139 133/161/144 144/159/142
f 144/159/142 133/161/144 122/139/125 135/136/122
f 134/160/143 144/159/142 135/136/122 121/135/121
f 122/139/125 133/161/144 145/162/145 136/140/126
f 133/161/144 128/156/139 130/155/138 145/162/145
f 145/162/145 130/155/138 126/149/133 139/148/132
f 136/140/126 145/162/145 139/146/132 124/141/127
f 127/158/141 134/160/143 146/163/146 132/154/137
f 134/160/143 121/135/121 138/138/124 146/163/146
f 146/163/146 138/138/124 123/143/129 129/145/131
f 132/154/137 146/163/146 129/151/131 125/152/135
g default
v 0.009250 -0.115415 0.028860
v 0.030129 -0.085330 0.028860
v 0.012305 -0.116952 0.024118
v 0.011731 -0.117137 0.024407
v 0.009523 -0.115021 0.022154
v 0.009250 -0.115415 0.022655
v 0.006741 -0.113090 0.024118
v 0.006769 -0.113693 0.024407
v 0.005588 -0.112291 0.028860
v 0.005686 -0.112942 0.028860
v 0.006741 -0.113090 0.033601
v 0.006769 -0.113693 0.033313
v 0.009523 -0.115021 0.035565
v 0.009250 -0.115415 0.035064
v 0.012305 -0.116952 0.033601
v 0.011731 -0.117137 0.033313
v 0.013458 -0.117752 0.028860
v 0.012814 -0.117888 0.028860
v 0.032638 -0.087655 0.024118
v 0.032610 -0.087052 0.024407
v 0.029856 -0.085724 0.022154
v 0.030129 -0.085330 0.022655
v 0.027073 -0.083793 0.024118
v 0.027648 -0.083608 0.024407
v 0.025921 -0.082993 0.028860
v 0.026565 -0.082857 0.028860
v 0.027073 -0.083793 0.033601
v 0.027648 -0.083608 0.033313
v 0.029856 -0.085724 0.035565
v 0.030129 -0.085330 0.035064
v 0.032638 -0.087655 0.033601
v 0.032610 -0.087052 0.033313
v 0.033791 -0.088455 0.028860
v 0.033692 -0.087804 0.028860
v 0.015706 -0.097711 0.028860
v 0.016859 -0.098511 0.024118
v 0.019641 -0.100442 0.022154
v 0.022424 -0.102373 0.024118
v 0.023576 -0.103173 0.028860
v 0.022424 -0.102373 0.033601
v 0.019641 -0.100442 0.035565
v 0.016859 -0.098511 0.033601
vt 0.340872 0.665304
vt 0.340772 0.664882
vt 0.342496 0.664545
vt 0.342678 0.664922
vt 0.338670 0.665283
vt 0.338669 0.664827
vt 0.343828 0.663445
vt 0.344234 0.663792
vt 0.345024 0.660995
vt 0.345941 0.661132
vt 0.331228 0.662353
vt 0.332067 0.662041
vt 0.333457 0.664026
vt 0.333049 0.664368
vt 0.334799 0.664918
vt 0.334618 0.665301
vt 0.336554 0.665058
vt 0.336440 0.665477
vt 0.342719 0.687402
vt 0.342602 0.687820
vt 0.340498 0.688040
vt 0.340492 0.687583
vt 0.344532 0.687604
vt 0.344350 0.687985
vt 0.346082 0.688576
vt 0.345673 0.688912
vt 0.347837 0.690667
vt 0.346990 0.690946
vt 0.334194 0.691860
vt 0.333284 0.691750
vt 0.334957 0.689061
vt 0.335381 0.689392
vt 0.336504 0.687929
vt 0.336703 0.688307
vt 0.338291 0.687588
vt 0.338433 0.687997
vt 0.345935 0.675825
vt 0.343115 0.676066
vt 0.348751 0.675601
vt 0.352203 0.675487
vt 0.330472 0.677245
vt 0.327022 0.677449
vt 0.333290 0.676966
vt 0.336113 0.676694
vt 0.339613 0.676380
vt 0.338487 0.661492
vt 0.340652 0.691388
vn 0.656706 -0.480769 -0.581033
vn -0.400556 -0.906596 -0.132811
vn -0.555563 -0.800491 -0.224863
vn -0.011396 -0.016432 -0.999800
vn 0.809315 -0.587375 -0.000000
vn -0.360779 -0.932651 -0.000005
vn -0.709179 -0.692406 -0.132811
vn -0.680134 0.447007 -0.581037
vn -0.747498 -0.664264 0.000000
vn -0.833397 0.552675 0.000000
vn -0.709183 -0.692402 0.132813
vn -0.680133 0.447008 0.581036
vn -0.555566 -0.800488 0.224869
vn -0.011398 -0.016430 0.999800
vn -0.400554 -0.906597 0.132811
vn 0.656706 -0.480768 0.581034
vn 0.680025 -0.447161 -0.581045
vn 0.709172 0.692414 -0.132810
vn 0.747489 0.664274 0.000006
vn 0.833289 -0.552837 0.000000
vn 0.011293 0.016278 -0.999804
vn 0.555560 0.800489 -0.224878
vn -0.656813 0.480612 -0.581041
vn 0.400559 0.906595 -0.132807
vn -0.809429 0.587218 0.000000
vn 0.360789 0.932648 0.000001
vn -0.656813 0.480612 0.581042
vn 0.400560 0.906594 0.132810
vn 0.011294 0.016278 0.999804
vn 0.555555 0.800493 0.224878
vn 0.680025 -0.447162 0.581044
vn 0.709165 0.692420 0.132814
vn 0.000000 0.000001 -1.000000
vn 0.668510 -0.463951 -0.581243
vn -0.668510 0.463950 -0.581244
vn -0.821538 0.570153 0.000000
vn -0.668509 0.463951 0.581245
vn 0.000000 0.000001 1.000000
vn 0.668510 -0.463951 0.581243
vn 0.821537 -0.570154 -0.000000
vn -0.570158 -0.821535 -0.000002
vn 0.570155 0.821537 0.000002
s 1
g hand_left thumb_joint_left
usemtl head_plateSG
f 149/164/147 150/165/148 152/166/149 151/167/150
f 150/165/148 149/164/147 163/168/151 164/169/152
f 151/167/150 152/166/149 154/170/153 153/171/154
f 153/171/154 154/170/153 156/172/155 155/173/156
f 155/174/156 156/175/155 158/176/157 157/177/158
f 157/177/158 158/176/157 160/178/159 159/179/160
f 159/179/160 160/178/159 162/180/161 161/181/162
f 161/181/162 162/180/161 164/169/152 163/168/151
f 165/182/163 166/183/164 180/184/165 179/185/166
f 166/183/164 165/182/163 167/186/167 168/187/168
f 168/187/168 167/186/167 169/188/169 170/189/170
f 170/189/170 169/188/169 171/190/171 172/191/172
f 172/192/172 171/193/171 173/194/173 174/195/174
f 174/195/174 173/194/173 175/196/175 176/197/176
f 176/197/176 175/196/175 177/198/177 178/199/178
f 178/199/178 177/198/177 179/185/166 180/184/165
f 149/164/147 151/167/150 183/200/179 184/201/180
f 151/167/150 153/171/154 182/202/181 183/200/179
f 153/171/154 155/173/156 181/203/182 182/202/181
f 155/174/156 157/177/158 188/204/183 181/205/182
f 157/177/158 159/179/160 187/206/184 188/204/183
f 159/179/160 161/181/162 186/207/185 187/206/184
f 161/181/162 163/168/151 185/208/186 186/207/185
f 163/168/151 149/164/147 184/201/180 185/208/186
f 152/166/149 150/165/148 147/209/187
f 154/170/153 152/166/149 147/209/187
f 156/172/155 154/170/153 147/209/187
f 158/176/157 156/175/155 147/209/187
f 160/178/159 158/176/157 147/209/187
f 162/180/161 160/178/159 147/209/187
f 164/169/152 162/180/161 147/209/187
f 150/165/148 164/169/152 147/209/187
f 166/183/164 168/187/168 148/210/188
f 168/187/168 170/189/170 148/210/188
f 170/189/170 172/191/172 148/210/188
f 172/192/172 174/195/174 148/210/188
f 174/195/174 176/197/176 148/210/188
f 176/197/176 178/199/178 148/210/188
f 178/199/178 180/184/165 148/210/188
f 180/184/165 166/183/164 148/210/188
f 182/202/181 181/203/182 171/190/171 169/188/169
f 183/200/179 182/202/181 169/188/169 167/186/167
f 184/201/180 183/200/179 167/186/167 165/182/163
f 185/208/186 184/201/180 165/182/163 179/185/166
f 186/207/185 185/208/186 179/185/166 177/198/177
f 187/206/184 186/207/185 177/198/177 175/196/175
f 188/204/183 187/206/184 175/196/175 173/194/173
f 181/205/182 188/204/183 173/194/173 171/193/171
g default
v -0.103045 -0.016387 -0.022334
v -0.092642 -0.001398 -0.022334
v -0.100126 -0.018122 -0.027075
v -0.100564 -0.018109 -0.026787
v -0.102909 -0.016191 -0.029039
v -0.103045 -0.016387 -0.028538
v -0.105691 -0.014260 -0.027075
v -0.105526 -0.014665 -0.026787
v -0.106844 -0.013460 -0.022334
v -0.106608 -0.013914 -0.022334
v -0.105691 -0.014260 -0.017592
v -0.105526 -0.014665 -0.017880
v -0.102909 -0.016191 -0.015628
v -0.103045 -0.016387 -0.016129
v -0.100126 -0.018122 -0.017592
v -0.100564 -0.018109 -0.017880
v -0.098974 -0.018922 -0.022334
v -0.099481 -0.018860 -0.022334
v -0.089996 -0.003525 -0.027075
v -0.090161 -0.003120 -0.026787
v -0.092778 -0.001594 -0.029039
v -0.092642 -0.001398 -0.028538
v -0.095560 0.000337 -0.027075
v -0.095123 0.000324 -0.026787
v -0.096713 0.001137 -0.022334
v -0.096206 0.001076 -0.022334
v -0.095560 0.000337 -0.017592
v -0.095123 0.000324 -0.017880
v -0.092778 -0.001594 -0.015628
v -0.092642 -0.001398 -0.016129
v -0.089996 -0.003525 -0.017592
v -0.090161 -0.003120 -0.017880
v -0.088843 -0.004325 -0.022334
v -0.089078 -0.003871 -0.022334
v -0.101802 -0.006196 -0.022334
v -0.100650 -0.006996 -0.027075
v -0.097867 -0.008927 -0.029039
v -0.095085 -0.010858 -0.027075
v -0.093932 -0.011658 -0.022334
v -0.095085 -0.010858 -0.017592
v -0.097867 -0.008927 -0.015628
v -0.100650 -0.006996 -0.017592
vt 0.334865 0.624096
vt 0.335387 0.623721
vt 0.337247 0.625325
vt 0.336969 0.625783
vt 0.332969 0.620651
vt 0.333950 0.620359
vt 0.340034 0.625674
vt 0.339873 0.626176
vt 0.343500 0.625463
vt 0.343513 0.626011
vt 0.346915 0.625724
vt 0.347079 0.626212
vt 0.349644 0.625279
vt 0.349946 0.625731
vt 0.351484 0.623574
vt 0.352029 0.623935
vt 0.352854 0.620098
vt 0.353832 0.620352
vt 0.335346 0.644796
vt 0.335825 0.645257
vt 0.333647 0.648945
vt 0.332563 0.648671
vt 0.337683 0.643408
vt 0.337942 0.643879
vt 0.340467 0.643242
vt 0.340649 0.643728
vt 0.343772 0.643490
vt 0.343774 0.644025
vt 0.347119 0.643172
vt 0.346942 0.643669
vt 0.349801 0.643357
vt 0.349562 0.643822
vt 0.352171 0.644662
vt 0.351702 0.645137
vt 0.355020 0.648488
vt 0.353940 0.648781
vt 0.334975 0.634758
vt 0.331012 0.634812
vt 0.338948 0.634702
vt 0.343637 0.634584
vt 0.348238 0.634546
vt 0.352234 0.634497
vt 0.356239 0.634517
vt 0.361299 0.634168
vt 0.325995 0.634646
vt 0.343425 0.620261
vt 0.343797 0.649225
vn 0.645859 -0.495607 -0.580723
vn -0.485135 -0.871665 -0.069598
vn -0.566132 -0.815749 -0.118526
vn -0.021016 -0.030286 -0.999320
vn 0.797695 -0.603061 0.000001
vn -0.465028 -0.885296 -0.000004
vn -0.646847 -0.759438 -0.069591
vn -0.690239 0.431659 -0.580723
vn -0.666661 -0.745361 -0.000002
vn -0.844023 0.536307 0.000000
vn -0.646853 -0.759433 0.069591
vn -0.690240 0.431659 0.580723
vn -0.566136 -0.815746 0.118528
vn -0.021016 -0.030286 0.999320
vn -0.485136 -0.871665 0.069594
vn 0.645859 -0.495606 0.580725
vn 0.690042 -0.431959 -0.580735
vn 0.646863 0.759424 -0.069593
vn 0.666683 0.745341 -0.000000
vn 0.843821 -0.536625 0.000001
vn 0.020822 0.030005 -0.999333
vn 0.566131 0.815751 -0.118518
vn -0.646075 0.495314 -0.580734
vn 0.485130 0.871668 -0.069596
vn -0.797923 0.602759 -0.000000
vn 0.465024 0.885298 -0.000002
vn -0.646075 0.495314 0.580734
vn 0.485133 0.871667 0.069595
vn 0.020823 0.030004 0.999333
vn 0.566128 0.815753 0.118518
vn 0.690041 -0.431959 0.580737
vn 0.646857 0.759429 0.069592
vn -0.000001 0.000001 -1.000000
vn 0.668509 -0.463952 -0.581244
vn -0.668510 0.463950 -0.581244
vn -0.821539 0.570153 0.000000
vn -0.668510 0.463950 0.581244
vn -0.000000 0.000001 1.000000
vn 0.668508 -0.463951 0.581245
vn 0.821537 -0.570156 0.000001
vn -0.570156 -0.821537 -0.000002
vn 0.570152 0.821539 0.000000
s 1
g hand_left pinky_joint_left
usemtl head_plateSG
f 191/211/189 192/212/190 194/213/191 193/214/192
f 192/212/190 191/211/189 205/215/193 206/216/194
f 193/214/192 194/213/191 196/217/195 195/218/196
f 195/218/196 196/217/195 198/219/197 197/220/198
f 197/220/198 198/219/197 200/221/199 199/222/200
f 199/222/200 200/221/199 202/223/201 201/224/202
f 201/224/202 202/223/201 204/225/203 203/226/204
f 203/226/204 204/225/203 206/227/194 205/228/193
f 207/229/205 208/230/206 222/231/207 221/232/208
f 208/230/206 207/229/205 209/233/209 210/234/210
f 210/234/210 209/233/209 211/235/211 212/236/212
f 212/236/212 211/235/211 213/237/213 214/238/214
f 214/238/214 213/237/213 215/239/215 216/240/216
f 216/240/216 215/239/215 217/241/217 218/242/218
f 218/242/218 217/241/217 219/243/219 220/244/220
f 220/244/220 219/243/219 221/245/208 222/246/207
f 191/211/189 193/214/192 225/247/221 226/248/222
f 193/214/192 195/218/196 224/249/223 225/247/221
f 195/218/196 197/220/198 223/250/224 224/249/223
f 197/220/198 199/222/200 230/251/225 223/250/224
f 199/222/200 201/224/202 229/252/226 230/251/225
f 201/224/202 203/226/204 228/253/227 229/252/226
f 203/226/204 205/228/193 227/254/228 228/253/227
f 205/215/193 191/211/189 226/248/222 227/255/228
f 194/213/191 192/212/190 189/256/229
f 196/217/195 194/213/191 189/256/229
f 198/219/197 196/217/195 189/256/229
f 200/221/199 198/219/197 189/256/229
f 202/223/201 200/221/199 189/256/229
f 204/225/203 202/223/201 189/256/229
f 206/227/194 204/225/203 189/256/229
f 192/212/190 206/216/194 189/256/229
f 208/230/206 210/234/210 190/257/230
f 210/234/210 212/236/212 190/257/230
f 212/236/212 214/238/214 190/257/230
f 214/238/214 216/240/216 190/257/230
f 216/240/216 218/242/218 190/257/230
f 218/242/218 220/244/220 190/257/230
f 220/244/220 222/246/207 190/257/230
f 222/231/207 208/230/206 190/257/230
f 224/249/223 223/250/224 213/237/213 211/235/211
f 225/247/221 224/249/223 211/235/211 209/233/209
f 226/248/222 225/247/221 209/233/209 207/229/205
f 227/255/228 226/248/222 207/229/205 221/232/208
f 228/253/227 227/254/228 221/245/208 219/243/219
f 229/252/226 228/253/227 219/243/219 217/241/217
f 230/251/225 229/252/226 217/241/217 215/239/215
f 223/250/224 230/251/225 215/239/215 213/237/213
g default
v -0.014650 -0.118442 -0.032643
v -0.018634 -0.088133 -0.031725
v -0.058710 -0.123418 -0.000330
v -0.062229 -0.096647 0.000481
v -0.076535 -0.125067 -0.023249
v -0.080054 -0.098296 -0.022438
v -0.034831 -0.120308 -0.058590
v -0.038815 -0.090000 -0.057672
v -0.073508 -0.129937 -0.006803
v -0.064071 -0.088290 -0.045463
v -0.032995 -0.104338 -0.068478
v -0.058692 -0.129206 -0.046702
v -0.022062 -0.082620 -0.050344
v -0.016684 -0.123536 -0.051583
v -0.005751 -0.101817 -0.033449
v -0.036827 -0.085769 -0.010434
v -0.063851 -0.110753 0.009215
v -0.031449 -0.126685 -0.011674
v -0.078258 -0.093796 -0.005708
v -0.087915 -0.112980 -0.021726
v -0.029598 -0.105807 -0.005216
v -0.084241 -0.113165 0.000339
v -0.065922 -0.109168 -0.051921
v -0.009911 -0.101608 -0.058428
v -0.051345 -0.080210 -0.027742
v -0.044174 -0.134765 -0.029394
vt 0.245310 0.647428
vt 0.242646 0.650583
vt 0.239856 0.640458
vt 0.244655 0.640552
vt 0.237685 0.649270
vt 0.235439 0.640353
vt 0.238715 0.631114
vt 0.243286 0.630362
vt 0.245678 0.633258
vt 0.249467 0.625809
vt 0.249410 0.631155
vt 0.238409 0.625814
vt 0.260519 0.626023
vt 0.260116 0.631324
vt 0.255554 0.630489
vt 0.253095 0.633333
vt 0.258781 0.640655
vt 0.253984 0.640654
vt 0.263198 0.640634
vt 0.260780 0.649496
vt 0.255792 0.650714
vt 0.253190 0.647511
vt 0.249172 0.655951
vt 0.249224 0.649994
vt 0.261524 0.655350
vt 0.236834 0.655115
vt 0.228875 0.639987
vt 0.269761 0.640384
vt 0.249321 0.640581
vn 0.760694 -0.596861 0.255151
vn 0.948548 0.115764 0.294713
vn 0.588748 0.052990 0.806578
vn 0.491405 -0.687399 0.534793
vn 0.582756 0.756766 0.296142
vn 0.301293 0.757909 0.578615
vn -0.011297 0.656059 0.754625
vn 0.063229 -0.021939 0.997758
vn 0.164562 -0.680477 0.714052
vn -0.779317 -0.121064 0.614824
vn -0.312832 -0.898303 0.308524
vn -0.531857 0.766949 0.359050
vn -0.778677 0.584570 -0.227902
vn -0.947469 -0.115548 -0.298247
vn -0.602944 -0.751246 -0.268492
vn -0.638756 -0.060711 -0.767010
vn -0.348433 -0.764728 -0.542019
vn -0.538387 0.679678 -0.498174
vn -0.193826 0.684921 -0.702364
vn -0.056941 0.022744 -0.998118
vn -0.015888 -0.668706 -0.743357
vn 0.779317 0.121061 -0.614824
vn 0.534680 -0.764131 -0.360861
vn 0.316405 0.896343 -0.310575
vn -0.154027 0.986881 0.048384
vn 0.106550 -0.994238 -0.011731
s 1
g hand_left middle_2_left
usemtl head_plateSG
f 231/258/231 245/259/232 251/260/233 248/261/234
f 245/259/232 232/262/235 246/263/236 251/260/233
f 251/260/233 246/263/236 234/264/237 247/265/238
f 248/261/234 251/260/233 247/265/238 233/266/239
f 233/266/239 247/265/238 252/267/240 239/268/241
f 247/265/238 234/264/237 249/269/242 252/267/240
f 252/267/240 249/270/242 236/271/243 250/272/244
f 239/268/241 252/267/240 250/272/244 235/273/245
f 235/273/245 250/272/244 253/274/246 242/275/247
f 250/272/244 236/271/243 240/276/248 253/274/246
f 253/274/246 240/276/248 238/277/249 241/278/250
f 242/275/247 253/274/246 241/278/250 237/279/251
f 237/279/251 241/278/250 254/280/252 244/281/253
f 241/278/250 238/277/249 243/282/254 254/280/252
f 254/280/252 243/283/254 232/262/235 245/259/232
f 244/281/253 254/280/252 245/259/232 231/258/231
f 232/262/235 243/283/254 255/284/255 246/263/236
f 243/282/254 238/277/249 240/276/248 255/285/255
f 255/285/255 240/276/248 236/271/243 249/270/242
f 246/263/236 255/284/255 249/269/242 234/264/237
f 237/279/251 244/281/253 256/286/256 242/275/247
f 244/281/253 231/258/231 248/261/234 256/286/256
f 256/286/256 248/261/234 233/266/239 239/268/241
f 242/275/247 256/286/256 239/268/241 235/273/245
g default
v -0.042022 -0.131788 0.045565
v -0.027596 -0.155614 0.045565
v -0.003879 -0.106198 0.045565
v 0.009328 -0.134613 0.045565
v -0.003879 -0.106198 0.012199
v 0.009328 -0.134613 0.012199
v -0.042022 -0.131788 0.012199
v -0.027596 -0.155614 0.012199
v 0.000115 -0.097227 0.028882
v -0.004097 -0.150143 0.006361
v -0.041673 -0.147854 0.006361
v -0.026722 -0.111452 0.006361
v -0.031922 -0.163910 0.028882
v -0.051398 -0.131746 0.028882
v -0.041673 -0.147854 0.051404
v -0.004097 -0.150143 0.051404
v 0.011253 -0.115668 0.051404
v -0.026722 -0.111452 0.051404
v 0.019097 -0.135204 0.028882
v 0.011253 -0.115668 0.006361
v -0.015254 -0.131745 0.058911
v 0.020096 -0.110290 0.028882
v -0.015254 -0.131745 -0.001147
v -0.050485 -0.153167 0.028882
v -0.000370 -0.156255 0.028882
v -0.030429 -0.105290 0.028882
vt 0.285183 0.675263
vt 0.289704 0.675037
vt 0.287258 0.683390
vt 0.282574 0.683784
vt 0.292409 0.676846
vt 0.292023 0.683216
vt 0.292541 0.688510
vt 0.290145 0.691896
vt 0.285006 0.691687
vt 0.296643 0.697693
vt 0.283978 0.696640
vt 0.296539 0.690979
vt 0.300458 0.688385
vt 0.302959 0.691695
vt 0.309272 0.696243
vt 0.308089 0.691324
vt 0.305576 0.683103
vt 0.310269 0.683347
vt 0.300807 0.683078
vt 0.300219 0.676723
vt 0.302865 0.674829
vt 0.307390 0.674912
vt 0.296184 0.668657
vt 0.307896 0.669786
vt 0.296290 0.675221
vt 0.284514 0.670156
vt 0.296418 0.683305
vt 0.317004 0.683148
vt 0.275836 0.683802
vn -0.729015 0.310931 0.609802
vn -0.526791 -0.316685 0.788798
vn -0.003278 -0.000598 0.999994
vn -0.396302 0.613500 0.683054
vn -0.037898 -0.797211 0.602510
vn 0.367500 -0.639095 0.675649
vn 0.720513 -0.336251 0.606462
vn 0.566291 0.294061 0.769963
vn 0.071250 0.772817 0.630616
vn 0.895013 0.446040 -0.000000
vn 0.135033 0.990841 -0.000000
vn 0.926278 -0.376840 -0.000000
vn 0.720513 -0.336251 -0.606462
vn 0.566291 0.294060 -0.769963
vn 0.071249 0.772817 -0.630617
vn -0.003278 -0.000599 -0.999995
vn -0.396302 0.613500 -0.683054
vn 0.367500 -0.639095 -0.675649
vn -0.037898 -0.797211 -0.602510
vn -0.526791 -0.316685 -0.788798
vn -0.729015 0.310931 -0.609802
vn -0.855576 -0.517677 0.000000
vn -0.934309 0.356465 -0.000000
vn -0.096978 -0.995287 0.000000
vn 0.493356 -0.869828 -0.000000
vn -0.554498 0.832185 -0.000000
s 1
g hand_left thumb_2_left
usemtl head_plateSG
f 257/287/257 271/288/258 277/289/259 274/290/260
f 271/288/258 258/291/261 272/292/262 277/289/259
f 277/289/259 272/292/262 260/293/263 273/294/264
f 274/290/260 277/289/259 273/294/264 259/295/265
f 259/295/265 273/294/264 278/296/266 265/297/267
f 273/294/264 260/293/263 275/298/268 278/296/266
f 278/296/266 275/298/268 262/299/269 276/300/270
f 265/301/267 278/296/266 276/300/270 261/302/271
f 261/302/271 276/300/270 279/303/272 268/304/273
f 276/300/270 262/299/269 266/305/274 279/303/272
f 279/303/272 266/305/274 264/306/275 267/307/276
f 268/304/273 279/303/272 267/307/276 263/308/277
f 263/308/277 267/307/276 280/309/278 270/310/279
f 267/307/276 264/306/275 269/311/280 280/309/278
f 280/309/278 269/311/280 258/291/261 271/288/258
f 270/312/279 280/309/278 271/288/258 257/287/257
f 258/291/261 269/311/280 281/313/281 272/292/262
f 269/311/280 264/306/275 266/305/274 281/313/281
f 281/313/281 266/305/274 262/299/269 275/298/268
f 272/292/262 281/313/281 275/298/268 260/293/263
f 263/308/277 270/310/279 282/314/282 268/304/273
f 270/312/279 257/287/257 274/290/260 282/315/282
f 282/315/282 274/290/260 259/295/265 265/297/267
f 268/304/273 282/314/282 265/301/267 261/302/271
g default
v -0.006965 -0.084190 -0.008096
v -0.011324 -0.082764 -0.014960
v -0.017847 -0.080630 -0.019546
v -0.025542 -0.078112 -0.021157
v -0.033237 -0.075594 -0.019546
v -0.039698 -0.073478 -0.014932
v -0.044051 -0.072053 -0.008094
v -0.045586 -0.071550 -0.000023
v -0.044019 -0.072063 0.008027
v -0.039668 -0.073487 0.014874
v -0.033175 -0.075612 0.019465
v -0.025541 -0.078111 0.021157
v -0.017847 -0.080629 0.019546
v -0.011341 -0.082757 0.014937
v -0.007031 -0.084167 0.008068
v -0.005467 -0.084680 -0.000000
v 0.011847 -0.082874 -0.015332
v 0.003593 -0.080173 -0.028330
v -0.008761 -0.076130 -0.037015
v -0.023332 -0.071361 -0.040065
v -0.037904 -0.066592 -0.037016
v -0.050138 -0.062582 -0.028276
v -0.058382 -0.059884 -0.015328
v -0.061288 -0.058933 -0.000043
v -0.058322 -0.059904 0.015200
v -0.050084 -0.062601 0.028167
v -0.037788 -0.066627 0.036861
v -0.023332 -0.071360 0.040065
v -0.008761 -0.076129 0.037015
v 0.003560 -0.080159 0.028286
v 0.011723 -0.082829 0.015278
v 0.014684 -0.083801 -0.000000
v 0.030083 -0.076764 -0.021724
v 0.018388 -0.072936 -0.040140
v 0.000885 -0.067207 -0.052446
v -0.019761 -0.060450 -0.056767
v -0.040407 -0.053692 -0.052446
v -0.057740 -0.048010 -0.040062
v -0.069419 -0.044187 -0.021717
v -0.073363 -0.042896 -0.000103
v -0.069335 -0.044215 0.021536
v -0.057693 -0.048027 0.039915
v -0.040262 -0.053736 0.052235
v -0.019761 -0.060449 0.056767
v 0.000885 -0.067207 0.052446
v 0.018341 -0.072917 0.040077
v 0.029908 -0.076698 0.021646
v 0.034102 -0.078076 -0.000000
v 0.046611 -0.066082 -0.026854
v 0.032155 -0.061351 -0.049620
v 0.010518 -0.054269 -0.064832
v -0.015003 -0.045915 -0.070173
v -0.040525 -0.037561 -0.064832
v -0.061950 -0.030538 -0.049522
v -0.076387 -0.025812 -0.026844
v -0.081262 -0.024216 -0.000127
v -0.076283 -0.025847 0.026621
v -0.061892 -0.030558 0.049340
v -0.040346 -0.037615 0.064570
v -0.015003 -0.045915 0.070173
v 0.010518 -0.054268 0.064831
v 0.032096 -0.061327 0.049541
v 0.046393 -0.065999 0.026757
v 0.051579 -0.067703 -0.000000
v 0.060532 -0.051552 -0.030462
v 0.044133 -0.046185 -0.056287
v 0.019590 -0.038151 -0.073542
v -0.009360 -0.028675 -0.079601
v -0.038311 -0.019199 -0.073542
v -0.062612 -0.011234 -0.056173
v -0.078988 -0.005874 -0.030450
v -0.084763 -0.003984 -0.000086
v -0.078870 -0.005913 0.030196
v -0.062505 -0.011271 0.055958
v -0.038079 -0.019271 0.073233
v -0.009360 -0.028675 0.079601
v 0.019590 -0.038151 0.073542
v 0.044066 -0.046158 0.056196
v 0.060281 -0.051459 0.030350
v 0.066166 -0.053391 0.000000
v 0.070993 -0.034043 -0.032324
v 0.053591 -0.028347 -0.059726
v 0.027548 -0.019823 -0.078036
v -0.003172 -0.009767 -0.084466
v -0.033891 0.000288 -0.078036
v -0.059677 0.008735 -0.059604
v -0.077053 0.014423 -0.032310
v -0.083180 0.016429 -0.000092
v -0.076928 0.014382 0.032041
v -0.059563 0.008697 0.059377
v -0.033645 0.000210 0.077707
v -0.003172 -0.009767 0.084466
v 0.027548 -0.019823 0.078036
v 0.053519 -0.028320 0.059630
v 0.070722 -0.033946 0.032204
v 0.076969 -0.035995 0.000000
v 0.077262 -0.014535 -0.032278
v 0.059885 -0.008847 -0.059642
v 0.033879 -0.000335 -0.077925
v 0.003203 0.009706 -0.084346
v -0.027474 0.019747 -0.077926
v -0.053223 0.028175 -0.059517
v -0.070574 0.033855 -0.032263
v -0.076692 0.035857 -0.000091
v -0.070449 0.033814 0.031994
v -0.053109 0.028138 0.059291
v -0.027227 0.019667 0.077596
v 0.003203 0.009706 0.084346
v 0.033879 -0.000335 0.077926
v 0.059811 -0.008823 0.059545
v 0.076986 -0.014445 0.032157
v 0.083227 -0.016488 0.000000
v 0.079144 0.005775 -0.030402
v 0.062777 0.011132 -0.056176
v 0.038283 0.019149 -0.073397
v 0.009389 0.028607 -0.079444
v -0.019504 0.038065 -0.073397
v -0.043757 0.046003 -0.056058
v -0.060100 0.051352 -0.030388
v -0.065862 0.053239 -0.000086
v -0.059982 0.051314 0.030135
v -0.043650 0.045968 0.055845
v -0.019272 0.037989 0.073087
v 0.009389 0.028607 0.079444
v 0.038283 0.019149 0.073397
v 0.062708 0.011155 0.056084
v 0.078885 0.005860 0.030288
v 0.084763 0.003936 0.000000
v 0.076428 0.025747 -0.026759
v 0.062023 0.030463 -0.049445
v 0.040463 0.037520 -0.064602
v 0.015031 0.045844 -0.069925
v -0.010400 0.054168 -0.064602
v -0.031747 0.061155 -0.049342
v -0.046132 0.065864 -0.026747
v -0.051204 0.067524 -0.000076
v -0.046028 0.065830 0.026524
v -0.031653 0.061125 0.049154
v -0.010196 0.054101 0.064329
v 0.015031 0.045844 0.069925
v 0.040463 0.037520 0.064602
v 0.061961 0.030483 0.049364
v 0.076200 0.025822 0.026659
v 0.081373 0.024128 0.000000
v 0.069272 0.044222 -0.021561
v 0.057664 0.048021 -0.039840
v 0.040292 0.053707 -0.052054
v 0.019801 0.060415 -0.056343
v -0.000691 0.067122 -0.052054
v -0.017891 0.072752 -0.039757
v -0.029482 0.076546 -0.021551
v -0.033568 0.077884 -0.000061
v -0.029398 0.076519 0.021372
v -0.017815 0.072728 0.039606
v -0.000526 0.067068 0.051834
v 0.019801 0.060415 0.056343
v 0.040292 0.053707 0.052054
v 0.057615 0.048037 0.039775
v 0.069087 0.044282 0.021480
v 0.073256 0.042918 0.000000
v 0.058090 0.060125 -0.015111
v 0.049955 0.062788 -0.027920
v 0.037781 0.066773 -0.036480
v 0.023420 0.071473 -0.039485
v 0.009060 0.076174 -0.036480
v -0.002994 0.080119 -0.027862
v -0.011117 0.082778 -0.015103
v -0.013981 0.083716 -0.000043
v -0.011059 0.082759 0.014978
v -0.002941 0.080102 0.027756
v 0.009175 0.076136 0.036326
v 0.023420 0.071473 0.039485
v 0.037781 0.066773 0.036480
v 0.049921 0.062799 0.027875
v 0.057961 0.060167 0.015054
v 0.060883 0.059211 -0.000000
v 0.043534 0.072532 -0.007781
v 0.039344 0.073903 -0.014378
v 0.033075 0.075955 -0.018786
v 0.025680 0.078376 -0.020334
v 0.018285 0.080797 -0.018786
v 0.012077 0.082829 -0.014348
v 0.007894 0.084198 -0.007778
v 0.006419 0.084680 -0.000022
v 0.007924 0.084188 0.007713
v 0.012105 0.082820 0.014293
v 0.018344 0.080777 0.018706
v 0.025680 0.078376 0.020334
v 0.033075 0.075955 0.018786
v 0.039327 0.073909 0.014355
v 0.043467 0.072554 0.007752
v 0.044972 0.072061 0.000000
v -0.026415 -0.080777 0.000000
v 0.026448 0.080723 0.000000
vt 0.168080 0.428749
vt 0.168206 0.430635
vt 0.165007 0.432164
vt 0.164924 0.429371
vt 0.168506 0.432437
vt 0.165295 0.434907
vt 0.169012 0.434090
vt 0.165844 0.437550
vt 0.169760 0.435504
vt 0.166741 0.440021
vt 0.170656 0.436543
vt 0.167969 0.442132
vt 0.171938 0.437051
vt 0.169942 0.443804
vt 0.173431 0.436798
vt 0.172416 0.444512
vt 0.174792 0.417560
vt 0.173286 0.417180
vt 0.172349 0.410464
vt 0.175167 0.410069
vt 0.171991 0.417562
vt 0.170240 0.411771
vt 0.170885 0.418482
vt 0.168621 0.413657
vt 0.169992 0.419765
vt 0.167397 0.415885
vt 0.169317 0.421350
vt 0.166520 0.418394
vt 0.168714 0.423083
vt 0.165789 0.421048
vt 0.168275 0.424920
vt 0.165269 0.423782
vt 0.168109 0.426829
vt 0.165020 0.426566
vt 0.161814 0.433060
vt 0.161812 0.429672
vt 0.161997 0.436437
vt 0.162415 0.439781
vt 0.163162 0.443066
vt 0.164315 0.446118
vt 0.166254 0.449070
vt 0.169309 0.451379
vt 0.169848 0.404855
vt 0.173186 0.403156
vt 0.167389 0.407305
vt 0.165645 0.410106
vt 0.164377 0.413116
vt 0.163479 0.416303
vt 0.162776 0.419598
vt 0.162275 0.422934
vt 0.161970 0.426290
vt 0.158583 0.433565
vt 0.158676 0.429778
vt 0.158621 0.437367
vt 0.158829 0.441188
vt 0.159269 0.445042
vt 0.160087 0.448826
vt 0.161457 0.452742
vt 0.164232 0.457029
vt 0.165946 0.400519
vt 0.169590 0.396979
vt 0.163740 0.403931
vt 0.162194 0.407488
vt 0.161075 0.411101
vt 0.160267 0.414785
vt 0.159663 0.418520
vt 0.159221 0.422263
vt 0.158887 0.426009
vt 0.155309 0.433769
vt 0.155501 0.429736
vt 0.155185 0.437828
vt 0.155145 0.441930
vt 0.155206 0.446114
vt 0.155533 0.450431
vt 0.156151 0.455052
vt 0.157395 0.460373
vt 0.161336 0.397263
vt 0.163947 0.392541
vt 0.159594 0.401535
vt 0.158421 0.405666
vt 0.157575 0.409706
vt 0.156929 0.413726
vt 0.156460 0.417729
vt 0.156091 0.421725
vt 0.155753 0.425722
vt 0.152014 0.433707
vt 0.152308 0.429563
vt 0.151726 0.437875
vt 0.151430 0.442084
vt 0.151100 0.446331
vt 0.150838 0.450987
vt 0.150488 0.455785
vt 0.150079 0.461452
vt 0.156080 0.395272
vt 0.157357 0.390068
vt 0.155106 0.400104
vt 0.154446 0.404590
vt 0.153956 0.408881
vt 0.153518 0.413086
vt 0.153195 0.417184
vt 0.152900 0.421297
vt 0.152587 0.425435
vt 0.148724 0.433392
vt 0.149119 0.429264
vt 0.148278 0.437534
vt 0.147734 0.441706
vt 0.147053 0.445949
vt 0.146160 0.450369
vt 0.144885 0.455018
vt 0.142918 0.460307
vt 0.150479 0.394824
vt 0.150390 0.389220
vt 0.150424 0.399642
vt 0.150374 0.404259
vt 0.150286 0.408615
vt 0.150084 0.412769
vt 0.149894 0.416903
vt 0.149653 0.421016
vt 0.149404 0.425157
vt 0.145462 0.432824
vt 0.145923 0.428843
vt 0.144881 0.436803
vt 0.144122 0.440782
vt 0.143113 0.444776
vt 0.141701 0.448780
vt 0.139662 0.452861
vt 0.136508 0.457134
vt 0.144909 0.395743
vt 0.143398 0.390554
vt 0.145763 0.400319
vt 0.146287 0.404613
vt 0.146574 0.408747
vt 0.146633 0.412823
vt 0.146594 0.416852
vt 0.146436 0.420853
vt 0.146230 0.424851
vt 0.142248 0.431987
vt 0.142744 0.428280
vt 0.141569 0.435661
vt 0.140647 0.439284
vt 0.139392 0.442829
vt 0.137626 0.446215
vt 0.135115 0.449414
vt 0.131377 0.452245
vt 0.139666 0.398092
vt 0.137026 0.394032
vt 0.141280 0.401991
vt 0.142270 0.405757
vt 0.142880 0.409491
vt 0.143195 0.413283
vt 0.143312 0.417054
vt 0.143256 0.420806
vt 0.143075 0.424545
vt 0.139102 0.430842
vt 0.139596 0.427559
vt 0.138379 0.434055
vt 0.137376 0.437153
vt 0.136007 0.440070
vt 0.134120 0.442658
vt 0.131540 0.444789
vt 0.127966 0.446066
vt 0.135093 0.401902
vt 0.131966 0.399461
vt 0.137154 0.404756
vt 0.138438 0.407770
vt 0.139270 0.410912
vt 0.139800 0.414214
vt 0.140061 0.417552
vt 0.140111 0.420898
vt 0.139945 0.424232
vt 0.136040 0.429305
vt 0.136486 0.426633
vt 0.135354 0.431867
vt 0.134397 0.434256
vt 0.133112 0.436378
vt 0.131418 0.438051
vt 0.129253 0.439107
vt 0.126583 0.439134
vt 0.131627 0.407175
vt 0.128908 0.406403
vt 0.133631 0.408768
vt 0.134937 0.410825
vt 0.135828 0.413168
vt 0.136475 0.415752
vt 0.136836 0.418440
vt 0.136977 0.421173
vt 0.136829 0.423910
vt 0.133055 0.427146
vt 0.133379 0.425389
vt 0.132549 0.428784
vt 0.131851 0.430237
vt 0.130950 0.431416
vt 0.129850 0.432177
vt 0.128593 0.432421
vt 0.127284 0.431952
vt 0.129793 0.413902
vt 0.128336 0.414151
vt 0.131075 0.414357
vt 0.131997 0.415342
vt 0.132681 0.416664
vt 0.133240 0.418237
vt 0.133589 0.419962
vt 0.133759 0.421762
vt 0.133649 0.423584
vt 0.172028 0.427015
vt 0.129913 0.423307
vn -0.029083 -0.992856 -0.115724
vn -0.092039 -0.972287 -0.214914
vn 0.064654 -0.933802 -0.351899
vn 0.167688 -0.967457 -0.189496
vn -0.185752 -0.941611 -0.280828
vn -0.088786 -0.883573 -0.459800
vn -0.296308 -0.905423 -0.303992
vn -0.269793 -0.824319 -0.497705
vn -0.407975 -0.868812 -0.280576
vn -0.452437 -0.764406 -0.459330
vn -0.501898 -0.837865 -0.214664
vn -0.606046 -0.713600 -0.351402
vn -0.563921 -0.817493 -0.117041
vn -0.708141 -0.679763 -0.190942
vn -0.586247 -0.810132 0.000723
vn -0.745165 -0.666879 0.001183
vn -0.564130 -0.817219 0.117946
vn -0.708456 -0.679147 0.191963
vn -0.501927 -0.837542 0.215855
vn -0.605807 -0.713111 0.352804
vn -0.409370 -0.868025 0.280979
vn -0.454350 -0.763061 0.459679
vn -0.297932 -0.904801 0.304257
vn -0.272259 -0.823348 0.497970
vn -0.185163 -0.941775 0.280669
vn -0.087883 -0.883814 0.459511
vn -0.090658 -0.972570 0.214215
vn 0.066771 -0.934111 0.350683
vn -0.028585 -0.992770 0.116581
vn 0.168474 -0.967074 0.190745
vn -0.006910 -0.999975 0.001526
vn 0.203952 -0.978978 0.002370
vn 0.233974 -0.842887 -0.484559
vn 0.375777 -0.889213 -0.260945
vn 0.022686 -0.773724 -0.633116
vn -0.226546 -0.692139 -0.685288
vn -0.477884 -0.609706 -0.632365
vn -0.689107 -0.539665 -0.483625
vn -0.829772 -0.492972 -0.261645
vn -0.879635 -0.475647 0.001398
vn -0.830064 -0.492051 0.262450
vn -0.688680 -0.538910 0.485074
vn -0.480190 -0.607722 0.632528
vn -0.229776 -0.690878 0.685486
vn 0.023873 -0.774038 0.632688
vn 0.236659 -0.843174 0.482753
vn 0.376622 -0.888408 0.262464
vn 0.425540 -0.904934 0.003149
vn 0.391121 -0.705390 -0.591143
vn 0.564043 -0.761909 -0.318356
vn 0.133357 -0.621015 -0.772371
vn -0.170695 -0.521490 -0.836009
vn -0.477216 -0.421006 -0.771375
vn -0.734582 -0.335688 -0.589664
vn -0.905223 -0.280651 -0.319070
vn -0.965139 -0.261733 0.001540
vn -0.905171 -0.279670 0.320080
vn -0.733858 -0.334278 0.591363
vn -0.479850 -0.418227 0.771253
vn -0.174576 -0.519942 0.836172
vn 0.134748 -0.621403 0.771817
vn 0.394106 -0.705712 0.588770
vn 0.564604 -0.760819 0.319965
vn 0.624473 -0.781037 0.003751
vn 0.525292 -0.531452 -0.664550
vn 0.719636 -0.595006 -0.357900
vn 0.235521 -0.436600 -0.868280
vn -0.106287 -0.324720 -0.939819
vn -0.450818 -0.211835 -0.867115
vn -0.739923 -0.116326 -0.662558
vn -0.931341 -0.054672 -0.360020
vn -0.999443 -0.033303 0.002023
vn -0.930783 -0.054049 0.361555
vn -0.738574 -0.115342 0.664232
vn -0.453665 -0.209268 0.866253
vn -0.110703 -0.323052 0.939884
vn 0.237041 -0.437055 0.867638
vn 0.528354 -0.531938 0.661728
vn 0.719687 -0.593989 0.359481
vn 0.787254 -0.616615 0.004155
vn 0.632509 -0.326090 -0.702565
vn 0.837939 -0.393303 -0.378379
vn 0.326163 -0.225816 -0.917946
vn -0.035196 -0.107535 -0.993578
vn -0.399419 0.011738 -0.916693
vn -0.705031 0.112144 -0.700253
vn -0.907088 0.178343 -0.381294
vn -0.979376 0.202036 0.001982
vn -0.906334 0.178370 0.383070
vn -0.703608 0.112031 0.701701
vn -0.402698 0.013308 0.915236
vn -0.039924 -0.105931 0.993572
vn 0.327746 -0.226312 0.917260
vn 0.635523 -0.326850 0.699485
vn 0.837516 -0.392726 0.379913
vn 0.909174 -0.416394 0.004362
vn 0.704457 -0.104504 -0.702011
vn 0.909716 -0.171697 -0.378070
vn 0.398352 -0.004310 -0.917223
vn 0.037278 0.113879 -0.992795
vn -0.326695 0.233002 -0.915959
vn -0.632247 0.332739 -0.699678
vn -0.834148 0.398805 -0.380987
vn -0.906398 0.422421 0.001982
vn -0.833570 0.398312 0.382764
vn -0.631037 0.331963 0.701137
vn -0.330261 0.233678 0.914507
vn 0.032516 0.115396 0.992787
vn 0.399935 -0.004827 0.916531
vn 0.707370 -0.105593 0.698911
vn 0.909057 -0.171796 0.379608
vn 0.980772 -0.195107 0.004382
vn 0.738044 0.120732 -0.663864
vn 0.932158 0.057137 -0.357516
vn 0.448571 0.215485 -0.867381
vn 0.107119 0.327254 -0.938845
vn -0.237143 0.439834 -0.866204
vn -0.526434 0.533703 -0.661838
vn -0.717466 0.596108 -0.360412
vn -0.785858 0.618405 0.001888
vn -0.717260 0.595277 0.362193
vn -0.525667 0.532462 0.663444
vn -0.240919 0.439776 0.865191
vn 0.102556 0.328593 0.938887
vn 0.450076 0.214946 0.866735
vn 0.740824 0.119335 0.661014
vn 0.931596 0.056355 0.359100
vn 0.999391 0.034640 0.004183
vn 0.732002 0.341832 -0.589343
vn 0.904353 0.285333 -0.317381
vn 0.475024 0.425948 -0.770014
vn 0.171900 0.525168 -0.833456
vn -0.133782 0.625076 -0.769014
vn -0.390952 0.708244 -0.587832
vn -0.560689 0.763630 -0.320152
vn -0.621506 0.783408 0.001703
vn -0.560906 0.762733 0.321905
vn -0.390711 0.706886 0.589625
vn -0.137533 0.624682 0.768672
vn 0.167780 0.526289 0.833588
vn 0.476375 0.425428 0.769466
vn 0.734601 0.340350 0.586961
vn 0.904150 0.284198 0.318975
vn 0.964207 0.265123 0.003751
vn 0.686424 0.543323 -0.483345
vn 0.827820 0.496951 -0.260294
vn 0.475665 0.612310 -0.631522
vn 0.227059 0.693683 -0.683556
vn -0.023723 0.775613 -0.630763
vn -0.234893 0.843886 -0.482372
vn -0.374250 0.889320 -0.262768
vn -0.424243 0.905547 0.001434
vn -0.374743 0.888633 0.264385
vn -0.235051 0.842779 0.484226
vn -0.027069 0.775315 0.630994
vn 0.223608 0.694580 0.683782
vn 0.476801 0.611861 0.631099
vn 0.688742 0.541999 0.481531
vn 0.828001 0.495869 0.261779
vn 0.877111 0.480277 0.003128
vn 0.605491 0.712954 -0.353663
vn 0.709003 0.679002 -0.190450
vn 0.451280 0.763432 -0.462080
vn 0.269379 0.822973 -0.500151
vn 0.085804 0.882935 -0.461589
vn -0.068802 0.933057 -0.353089
vn -0.170880 0.966323 -0.192406
vn -0.207563 0.978221 0.001090
vn -0.171391 0.965970 0.193722
vn -0.069126 0.932405 0.354744
vn 0.083242 0.882943 0.462041
vn 0.266778 0.823638 0.500450
vn 0.452148 0.763087 0.461802
vn 0.607366 0.711973 0.352421
vn 0.709371 0.678281 0.191644
vn 0.745219 0.666815 0.002350
vn 0.502268 0.837053 -0.216955
vn 0.565808 0.816220 -0.116815
vn 0.407666 0.868018 -0.283465
vn 0.296079 0.904543 -0.306822
vn 0.183399 0.941363 -0.283197
vn 0.088554 0.972230 -0.216625
vn 0.025903 0.992665 -0.118094
vn 0.003342 0.999994 0.000715
vn 0.025563 0.992566 0.118990
vn 0.088296 0.971990 0.217808
vn 0.181786 0.941567 0.283558
vn 0.294410 0.904995 0.307093
vn 0.408233 0.867802 0.283313
vn 0.503542 0.836479 0.216212
vn 0.566128 0.815886 0.117597
vn 0.588093 0.808792 0.001508
vn -0.311058 -0.950391 0.000062
vn 0.311068 0.950388 0.000025
s 1
g hand_left left_hand pivot
usemtl head_plateSG
f 283/316/283 284/317/284 300/318/285 299/319/286
f 284/317/284 285/320/287 301/321/288 300/318/285
f 285/320/287 286/322/289 302/323/290 301/321/288
f 286/322/289 287/324/291 303/325/292 302/323/290
f 287/324/291 288/326/293 304/327/294 303/325/292
f 288/326/293 289/328/295 305/329/296 304/327/294
f 289/328/295 290/330/297 306/331/298 305/329/296
f 290/332/297 291/333/299 307/334/300 306/335/298
f 291/333/299 292/336/301 308/337/302 307/334/300
f 292/336/301 293/338/303 309/339/304 308/337/302
f 293/338/303 294/340/305 310/341/306 309/339/304
f 294/340/305 295/342/307 311/343/308 310/341/306
f 295/342/307 296/344/309 312/345/310 311/343/308
f 296/344/309 297/346/311 313/347/312 312/345/310
f 297/346/311 298/348/313 314/349/314 313/347/312
f 298/348/313 283/316/283 299/319/286 314/349/314
f 299/319/286 300/318/285 316/350/315 315/351/316
f 300/318/285 301/321/288 317/352/317 316/350/315
f 301/321/288 302/323/290 318/353/318 317/352/317
f 302/323/290 303/325/292 319/354/319 318/353/318
f 303/325/292 304/327/294 320/355/320 319/354/319
f 304/327/294 305/329/296 321/356/321 320/355/320
f 305/329/296 306/331/298 322/357/322 321/356/321
f 306/335/298 307/334/300 323/358/323 322/359/322
f 307/334/300 308/337/302 324/360/324 323/358/323
f 308/337/302 309/339/304 325/361/325 324/360/324
f 309/339/304 310/341/306 326/362/326 325/361/325
f 310/341/306 311/343/308 327/363/327 326/362/326
f 311/343/308 312/345/310 328/364/328 327/363/327
f 312/345/310 313/347/312 329/365/329 328/364/328
f 313/347/312 314/349/314 330/366/330 329/365/329
f 314/349/314 299/319/286 315/351/316 330/366/330
f 315/351/316 316/350/315 332/367/331 331/368/332
f 316/350/315 317/352/317 333/369/333 332/367/331
f 317/352/317 318/353/318 334/370/334 333/369/333
f 318/353/318 319/354/319 335/371/335 334/370/334
f 319/354/319 320/355/320 336/372/336 335/371/335
f 320/355/320 321/356/321 337/373/337 336/372/336
f 321/356/321 322/357/322 338/374/338 337/373/337
f 322/359/322 323/358/323 339/375/339 338/376/338
f 323/358/323 324/360/324 340/377/340 339/375/339
f 324/360/324 325/361/325 341/378/341 340/377/340
f 325/361/325 326/362/326 342/379/342 341/378/341
f 326/362/326 327/363/327 343/380/343 342/379/342
f 327/363/327 328/364/328 344/381/344 343/380/343
f 328/364/328 329/365/329 345/382/345 344/381/344
f 329/365/329 330/366/330 346/383/346 345/382/345
f 330/366/330 315/351/316 331/368/332 346/383/346
f 331/368/332 332/367/331 348/384/347 347/385/348
f 332/367/331 333/369/333 349/386/349 348/384/347
f 333/369/333 334/370/334 350/387/350 349/386/349
f 334/370/334 335/371/335 351/388/351 350/387/350
f 335/371/335 336/372/336 352/389/352 351/388/351
f 336/372/336 337/373/337 353/390/353 352/389/352
f 337/373/337 338/374/338 354/391/354 353/390/353
f 338/376/338 339/375/339 355/392/355 354/393/354
f 339/375/339 340/377/340 356/394/356 355/392/355
f 340/377/340 341/378/341 357/395/357 356/394/356
f 341/378/341 342/379/342 358/396/358 357/395/357
f 342/379/342 343/380/343 359/397/359 358/396/358
f 343/380/343 344/381/344 360/398/360 359/397/359
f 344/381/344 345/382/345 361/399/361 360/398/360
f 345/382/345 346/383/346 362/400/362 361/399/361
f 346/383/346 331/368/332 347/385/348 362/400/362
f 347/385/348 348/384/347 364/401/363 363/402/364
f 348/384/347 349/386/349 365/403/365 364/401/363
f 349/386/349 350/387/350 366/404/366 365/403/365
f 350/387/350 351/388/351 367/405/367 366/404/366
f 351/388/351 352/389/352 368/406/368 367/405/367
f 352/389/352 353/390/353 369/407/369 368/406/368
f 353/390/353 354/391/354 370/408/370 369/407/369
f 354/393/354 355/392/355 371/409/371 370/410/370
f 355/392/355 356/394/356 372/411/372 371/409/371
f 356/394/356 357/395/357 373/412/373 372/411/372
f 357/395/357 358/396/358 374/413/374 373/412/373
f 358/396/358 359/397/359 375/414/375 374/413/374
f 359/397/359 360/398/360 376/415/376 375/414/375
f 360/398/360 361/399/361 377/416/377 376/415/376
f 361/399/361 362/400/362 378/417/378 377/416/377
f 362/400/362 347/385/348 363/402/364 378/417/378
f 363/402/364 364/401/363 380/418/379 379/419/380
f 364/401/363 365/403/365 381/420/381 380/418/379
f 365/403/365 366/404/366 382/421/382 381/420/381
f 366/404/366 367/405/367 383/422/383 382/421/382
f 367/405/367 368/406/368 384/423/384 383/422/383
f 368/406/368 369/407/369 385/424/385 384/423/384
f 369/407/369 370/408/370 386/425/386 385/424/385
f 370/410/370 371/409/371 387/426/387 386/427/386
f 371/409/371 372/411/372 388/428/388 387/426/387
f 372/411/372 373/412/373 389/429/389 388/428/388
f 373/412/373 374/413/374 390/430/390 389/429/389
f 374/413/374 375/414/375 391/431/391 390/430/390
f 375/414/375 376/415/376 392/432/392 391/431/391
f 376/415/376 377/416/377 393/433/393 392/432/392
f 377/416/377 378/417/378 394/434/394 393/433/393
f 378/417/378 363/402/364 379/419/380 394/434/394
f 379/419/380 380/418/379 396/435/395 395/436/396
f 380/418/379 381/420/381 397/437/397 396/435/395
f 381/420/381 382/421/382 398/438/398 397/437/397
f 382/421/382 383/422/383 399/439/399 398/438/398
f 383/422/383 384/423/384 400/440/400 399/439/399
f 384/423/384 385/424/385 401/441/401 400/440/400
f 385/424/385 386/425/386 402/442/402 401/441/401
f 386/427/386 387/426/387 403/443/403 402/444/402
f 387/426/387 388/428/388 404/445/404 403/443/403
f 388/428/388 389/429/389 405/446/405 404/445/404
f 389/429/389 390/430/390 406/447/406 405/446/405
f 390/430/390 391/431/391 407/448/407 406/447/406
f 391/431/391 392/432/392 408/449/408 407/448/407
f 392/432/392 393/433/393 409/450/409 408/449/408
f 393/433/393 394/434/394 410/451/410 409/450/409
f 394/434/394 379/419/380 395/436/396 410/451/410
f 395/436/396 396/435/395 412/452/411 411/453/412
f 396/435/395 397/437/397 413/454/413 412/452/411
f 397/437/397 398/438/398 414/455/414 413/454/413
f 398/438/398 399/439/399 415/456/415 414/455/414
f 399/439/399 400/440/400 416/457/416 415/456/415
f 400/440/400 401/441/401 417/458/417 416/457/416
f 401/441/401 402/442/402 418/459/418 417/458/417
f 402/444/402 403/443/403 419/460/419 418/461/418
f 403/443/403 404/445/404 420/462/420 419/460/419
f 404/445/404 405/446/405 421/463/421 420/462/420
f 405/446/405 406/447/406 422/464/422 421/463/421
f 406/447/406 407/448/407 423/465/423 422/464/422
f 407/448/407 408/449/408 424/466/424 423/465/423
f 408/449/408 409/450/409 425/467/425 424/466/424
f 409/450/409 410/451/410 426/468/426 425/467/425
f 410/451/410 395/436/396 411/453/412 426/468/426
f 411/453/412 412/452/411 428/469/427 427/470/428
f 412/452/411 413/454/413 429/471/429 428/469/427
f 413/454/413 414/455/414 430/472/430 429/471/429
f 414/455/414 415/456/415 431/473/431 430/472/430
f 415/456/415 416/457/416 432/474/432 431/473/431
f 416/457/416 417/458/417 433/475/433 432/474/432
f 417/458/417 418/459/418 434/476/434 433/475/433
f 418/461/418 419/460/419 435/477/435 434/478/434
f 419/460/419 420/462/420 436/479/436 435/477/435
f 420/462/420 421/463/421 437/480/437 436/479/436
f 421/463/421 422/464/422 438/481/438 437/480/437
f 422/464/422 423/465/423 439/482/439 438/481/438
f 423/465/423 424/466/424 440/483/440 439/482/439
f 424/466/424 425/467/425 441/484/441 440/483/440
f 425/467/425 426/468/426 442/485/442 441/484/441
f 426/468/426 411/453/412 427/470/428 442/485/442
f 427/470/428 428/469/427 444/486/443 443/487/444
f 428/469/427 429/471/429 445/488/445 444/486/443
f 429/471/429 430/472/430 446/489/446 445/488/445
f 430/472/430 431/473/431 447/490/447 446/489/446
f 431/473/431 432/474/432 448/491/448 447/490/447
f 432/474/432 433/475/433 449/492/449 448/491/448
f 433/475/433 434/476/434 450/493/450 449/492/449
f 434/478/434 435/477/435 451/494/451 450/495/450
f 435/477/435 436/479/436 452/496/452 451/494/451
f 436/479/436 437/480/437 453/497/453 452/496/452
f 437/480/437 438/481/438 454/498/454 453/497/453
f 438/481/438 439/482/439 455/499/455 454/498/454
f 439/482/439 440/483/440 456/500/456 455/499/455
f 440/483/440 441/484/441 457/501/457 456/500/456
f 441/484/441 442/485/442 458/502/458 457/501/457
f 442/485/442 427/470/428 443/487/444 458/502/458
f 443/487/444 444/486/443 460/503/459 459/504/460
f 444/486/443 445/488/445 461/505/461 460/503/459
f 445/488/445 446/489/446 462/506/462 461/505/461
f 446/489/446 447/490/447 463/507/463 462/506/462
f 447/490/447 448/491/448 464/508/464 463/507/463
f 448/491/448 449/492/449 465/509/465 464/508/464
f 449/492/449 450/493/450 466/510/466 465/509/465
f 450/495/450 451/494/451 467/511/467 466/512/466
f 451/494/451 452/496/452 468/513/468 467/511/467
f 452/496/452 453/497/453 469/514/469 468/513/468
f 453/497/453 454/498/454 470/515/470 469/514/469
f 454/498/454 455/499/455 471/516/471 470/515/470
f 455/499/455 456/500/456 472/517/472 471/516/471
f 456/500/456 457/501/457 473/518/473 472/517/472
f 457/501/457 458/502/458 474/519/474 473/518/473
f 458/502/458 443/487/444 459/504/460 474/519/474
f 284/317/284 283/316/283 475/520/475
f 285/320/287 284/317/284 475/520/475
f 286/322/289 285/320/287 475/520/475
f 287/324/291 286/322/289 475/520/475
f 288/326/293 287/324/291 475/520/475
f 289/328/295 288/326/293 475/520/475
f 290/330/297 289/328/295 475/520/475
f 291/333/299 290/332/297 475/520/475
f 292/336/301 291/333/299 475/520/475
f 293/338/303 292/336/301 475/520/475
f 294/340/305 293/338/303 475/520/475
f 295/342/307 294/340/305 475/520/475
f 296/344/309 295/342/307 475/520/475
f 297/346/311 296/344/309 475/520/475
f 298/348/313 297/346/311 475/520/475
f 283/316/283 298/348/313 475/520/475
f 459/504/460 460/503/459 476/521/476
f 460/503/459 461/505/461 476/521/476
f 461/505/461 462/506/462 476/521/476
f 462/506/462 463/507/463 476/521/476
f 463/507/463 464/508/464 476/521/476
f 464/508/464 465/509/465 476/521/476
f 465/509/465 466/510/466 476/521/476
f 466/512/466 467/511/467 476/521/476
f 467/511/467 468/513/468 476/521/476
f 468/513/468 469/514/469 476/521/476
f 469/514/469 470/515/470 476/521/476
f 470/515/470 471/516/471 476/521/476
f 471/516/471 472/517/472 476/521/476
f 472/517/472 473/518/473 476/521/476
f 473/518/473 474/519/474 476/521/476
f 474/519/474 459/504/460 476/521/476
