# This file uses centimeters as units for non-parametric coordinates.

mtllib bot.mtl
g default
v -0.008734 -0.115621 0.029319
v -0.029612 -0.085536 0.029319
v -0.011789 -0.117158 0.024578
v -0.011215 -0.117343 0.024866
v -0.009007 -0.115227 0.022614
v -0.008734 -0.115621 0.023115
v -0.006224 -0.113296 0.024578
v -0.006252 -0.113899 0.024866
v -0.005072 -0.112496 0.029319
v -0.005170 -0.113147 0.029319
v -0.006224 -0.113296 0.034061
v -0.006252 -0.113899 0.033772
v -0.009007 -0.115227 0.036025
v -0.008734 -0.115621 0.035524
v -0.011789 -0.117158 0.034061
v -0.011215 -0.117343 0.033772
v -0.012942 -0.117958 0.029319
v -0.012297 -0.118094 0.029319
v -0.032122 -0.087861 0.024578
v -0.032094 -0.087258 0.024866
v -0.029339 -0.085929 0.022614
v -0.029612 -0.085536 0.023115
v -0.026557 -0.083999 0.024578
v -0.027131 -0.083814 0.024866
v -0.025404 -0.083199 0.029319
v -0.026049 -0.083063 0.029319
v -0.026557 -0.083999 0.034061
v -0.027131 -0.083814 0.033772
v -0.029339 -0.085929 0.036025
v -0.029612 -0.085536 0.035524
v -0.032122 -0.087861 0.034061
v -0.032094 -0.087258 0.033772
v -0.033274 -0.088660 0.029319
v -0.033176 -0.088009 0.029319
v -0.015190 -0.097917 0.029319
v -0.016342 -0.098717 0.024578
v -0.019125 -0.100648 0.022614
v -0.021907 -0.102579 0.024578
v -0.023060 -0.103379 0.029319
v -0.021907 -0.102579 0.034061
v -0.019125 -0.100648 0.036025
v -0.016342 -0.098717 0.034061
vt 0.366187 0.663285
vt 0.366632 0.662993
vt 0.367866 0.664031
vt 0.367648 0.664392
vt 0.364603 0.661077
vt 0.365479 0.660864
vt 0.369600 0.664359
vt 0.369444 0.664763
vt 0.371727 0.664345
vt 0.371690 0.664799
vt 0.373789 0.664595
vt 0.373891 0.665015
vt 0.375545 0.664465
vt 0.375708 0.664861
vt 0.376973 0.663526
vt 0.377364 0.663898
vt 0.378424 0.661203
vt 0.379318 0.661415
vt 0.365649 0.688108
vt 0.366041 0.688479
vt 0.364627 0.690822
vt 0.363729 0.690624
vt 0.367296 0.687129
vt 0.367459 0.687526
vt 0.369108 0.686964
vt 0.369211 0.687385
vt 0.371303 0.687175
vt 0.371267 0.687630
vt 0.373544 0.687213
vt 0.373387 0.687616
vt 0.375336 0.687582
vt 0.375119 0.687943
vt 0.376796 0.688688
vt 0.376357 0.688984
vt 0.378365 0.690920
vt 0.377495 0.691124
vt 0.365155 0.675874
vt 0.362324 0.675867
vt 0.367991 0.675892
vt 0.371504 0.675936
vt 0.375017 0.675992
vt 0.377853 0.676009
vt 0.380684 0.676034
vt 0.384136 0.676220
vt 0.358871 0.675724
vt 0.371901 0.661006
vt 0.371119 0.690976
vn -0.656703 -0.480769 -0.581037
vn 0.011397 -0.016432 -0.999800
vn 0.555563 -0.800494 -0.224856
vn 0.400562 -0.906595 -0.132795
vn 0.360795 -0.932645 0.000000
vn -0.809314 -0.587376 -0.000000
vn 0.680133 0.447007 -0.581037
vn 0.709166 -0.692419 -0.132812
vn 0.833396 0.552677 0.000000
vn 0.747477 -0.664288 0.000001
vn 0.680132 0.447008 0.581038
vn 0.709167 -0.692418 0.132816
vn 0.011397 -0.016431 0.999800
vn 0.555565 -0.800491 0.224862
vn -0.656703 -0.480767 0.581037
vn 0.400563 -0.906595 0.132798
vn -0.680026 -0.447161 -0.581044
vn -0.833289 -0.552837 -0.000000
vn -0.747512 0.664248 -0.000002
vn -0.709182 0.692401 -0.132825
vn -0.555562 0.800487 -0.224882
vn -0.011294 0.016278 -0.999804
vn -0.400552 0.906598 -0.132808
vn 0.656813 0.480613 -0.581041
vn -0.360784 0.932649 0.000001
vn 0.809428 0.587219 0.000000
vn -0.400556 0.906596 0.132810
vn 0.656813 0.480612 0.581041
vn -0.555557 0.800492 0.224875
vn -0.011294 0.016278 0.999804
vn -0.709182 0.692402 0.132820
vn -0.680024 -0.447162 0.581046
vn -0.668509 -0.463951 -0.581245
vn 0.000001 0.000001 -1.000000
vn 0.668509 0.463951 -0.581245
vn 0.821538 0.570154 -0.000000
vn 0.668509 0.463951 0.581245
vn 0.000000 0.000001 1.000000
vn -0.668508 -0.463951 0.581246
vn -0.821537 -0.570155 -0.000000
vn 0.570157 -0.821536 0.000000
vn -0.570158 0.821535 0.000000
s 1
g thumb_joint_right hand_right
usemtl head_plateSG
f 3/1/1 5/4/2 6/3/3 4/2/4
f 4/2/4 18/6/5 17/5/6 3/1/1
f 5/4/2 7/8/7 8/7/8 6/3/3
f 7/8/7 9/10/9 10/9/10 8/7/8
f 9/10/9 11/12/11 12/11/12 10/9/10
f 11/12/11 13/14/13 14/13/14 12/11/12
f 13/14/13 15/16/15 16/15/16 14/13/14
f 15/16/15 17/18/6 18/17/5 16/15/16
f 19/19/17 33/22/18 34/21/19 20/20/20
f 20/20/20 22/24/21 21/23/22 19/19/17
f 22/24/21 24/26/23 23/25/24 21/23/22
f 24/26/23 26/28/25 25/27/26 23/25/24
f 26/28/25 28/30/27 27/29/28 25/27/26
f 28/30/27 30/32/29 29/31/30 27/29/28
f 30/32/29 32/34/31 31/33/32 29/31/30
f 32/34/31 34/36/19 33/35/18 31/33/32
f 3/1/1 38/38/33 37/37/34 5/4/2
f 5/4/2 37/37/34 36/39/35 7/8/7
f 7/8/7 36/39/35 35/40/36 9/10/9
f 9/10/9 35/40/36 42/41/37 11/12/11
f 11/12/11 42/41/37 41/42/38 13/14/13
f 13/14/13 41/42/38 40/43/39 15/16/15
f 15/16/15 40/43/39 39/44/40 17/18/6
f 17/5/6 39/45/40 38/38/33 3/1/1
f 6/3/3 1/46/41 4/2/4
f 8/7/8 1/46/41 6/3/3
f 10/9/10 1/46/41 8/7/8
f 12/11/12 1/46/41 10/9/10
f 14/13/14 1/46/41 12/11/12
f 16/15/16 1/46/41 14/13/14
f 18/17/5 1/46/41 16/15/16
f 4/2/4 1/46/41 18/6/5
f 20/20/20 2/47/42 22/24/21
f 22/24/21 2/47/42 24/26/23
f 24/26/23 2/47/42 26/28/25
f 26/28/25 2/47/42 28/30/27
f 28/30/27 2/47/42 30/32/29
f 30/32/29 2/47/42 32/34/31
f 32/34/31 2/47/42 34/36/19
f 34/21/19 2/47/42 20/20/20
f 36/39/35 23/25/24 25/27/26 35/40/36
f 37/37/34 21/23/22 23/25/24 36/39/35
f 38/38/33 19/19/17 21/23/22 37/37/34
f 39/45/40 33/22/18 19/19/17 38/38/33
f 40/43/39 31/33/32 33/35/18 39/44/40
f 41/42/38 29/31/30 31/33/32 40/43/39
f 42/41/37 27/29/28 29/31/30 41/42/38
f 35/40/36 25/27/26 27/29/28 42/41/37
g default
v 0.103561 -0.016593 -0.021874
v 0.093158 -0.001603 -0.021874
v 0.100643 -0.018328 -0.026615
v 0.101080 -0.018315 -0.026327
v 0.103425 -0.016397 -0.028580
v 0.103561 -0.016593 -0.028079
v 0.106208 -0.014466 -0.026615
v 0.106042 -0.014871 -0.026327
v 0.107360 -0.013666 -0.021874
v 0.107125 -0.014120 -0.021874
v 0.106208 -0.014466 -0.017133
v 0.106042 -0.014871 -0.017421
v 0.103425 -0.016397 -0.015169
v 0.103561 -0.016593 -0.015669
v 0.100643 -0.018328 -0.017133
v 0.101080 -0.018315 -0.017421
v 0.099490 -0.019128 -0.021874
v 0.099997 -0.019066 -0.021874
v 0.090512 -0.003730 -0.026615
v 0.090677 -0.003325 -0.026327
v 0.093294 -0.001799 -0.028580
v 0.093158 -0.001603 -0.028079
v 0.096077 0.000132 -0.026615
v 0.095640 0.000119 -0.026327
v 0.097229 0.000932 -0.021874
v 0.096722 0.000870 -0.021874
v 0.096077 0.000132 -0.017133
v 0.095640 0.000119 -0.017421
v 0.093294 -0.001799 -0.015169
v 0.093158 -0.001603 -0.015669
v 0.090512 -0.003730 -0.017133
v 0.090677 -0.003325 -0.017421
v 0.089359 -0.004530 -0.021874
v 0.089595 -0.004077 -0.021874
v 0.102319 -0.006402 -0.021874
v 0.101166 -0.007202 -0.026615
v 0.098384 -0.009133 -0.028580
v 0.095601 -0.011064 -0.026615
v 0.094449 -0.011864 -0.021874
v 0.095601 -0.011064 -0.017133
v 0.098384 -0.009133 -0.015169
v 0.101166 -0.007202 -0.017133
vt 0.385708 0.625051
vt 0.385522 0.624565
vt 0.388216 0.624520
vt 0.388471 0.625000
vt 0.382420 0.624689
vt 0.382414 0.624172
vt 0.390309 0.623233
vt 0.390800 0.623709
vt 0.392535 0.619586
vt 0.393631 0.619890
vt 0.371045 0.620265
vt 0.372133 0.619917
vt 0.374373 0.623482
vt 0.373929 0.623969
vt 0.376521 0.624697
vt 0.376281 0.625193
vt 0.379308 0.624664
vt 0.379141 0.625165
vt 0.386286 0.642334
vt 0.386113 0.642849
vt 0.382761 0.643246
vt 0.382758 0.642708
vt 0.389128 0.642713
vt 0.388850 0.643174
vt 0.391194 0.644373
vt 0.390667 0.644753
vt 0.393116 0.647826
vt 0.392137 0.648124
vt 0.373072 0.648174
vt 0.372087 0.647883
vt 0.373971 0.644446
vt 0.374520 0.644836
vt 0.376401 0.642773
vt 0.376650 0.643254
vt 0.379283 0.642562
vt 0.379436 0.643046
vt 0.391130 0.633726
vt 0.387273 0.633825
vt 0.395135 0.633732
vt 0.400244 0.633999
vt 0.370132 0.634019
vt 0.365042 0.634342
vt 0.373901 0.633946
vt 0.377842 0.633855
vt 0.382597 0.633924
vt 0.382309 0.619082
vt 0.382667 0.648446
vn -0.645863 -0.495604 -0.580722
vn 0.021018 -0.030285 -0.999320
vn 0.566140 -0.815742 -0.118534
vn 0.485146 -0.871659 -0.069592
vn 0.465025 -0.885298 0.000002
vn -0.797699 -0.603056 -0.000001
vn 0.690239 0.431656 -0.580727
vn 0.646857 -0.759429 -0.069600
vn 0.844024 0.536305 -0.000000
vn 0.666677 -0.745347 -0.000001
vn 0.690239 0.431657 0.580726
vn 0.646866 -0.759421 0.069600
vn 0.021017 -0.030286 0.999320
vn 0.566140 -0.815742 0.118533
vn -0.645862 -0.495605 0.580722
vn 0.485141 -0.871662 0.069593
vn -0.690044 -0.431963 -0.580730
vn -0.843819 -0.536628 0.000000
vn -0.666678 0.745346 0.000000
vn -0.646856 0.759430 -0.069593
vn -0.566130 0.815750 -0.118529
vn -0.020822 0.030003 -0.999333
vn -0.485139 0.871663 -0.069593
vn 0.646074 0.495314 -0.580735
vn -0.465023 0.885299 0.000001
vn 0.797924 0.602759 0.000001
vn -0.485138 0.871664 0.069595
vn 0.646073 0.495313 0.580736
vn -0.566130 0.815749 0.118530
vn -0.020822 0.030004 0.999333
vn -0.646858 0.759429 0.069594
vn -0.690044 -0.431963 0.580729
vn -0.668511 -0.463951 -0.581242
vn 0.000001 0.000001 -1.000000
vn 0.668509 0.463949 -0.581247
vn 0.821539 0.570152 0.000001
vn 0.668509 0.463948 0.581247
vn 0.000000 0.000000 1.000000
vn -0.668511 -0.463951 0.581242
vn -0.821538 -0.570153 -0.000001
vn 0.570156 -0.821537 0.000000
vn -0.570153 0.821538 0.000000
s 1
g hand_right pinky_joint_right
usemtl head_plateSG
f 45/48/43 47/51/44 48/50/45 46/49/46
f 46/49/46 60/53/47 59/52/48 45/48/43
f 47/51/44 49/55/49 50/54/50 48/50/45
f 49/55/49 51/57/51 52/56/52 50/54/50
f 51/58/51 53/61/53 54/60/54 52/59/52
f 53/61/53 55/63/55 56/62/56 54/60/54
f 55/63/55 57/65/57 58/64/58 56/62/56
f 57/65/57 59/52/48 60/53/47 58/64/58
f 61/66/59 75/69/60 76/68/61 62/67/62
f 62/67/62 64/71/63 63/70/64 61/66/59
f 64/71/63 66/73/65 65/72/66 63/70/64
f 66/73/65 68/75/67 67/74/68 65/72/66
f 68/76/67 70/79/69 69/78/70 67/77/68
f 70/79/69 72/81/71 71/80/72 69/78/70
f 72/81/71 74/83/73 73/82/74 71/80/72
f 74/83/73 76/68/61 75/69/60 73/82/74
f 45/48/43 80/85/75 79/84/76 47/51/44
f 47/51/44 79/84/76 78/86/77 49/55/49
f 49/55/49 78/86/77 77/87/78 51/57/51
f 51/58/51 77/89/78 84/88/79 53/61/53
f 53/61/53 84/88/79 83/90/80 55/63/55
f 55/63/55 83/90/80 82/91/81 57/65/57
f 57/65/57 82/91/81 81/92/82 59/52/48
f 59/52/48 81/92/82 80/85/75 45/48/43
f 48/50/45 43/93/83 46/49/46
f 50/54/50 43/93/83 48/50/45
f 52/56/52 43/93/83 50/54/50
f 54/60/54 43/93/83 52/59/52
f 56/62/56 43/93/83 54/60/54
f 58/64/58 43/93/83 56/62/56
f 60/53/47 43/93/83 58/64/58
f 46/49/46 43/93/83 60/53/47
f 62/67/62 44/94/84 64/71/63
f 64/71/63 44/94/84 66/73/65
f 66/73/65 44/94/84 68/75/67
f 68/76/67 44/94/84 70/79/69
f 70/79/69 44/94/84 72/81/71
f 72/81/71 44/94/84 74/83/73
f 74/83/73 44/94/84 76/68/61
f 76/68/61 44/94/84 62/67/62
f 78/86/77 65/72/66 67/74/68 77/87/78
f 79/84/76 63/70/64 65/72/66 78/86/77
f 80/85/75 61/66/59 63/70/64 79/84/76
f 81/92/82 75/69/60 61/66/59 80/85/75
f 82/91/81 73/82/74 75/69/60 81/92/82
f 83/90/80 71/80/72 73/82/74 82/91/81
f 84/88/79 69/78/70 71/80/72 83/90/80
f 77/89/78 67/77/68 69/78/70 84/88/79
g default
v 0.019170 -0.102986 -0.048710
v -0.001709 -0.072902 -0.048710
v 0.015821 -0.104728 -0.053951
v 0.016427 -0.104890 -0.053632
v 0.018897 -0.102593 -0.056122
v 0.019170 -0.102986 -0.055568
v 0.021972 -0.100459 -0.053951
v 0.021912 -0.101083 -0.053632
v 0.023246 -0.099575 -0.048710
v 0.023109 -0.100253 -0.048710
v 0.021972 -0.100459 -0.043469
v 0.021912 -0.101083 -0.043788
v 0.018897 -0.102593 -0.041298
v 0.019170 -0.102986 -0.041852
v 0.015821 -0.104728 -0.043469
v 0.016427 -0.104890 -0.043788
v 0.014547 -0.105612 -0.048710
v 0.015231 -0.105720 -0.048710
v -0.004511 -0.075430 -0.053951
v -0.004452 -0.074805 -0.053632
v -0.001436 -0.073296 -0.056122
v -0.001709 -0.072902 -0.055568
v 0.001639 -0.071161 -0.053951
v 0.001033 -0.070999 -0.053632
v 0.002913 -0.070277 -0.048710
v 0.002230 -0.070168 -0.048710
v 0.001639 -0.071161 -0.043469
v 0.001033 -0.070999 -0.043788
v -0.001436 -0.073296 -0.041298
v -0.001709 -0.072902 -0.041852
v -0.004511 -0.075430 -0.043469
v -0.004452 -0.074805 -0.043788
v -0.005785 -0.076314 -0.048710
v -0.005648 -0.075636 -0.048710
v 0.013128 -0.084995 -0.048710
v 0.011854 -0.085879 -0.053951
v 0.008779 -0.088014 -0.056122
v 0.005703 -0.090148 -0.053951
v 0.004429 -0.091032 -0.048710
v 0.005703 -0.090148 -0.043469
v 0.008779 -0.088014 -0.041298
v 0.011854 -0.085879 -0.043469
vt 0.407343 0.664831
vt 0.407278 0.664393
vt 0.409148 0.664188
vt 0.409304 0.664589
vt 0.404998 0.664610
vt 0.405036 0.664148
vt 0.410660 0.663123
vt 0.411041 0.663513
vt 0.412133 0.660576
vt 0.413055 0.660782
vt 0.397396 0.660825
vt 0.398271 0.660582
vt 0.399542 0.662841
vt 0.399099 0.663155
vt 0.400883 0.663920
vt 0.400664 0.664295
vt 0.402749 0.664220
vt 0.402596 0.664636
vt 0.407422 0.686278
vt 0.407266 0.686694
vt 0.404992 0.686754
vt 0.405025 0.686290
vt 0.409343 0.686646
vt 0.409122 0.687019
vt 0.410882 0.687828
vt 0.410438 0.688135
vt 0.412505 0.690233
vt 0.411625 0.690440
vt 0.397949 0.690320
vt 0.397034 0.690142
vt 0.399015 0.687378
vt 0.399416 0.687752
vt 0.400741 0.686298
vt 0.400916 0.686700
vt 0.402676 0.686097
vt 0.402788 0.686524
vt 0.411782 0.675367
vt 0.408772 0.675380
vt 0.414794 0.675368
vt 0.418481 0.675549
vt 0.395291 0.675524
vt 0.391597 0.675440
vt 0.398309 0.675467
vt 0.401325 0.675424
vt 0.405047 0.675402
vt 0.405133 0.660560
vt 0.404862 0.690353
vn -0.655573 -0.482336 -0.581013
vn 0.012408 -0.017889 -0.999763
vn 0.557966 -0.803953 -0.205754
vn 0.416384 -0.901051 -0.121375
vn 0.380268 -0.924876 0.000000
vn -0.808108 -0.589034 -0.000001
vn 0.681206 0.445397 -0.581016
vn 0.698446 -0.705293 -0.121388
vn 0.834529 0.550964 0.000001
vn 0.733406 -0.679791 -0.000000
vn 0.681206 0.445397 0.581016
vn 0.698451 -0.705288 0.121388
vn 0.012406 -0.017890 0.999763
vn 0.557965 -0.803954 0.205751
vn -0.655574 -0.482336 0.581012
vn 0.416381 -0.901052 0.121373
vn -0.681088 -0.445570 -0.581021
vn -0.834409 -0.551145 0.000001
vn -0.733417 0.679779 0.000000
vn -0.698462 0.705274 -0.121403
vn -0.557955 0.803954 -0.205776
vn -0.012298 0.017721 -0.999767
vn -0.416365 0.901058 -0.121387
vn 0.655693 0.482168 -0.581018
vn -0.380259 0.924880 0.000000
vn 0.808233 0.588864 -0.000001
vn -0.416364 0.901058 0.121389
vn 0.655693 0.482169 0.581016
vn -0.557955 0.803953 0.205781
vn -0.012298 0.017721 0.999767
vn -0.698463 0.705273 0.121405
vn -0.681087 -0.445570 0.581023
vn -0.668509 -0.463950 -0.581245
vn -0.000001 -0.000000 -1.000000
vn 0.668509 0.463950 -0.581245
vn 0.821538 0.570154 0.000000
vn 0.668509 0.463950 0.581245
vn -0.000002 -0.000000 1.000000
vn -0.668509 -0.463950 0.581245
vn -0.821538 -0.570154 -0.000000
vn 0.570149 -0.821542 0.000000
vn -0.570152 0.821539 -0.000000
s 1
g hand_right middle_joint_right
usemtl head_plateSG
f 87/95/85 89/98/86 90/97/87 88/96/88
f 88/96/88 102/100/89 101/99/90 87/95/85
f 89/98/86 91/102/91 92/101/92 90/97/87
f 91/102/91 93/104/93 94/103/94 92/101/92
f 93/105/93 95/108/95 96/107/96 94/106/94
f 95/108/95 97/110/97 98/109/98 96/107/96
f 97/110/97 99/112/99 100/111/100 98/109/98
f 99/112/99 101/99/90 102/100/89 100/111/100
f 103/113/101 117/116/102 118/115/103 104/114/104
f 104/114/104 106/118/105 105/117/106 103/113/101
f 106/118/105 108/120/107 107/119/108 105/117/106
f 108/120/107 110/122/109 109/121/110 107/119/108
f 110/123/109 112/126/111 111/125/112 109/124/110
f 112/126/111 114/128/113 113/127/114 111/125/112
f 114/128/113 116/130/115 115/129/116 113/127/114
f 116/130/115 118/115/103 117/116/102 115/129/116
f 87/95/85 122/132/117 121/131/118 89/98/86
f 89/98/86 121/131/118 120/133/119 91/102/91
f 91/102/91 120/133/119 119/134/120 93/104/93
f 93/105/93 119/136/120 126/135/121 95/108/95
f 95/108/95 126/135/121 125/137/122 97/110/97
f 97/110/97 125/137/122 124/138/123 99/112/99
f 99/112/99 124/138/123 123/139/124 101/99/90
f 101/99/90 123/139/124 122/132/117 87/95/85
f 90/97/87 85/140/125 88/96/88
f 92/101/92 85/140/125 90/97/87
f 94/103/94 85/140/125 92/101/92
f 96/107/96 85/140/125 94/106/94
f 98/109/98 85/140/125 96/107/96
f 100/111/100 85/140/125 98/109/98
f 102/100/89 85/140/125 100/111/100
f 88/96/88 85/140/125 102/100/89
f 104/114/104 86/141/126 106/118/105
f 106/118/105 86/141/126 108/120/107
f 108/120/107 86/141/126 110/122/109
f 110/123/109 86/141/126 112/126/111
f 112/126/111 86/141/126 114/128/113
f 114/128/113 86/141/126 116/130/115
f 116/130/115 86/141/126 118/115/103
f 118/115/103 86/141/126 104/114/104
f 120/133/119 107/119/108 109/121/110 119/134/120
f 121/131/118 105/117/106 107/119/108 120/133/119
f 122/132/117 103/113/101 105/117/106 121/131/118
f 123/139/124 117/116/102 103/113/101 122/132/117
f 124/138/123 115/129/116 117/116/102 123/139/124
f 125/137/122 113/127/114 115/129/116 124/138/123
f 126/135/121 111/125/112 113/127/114 125/137/122
f 119/136/120 109/124/110 111/125/112 126/135/121
g default
v 0.149196 -0.044668 0.014570
v 0.124235 -0.060931 0.014570
v 0.125989 -0.003642 -0.005930
v 0.094358 -0.024251 -0.005930
v 0.133533 -0.015221 -0.037643
v 0.101902 -0.035830 -0.037643
v 0.156740 -0.056247 -0.017143
v 0.131779 -0.072511 -0.017143
v 0.131060 0.000678 -0.025169
v 0.109542 -0.060205 -0.033530
v 0.149817 -0.072908 -0.019311
v 0.152745 -0.032057 -0.033530
v 0.127875 -0.076070 0.002096
v 0.161573 -0.054115 0.002096
v 0.139632 -0.057276 0.023502
v 0.099357 -0.044574 0.009284
v 0.104616 -0.005417 -0.003762
v 0.142560 -0.016425 0.009284
v 0.088357 -0.027144 -0.025169
v 0.114801 -0.021049 -0.046575
v 0.119261 -0.027894 0.016419
v 0.104261 -0.004872 -0.029517
v 0.132841 -0.048737 -0.040665
v 0.150172 -0.073453 0.006444
v 0.097249 -0.057081 -0.012123
v 0.154853 -0.019550 -0.012123
vt 0.192415 0.637776
vt 0.196838 0.637665
vt 0.194152 0.646525
vt 0.189425 0.646352
vt 0.199366 0.639546
vt 0.199130 0.646758
vt 0.199589 0.652833
vt 0.196757 0.654768
vt 0.191307 0.654305
vt 0.203252 0.661066
vt 0.189747 0.658968
vt 0.203272 0.653953
vt 0.206962 0.652858
vt 0.209779 0.654820
vt 0.216785 0.659039
vt 0.215231 0.654403
vt 0.212492 0.646603
vt 0.217210 0.646482
vt 0.207490 0.646763
vt 0.207303 0.639577
vt 0.209841 0.637703
vt 0.214256 0.637832
vt 0.203357 0.631740
vt 0.214731 0.632825
vt 0.203340 0.638100
vt 0.191974 0.632773
vt 0.203307 0.646693
vt 0.223748 0.646104
vt 0.182870 0.645990
vn 0.606849 0.224703 0.762393
vn 0.445665 0.599865 0.664489
vn -0.220774 0.332286 0.916976
vn 0.117235 -0.170817 0.978303
vn -0.719331 -0.186677 0.669115
vn -0.426389 -0.478191 0.767806
vn -0.477903 0.733496 0.483314
vn -0.872862 0.247586 0.420493
vn 0.126151 0.898483 0.420493
vn 0.321354 0.911590 -0.256389
vn -0.500443 0.768092 -0.399489
vn -0.963713 0.074317 -0.256388
vn -0.132117 0.202776 -0.970272
vn -0.585562 -0.193366 -0.787228
vn 0.413449 0.457529 -0.787227
vn 0.756537 0.122731 -0.642331
vn 0.215381 -0.337133 -0.916489
vn -0.410623 -0.660489 -0.628605
vn 0.472315 -0.715802 -0.514341
vn -0.148641 -0.904487 -0.399763
vn 0.886769 -0.204924 -0.414302
vn 0.970121 -0.028001 0.241001
vn 0.500444 -0.768090 0.399491
vn -0.342142 -0.905951 0.249383
vn -0.789953 -0.612135 0.035579
vn 0.864908 0.501418 0.022675
s 1
g hand_right pinky_2_right
usemtl head_plateSG
f 127/142/127 144/145/128 147/144/129 141/143/130
f 141/143/130 147/144/129 142/147/131 128/146/132
f 147/144/129 143/149/133 130/148/134 142/147/131
f 144/145/128 129/150/135 143/149/133 147/144/129
f 129/150/135 135/152/136 148/151/137 143/149/133
f 143/149/133 148/151/137 145/153/138 130/148/134
f 148/151/137 146/155/139 132/154/140 145/153/138
f 135/156/136 131/157/141 146/155/139 148/151/137
f 131/157/141 138/159/142 149/158/143 146/155/139
f 146/155/139 149/158/143 136/160/144 132/154/140
f 149/158/143 137/162/145 134/161/146 136/160/144
f 138/159/142 133/163/147 137/162/145 149/158/143
f 133/163/147 140/165/148 150/164/149 137/162/145
f 137/162/145 150/164/149 139/166/150 134/161/146
f 150/164/149 141/143/130 128/146/132 139/166/150
f 140/167/148 127/142/127 141/143/130 150/164/149
f 128/146/132 142/147/131 151/168/151 139/166/150
f 139/166/150 151/168/151 136/160/144 134/161/146
f 151/168/151 145/153/138 132/154/140 136/160/144
f 142/147/131 130/148/134 145/153/138 151/168/151
f 133/163/147 138/159/142 152/169/152 140/165/148
f 140/167/148 152/170/152 144/145/128 127/142/127
f 152/170/152 135/152/136 129/150/135 144/145/128
f 138/159/142 131/157/141 135/156/136 152/169/152
g default
v -0.012370 -0.100167 0.052088
v -0.044232 -0.100167 0.052088
v -0.012370 -0.067169 0.052088
v -0.044232 -0.067169 0.052088
v -0.012370 -0.067169 0.018723
v -0.044232 -0.067169 0.018723
v -0.012370 -0.100167 0.018723
v -0.044232 -0.100167 0.018723
v -0.006795 -0.061394 0.035406
v -0.049807 -0.083668 0.012884
v -0.028301 -0.105942 0.012884
v -0.006795 -0.083668 0.012884
v -0.049807 -0.105942 0.035406
v -0.006795 -0.105942 0.035406
v -0.028301 -0.105942 0.057927
v -0.049807 -0.083668 0.057927
v -0.028301 -0.061394 0.057927
v -0.006795 -0.083668 0.057927
v -0.049807 -0.061394 0.035406
v -0.028301 -0.061394 0.012884
v -0.028301 -0.083668 0.065435
v -0.028301 -0.053969 0.035406
v -0.028301 -0.083668 0.005377
v -0.028301 -0.113367 0.035406
v -0.056976 -0.083668 0.035406
v 0.000374 -0.083668 0.035406
vt 0.192063 0.726502
vt 0.196027 0.726688
vt 0.196139 0.730148
vt 0.191121 0.728826
vt 0.199973 0.726251
vt 0.201061 0.728514
vt 0.201181 0.732265
vt 0.196238 0.733366
vt 0.191236 0.732576
vt 0.196398 0.738515
vt 0.188032 0.734330
vt 0.204487 0.733819
vt 0.195480 0.708838
vt 0.203845 0.713026
vt 0.200641 0.714780
vt 0.195638 0.713986
vt 0.187389 0.713533
vt 0.190694 0.715087
vt 0.195737 0.717202
vt 0.190814 0.718838
vt 0.200753 0.718531
vt 0.199809 0.720858
vt 0.195846 0.720653
vt 0.191901 0.721101
vt 0.195932 0.723674
vt 0.191318 0.723821
vt 0.200554 0.723534
vt 0.206063 0.723365
vt 0.185811 0.723990
vn 0.594162 -0.572156 0.565340
vn 0.720031 0.000000 0.693942
vn -0.000000 0.000000 1.000000
vn -0.000000 -0.710186 0.704014
vn -0.720031 0.000000 0.693942
vn -0.594162 -0.572155 0.565341
vn -0.000000 0.710186 0.704014
vn -0.594162 0.572155 0.565340
vn 0.594162 0.572155 0.565341
vn 0.716997 0.697077 0.000000
vn -0.000000 1.000000 0.000000
vn -0.716997 0.697076 -0.000000
vn 0.000000 0.710186 -0.704015
vn -0.594162 0.572155 -0.565341
vn 0.594162 0.572156 -0.565341
vn 0.720031 -0.000000 -0.693942
vn 0.000000 -0.000000 -1.000000
vn -0.720031 -0.000000 -0.693942
vn 0.000000 -0.710186 -0.704014
vn -0.594162 -0.572155 -0.565341
vn 0.594162 -0.572156 -0.565340
vn 0.716997 -0.697077 0.000000
vn -0.000000 -1.000000 -0.000000
vn -0.716997 -0.697076 -0.000000
vn -1.000000 -0.000000 -0.000000
vn 1.000000 0.000000 0.000000
s 1
g hand_right thumb_1_right
usemtl head_plateSG
f 153/171/153 170/174/154 173/173/155 167/172/156
f 167/172/156 173/173/155 168/176/157 154/175/158
f 173/173/155 169/178/159 156/177/160 168/176/157
f 170/174/154 155/179/161 169/178/159 173/173/155
f 155/179/161 161/181/162 174/180/163 169/178/159
f 169/178/159 174/180/163 171/182/164 156/177/160
f 174/183/163 172/186/165 158/185/166 171/184/164
f 161/187/162 157/188/167 172/186/165 174/183/163
f 157/188/167 164/190/168 175/189/169 172/186/165
f 172/186/165 175/189/169 162/191/170 158/185/166
f 175/189/169 163/193/171 160/192/172 162/191/170
f 164/190/168 159/194/173 163/193/171 175/189/169
f 159/194/173 166/196/174 176/195/175 163/193/171
f 163/193/171 176/195/175 165/197/176 160/192/172
f 176/195/175 167/172/156 154/175/158 165/197/176
f 166/196/174 153/171/153 167/172/156 176/195/175
f 154/175/158 168/176/157 177/198/177 165/197/176
f 165/197/176 177/198/177 162/191/170 160/192/172
f 177/198/177 171/184/164 158/185/166 162/191/170
f 168/176/157 156/177/160 171/182/164 177/198/177
f 159/194/173 164/190/168 178/199/178 166/196/174
f 166/196/174 178/199/178 170/174/154 153/171/153
f 178/199/178 161/181/162 155/179/161 170/174/154
f 164/190/168 157/188/167 161/187/162 178/199/178
g default
v 0.095556 -0.008207 -0.013891
v 0.077853 -0.008207 -0.013891
v 0.095556 0.010127 -0.013891
v 0.077853 0.010127 -0.013891
v 0.095556 0.010127 -0.032429
v 0.077853 0.010127 -0.032429
v 0.095556 -0.008207 -0.032429
v 0.077853 -0.008207 -0.032429
v 0.098654 0.013336 -0.023160
v 0.074755 0.000960 -0.035673
v 0.086705 -0.011416 -0.035673
v 0.098654 0.000960 -0.035673
v 0.074755 -0.011416 -0.023160
v 0.098654 -0.011416 -0.023160
v 0.086705 -0.011416 -0.010646
v 0.074755 0.000960 -0.010646
v 0.086705 0.013336 -0.010646
v 0.098654 0.000960 -0.010646
v 0.074755 0.013336 -0.023160
v 0.086705 0.013336 -0.035673
v 0.086705 0.000960 -0.006475
v 0.086705 0.017461 -0.023160
v 0.086705 0.000960 -0.039844
v 0.086705 -0.015541 -0.023160
v 0.070772 0.000960 -0.023160
v 0.102637 0.000960 -0.023160
vt 0.226989 0.765589
vt 0.228008 0.767965
vt 0.222743 0.769406
vt 0.222817 0.765864
vt 0.227934 0.771752
vt 0.222667 0.772647
vt 0.217447 0.771518
vt 0.217541 0.767737
vt 0.218661 0.765413
vt 0.212377 0.762451
vt 0.217959 0.762576
vt 0.213951 0.772957
vt 0.214411 0.752023
vt 0.217839 0.753616
vt 0.217766 0.757399
vt 0.218783 0.759773
vt 0.223034 0.755959
vt 0.222956 0.759502
vt 0.223103 0.752717
vt 0.228324 0.753844
vt 0.228234 0.757628
vt 0.227112 0.759954
vt 0.233396 0.762911
vt 0.227812 0.762788
vt 0.231815 0.752399
vt 0.231361 0.773344
vt 0.222545 0.777950
vt 0.223215 0.747414
vt 0.222884 0.762683
vn 0.594163 -0.572158 0.565337
vn 0.720027 0.000000 0.693946
vn -0.000000 0.000000 1.000000
vn -0.000000 -0.710183 0.704017
vn -0.720027 0.000000 0.693946
vn -0.594163 -0.572158 0.565337
vn -0.000000 0.710181 0.704019
vn -0.594164 0.572156 0.565338
vn 0.594164 0.572156 0.565338
vn 0.716998 0.697075 0.000000
vn -0.000000 1.000000 0.000000
vn -0.716997 0.697076 -0.000000
vn -0.000000 0.710181 -0.704019
vn -0.594164 0.572156 -0.565338
vn 0.594164 0.572155 -0.565338
vn 0.720028 0.000000 -0.693945
vn 0.000000 -0.000000 -1.000000
vn -0.720028 0.000000 -0.693945
vn 0.000000 -0.710182 -0.704018
vn -0.594163 -0.572157 -0.565337
vn 0.594164 -0.572156 -0.565338
vn 0.716997 -0.697076 -0.000001
vn -0.000000 -1.000000 -0.000001
vn -0.716996 -0.697077 -0.000000
vn -1.000000 0.000001 -0.000000
vn 1.000000 0.000000 0.000000
s 1
g hand_right pinky_1_left1
usemtl head_plateSG
f 179/200/179 196/203/180 199/202/181 193/201/182
f 193/201/182 199/202/181 194/205/183 180/204/184
f 199/202/181 195/207/185 182/206/186 194/205/183
f 196/203/180 181/208/187 195/207/185 199/202/181
f 181/208/187 187/210/188 200/209/189 195/207/185
f 195/207/185 200/209/189 197/211/190 182/206/186
f 200/209/189 198/214/191 184/213/192 197/212/190
f 187/210/188 183/215/193 198/214/191 200/209/189
f 183/215/193 190/217/194 201/216/195 198/214/191
f 198/214/191 201/216/195 188/218/196 184/213/192
f 201/216/195 189/220/197 186/219/198 188/218/196
f 190/217/194 185/221/199 189/220/197 201/216/195
f 185/221/199 192/223/200 202/222/201 189/220/197
f 189/220/197 202/222/201 191/224/202 186/219/198
f 202/222/201 193/201/182 180/204/184 191/225/202
f 192/223/200 179/200/179 193/201/182 202/222/201
f 180/204/184 194/205/183 203/226/203 191/225/202
f 191/224/202 203/227/203 188/218/196 186/219/198
f 203/227/203 197/212/190 184/213/192 188/218/196
f 194/205/183 182/206/186 197/211/190 203/226/203
f 185/221/199 190/217/194 204/228/204 192/223/200
f 192/223/200 204/228/204 196/203/180 179/200/179
f 204/228/204 187/210/188 181/208/187 196/203/180
f 190/217/194 183/215/193 187/210/188 204/228/204
g default
v 0.042539 -0.131994 0.046025
v 0.028112 -0.155820 0.046025
v 0.004395 -0.106404 0.046025
v -0.008811 -0.134819 0.046025
v 0.004395 -0.106404 0.012659
v -0.008811 -0.134819 0.012659
v 0.042539 -0.131994 0.012659
v 0.028112 -0.155820 0.012659
v 0.000401 -0.097432 0.029342
v 0.004614 -0.150349 0.006820
v 0.042189 -0.148060 0.006820
v 0.027239 -0.111657 0.006820
v 0.032438 -0.164115 0.029342
v 0.051915 -0.131951 0.029342
v 0.042189 -0.148060 0.051863
v 0.004614 -0.150349 0.051863
v -0.010737 -0.115873 0.051863
v 0.027239 -0.111657 0.051863
v -0.018580 -0.135410 0.029342
v -0.010737 -0.115873 0.006820
v 0.015770 -0.131951 0.059371
v -0.019580 -0.110496 0.029342
v 0.015770 -0.131951 -0.000687
v 0.051002 -0.153373 0.029342
v 0.000886 -0.156460 0.029342
v 0.030945 -0.105496 0.029342
vt 0.286398 0.631224
vt 0.291077 0.631027
vt 0.288479 0.639649
vt 0.283630 0.640018
vt 0.293861 0.632920
vt 0.293410 0.639508
vt 0.293903 0.644989
vt 0.291396 0.648472
vt 0.286082 0.648214
vt 0.298073 0.654522
vt 0.284978 0.653331
vt 0.298019 0.647576
vt 0.302094 0.644924
vt 0.304656 0.648368
vt 0.311149 0.653125
vt 0.309966 0.648026
vt 0.307432 0.639500
vt 0.312286 0.639791
vt 0.302499 0.639436
vt 0.301942 0.632856
vt 0.304695 0.630919
vt 0.309376 0.631042
vt 0.297834 0.624479
vt 0.309940 0.625742
vt 0.297889 0.631271
vt 0.285747 0.625935
vt 0.297956 0.639635
vt 0.319255 0.639640
vt 0.276659 0.639982
vn 0.729015 0.310931 0.609802
vn 0.396302 0.613500 0.683054
vn 0.003278 -0.000599 0.999995
vn 0.526791 -0.316685 0.788798
vn -0.367500 -0.639095 0.675649
vn 0.037899 -0.797212 0.602509
vn -0.566290 0.294060 0.769964
vn -0.720512 -0.336250 0.606464
vn -0.071250 0.772817 0.630617
vn -0.135033 0.990841 0.000000
vn -0.895013 0.446040 0.000000
vn -0.926279 -0.376839 0.000000
vn -0.566290 0.294060 -0.769964
vn -0.720512 -0.336250 -0.606463
vn -0.071250 0.772817 -0.630617
vn 0.396302 0.613500 -0.683054
vn 0.003278 -0.000599 -0.999995
vn -0.367499 -0.639095 -0.675649
vn 0.526791 -0.316685 -0.788798
vn 0.037899 -0.797212 -0.602509
vn 0.729015 0.310932 -0.609802
vn 0.934308 0.356466 0.000000
vn 0.855576 -0.517677 0.000000
vn 0.096977 -0.995287 -0.000000
vn -0.493357 -0.869827 0.000000
vn 0.554498 0.832185 0.000000
s 1
g hand_right thumb_2_right
usemtl head_plateSG
f 205/229/205 222/232/206 225/231/207 219/230/208
f 219/230/208 225/231/207 220/234/209 206/233/210
f 225/231/207 221/236/211 208/235/212 220/234/209
f 222/232/206 207/237/213 221/236/211 225/231/207
f 207/237/213 213/239/214 226/238/215 221/236/211
f 221/236/211 226/238/215 223/240/216 208/235/212
f 226/238/215 224/242/217 210/241/218 223/240/216
f 213/243/214 209/244/219 224/242/217 226/238/215
f 209/244/219 216/246/220 227/245/221 224/242/217
f 224/242/217 227/245/221 214/247/222 210/241/218
f 227/245/221 215/249/223 212/248/224 214/247/222
f 216/246/220 211/250/225 215/249/223 227/245/221
f 211/250/225 218/252/226 228/251/227 215/249/223
f 215/249/223 228/251/227 217/253/228 212/248/224
f 228/251/227 219/230/208 206/233/210 217/253/228
f 218/254/226 205/229/205 219/230/208 228/251/227
f 206/233/210 220/234/209 229/255/229 217/253/228
f 217/253/228 229/255/229 214/247/222 212/248/224
f 229/255/229 223/240/216 210/241/218 214/247/222
f 220/234/209 208/235/212 223/240/216 229/255/229
f 211/250/225 216/246/220 230/256/230 218/252/226
f 218/254/226 230/257/230 222/232/206 205/229/205
f 230/257/230 213/239/214 207/237/213 222/232/206
f 216/246/220 209/244/219 213/243/214 230/256/230
g default
v 0.015635 -0.086965 -0.036347
v -0.016226 -0.086965 -0.036347
v 0.015635 -0.055104 -0.036347
v -0.016226 -0.055104 -0.036347
v 0.015635 -0.055104 -0.068208
v -0.016226 -0.055104 -0.068208
v 0.015635 -0.086965 -0.068208
v -0.016226 -0.086965 -0.068208
v 0.021211 -0.049528 -0.052278
v -0.021802 -0.071034 -0.073784
v -0.000295 -0.092540 -0.073784
v 0.021211 -0.071034 -0.073784
v -0.021802 -0.092540 -0.052278
v 0.021211 -0.092540 -0.052278
v -0.000295 -0.092540 -0.030772
v -0.021802 -0.071034 -0.030772
v -0.000295 -0.049528 -0.030772
v 0.021211 -0.071034 -0.030772
v -0.021802 -0.049528 -0.052278
v -0.000295 -0.049528 -0.073784
v -0.000295 -0.071034 -0.023603
v -0.000295 -0.042359 -0.052278
v -0.000295 -0.071034 -0.080953
v -0.000295 -0.099709 -0.052278
v -0.028970 -0.071034 -0.052278
v 0.028380 -0.071034 -0.052278
vt 0.190573 0.771137
vt 0.190711 0.767251
vt 0.195877 0.769043
vt 0.195748 0.772376
vt 0.191908 0.764963
vt 0.196019 0.765459
vt 0.200155 0.765290
vt 0.201170 0.767664
vt 0.201005 0.771546
vt 0.206585 0.762760
vt 0.204329 0.773293
vt 0.200963 0.762538
vt 0.200376 0.759732
vt 0.201576 0.757445
vt 0.205170 0.752081
vt 0.201718 0.753560
vt 0.196411 0.755651
vt 0.196545 0.752317
vt 0.196266 0.759235
vt 0.192129 0.759402
vt 0.191119 0.757026
vt 0.191288 0.753143
vt 0.185702 0.761931
vt 0.187967 0.751393
vt 0.191321 0.762155
vt 0.187123 0.772617
vt 0.196141 0.762347
vt 0.196756 0.747061
vt 0.195544 0.777633
vn 0.577350 -0.577350 0.577351
vn 0.707108 0.000000 0.707106
vn -0.000000 0.000000 1.000000
vn -0.000000 -0.707107 0.707107
vn -0.707106 0.000000 0.707108
vn -0.577348 -0.577351 0.577352
vn -0.000000 0.707106 0.707107
vn -0.577348 0.577350 0.577353
vn 0.577350 0.577350 0.577351
vn 0.707108 0.707106 -0.000000
vn -0.000000 1.000000 -0.000000
vn -0.707107 0.707107 -0.000000
vn -0.000000 0.707106 -0.707107
vn -0.577348 0.577350 -0.577353
vn 0.577350 0.577350 -0.577351
vn 0.707108 0.000000 -0.707106
vn 0.000000 0.000000 -1.000000
vn -0.707106 0.000000 -0.707108
vn -0.000000 -0.707107 -0.707106
vn -0.577348 -0.577351 -0.577352
vn 0.577350 -0.577351 -0.577350
vn 0.707107 -0.707107 0.000000
vn -0.000000 -1.000000 0.000000
vn -0.707106 -0.707108 -0.000000
vn -1.000000 0.000000 -0.000000
vn 1.000000 0.000000 0.000000
s 1
g hand_right middle_1_right
usemtl head_plateSG
f 231/258/231 248/261/232 251/260/233 245/259/234
f 245/259/234 251/260/233 246/263/235 232/262/236
f 251/260/233 247/265/237 234/264/238 246/263/235
f 248/261/232 233/266/239 247/265/237 251/260/233
f 233/266/239 239/268/240 252/267/241 247/265/237
f 247/265/237 252/267/241 249/269/242 234/264/238
f 252/267/241 250/271/243 236/270/244 249/269/242
f 239/272/240 235/273/245 250/271/243 252/267/241
f 235/273/245 242/275/246 253/274/247 250/271/243
f 250/271/243 253/274/247 240/276/248 236/270/244
f 253/274/247 241/278/249 238/277/250 240/276/248
f 242/275/246 237/279/251 241/278/249 253/274/247
f 237/279/251 244/281/252 254/280/253 241/278/249
f 241/278/249 254/280/253 243/282/254 238/277/250
f 254/280/253 245/259/234 232/262/236 243/282/254
f 244/283/252 231/258/231 245/259/234 254/280/253
f 232/262/236 246/263/235 255/284/255 243/282/254
f 243/282/254 255/284/255 240/276/248 238/277/250
f 255/284/255 249/269/242 236/270/244 240/276/248
f 246/263/235 234/264/238 249/269/242 255/284/255
f 237/279/251 242/275/246 256/285/256 244/281/252
f 244/283/252 256/286/256 248/261/232 231/258/231
f 256/286/256 239/268/240 233/266/239 248/261/232
f 242/275/246 235/273/245 239/272/240 256/285/256
g default
v 0.015167 -0.118647 -0.032183
v 0.019151 -0.088339 -0.031265
v 0.059227 -0.123623 0.000130
v 0.062746 -0.096852 0.000941
v 0.077052 -0.125273 -0.022790
v 0.080571 -0.098501 -0.021979
v 0.035347 -0.120514 -0.058130
v 0.039331 -0.090206 -0.057212
v 0.074024 -0.130143 -0.006343
v 0.064587 -0.088495 -0.045004
v 0.033511 -0.104544 -0.068018
v 0.059209 -0.129411 -0.046243
v 0.022579 -0.082825 -0.049884
v 0.017200 -0.123741 -0.051123
v 0.006268 -0.102023 -0.032989
v 0.037344 -0.085975 -0.009975
v 0.064367 -0.110959 0.009675
v 0.031965 -0.126891 -0.011214
v 0.078775 -0.094002 -0.005249
v 0.088432 -0.113185 -0.021266
v 0.030114 -0.106013 -0.004756
v 0.084757 -0.113371 0.000798
v 0.066438 -0.109373 -0.051461
v 0.010427 -0.101813 -0.057969
v 0.051862 -0.080416 -0.027283
v 0.044691 -0.134970 -0.028935
vt 0.198672 0.688631
vt 0.196071 0.691786
vt 0.193191 0.681794
vt 0.197944 0.681831
vt 0.191144 0.690543
vt 0.188817 0.681741
vt 0.191952 0.672555
vt 0.196470 0.671758
vt 0.198872 0.674597
vt 0.202537 0.667178
vt 0.202542 0.672471
vt 0.191588 0.667311
vt 0.213482 0.667261
vt 0.213144 0.672514
vt 0.208618 0.671740
vt 0.206216 0.674585
vt 0.211931 0.681768
vt 0.207182 0.681823
vt 0.216304 0.681696
vt 0.214013 0.690498
vt 0.209089 0.691763
vt 0.206476 0.688621
vt 0.202595 0.697024
vt 0.202577 0.691126
vt 0.214817 0.696286
vt 0.190369 0.696340
vt 0.182313 0.681455
vt 0.222799 0.681372
vt 0.202564 0.681805
vn -0.760693 -0.596862 0.255151
vn -0.491405 -0.687400 0.534793
vn -0.588748 0.052989 0.806578
vn -0.948548 0.115763 0.294713
vn -0.301293 0.757909 0.578616
vn -0.582756 0.756767 0.296141
vn -0.063229 -0.021939 0.997758
vn 0.011298 0.656059 0.754625
vn -0.164562 -0.680477 0.714052
vn 0.312832 -0.898303 0.308525
vn 0.779317 -0.121064 0.614824
vn 0.531857 0.766950 0.359049
vn 0.947469 -0.115549 -0.298247
vn 0.778677 0.584571 -0.227902
vn 0.602945 -0.751246 -0.268491
vn 0.348434 -0.764728 -0.542020
vn 0.638756 -0.060712 -0.767010
vn 0.538387 0.679678 -0.498173
vn 0.056942 0.022744 -0.998118
vn 0.193825 0.684922 -0.702363
vn 0.015888 -0.668706 -0.743357
vn -0.534679 -0.764132 -0.360861
vn -0.779317 0.121062 -0.614825
vn -0.316405 0.896343 -0.310575
vn 0.154027 0.986881 0.048384
vn -0.106550 -0.994238 -0.011731
s 1
g hand_right middle_2_right
usemtl head_plateSG
f 257/287/257 274/290/258 277/289/259 271/288/260
f 271/288/260 277/289/259 272/292/261 258/291/262
f 277/289/259 273/294/263 260/293/264 272/292/261
f 274/290/258 259/295/265 273/294/263 277/289/259
f 259/295/265 265/297/266 278/296/267 273/294/263
f 273/294/263 278/296/267 275/298/268 260/293/264
f 278/296/267 276/301/269 262/300/270 275/299/268
f 265/297/266 261/302/271 276/301/269 278/296/267
f 261/302/271 268/304/272 279/303/273 276/301/269
f 276/301/269 279/303/273 266/305/274 262/300/270
f 279/303/273 267/307/275 264/306/276 266/305/274
f 268/304/272 263/308/277 267/307/275 279/303/273
f 263/308/277 270/310/278 280/309/279 267/307/275
f 267/307/275 280/309/279 269/311/280 264/306/276
f 280/309/279 271/288/260 258/291/262 269/312/280
f 270/310/278 257/287/257 271/288/260 280/309/279
f 258/291/262 272/292/261 281/313/281 269/312/280
f 269/311/280 281/314/281 266/305/274 264/306/276
f 281/314/281 275/299/268 262/300/270 266/305/274
f 272/292/261 260/293/264 275/298/268 281/313/281
f 263/308/277 268/304/272 282/315/282 270/310/278
f 270/310/278 282/315/282 274/290/258 257/287/257
f 282/315/282 265/297/266 259/295/265 274/290/258
f 268/304/272 261/302/271 265/297/266 282/315/282
g default
v 0.007712 -0.084355 -0.007541
v 0.012019 -0.082945 -0.014323
v 0.018465 -0.080835 -0.018855
v 0.026068 -0.078346 -0.020446
v 0.033672 -0.075858 -0.018855
v 0.040117 -0.073748 -0.014323
v 0.044424 -0.072338 -0.007541
v 0.045937 -0.071843 0.000459
v 0.044424 -0.072338 0.008460
v 0.040117 -0.073748 0.015242
v 0.033672 -0.075858 0.019774
v 0.026068 -0.078346 0.021365
v 0.018465 -0.080835 0.019774
v 0.012019 -0.082945 0.015242
v 0.007712 -0.084355 0.008460
v 0.006200 -0.084850 0.000459
v -0.010766 -0.083081 -0.014651
v -0.002632 -0.080419 -0.027461
v 0.009543 -0.076434 -0.036020
v 0.023904 -0.071733 -0.039026
v 0.038264 -0.067033 -0.036020
v 0.050439 -0.063048 -0.027461
v 0.058573 -0.060385 -0.014651
v 0.061430 -0.059450 0.000459
v 0.058573 -0.060385 0.015570
v 0.050439 -0.063048 0.028380
v 0.038264 -0.067033 0.036939
v 0.023904 -0.071733 0.039945
v 0.009543 -0.076434 0.036939
v -0.002632 -0.080419 0.028380
v -0.010766 -0.083081 0.015570
v -0.013623 -0.084016 0.000459
v -0.029187 -0.076868 -0.021102
v -0.017579 -0.073069 -0.039381
v -0.000208 -0.067382 -0.051594
v 0.020284 -0.060675 -0.055883
v 0.040775 -0.053968 -0.051594
v 0.058147 -0.048281 -0.039381
v 0.069755 -0.044482 -0.021102
v 0.073831 -0.043148 0.000459
v 0.069755 -0.044482 0.022021
v 0.058147 -0.048281 0.040300
v 0.040776 -0.053968 0.052513
v 0.020284 -0.060675 0.056802
v -0.000208 -0.067382 0.052513
v -0.017579 -0.073069 0.040300
v -0.029187 -0.076868 0.022021
v -0.033263 -0.078202 0.000459
v -0.045883 -0.066201 -0.026300
v -0.031477 -0.061485 -0.048985
v -0.009917 -0.054428 -0.064143
v 0.015515 -0.046104 -0.069466
v 0.040946 -0.037780 -0.064143
v 0.062506 -0.030723 -0.048985
v 0.076912 -0.026007 -0.026300
v 0.081970 -0.024351 0.000459
v 0.076912 -0.026007 0.027218
v 0.062506 -0.030723 0.049904
v 0.040946 -0.037780 0.065062
v 0.015515 -0.046104 0.070385
v -0.009917 -0.054428 0.065062
v -0.031477 -0.061485 0.049904
v -0.045883 -0.066201 0.027219
v -0.050941 -0.067857 0.000459
v -0.059883 -0.051700 -0.029942
v -0.043516 -0.046342 -0.055716
v -0.019021 -0.038325 -0.072937
v 0.009873 -0.028867 -0.078985
v 0.038766 -0.019410 -0.072937
v 0.063261 -0.011392 -0.055716
v 0.079627 -0.006035 -0.029943
v 0.085375 -0.004153 0.000459
v 0.079628 -0.006035 0.030861
v 0.063261 -0.011392 0.056635
v 0.038766 -0.019410 0.073856
v 0.009873 -0.028867 0.079903
v -0.019021 -0.038325 0.073856
v -0.043516 -0.046342 0.056635
v -0.059883 -0.051700 0.030861
v -0.065630 -0.053581 0.000459
v -0.070373 -0.034207 -0.031818
v -0.052997 -0.028520 -0.059182
v -0.026991 -0.020007 -0.077466
v 0.003686 -0.009966 -0.083887
v 0.034362 0.000075 -0.077466
v 0.060368 0.008587 -0.059182
v 0.077745 0.014275 -0.031818
v 0.083847 0.016272 0.000459
v 0.077745 0.014275 0.032737
v 0.060368 0.008587 0.060101
v 0.034362 0.000075 0.078385
v 0.003686 -0.009966 0.084806
v -0.026991 -0.020007 0.078385
v -0.052997 -0.028520 0.060101
v -0.070373 -0.034207 0.032737
v -0.076475 -0.036205 0.000459
v -0.076745 -0.014741 -0.031818
v -0.059369 -0.009053 -0.059182
v -0.033362 -0.000541 -0.077466
v -0.002686 0.009500 -0.083887
v 0.027990 0.019542 -0.077466
v 0.053996 0.028054 -0.059182
v 0.071373 0.033742 -0.031818
v 0.077475 0.035739 0.000459
v 0.071373 0.033742 0.032737
v 0.053996 0.028054 0.060101
v 0.027990 0.019542 0.078385
v -0.002686 0.009500 0.084806
v -0.033362 -0.000541 0.078385
v -0.059368 -0.009053 0.060101
v -0.076745 -0.014741 0.032737
v -0.082847 -0.016738 0.000459
v -0.078628 0.005569 -0.029942
v -0.062261 0.010926 -0.055716
v -0.037766 0.018944 -0.072937
v -0.008873 0.028401 -0.078985
v 0.020021 0.037859 -0.072937
v 0.044515 0.045877 -0.055716
v 0.060882 0.051234 -0.029943
v 0.066629 0.053115 0.000459
v 0.060882 0.051234 0.030861
v 0.044515 0.045877 0.056635
v 0.020021 0.037859 0.073856
v -0.008873 0.028401 0.079903
v -0.037766 0.018944 0.073856
v -0.062261 0.010926 0.056635
v -0.078628 0.005569 0.030861
v -0.084375 0.003688 0.000459
v -0.075912 0.025541 -0.026300
v -0.061506 0.030257 -0.048985
v -0.039946 0.037314 -0.064143
v -0.014515 0.045638 -0.069466
v 0.010917 0.053962 -0.064143
v 0.032476 0.061020 -0.048985
v 0.046882 0.065735 -0.026300
v 0.051941 0.067391 0.000459
v 0.046882 0.065735 0.027218
v 0.032476 0.061020 0.049904
v 0.010917 0.053962 0.065062
v -0.014515 0.045638 0.070385
v -0.039946 0.037314 0.065062
v -0.061506 0.030257 0.049904
v -0.075912 0.025541 0.027219
v -0.080971 0.023886 0.000459
v -0.068755 0.044016 -0.021102
v -0.057148 0.047816 -0.039381
v -0.039776 0.053502 -0.051594
v -0.019284 0.060209 -0.055883
v 0.001207 0.066917 -0.051594
v 0.018579 0.072603 -0.039381
v 0.030187 0.076402 -0.021102
v 0.034263 0.077736 0.000459
v 0.030187 0.076402 0.022021
v 0.018579 0.072603 0.040300
v 0.001207 0.066917 0.052513
v -0.019284 0.060209 0.056802
v -0.039776 0.053502 0.052513
v -0.057148 0.047816 0.040300
v -0.068755 0.044016 0.022021
v -0.072831 0.042682 0.000459
v -0.057574 0.059919 -0.014651
v -0.049439 0.062582 -0.027461
v -0.037265 0.066567 -0.036020
v -0.022904 0.071267 -0.039026
v -0.008543 0.075968 -0.036020
v 0.003631 0.079953 -0.027461
v 0.011766 0.082616 -0.014651
v 0.014622 0.083551 0.000459
v 0.011766 0.082616 0.015570
v 0.003631 0.079953 0.028380
v -0.008543 0.075968 0.036939
v -0.022904 0.071267 0.039945
v -0.037265 0.066567 0.036939
v -0.049439 0.062582 0.028380
v -0.057574 0.059919 0.015570
v -0.060430 0.058984 0.000459
v -0.043017 0.072326 -0.007322
v -0.038828 0.073698 -0.013919
v -0.032559 0.075750 -0.018326
v -0.025163 0.078170 -0.019874
v -0.017768 0.080591 -0.018326
v -0.011499 0.082643 -0.013919
v -0.007310 0.084014 -0.007322
v -0.005839 0.084496 0.000459
v -0.007310 0.084014 0.008241
v -0.011499 0.082643 0.014837
v -0.017768 0.080591 0.019245
v -0.025163 0.078170 0.020793
v -0.032559 0.075750 0.019245
v -0.038828 0.073698 0.014837
v -0.043017 0.072326 0.008241
v -0.044488 0.071845 0.000459
v 0.026931 -0.080983 0.000459
v -0.025932 0.080517 0.000459
vt 0.068941 0.336742
vt 0.068665 0.334764
vt 0.071877 0.332942
vt 0.072181 0.335884
vt 0.068215 0.332888
vt 0.071365 0.330072
vt 0.067565 0.331181
vt 0.070598 0.327329
vt 0.066686 0.329741
vt 0.069503 0.324794
vt 0.065552 0.328701
vt 0.067969 0.322594
vt 0.064166 0.328247
vt 0.065844 0.320938
vt 0.062604 0.328620
vt 0.062942 0.320193
vt 0.063024 0.349079
vt 0.064532 0.349356
vt 0.065979 0.356276
vt 0.063155 0.356735
vt 0.065880 0.348864
vt 0.068127 0.354807
vt 0.066981 0.347809
vt 0.069690 0.352727
vt 0.067821 0.346362
vt 0.070791 0.350270
vt 0.068422 0.344652
vt 0.071535 0.347578
vt 0.068811 0.342772
vt 0.072002 0.344742
vt 0.069016 0.340792
vt 0.072248 0.341820
vt 0.069057 0.338767
vt 0.072303 0.338855
vt 0.075228 0.331763
vt 0.075492 0.335356
vt 0.074783 0.328202
vt 0.074106 0.324698
vt 0.073112 0.321288
vt 0.071656 0.318025
vt 0.069488 0.315004
vt 0.066165 0.312418
vt 0.069070 0.362104
vt 0.065486 0.364012
vt 0.071497 0.359442
vt 0.073127 0.356375
vt 0.074210 0.353078
vt 0.074910 0.349643
vt 0.075336 0.346124
vt 0.075553 0.342554
vt 0.075599 0.338959
vt 0.078640 0.331008
vt 0.078833 0.335032
vt 0.078321 0.326984
vt 0.077839 0.322960
vt 0.077124 0.318929
vt 0.076053 0.314868
vt 0.074389 0.310720
vt 0.071649 0.306363
vt 0.073394 0.366618
vt 0.069868 0.370186
vt 0.075594 0.362844
vt 0.076985 0.358968
vt 0.077867 0.355036
vt 0.078415 0.351067
vt 0.078735 0.347076
vt 0.078889 0.343070
vt 0.078916 0.339054
vt 0.082106 0.330572
vt 0.082212 0.334859
vt 0.081944 0.326267
vt 0.081709 0.321926
vt 0.081367 0.317512
vt 0.080851 0.312948
vt 0.080023 0.308066
vt 0.078573 0.302478
vt 0.078589 0.369751
vt 0.075890 0.374753
vt 0.080169 0.365117
vt 0.081113 0.360664
vt 0.081680 0.356302
vt 0.082012 0.351986
vt 0.082191 0.347694
vt 0.082265 0.343414
vt 0.082266 0.339138
vt 0.085609 0.330415
vt 0.085620 0.334820
vt 0.085617 0.325986
vt 0.085651 0.321510
vt 0.085720 0.316937
vt 0.085830 0.312170
vt 0.085986 0.306997
vt 0.086171 0.300927
vt 0.084328 0.371439
vt 0.083026 0.377339
vt 0.085025 0.366298
vt 0.085394 0.361533
vt 0.085582 0.356950
vt 0.085663 0.352462
vt 0.085684 0.348024
vt 0.085669 0.343614
vt 0.085641 0.339216
vt 0.089128 0.330523
vt 0.089040 0.334910
vt 0.089304 0.326121
vt 0.089607 0.321682
vt 0.090081 0.317162
vt 0.090811 0.312479
vt 0.091941 0.307459
vt 0.093746 0.301692
vt 0.090299 0.371637
vt 0.090676 0.377692
vt 0.089980 0.366390
vt 0.089726 0.361603
vt 0.089508 0.357011
vt 0.089330 0.352522
vt 0.089191 0.348089
vt 0.089085 0.343684
vt 0.089027 0.339294
vt 0.092637 0.330903
vt 0.092456 0.335138
vt 0.092967 0.326675
vt 0.093514 0.322440
vt 0.094354 0.318176
vt 0.095627 0.313850
vt 0.097578 0.309389
vt 0.100674 0.304619
vt 0.096195 0.370333
vt 0.098173 0.375692
vt 0.094837 0.365355
vt 0.094017 0.360880
vt 0.093399 0.356488
vt 0.092978 0.352174
vt 0.092692 0.347896
vt 0.092497 0.343633
vt 0.092403 0.339381
vt 0.096118 0.331575
vt 0.095849 0.335517
vt 0.096566 0.327676
vt 0.097310 0.323813
vt 0.098435 0.319998
vt 0.100104 0.316279
vt 0.102595 0.312714
vt 0.106390 0.309429
vt 0.101556 0.367322
vt 0.104751 0.371345
vt 0.099422 0.363541
vt 0.098160 0.359360
vt 0.097181 0.355345
vt 0.096578 0.351403
vt 0.096171 0.347440
vt 0.095894 0.343459
vt 0.095746 0.339482
vt 0.099594 0.332488
vt 0.099226 0.336063
vt 0.100032 0.329080
vt 0.100924 0.325857
vt 0.102209 0.322686
vt 0.104053 0.319790
vt 0.106678 0.317348
vt 0.110401 0.315720
vt 0.106041 0.362812
vt 0.109636 0.365021
vt 0.103602 0.360219
vt 0.101970 0.357095
vt 0.100958 0.353617
vt 0.100090 0.350150
vt 0.099466 0.346624
vt 0.099384 0.343202
vt 0.099154 0.339594
vt 0.102845 0.333938
vt 0.102630 0.336796
vt 0.103474 0.331181
vt 0.104304 0.328699
vt 0.105538 0.326378
vt 0.107234 0.324465
vt 0.109482 0.323197
vt 0.112332 0.322968
vt 0.109212 0.356880
vt 0.112189 0.357355
vt 0.107021 0.355597
vt 0.105420 0.353503
vt 0.104319 0.351055
vt 0.103510 0.348364
vt 0.103008 0.345541
vt 0.102618 0.342631
vt 0.102639 0.339709
vt 0.106239 0.335974
vt 0.105958 0.337854
vt 0.106734 0.334223
vt 0.107322 0.332742
vt 0.108195 0.331461
vt 0.109309 0.330578
vt 0.110633 0.330247
vt 0.112061 0.330654
vt 0.110608 0.349596
vt 0.112122 0.349152
vt 0.109344 0.349231
vt 0.108309 0.348454
vt 0.107404 0.347106
vt 0.106734 0.345478
vt 0.106266 0.343668
vt 0.105971 0.341761
vt 0.105832 0.339802
vt 0.064995 0.338933
vt 0.109861 0.339819
vn 0.030429 -0.992790 -0.115944
vn -0.169649 -0.966749 -0.191354
vn -0.066632 -0.933029 -0.353578
vn 0.092853 -0.972357 -0.214241
vn 0.087543 -0.882565 -0.461970
vn 0.186272 -0.941778 -0.279922
vn 0.269401 -0.823039 -0.500029
vn 0.296462 -0.905711 -0.302983
vn 0.451260 -0.763511 -0.461968
vn 0.406653 -0.869642 -0.279921
vn 0.605432 -0.713046 -0.353579
vn 0.500070 -0.839064 -0.214245
vn 0.708447 -0.679327 -0.191355
vn 0.562492 -0.818632 -0.115947
vn 0.744621 -0.667488 -0.000001
vn 0.584410 -0.811458 -0.000000
vn 0.708447 -0.679328 0.191356
vn 0.562491 -0.818633 0.115949
vn 0.605433 -0.713047 0.353575
vn 0.500073 -0.839064 0.214241
vn 0.451263 -0.763511 0.461967
vn 0.406657 -0.869641 0.279918
vn 0.269401 -0.823039 0.500029
vn 0.296461 -0.905711 0.302983
vn 0.087540 -0.882567 0.461966
vn 0.186267 -0.941781 0.279918
vn -0.066632 -0.933030 0.353574
vn 0.092851 -0.972358 0.214239
vn -0.169647 -0.966749 0.191354
vn 0.030432 -0.992789 0.115947
vn -0.205821 -0.978590 -0.000000
vn 0.008511 -0.999964 0.000000
vn -0.373131 -0.890139 -0.261584
vn -0.232305 -0.844045 -0.483346
vn -0.021546 -0.775057 -0.631523
vn 0.227059 -0.693682 -0.683556
vn 0.475666 -0.612308 -0.631523
vn 0.686423 -0.543323 -0.483347
vn 0.827248 -0.497227 -0.261584
vn 0.876699 -0.481040 -0.000000
vn 0.827248 -0.497226 0.261587
vn 0.686425 -0.543321 0.483346
vn 0.475667 -0.612307 0.631522
vn 0.227059 -0.693682 0.683557
vn -0.021548 -0.775058 0.631523
vn -0.232305 -0.844045 0.483345
vn -0.373131 -0.890139 0.261585
vn -0.422581 -0.906325 0.000000
vn -0.559910 -0.764704 -0.318950
vn -0.388202 -0.708502 -0.589342
vn -0.131223 -0.624387 -0.770014
vn 0.171900 -0.525168 -0.833456
vn 0.475024 -0.425948 -0.770014
vn 0.732000 -0.341833 -0.589345
vn 0.903708 -0.285626 -0.318952
vn 0.964004 -0.265890 -0.000000
vn 0.903708 -0.285626 0.318951
vn 0.732002 -0.341829 0.589343
vn 0.475025 -0.425943 0.770016
vn 0.171898 -0.525163 0.833460
vn -0.131227 -0.624383 0.770016
vn -0.388204 -0.708499 0.589344
vn -0.559910 -0.764703 0.318952
vn -0.620205 -0.784440 0.000000
vn -0.717227 -0.597079 -0.359279
vn -0.523810 -0.533769 -0.663863
vn -0.234337 -0.439017 -0.867381
vn 0.107117 -0.327255 -0.938845
vn 0.448572 -0.215488 -0.867380
vn 0.738043 -0.120734 -0.663865
vn 0.931461 -0.057423 -0.359281
vn 0.999381 -0.035193 -0.000001
vn 0.931461 -0.057427 0.359281
vn 0.738044 -0.120738 0.663863
vn 0.448573 -0.215490 0.867379
vn 0.107119 -0.327257 0.938844
vn -0.234336 -0.439022 0.867379
vn -0.523807 -0.533772 0.663863
vn -0.717226 -0.597081 0.359280
vn -0.785145 -0.619312 0.000000
vn -0.835637 -0.396569 -0.380058
vn -0.631035 -0.329596 -0.702254
vn -0.324825 -0.229365 -0.917541
vn 0.036375 -0.111137 -0.993139
vn 0.397579 0.007093 -0.917540
vn 0.703790 0.107323 -0.702255
vn 0.908393 0.174294 -0.380058
vn 0.980240 0.197810 -0.000001
vn 0.908393 0.174291 0.380058
vn 0.703790 0.107318 0.702255
vn 0.397581 0.007087 0.917540
vn 0.036380 -0.111143 0.993138
vn -0.324821 -0.229372 0.917540
vn -0.631032 -0.329601 0.702255
vn -0.835636 -0.396570 0.380059
vn -0.907484 -0.420087 0.000001
vn -0.908393 -0.174294 -0.380057
vn -0.703790 -0.107324 -0.702255
vn -0.397579 -0.007095 -0.917541
vn -0.036381 0.111135 -0.993139
vn 0.324824 0.229367 -0.917540
vn 0.631034 0.329597 -0.702255
vn 0.835637 0.396569 -0.380058
vn 0.907484 0.420086 -0.000001
vn 0.835636 0.396571 0.380058
vn 0.631032 0.329601 0.702255
vn 0.324821 0.229373 0.917540
vn -0.036380 0.111144 0.993138
vn -0.397581 -0.007087 0.917540
vn -0.703790 -0.107319 0.702255
vn -0.908393 -0.174292 0.380059
vn -0.980240 -0.197811 0.000001
vn -0.931462 0.057423 -0.359280
vn -0.738044 0.120732 -0.663864
vn -0.448571 0.215485 -0.867382
vn -0.107119 0.327254 -0.938845
vn 0.234336 0.439020 -0.867380
vn 0.523808 0.533768 -0.663865
vn 0.717227 0.597079 -0.359281
vn 0.785145 0.619312 -0.000001
vn 0.717224 0.597082 0.359280
vn 0.523807 0.533773 0.663863
vn 0.234336 0.439022 0.867379
vn -0.107119 0.327257 0.938844
vn -0.448573 0.215490 0.867379
vn -0.738043 0.120738 0.663863
vn -0.931461 0.057425 0.359280
vn -0.999381 0.035192 0.000001
vn -0.903708 0.285625 -0.318951
vn -0.732001 0.341831 -0.589343
vn -0.475024 0.425948 -0.770014
vn -0.171900 0.525168 -0.833456
vn 0.131224 0.624387 -0.770014
vn 0.388201 0.708501 -0.589345
vn 0.559909 0.764704 -0.318952
vn 0.620205 0.784440 0.000000
vn 0.559910 0.764704 0.318950
vn 0.388204 0.708500 0.589343
vn 0.131228 0.624384 0.770016
vn -0.171898 0.525163 0.833460
vn -0.475024 0.425943 0.770016
vn -0.732001 0.341830 0.589345
vn -0.903708 0.285625 0.318952
vn -0.964004 0.265889 0.000001
vn -0.827249 0.497225 -0.261585
vn -0.686423 0.543322 -0.483347
vn -0.475665 0.612309 -0.631522
vn -0.227059 0.693683 -0.683556
vn 0.021548 0.775057 -0.631524
vn 0.232305 0.844044 -0.483347
vn 0.373131 0.890139 -0.261585
vn 0.422583 0.906324 -0.000000
vn 0.373132 0.890138 0.261587
vn 0.232307 0.844044 0.483346
vn 0.021549 0.775058 0.631523
vn -0.227059 0.693683 0.683556
vn -0.475667 0.612308 0.631522
vn -0.686424 0.543322 0.483347
vn -0.827248 0.497225 0.261586
vn -0.876699 0.481039 0.000001
vn -0.708531 0.679228 -0.191400
vn -0.605490 0.712954 -0.353664
vn -0.451280 0.763432 -0.462080
vn -0.269379 0.822973 -0.500151
vn -0.087476 0.882513 -0.462080
vn 0.066735 0.932989 -0.353663
vn 0.169774 0.966717 -0.191402
vn 0.205957 0.978561 -0.000000
vn 0.169773 0.966717 0.191401
vn 0.066734 0.932990 0.353660
vn -0.087475 0.882515 0.462078
vn -0.269379 0.822973 0.500150
vn -0.451283 0.763431 0.462079
vn -0.605492 0.712954 0.353661
vn -0.708531 0.679228 0.191400
vn -0.744713 0.667385 0.000001
vn -0.565478 0.816363 -0.117414
vn -0.502268 0.837053 -0.216955
vn -0.407666 0.868018 -0.283466
vn -0.296079 0.904543 -0.306822
vn -0.184491 0.941069 -0.283465
vn -0.089890 0.972034 -0.216956
vn -0.026680 0.992724 -0.117416
vn -0.004483 0.999990 -0.000000
vn -0.026679 0.992724 0.117417
vn -0.089888 0.972034 0.216956
vn -0.184489 0.941069 0.283465
vn -0.296079 0.904543 0.306822
vn -0.407668 0.868017 0.283466
vn -0.502269 0.837052 0.216956
vn -0.565478 0.816363 0.117416
vn -0.587673 0.809098 0.000001
vn 0.311083 -0.950383 0.000001
vn -0.311084 0.950382 0.000000
s 1
g hand_right right_hand pivot
usemtl head_plateSG
f 283/316/283 299/319/284 300/318/285 284/317/286
f 284/317/286 300/318/285 301/321/287 285/320/288
f 285/320/288 301/321/287 302/323/289 286/322/290
f 286/322/290 302/323/289 303/325/291 287/324/292
f 287/324/292 303/325/291 304/327/293 288/326/294
f 288/326/294 304/327/293 305/329/295 289/328/296
f 289/328/296 305/329/295 306/331/297 290/330/298
f 290/332/298 306/335/297 307/334/299 291/333/300
f 291/333/300 307/334/299 308/337/301 292/336/302
f 292/336/302 308/337/301 309/339/303 293/338/304
f 293/338/304 309/339/303 310/341/305 294/340/306
f 294/340/306 310/341/305 311/343/307 295/342/308
f 295/342/308 311/343/307 312/345/309 296/344/310
f 296/344/310 312/345/309 313/347/311 297/346/312
f 297/346/312 313/347/311 314/349/313 298/348/314
f 298/348/314 314/349/313 299/319/284 283/316/283
f 299/319/284 315/351/315 316/350/316 300/318/285
f 300/318/285 316/350/316 317/352/317 301/321/287
f 301/321/287 317/352/317 318/353/318 302/323/289
f 302/323/289 318/353/318 319/354/319 303/325/291
f 303/325/291 319/354/319 320/355/320 304/327/293
f 304/327/293 320/355/320 321/356/321 305/329/295
f 305/329/295 321/356/321 322/357/322 306/331/297
f 306/335/297 322/359/322 323/358/323 307/334/299
f 307/334/299 323/358/323 324/360/324 308/337/301
f 308/337/301 324/360/324 325/361/325 309/339/303
f 309/339/303 325/361/325 326/362/326 310/341/305
f 310/341/305 326/362/326 327/363/327 311/343/307
f 311/343/307 327/363/327 328/364/328 312/345/309
f 312/345/309 328/364/328 329/365/329 313/347/311
f 313/347/311 329/365/329 330/366/330 314/349/313
f 314/349/313 330/366/330 315/351/315 299/319/284
f 315/351/315 331/368/331 332/367/332 316/350/316
f 316/350/316 332/367/332 333/369/333 317/352/317
f 317/352/317 333/369/333 334/370/334 318/353/318
f 318/353/318 334/370/334 335/371/335 319/354/319
f 319/354/319 335/371/335 336/372/336 320/355/320
f 320/355/320 336/372/336 337/373/337 321/356/321
f 321/356/321 337/373/337 338/374/338 322/357/322
f 322/359/322 338/376/338 339/375/339 323/358/323
f 323/358/323 339/375/339 340/377/340 324/360/324
f 324/360/324 340/377/340 341/378/341 325/361/325
f 325/361/325 341/378/341 342/379/342 326/362/326
f 326/362/326 342/379/342 343/380/343 327/363/327
f 327/363/327 343/380/343 344/381/344 328/364/328
f 328/364/328 344/381/344 345/382/345 329/365/329
f 329/365/329 345/382/345 346/383/346 330/366/330
f 330/366/330 346/383/346 331/368/331 315/351/315
f 331/368/331 347/385/347 348/384/348 332/367/332
f 332/367/332 348/384/348 349/386/349 333/369/333
f 333/369/333 349/386/349 350/387/350 334/370/334
f 334/370/334 350/387/350 351/388/351 335/371/335
f 335/371/335 351/388/351 352/389/352 336/372/336
f 336/372/336 352/389/352 353/390/353 337/373/337
f 337/373/337 353/390/353 354/391/354 338/374/338
f 338/376/338 354/393/354 355/392/355 339/375/339
f 339/375/339 355/392/355 356/394/356 340/377/340
f 340/377/340 356/394/356 357/395/357 341/378/341
f 341/378/341 357/395/357 358/396/358 342/379/342
f 342/379/342 358/396/358 359/397/359 343/380/343
f 343/380/343 359/397/359 360/398/360 344/381/344
f 344/381/344 360/398/360 361/399/361 345/382/345
f 345/382/345 361/399/361 362/400/362 346/383/346
f 346/383/346 362/400/362 347/385/347 331/368/331
f 347/385/347 363/402/363 364/401/364 348/384/348
f 348/384/348 364/401/364 365/403/365 349/386/349
f 349/386/349 365/403/365 366/404/366 350/387/350
f 350/387/350 366/404/366 367/405/367 351/388/351
f 351/388/351 367/405/367 368/406/368 352/389/352
f 352/389/352 368/406/368 369/407/369 353/390/353
f 353/390/353 369/407/369 370/408/370 354/391/354
f 354/393/354 370/410/370 371/409/371 355/392/355
f 355/392/355 371/409/371 372/411/372 356/394/356
f 356/394/356 372/411/372 373/412/373 357/395/357
f 357/395/357 373/412/373 374/413/374 358/396/358
f 358/396/358 374/413/374 375/414/375 359/397/359
f 359/397/359 375/414/375 376/415/376 360/398/360
f 360/398/360 376/415/376 377/416/377 361/399/361
f 361/399/361 377/416/377 378/417/378 362/400/362
f 362/400/362 378/417/378 363/402/363 347/385/347
f 363/402/363 379/419/379 380/418/380 364/401/364
f 364/401/364 380/418/380 381/420/381 365/403/365
f 365/403/365 381/420/381 382/421/382 366/404/366
f 366/404/366 382/421/382 383/422/383 367/405/367
f 367/405/367 383/422/383 384/423/384 368/406/368
f 368/406/368 384/423/384 385/424/385 369/407/369
f 369/407/369 385/424/385 386/425/386 370/408/370
f 370/410/370 386/427/386 387/426/387 371/409/371
f 371/409/371 387/426/387 388/428/388 372/411/372
f 372/411/372 388/428/388 389/429/389 373/412/373
f 373/412/373 389/429/389 390/430/390 374/413/374
f 374/413/374 390/430/390 391/431/391 375/414/375
f 375/414/375 391/431/391 392/432/392 376/415/376
f 376/415/376 392/432/392 393/433/393 377/416/377
f 377/416/377 393/433/393 394/434/394 378/417/378
f 378/417/378 394/434/394 379/419/379 363/402/363
f 379/419/379 395/436/395 396/435/396 380/418/380
f 380/418/380 396/435/396 397/437/397 381/420/381
f 381/420/381 397/437/397 398/438/398 382/421/382
f 382/421/382 398/438/398 399/439/399 383/422/383
f 383/422/383 399/439/399 400/440/400 384/423/384
f 384/423/384 400/440/400 401/441/401 385/424/385
f 385/424/385 401/441/401 402/442/402 386/425/386
f 386/427/386 402/444/402 403/443/403 387/426/387
f 387/426/387 403/443/403 404/445/404 388/428/388
f 388/428/388 404/445/404 405/446/405 389/429/389
f 389/429/389 405/446/405 406/447/406 390/430/390
f 390/430/390 406/447/406 407/448/407 391/431/391
f 391/431/391 407/448/407 408/449/408 392/432/392
f 392/432/392 408/449/408 409/450/409 393/433/393
f 393/433/393 409/450/409 410/451/410 394/434/394
f 394/434/394 410/451/410 395/436/395 379/419/379
f 395/436/395 411/453/411 412/452/412 396/435/396
f 396/435/396 412/452/412 413/454/413 397/437/397
f 397/437/397 413/454/413 414/455/414 398/438/398
f 398/438/398 414/455/414 415/456/415 399/439/399
f 399/439/399 415/456/415 416/457/416 400/440/400
f 400/440/400 416/457/416 417/458/417 401/441/401
f 401/441/401 417/458/417 418/459/418 402/442/402
f 402/444/402 418/461/418 419/460/419 403/443/403
f 403/443/403 419/460/419 420/462/420 404/445/404
f 404/445/404 420/462/420 421/463/421 405/446/405
f 405/446/405 421/463/421 422/464/422 406/447/406
f 406/447/406 422/464/422 423/465/423 407/448/407
f 407/448/407 423/465/423 424/466/424 408/449/408
f 408/449/408 424/466/424 425/467/425 409/450/409
f 409/450/409 425/467/425 426/468/426 410/451/410
f 410/451/410 426/468/426 411/453/411 395/436/395
f 411/453/411 427/470/427 428/469/428 412/452/412
f 412/452/412 428/469/428 429/471/429 413/454/413
f 413/454/413 429/471/429 430/472/430 414/455/414
f 414/455/414 430/472/430 431/473/431 415/456/415
f 415/456/415 431/473/431 432/474/432 416/457/416
f 416/457/416 432/474/432 433/475/433 417/458/417
f 417/458/417 433/475/433 434/476/434 418/459/418
f 418/461/418 434/478/434 435/477/435 419/460/419
f 419/460/419 435/477/435 436/479/436 420/462/420
f 420/462/420 436/479/436 437/480/437 421/463/421
f 421/463/421 437/480/437 438/481/438 422/464/422
f 422/464/422 438/481/438 439/482/439 423/465/423
f 423/465/423 439/482/439 440/483/440 424/466/424
f 424/466/424 440/483/440 441/484/441 425/467/425
f 425/467/425 441/484/441 442/485/442 426/468/426
f 426/468/426 442/485/442 427/470/427 411/453/411
f 427/470/427 443/487/443 444/486/444 428/469/428
f 428/469/428 444/486/444 445/488/445 429/471/429
f 429/471/429 445/488/445 446/489/446 430/472/430
f 430/472/430 446/489/446 447/490/447 431/473/431
f 431/473/431 447/490/447 448/491/448 432/474/432
f 432/474/432 448/491/448 449/492/449 433/475/433
f 433/475/433 449/492/449 450/493/450 434/476/434
f 434/478/434 450/495/450 451/494/451 435/477/435
f 435/477/435 451/494/451 452/496/452 436/479/436
f 436/479/436 452/496/452 453/497/453 437/480/437
f 437/480/437 453/497/453 454/498/454 438/481/438
f 438/481/438 454/498/454 455/499/455 439/482/439
f 439/482/439 455/499/455 456/500/456 440/483/440
f 440/483/440 456/500/456 457/501/457 441/484/441
f 441/484/441 457/501/457 458/502/458 442/485/442
f 442/485/442 458/502/458 443/487/443 427/470/427
f 443/487/443 459/504/459 460/503/460 444/486/444
f 444/486/444 460/503/460 461/505/461 445/488/445
f 445/488/445 461/505/461 462/506/462 446/489/446
f 446/489/446 462/506/462 463/507/463 447/490/447
f 447/490/447 463/507/463 464/508/464 448/491/448
f 448/491/448 464/508/464 465/509/465 449/492/449
f 449/492/449 465/509/465 466/510/466 450/493/450
f 450/495/450 466/512/466 467/511/467 451/494/451
f 451/494/451 467/511/467 468/513/468 452/496/452
f 452/496/452 468/513/468 469/514/469 453/497/453
f 453/497/453 469/514/469 470/515/470 454/498/454
f 454/498/454 470/515/470 471/516/471 455/499/455
f 455/499/455 471/516/471 472/517/472 456/500/456
f 456/500/456 472/517/472 473/518/473 457/501/457
f 457/501/457 473/518/473 474/519/474 458/502/458
f 458/502/458 474/519/474 459/504/459 443/487/443
f 284/317/286 475/520/475 283/316/283
f 285/320/288 475/520/475 284/317/286
f 286/322/290 475/520/475 285/320/288
f 287/324/292 475/520/475 286/322/290
f 288/326/294 475/520/475 287/324/292
f 289/328/296 475/520/475 288/326/294
f 290/330/298 475/520/475 289/328/296
f 291/333/300 475/520/475 290/332/298
f 292/336/302 475/520/475 291/333/300
f 293/338/304 475/520/475 292/336/302
f 294/340/306 475/520/475 293/338/304
f 295/342/308 475/520/475 294/340/306
f 296/344/310 475/520/475 295/342/308
f 297/346/312 475/520/475 296/344/310
f 298/348/314 475/520/475 297/346/312
f 283/316/283 475/520/475 298/348/314
f 459/504/459 476/521/476 460/503/460
f 460/503/460 476/521/476 461/505/461
f 461/505/461 476/521/476 462/506/462
f 462/506/462 476/521/476 463/507/463
f 463/507/463 476/521/476 464/508/464
f 464/508/464 476/521/476 465/509/465
f 465/509/465 476/521/476 466/510/466
f 466/512/466 476/521/476 467/511/467
f 467/511/467 476/521/476 468/513/468
f 468/513/468 476/521/476 469/514/469
f 469/514/469 476/521/476 470/515/470
f 470/515/470 476/521/476 471/516/471
f 471/516/471 476/521/476 472/517/472
f 472/517/472 476/521/476 473/518/473
f 473/518/473 476/521/476 474/519/474
f 474/519/474 476/521/476 459/504/459
