# This file uses centimeters as units for non-parametric coordinates.

mtllib bot.mtl
g default
v 0.016410 -0.145009 0.043357
v -0.033205 -0.145916 0.033048
v -0.071412 -0.146496 0.004290
v -0.082747 -0.142310 -0.035695
v -0.071568 -0.135480 -0.075213
v -0.033351 -0.127112 -0.102214
v 0.016727 -0.123462 -0.111922
v 0.066602 -0.125298 -0.101293
v 0.103167 -0.131644 -0.073864
v 0.113860 -0.137587 -0.034912
v 0.102707 -0.142109 0.004259
v 0.065897 -0.143714 0.032646
v 0.018602 -0.193288 0.051687
v -0.039030 -0.195826 0.039769
v -0.084200 -0.201549 0.006222
v -0.097364 -0.201771 -0.040646
v -0.084424 -0.198058 -0.087569
v -0.039182 -0.190142 -0.121702
v 0.018858 -0.187012 -0.133538
v 0.076560 -0.188817 -0.120643
v 0.118998 -0.194591 -0.086403
v 0.131463 -0.197428 -0.040001
v 0.118601 -0.197523 0.006205
v 0.076003 -0.194075 0.039308
v 0.017839 -0.241433 0.064123
v -0.046463 -0.245539 0.050880
v -0.096358 -0.257479 0.014685
v -0.111043 -0.263718 -0.038262
v -0.096508 -0.264430 -0.092403
v -0.046405 -0.257576 -0.134524
v 0.018038 -0.255516 -0.148618
v 0.082128 -0.257668 -0.133445
v 0.129211 -0.262914 -0.091696
v 0.143396 -0.261656 -0.037884
v 0.129039 -0.255677 0.014760
v 0.081853 -0.245450 0.050842
v 0.081736 -0.382419 -0.132645
v 0.132707 -0.387896 -0.082702
v 0.011501 -0.381859 -0.150404
v -0.057523 -0.384431 -0.132942
v -0.101885 -0.387911 -0.082901
v -0.116880 -0.380952 -0.020133
v -0.102202 -0.365145 0.040026
v -0.057993 -0.342689 0.080042
v 0.011353 -0.332956 0.094999
v 0.081934 -0.340726 0.079893
v 0.132886 -0.365176 0.040158
v 0.148645 -0.381242 -0.019931
v 0.010994 -0.099029 0.033989
v -0.028021 -0.097630 0.025992
v -0.056791 -0.094064 0.005081
v -0.065365 -0.087699 -0.024720
v -0.056808 -0.080165 -0.054254
v -0.027976 -0.072634 -0.074400
v 0.011095 -0.069802 -0.082070
v 0.050144 -0.072556 -0.074344
v 0.078902 -0.079721 -0.053990
v 0.087364 -0.087108 -0.024640
v 0.078855 -0.093561 0.004920
v 0.050063 -0.097543 0.025937
v 0.016383 -0.145669 0.038289
v -0.031115 -0.146521 0.028424
v -0.067323 -0.147331 0.001341
v -0.077900 -0.143454 -0.035784
v -0.067532 -0.136985 -0.072462
v -0.031283 -0.128841 -0.097872
v 0.016687 -0.125320 -0.107152
v 0.064471 -0.127250 -0.097078
v 0.099212 -0.133563 -0.071257
v 0.109154 -0.139248 -0.035083
v 0.098744 -0.143429 0.001315
v 0.063778 -0.144618 0.028085
v 0.018578 -0.194352 0.046689
v -0.036912 -0.196909 0.035246
v -0.080093 -0.202721 0.003416
v -0.092497 -0.202919 -0.040649
v -0.080312 -0.199248 -0.084777
v -0.037031 -0.191445 -0.117253
v 0.018803 -0.188346 -0.128609
v 0.074306 -0.190138 -0.116251
v 0.114897 -0.195812 -0.083608
v 0.126623 -0.198613 -0.040029
v 0.114533 -0.198723 0.003354
v 0.073824 -0.195198 0.034824
v 0.017824 -0.242900 0.059228
v -0.044289 -0.247011 0.046496
v -0.092189 -0.258774 0.012029
v -0.106117 -0.264685 -0.038223
v -0.092269 -0.265188 -0.089650
v -0.044106 -0.258372 -0.130029
v 0.017989 -0.256277 -0.143587
v 0.079736 -0.258352 -0.128981
v 0.124973 -0.263484 -0.088899
v 0.138457 -0.262392 -0.037881
v 0.124873 -0.256750 0.012001
v 0.079625 -0.246794 0.046443
v -0.051750 -0.295476 0.061684
v -0.100390 -0.314237 0.025412
v -0.115242 -0.327008 -0.030053
v -0.100307 -0.332223 -0.087952
v -0.051593 -0.326736 -0.134980
v 0.014986 -0.325946 -0.150665
v 0.081670 -0.328519 -0.134125
v 0.130402 -0.332801 -0.087573
v 0.145365 -0.327211 -0.029861
v 0.130476 -0.314800 0.025655
v 0.081854 -0.297250 0.062459
v 0.015051 -0.289625 0.075719
v -0.031370 -0.097630 0.033416
v 0.011023 -0.098710 0.042137
v -0.063295 -0.093618 0.009870
v -0.073195 -0.086249 -0.024565
v -0.063272 -0.077685 -0.058458
v -0.029511 -0.069468 -0.081119
v 0.012096 -0.066186 -0.089003
v 0.053409 -0.068365 -0.080514
v 0.084864 -0.075426 -0.057445
v 0.094433 -0.083534 -0.023844
v 0.084786 -0.091082 0.009878
v 0.053287 -0.096309 0.033321
v 0.140593 -0.388203 -0.087241
v 0.086214 -0.382859 -0.140560
v 0.011347 -0.382214 -0.159395
v -0.062283 -0.384626 -0.140701
v -0.109805 -0.388032 -0.087390
v -0.125862 -0.380419 -0.020145
v -0.110041 -0.363458 0.044338
v -0.062602 -0.339487 0.087212
v 0.011298 -0.329234 0.103309
v 0.086203 -0.337729 0.087356
v 0.140703 -0.363647 0.044570
v 0.157647 -0.380857 -0.019928
v -0.055902 -0.292407 0.069023
v 0.015036 -0.286258 0.084060
v -0.107927 -0.312252 0.029866
v -0.124050 -0.326060 -0.030085
v -0.108015 -0.331906 -0.092579
v -0.056024 -0.326450 -0.142755
v 0.014969 -0.325795 -0.159543
v 0.086060 -0.328495 -0.141955
v 0.138059 -0.332790 -0.092227
v 0.154141 -0.326596 -0.029845
v 0.137978 -0.313147 0.030226
v 0.085917 -0.294438 0.069965
v 0.134494 -0.441223 -0.076742
v 0.136288 -0.443207 -0.077492
v 0.081412 -0.434779 -0.128779
v 0.082335 -0.436797 -0.130285
v 0.007372 -0.436283 -0.147485
v 0.007121 -0.438288 -0.149302
v -0.063548 -0.440578 -0.127967
v -0.064847 -0.442556 -0.129481
v -0.100985 -0.442073 -0.076559
v -0.102649 -0.444045 -0.077266
v -0.114703 -0.433551 -0.009756
v -0.116533 -0.435414 -0.009356
v -0.101027 -0.414603 0.054422
v -0.102686 -0.416151 0.055868
v -0.063568 -0.387423 0.099289
v -0.064868 -0.388471 0.101419
v 0.007360 -0.373595 0.115166
v 0.007177 -0.374443 0.117695
v 0.081486 -0.381692 0.097936
v 0.082381 -0.382742 0.100225
v 0.134521 -0.413741 0.054302
v 0.136329 -0.415287 0.055784
v 0.151041 -0.433448 -0.009794
v 0.153131 -0.435284 -0.009419
v -0.000971 -0.050244 0.033469
v -0.001399 -0.048379 0.035363
v -0.027756 -0.046943 0.027533
v -0.028555 -0.045130 0.029332
v -0.047010 -0.038679 0.011654
v -0.048274 -0.036772 0.013027
v -0.052992 -0.031012 -0.010375
v -0.054463 -0.028900 -0.009835
v -0.046995 -0.025389 -0.032954
v -0.048237 -0.023086 -0.033258
v -0.027750 -0.023736 -0.050459
v -0.028550 -0.021301 -0.051205
v -0.000997 -0.023371 -0.056886
v -0.001384 -0.020833 -0.057696
v 0.025791 -0.024374 -0.050787
v 0.025810 -0.021768 -0.051443
v 0.045185 -0.026537 -0.033403
v 0.045635 -0.023926 -0.033571
v 0.051278 -0.032351 -0.010727
v 0.051899 -0.029888 -0.010107
v 0.045252 -0.039903 0.011486
v 0.045656 -0.037680 0.012866
v 0.025859 -0.047669 0.027516
v 0.025822 -0.045678 0.029305
v -0.030889 -0.047254 0.034826
v -0.030170 -0.045263 0.033088
v -0.001409 -0.048324 0.039534
v -0.000978 -0.050175 0.041517
v -0.052990 -0.038501 0.016305
v -0.051273 -0.036675 0.015362
v -0.060132 -0.029756 -0.010084
v -0.058080 -0.028250 -0.009724
v -0.052979 -0.023043 -0.037008
v -0.051316 -0.021866 -0.035339
v -0.030897 -0.020612 -0.057039
v -0.030175 -0.019670 -0.054588
v -0.001042 -0.019539 -0.063916
v -0.001409 -0.018835 -0.061317
v 0.028762 -0.020021 -0.056737
v 0.027338 -0.019504 -0.054508
v 0.050581 -0.022036 -0.036609
v 0.048397 -0.021592 -0.035209
v 0.057650 -0.028560 -0.009782
v 0.055162 -0.027918 -0.009611
v 0.050599 -0.037382 0.016439
v 0.048400 -0.036359 0.015423
v 0.028789 -0.046538 0.034839
v 0.027332 -0.045072 0.033104
v 0.140476 -0.443429 -0.079818
v 0.142118 -0.441665 -0.080977
v 0.085759 -0.435406 -0.136430
v 0.084808 -0.437151 -0.134637
v 0.007217 -0.436815 -0.156073
v 0.007186 -0.438596 -0.154023
v -0.068280 -0.440955 -0.135237
v -0.067385 -0.442759 -0.133372
v -0.108835 -0.442467 -0.080860
v -0.107178 -0.444224 -0.079751
v -0.123640 -0.433380 -0.009731
v -0.121770 -0.435224 -0.009382
v -0.108823 -0.413236 0.058585
v -0.107178 -0.415299 0.058242
v -0.068238 -0.384282 0.105923
v -0.067330 -0.386724 0.105191
v 0.007269 -0.369797 0.123125
v 0.007122 -0.372326 0.122206
v 0.085712 -0.378680 0.105062
v 0.084745 -0.381093 0.104220
v 0.142100 -0.412445 0.058408
v 0.140479 -0.414536 0.058016
v 0.159682 -0.433259 -0.009785
v 0.157841 -0.435137 -0.009422
v 0.011195 -0.100161 0.039222
v 0.011027 -0.098731 0.040533
v -0.030199 -0.098970 0.030727
v -0.030719 -0.097579 0.031992
v -0.061168 -0.095086 0.008009
v -0.062092 -0.093654 0.008990
v -0.070545 -0.088092 -0.024814
v -0.071648 -0.086529 -0.024481
v -0.061106 -0.079866 -0.057341
v -0.062013 -0.078153 -0.057658
v -0.030119 -0.071909 -0.079157
v -0.030624 -0.070120 -0.079768
v 0.011230 -0.068731 -0.087197
v 0.011094 -0.066884 -0.087838
v 0.052522 -0.071193 -0.078756
v 0.052736 -0.069301 -0.079246
v 0.083129 -0.078287 -0.056608
v 0.083637 -0.076401 -0.056761
v 0.092364 -0.086122 -0.024434
v 0.093000 -0.084337 -0.024034
v 0.083131 -0.093268 0.007910
v 0.083608 -0.091615 0.008845
v 0.052503 -0.098073 0.030608
v 0.052656 -0.096547 0.031829
v -0.053864 -0.292437 0.065488
v -0.054727 -0.293236 0.067109
v -0.104468 -0.311728 0.027633
v -0.105878 -0.312761 0.028662
v -0.120038 -0.325040 -0.030259
v -0.121624 -0.326264 -0.030073
v -0.104506 -0.330613 -0.090638
v -0.105855 -0.331929 -0.091303
v -0.053929 -0.325171 -0.139349
v -0.054745 -0.326457 -0.140583
v 0.015045 -0.324459 -0.155600
v 0.014984 -0.325762 -0.157047
v 0.084116 -0.327095 -0.138496
v 0.084815 -0.328431 -0.139772
v 0.134641 -0.331383 -0.090290
v 0.135933 -0.332743 -0.090966
v 0.150222 -0.325458 -0.030028
v 0.151758 -0.326725 -0.029836
v 0.134615 -0.312487 0.027978
v 0.135957 -0.313577 0.029016
v 0.084092 -0.294360 0.066328
v 0.084785 -0.295230 0.067938
v 0.015130 -0.286455 0.080017
v 0.015050 -0.287214 0.081827
vt 0.915278 0.551903
vt 0.909493 0.563228
vt 0.900825 0.559177
vt 0.904309 0.547522
vt 0.925251 0.556680
vt 0.916893 0.567737
vt 0.932633 0.562678
vt 0.922591 0.572925
vt 0.826772 0.566108
vt 0.837157 0.577666
vt 0.831271 0.582857
vt 0.819593 0.572249
vt 0.836270 0.560783
vt 0.844848 0.572990
vt 0.846495 0.554987
vt 0.853270 0.567855
vt 0.856529 0.549381
vt 0.861492 0.562566
vt 0.865669 0.544692
vt 0.868939 0.557948
vt 0.874277 0.542388
vt 0.876171 0.555520
vt 0.883166 0.541922
vt 0.883608 0.554776
vt 0.893300 0.544030
vt 0.891861 0.556247
vt 0.921154 0.540004
vt 0.908088 0.535284
vt 0.933512 0.544829
vt 0.942683 0.551381
vt 0.815981 0.553583
vt 0.807354 0.560651
vt 0.827465 0.547431
vt 0.839308 0.541188
vt 0.851120 0.535222
vt 0.862252 0.530326
vt 0.872551 0.528156
vt 0.883110 0.528131
vt 0.895054 0.531090
vt 0.926868 0.527955
vt 0.911999 0.522981
vt 0.941011 0.532348
vt 0.952123 0.538947
vt 0.805392 0.540400
vt 0.795291 0.548451
vt 0.818705 0.533441
vt 0.832029 0.526657
vt 0.845520 0.520308
vt 0.858792 0.515064
vt 0.871153 0.513131
vt 0.883645 0.513838
vt 0.897203 0.517937
vt 0.947385 0.519557
vt 0.932176 0.516045
vt 0.960473 0.525660
vt 0.795449 0.526922
vt 0.784045 0.536067
vt 0.809973 0.519360
vt 0.824666 0.511806
vt 0.839936 0.504985
vt 0.855379 0.499265
vt 0.870072 0.497728
vt 0.884687 0.499449
vt 0.899764 0.504991
vt 0.915969 0.510991
vt 0.936988 0.504189
vt 0.919815 0.499706
vt 0.952337 0.507488
vt 0.966753 0.513682
vt 0.787650 0.515597
vt 0.775001 0.525389
vt 0.802338 0.507660
vt 0.818598 0.499930
vt 0.835718 0.492823
vt 0.852865 0.486351
vt 0.869532 0.484613
vt 0.885965 0.486780
vt 0.902482 0.493709
vt 0.826729 0.410054
vt 0.840571 0.406520
vt 0.844138 0.418545
vt 0.832099 0.422193
vt 0.813402 0.413334
vt 0.821077 0.425923
vt 0.802984 0.418634
vt 0.812325 0.430888
vt 0.940516 0.414978
vt 0.951152 0.419633
vt 0.940850 0.433856
vt 0.931712 0.429730
vt 0.927407 0.411830
vt 0.920689 0.426686
vt 0.914126 0.408172
vt 0.908918 0.422677
vt 0.901019 0.404340
vt 0.897317 0.418715
vt 0.888846 0.400979
vt 0.886827 0.415240
vt 0.877755 0.399743
vt 0.877078 0.413656
vt 0.866580 0.400155
vt 0.867179 0.413552
vt 0.854183 0.403023
vt 0.856154 0.415577
vt 0.821613 0.397778
vt 0.836974 0.394391
vt 0.806608 0.400113
vt 0.794337 0.405084
vt 0.948788 0.399446
vt 0.961078 0.404413
vt 0.933751 0.396371
vt 0.919054 0.392858
vt 0.904553 0.389140
vt 0.890650 0.385870
vt 0.877972 0.385127
vt 0.865373 0.386308
vt 0.851882 0.390226
vt 0.813880 0.373170
vt 0.830700 0.370565
vt 0.833474 0.381847
vt 0.817117 0.385000
vt 0.798020 0.373444
vt 0.801043 0.385889
vt 0.781796 0.375248
vt 0.786152 0.389726
vt 0.959987 0.369634
vt 0.976127 0.373008
vt 0.970586 0.387904
vt 0.956019 0.382845
vt 0.943542 0.367190
vt 0.939519 0.380110
vt 0.926625 0.363798
vt 0.923590 0.376552
vt 0.909662 0.360286
vt 0.907770 0.372758
vt 0.893057 0.356886
vt 0.892244 0.369605
vt 0.877541 0.356830
vt 0.877851 0.369574
vt 0.862392 0.359534
vt 0.863698 0.371739
vt 0.847007 0.365695
vt 0.849247 0.376848
vt 0.893615 0.342055
vt 0.893505 0.342666
vt 0.877105 0.342513
vt 0.877072 0.341876
vt 0.911472 0.345389
vt 0.911351 0.346010
vt 0.929794 0.348912
vt 0.929782 0.349556
vt 0.947136 0.352335
vt 0.947171 0.352990
vt 0.961834 0.354351
vt 0.961839 0.354976
vt 0.977243 0.355825
vt 0.977396 0.356459
vt 0.781844 0.358976
vt 0.782065 0.358365
vt 0.797299 0.358994
vt 0.797205 0.359611
vt 0.811683 0.359598
vt 0.811584 0.360228
vt 0.827969 0.357496
vt 0.827996 0.358137
vt 0.844602 0.352577
vt 0.844751 0.353193
vt 0.861068 0.345363
vt 0.861253 0.345942
vt 0.850861 0.444699
vt 0.850507 0.444134
vt 0.858458 0.442849
vt 0.858710 0.443464
vt 0.843884 0.447326
vt 0.843466 0.446824
vt 0.838203 0.451087
vt 0.837707 0.450685
vt 0.834376 0.455379
vt 0.833779 0.455115
vt 0.918402 0.461045
vt 0.917841 0.461387
vt 0.913421 0.457554
vt 0.913863 0.457109
vt 0.907002 0.454009
vt 0.907409 0.453503
vt 0.899231 0.450836
vt 0.899624 0.450306
vt 0.890920 0.448076
vt 0.891277 0.447520
vt 0.882595 0.445934
vt 0.882845 0.445348
vt 0.874660 0.444558
vt 0.874751 0.443946
vt 0.866837 0.443521
vt 0.866745 0.442886
vt 0.842751 0.445374
vt 0.842984 0.445978
vt 0.837117 0.450049
vt 0.836744 0.449563
vt 0.849980 0.442564
vt 0.850121 0.443198
vt 0.858108 0.441253
vt 0.858191 0.441885
vt 0.832899 0.454784
vt 0.832308 0.454471
vt 0.919867 0.460255
vt 0.919260 0.460601
vt 0.914424 0.456425
vt 0.914784 0.455945
vt 0.907883 0.452674
vt 0.908123 0.452091
vt 0.900067 0.449427
vt 0.900251 0.448823
vt 0.891672 0.446638
vt 0.891824 0.446033
vt 0.883149 0.444490
vt 0.883280 0.443899
vt 0.874856 0.443082
vt 0.874903 0.442500
vt 0.866633 0.441961
vt 0.866596 0.441349
vt 0.893388 0.343732
vt 0.893365 0.344351
vt 0.877171 0.344184
vt 0.877148 0.343563
vt 0.911185 0.347152
vt 0.911122 0.347774
vt 0.929609 0.350619
vt 0.929497 0.351241
vt 0.947090 0.354030
vt 0.946965 0.354638
vt 0.961778 0.356156
vt 0.961743 0.356775
vt 0.977695 0.357741
vt 0.977780 0.358408
vt 0.781270 0.360860
vt 0.781412 0.360210
vt 0.797148 0.360781
vt 0.797139 0.361399
vt 0.811642 0.361317
vt 0.811716 0.361937
vt 0.828141 0.359303
vt 0.828271 0.359925
vt 0.844966 0.354331
vt 0.845054 0.354979
vt 0.861455 0.346974
vt 0.861513 0.347600
vt 0.850679 0.473532
vt 0.831664 0.480629
vt 0.812241 0.488312
vt 0.794312 0.496482
vt 0.780003 0.504655
vt 0.766483 0.515207
vt 0.972546 0.501840
vt 0.956937 0.495699
vt 0.941367 0.492908
vt 0.923608 0.489148
vt 0.905270 0.483013
vt 0.887203 0.474387
vt 0.869102 0.471731
vt 0.903647 0.574562
vt 0.897994 0.571345
vt 0.908147 0.578902
vt 0.912044 0.583282
vt 0.847211 0.588689
vt 0.842913 0.592842
vt 0.852171 0.584183
vt 0.858213 0.579943
vt 0.864890 0.576180
vt 0.871747 0.573380
vt 0.878228 0.571419
vt 0.884663 0.570013
vt 0.891486 0.569749
vt 0.837615 0.434010
vt 0.847575 0.430519
vt 0.828904 0.438250
vt 0.821373 0.442966
vt 0.923196 0.443845
vt 0.931302 0.447793
vt 0.913283 0.440300
vt 0.903432 0.436424
vt 0.893803 0.432463
vt 0.884663 0.428924
vt 0.876007 0.426962
vt 0.867240 0.426621
vt 0.857736 0.427955
vt 0.847261 0.429684
vt 0.847418 0.430151
vt 0.837438 0.433669
vt 0.837221 0.433228
vt 0.857541 0.427104
vt 0.857626 0.427577
vt 0.828719 0.437957
vt 0.828457 0.437546
vt 0.821321 0.442548
vt 0.821163 0.442067
vt 0.931593 0.446811
vt 0.931419 0.447347
vt 0.923368 0.443534
vt 0.923623 0.443127
vt 0.913797 0.440291
vt 0.914028 0.439870
vt 0.903841 0.436261
vt 0.904047 0.435850
vt 0.893964 0.432115
vt 0.894101 0.431694
vt 0.884752 0.428581
vt 0.884819 0.428161
vt 0.876029 0.426625
vt 0.876051 0.426212
vt 0.867205 0.426261
vt 0.867188 0.425811
vt 0.817366 0.386011
vt 0.817228 0.385549
vt 0.833594 0.382413
vt 0.833704 0.382880
vt 0.801343 0.386895
vt 0.801176 0.386443
vt 0.786835 0.390746
vt 0.786525 0.390286
vt 0.970153 0.388483
vt 0.969802 0.388967
vt 0.955677 0.383876
vt 0.955845 0.383422
vt 0.939268 0.381087
vt 0.939396 0.380657
vt 0.923375 0.377523
vt 0.923475 0.377093
vt 0.907585 0.373735
vt 0.907663 0.373300
vt 0.892122 0.370587
vt 0.892169 0.370147
vt 0.877877 0.370545
vt 0.877867 0.370101
vt 0.863839 0.372722
vt 0.863795 0.372268
vt 0.849459 0.377875
vt 0.849378 0.377410
vn 0.406387 -0.124018 -0.905245
vn 0.409528 -0.030217 -0.911797
vn -0.005386 -0.059327 -0.998224
vn -0.004053 -0.133669 -0.991018
vn 0.804549 -0.169891 -0.569068
vn 0.808854 -0.097333 -0.579897
vn 0.973219 -0.229524 -0.012762
vn 0.977386 -0.208485 -0.035355
vn 0.787041 -0.293179 0.542782
vn 0.798612 -0.320966 0.509117
vn 0.396149 -0.333193 0.855598
vn 0.402643 -0.387959 0.829076
vn -0.005150 -0.360318 0.932815
vn -0.004099 -0.440890 0.897552
vn -0.404855 -0.372243 0.835181
vn -0.399879 -0.492240 0.773173
vn -0.782441 -0.363839 0.505379
vn -0.752888 -0.506827 0.419865
vn -0.946558 -0.321281 -0.028394
vn -0.892231 -0.442309 -0.091026
vn -0.789926 -0.257666 -0.556440
vn -0.749801 -0.315871 -0.581398
vn -0.408830 -0.178580 -0.894968
vn -0.400590 -0.162221 -0.901783
vn 0.412891 -0.215075 -0.885022
vn -0.005361 -0.211332 -0.977400
vn 0.808966 -0.233133 -0.539650
vn 0.973958 -0.226461 0.011028
vn 0.797779 -0.232192 0.556450
vn 0.411666 -0.249007 0.876657
vn -0.009479 -0.260440 0.965444
vn -0.429549 -0.250945 0.867476
vn -0.810315 -0.233063 0.537653
vn -0.973996 -0.226428 0.007864
vn -0.815955 -0.234137 -0.528580
vn -0.422851 -0.221536 -0.878703
vn 0.424389 -0.289494 -0.857956
vn -0.004675 -0.288865 -0.957358
vn 0.825693 -0.251023 -0.505192
vn 0.983717 -0.177492 0.028228
vn 0.822976 -0.146402 0.548887
vn 0.439003 -0.150906 0.885722
vn -0.011504 -0.149657 0.988671
vn -0.456474 -0.128840 0.880359
vn -0.833220 -0.113429 0.541182
vn -0.989781 -0.140467 0.024538
vn -0.835208 -0.210737 -0.507954
vn -0.434560 -0.264392 -0.860961
vn 0.853196 -0.217289 -0.474174
vn 0.450738 -0.336971 -0.826611
vn 0.995505 -0.091704 0.023656
vn 0.855200 -0.052392 0.515643
vn 0.472860 -0.056041 0.879354
vn -0.006289 -0.046248 0.998910
vn -0.473997 -0.027413 0.880100
vn -0.849322 -0.029222 0.527066
vn -0.996237 -0.083467 0.023360
vn -0.848122 -0.195329 -0.492478
vn -0.448126 -0.304553 -0.840494
vn 0.000827 -0.360117 -0.932907
vn 0.497918 -0.355958 -0.790804
vn 0.008122 -0.410936 -0.911628
vn 0.886986 -0.159111 -0.433520
vn 0.999951 -0.007169 0.006761
vn 0.887593 0.023592 0.460023
vn 0.507140 0.018581 0.861663
vn 0.000705 0.035966 0.999353
vn -0.480482 0.046068 0.875794
vn -0.858699 0.019552 0.512106
vn -0.998414 -0.054158 0.015352
vn -0.858221 -0.185024 -0.478772
vn -0.467405 -0.331570 -0.819508
vn -0.415207 0.214987 0.883959
vn 0.005833 0.211124 0.977442
vn 0.004630 0.133974 0.990974
vn -0.409095 0.124528 0.903955
vn -0.811267 0.233160 0.536174
vn -0.807491 0.170625 0.564664
vn -0.973827 0.226976 -0.011945
vn -0.973108 0.230087 0.011029
vn -0.799108 0.232476 -0.554420
vn -0.788677 0.292941 -0.540532
vn -0.412885 0.248890 -0.876116
vn -0.397810 0.332764 -0.854994
vn 0.009833 0.260198 -0.965505
vn 0.005796 0.359914 -0.932968
vn 0.430874 0.250980 -0.866809
vn 0.406988 0.371994 -0.834255
vn 0.811650 0.233528 -0.535433
vn 0.784089 0.363613 -0.502981
vn 0.973862 0.226984 -0.008465
vn 0.946589 0.321326 0.026820
vn 0.818086 0.234267 0.525219
vn 0.792757 0.258282 0.552112
vn 0.425348 0.221440 0.877521
vn 0.411905 0.179131 0.893447
vn -0.426710 0.288813 0.857033
vn 0.004917 0.288067 0.957598
vn -0.827234 0.250856 0.502747
vn -0.983532 0.178495 -0.028353
vn -0.823630 0.147319 -0.547660
vn -0.439457 0.151251 -0.885438
vn 0.011563 0.149860 -0.988640
vn 0.456813 0.129333 -0.880111
vn 0.834031 0.114491 -0.539707
vn 0.989619 0.141600 -0.024558
vn 0.836744 0.210654 0.505455
vn 0.436872 0.263659 0.860016
vn -0.498720 0.353539 0.791384
vn -0.009154 0.408441 0.912739
vn 0.002401 0.433361 0.901217
vn -0.447257 0.395313 0.802302
vn -0.886277 0.159212 0.434931
vn -0.856266 0.228943 0.463027
vn -0.999945 0.008398 -0.006320
vn -0.996842 0.076743 -0.020434
vn -0.886737 -0.023964 -0.461652
vn -0.862615 0.037216 -0.504490
vn -0.506147 -0.020769 -0.862197
vn -0.470498 0.040990 -0.881449
vn -0.002266 -0.038344 -0.999262
vn 0.007379 0.026804 -0.999613
vn 0.480390 -0.048100 -0.875735
vn 0.473274 0.013244 -0.880816
vn 0.859481 -0.021433 -0.510719
vn 0.850447 0.028758 -0.525275
vn 0.998509 0.052621 -0.014522
vn 0.994873 0.098278 -0.023849
vn 0.859062 0.182343 0.478293
vn 0.845000 0.227707 0.483864
vn 0.469728 0.328743 0.819319
vn 0.450535 0.365687 0.814427
vn -0.869990 -0.017510 0.492758
vn -0.219718 -0.964760 0.144781
vn -0.197696 -0.959464 0.200861
vn -0.995409 -0.092275 0.025417
vn -0.492343 0.029286 0.869908
vn -0.158117 -0.962239 0.221575
vn 0.022305 0.021874 0.999512
vn 0.039125 -0.960248 0.276392
vn 0.558571 -0.002896 0.829452
vn 0.170211 -0.967782 0.185543
vn 0.905704 0.006252 0.423865
vn 0.204413 -0.966809 0.153286
vn 0.999763 -0.019180 0.010303
vn 0.190670 -0.960837 0.201090
vn 0.911379 -0.165995 -0.376609
vn 0.217076 -0.933737 0.284628
vn 0.562650 -0.387059 -0.730486
vn 0.189348 -0.934241 0.302228
vn 0.031838 -0.468446 -0.882918
vn 0.037433 -0.974019 0.223353
vn -0.492871 -0.373867 -0.785685
vn -0.177085 -0.949568 0.258770
vn -0.877759 -0.218756 -0.426246
vn -0.235122 -0.927812 0.289625
vn 0.029862 0.021454 -0.999324
vn 0.005630 0.964711 -0.263249
vn -0.339369 0.899165 -0.276280
vn -0.376909 -0.123012 -0.918046
vn 0.447392 0.047622 -0.893069
vn 0.283424 0.952117 -0.114649
vn 0.835893 -0.040939 -0.547364
vn 0.417124 0.904714 0.086606
vn 0.984527 -0.171883 -0.034096
vn 0.438450 0.862573 0.252446
vn 0.829013 -0.293131 0.476248
vn 0.381912 0.833499 0.399279
vn 0.445165 -0.376631 0.812390
vn 0.249854 0.787304 0.563671
vn 0.028975 -0.448322 0.893402
vn 0.004365 0.727971 0.685594
vn -0.380560 -0.531955 0.756437
vn -0.306883 0.670925 0.675043
vn -0.725360 -0.573375 0.380912
vn -0.589336 0.641254 0.491402
vn -0.854679 -0.504141 -0.123961
vn -0.723146 0.662975 0.193711
vn -0.719410 -0.338303 -0.606630
vn -0.622048 0.776591 -0.099812
vn -0.441161 0.011379 0.897356
vn -0.014111 0.905776 0.423523
vn -0.124526 0.901759 0.413913
vn -0.824247 0.103306 0.556727
vn -0.027936 0.036577 0.998940
vn -0.015528 0.938492 0.344951
vn 0.368591 0.177169 0.912552
vn -0.091437 0.951302 0.294388
vn -0.217185 0.938132 0.269701
vn -0.971776 0.230287 0.051188
vn -0.156496 0.981906 0.106632
vn -0.814572 0.347970 -0.464100
vn -0.043627 0.996808 0.066857
vn -0.439290 0.419596 -0.794332
vn -0.014455 0.990203 0.138885
vn -0.028699 0.492404 -0.869893
vn -0.057772 0.978564 0.197674
vn 0.374100 0.575313 -0.727368
vn -0.106271 0.964445 0.241975
vn 0.706086 0.612918 -0.354647
vn -0.145745 0.950450 0.274598
vn 0.828288 0.543968 0.134306
vn -0.145174 0.947737 0.284110
vn 0.698533 0.386392 0.602290
vn 0.240109 -0.963930 -0.114831
vn 0.869227 -0.068959 -0.489580
vn 0.999956 0.006040 -0.007119
vn 0.338197 -0.921165 0.192557
vn 0.112528 -0.959651 -0.257697
vn 0.488154 -0.101478 -0.866838
vn 0.026936 -0.960527 -0.276878
vn -0.021675 -0.096349 -0.995112
vn -0.133462 -0.957781 -0.254644
vn -0.552069 -0.074902 -0.830427
vn -0.272023 -0.960680 -0.055665
vn -0.902408 -0.081015 -0.423198
vn -0.319645 -0.927517 0.193753
vn -0.998491 -0.054626 0.005645
vn -0.253335 -0.845473 0.470104
vn -0.906702 0.090100 0.412037
vn -0.114903 -0.729154 0.674635
vn -0.556008 0.310600 0.770962
vn 0.022680 -0.716854 0.696854
vn -0.030506 0.390739 0.919996
vn 0.096012 -0.731713 0.674817
vn 0.488245 0.297201 0.820541
vn 0.222977 -0.823738 0.521283
vn 0.875461 0.129554 0.465602
vn -0.419768 -0.045519 0.906490
vn 0.031549 -0.007423 0.999475
vn -0.826406 0.053156 0.560560
vn -0.981583 0.186656 0.040669
vn -0.818743 0.309158 -0.483819
vn -0.413820 0.383054 -0.825846
vn 0.031334 0.458386 -0.888201
vn 0.444138 0.545257 -0.710941
vn 0.752680 0.574862 -0.320947
vn 0.851669 0.508842 0.125457
vn 0.745707 0.367654 0.555654
vn 0.437933 0.156679 0.885249
vn -0.011627 0.057923 0.998253
vn 0.014219 -0.909842 0.414712
vn -0.204273 -0.922301 0.328076
vn -0.411906 0.039730 0.910360
vn 0.385781 0.121963 0.914494
vn 0.274708 -0.859692 0.430657
vn -0.408373 -0.904809 0.120630
vn -0.809416 0.093075 0.579813
vn -0.528328 -0.826742 -0.193309
vn -0.981028 0.192646 0.021727
vn -0.423006 -0.732347 -0.533604
vn -0.790187 0.296922 -0.536136
vn -0.222796 -0.619363 -0.752829
vn -0.395871 0.354349 -0.847185
vn 0.006785 -0.608623 -0.793430
vn -0.009589 0.392091 -0.919876
vn 0.253786 -0.592020 -0.764922
vn 0.376973 0.420033 -0.825508
vn 0.565478 -0.591279 -0.574999
vn 0.759128 0.425301 -0.492791
vn 0.756642 -0.636636 -0.148954
vn 0.932336 0.357498 0.054268
vn 0.583811 -0.772264 0.250547
vn 0.769218 0.241675 0.591521
vn -0.457676 0.346026 0.819023
vn -0.144555 0.977615 -0.152883
vn 0.014528 0.995319 -0.095543
vn -0.003060 0.356725 0.934204
vn -0.845684 0.274373 0.457754
vn -0.189565 0.961118 -0.200791
vn -0.983862 0.175146 -0.036592
vn -0.192263 0.968787 -0.156479
vn -0.842272 0.131997 -0.522642
vn -0.210480 0.968667 -0.131845
vn -0.473874 0.123231 -0.871927
vn -0.157380 0.967595 -0.197461
vn 0.005529 0.115569 -0.993284
vn 0.015138 0.962324 -0.271484
vn 0.475127 0.093651 -0.874919
vn 0.175044 0.959442 -0.220975
vn 0.845978 0.091643 -0.525283
vn 0.230287 0.960242 -0.157806
vn 0.990550 0.133322 -0.032180
vn 0.224131 0.962114 -0.155248
vn 0.850075 0.227662 0.474913
vn 0.211773 0.962414 -0.170036
vn 0.452165 0.311327 0.835836
vn 0.163060 0.978725 -0.124534
s 1
g leg_down_left1 leg_down_left
usemtl head_plateSG
f 62/1/1 50/2/2 49/3/3 61/4/4
f 63/5/5 51/6/6 50/2/2 62/1/1
f 64/7/7 52/8/8 51/6/6 63/5/5
f 65/9/9 53/10/10 52/11/8 64/12/7
f 66/13/11 54/14/12 53/10/10 65/9/9
f 67/15/13 55/16/14 54/14/12 66/13/11
f 68/17/15 56/18/16 55/16/14 67/15/13
f 69/19/17 57/20/18 56/18/16 68/17/15
f 70/21/19 58/22/20 57/20/18 69/19/17
f 71/23/21 59/24/22 58/22/20 70/21/19
f 72/25/23 60/26/24 59/24/22 71/23/21
f 61/4/4 49/3/3 60/26/24 72/25/23
f 74/27/25 62/1/1 61/4/4 73/28/26
f 75/29/27 63/5/5 62/1/1 74/27/25
f 76/30/28 64/7/7 63/5/5 75/29/27
f 77/31/29 65/9/9 64/12/7 76/32/28
f 78/33/30 66/13/11 65/9/9 77/31/29
f 79/34/31 67/15/13 66/13/11 78/33/30
f 80/35/32 68/17/15 67/15/13 79/34/31
f 81/36/33 69/19/17 68/17/15 80/35/32
f 82/37/34 70/21/19 69/19/17 81/36/33
f 83/38/35 71/23/21 70/21/19 82/37/34
f 84/39/36 72/25/23 71/23/21 83/38/35
f 73/28/26 61/4/4 72/25/23 84/39/36
f 86/40/37 74/27/25 73/28/26 85/41/38
f 87/42/39 75/29/27 74/27/25 86/40/37
f 88/43/40 76/30/28 75/29/27 87/42/39
f 89/44/41 77/31/29 76/32/28 88/45/40
f 90/46/42 78/33/30 77/31/29 89/44/41
f 91/47/43 79/34/31 78/33/30 90/46/42
f 92/48/44 80/35/32 79/34/31 91/47/43
f 93/49/45 81/36/33 80/35/32 92/48/44
f 94/50/46 82/37/34 81/36/33 93/49/45
f 95/51/47 83/38/35 82/37/34 94/50/46
f 96/52/48 84/39/36 83/38/35 95/51/47
f 85/41/38 73/28/26 84/39/36 96/52/48
f 98/53/49 87/42/39 86/40/37 97/54/50
f 99/55/51 88/43/40 87/42/39 98/53/49
f 100/56/52 89/44/41 88/45/40 99/57/51
f 101/58/53 90/46/42 89/44/41 100/56/52
f 102/59/54 91/47/43 90/46/42 101/58/53
f 103/60/55 92/48/44 91/47/43 102/59/54
f 104/61/56 93/49/45 92/48/44 103/60/55
f 105/62/57 94/50/46 93/49/45 104/61/56
f 106/63/58 95/51/47 94/50/46 105/62/57
f 107/64/59 96/52/48 95/51/47 106/63/58
f 108/65/60 85/41/38 96/52/48 107/64/59
f 97/54/50 86/40/37 85/41/38 108/65/60
f 44/66/61 97/54/50 108/65/60 45/67/62
f 43/68/63 98/53/49 97/54/50 44/66/61
f 42/69/64 99/55/51 98/53/49 43/68/63
f 41/70/65 100/56/52 99/57/51 42/71/64
f 40/72/66 101/58/53 100/56/52 41/70/65
f 39/73/67 102/59/54 101/58/53 40/72/66
f 37/74/68 103/60/55 102/59/54 39/73/67
f 38/75/69 104/61/56 103/60/55 37/74/68
f 48/76/70 105/62/57 104/61/56 38/75/69
f 47/77/71 106/63/58 105/62/57 48/76/70
f 46/78/72 107/64/59 106/63/58 47/77/71
f 45/67/62 108/65/60 107/64/59 46/78/72
f 14/79/73 13/80/74 1/81/75 2/82/76
f 15/83/77 14/79/73 2/82/76 3/84/78
f 16/85/79 15/83/77 3/84/78 4/86/80
f 17/87/81 16/88/79 4/89/80 5/90/82
f 18/91/83 17/87/81 5/90/82 6/92/84
f 19/93/85 18/91/83 6/92/84 7/94/86
f 20/95/87 19/93/85 7/94/86 8/96/88
f 21/97/89 20/95/87 8/96/88 9/98/90
f 22/99/91 21/97/89 9/98/90 10/100/92
f 23/101/93 22/99/91 10/100/92 11/102/94
f 24/103/95 23/101/93 11/102/94 12/104/96
f 13/80/74 24/103/95 12/104/96 1/81/75
f 26/105/97 25/106/98 13/80/74 14/79/73
f 27/107/99 26/105/97 14/79/73 15/83/77
f 28/108/100 27/107/99 15/83/77 16/85/79
f 29/109/101 28/110/100 16/88/79 17/87/81
f 30/111/102 29/109/101 17/87/81 18/91/83
f 31/112/103 30/111/102 18/91/83 19/93/85
f 32/113/104 31/112/103 19/93/85 20/95/87
f 33/114/105 32/113/104 20/95/87 21/97/89
f 34/115/106 33/114/105 21/97/89 22/99/91
f 35/116/107 34/115/106 22/99/91 23/101/93
f 36/117/108 35/116/107 23/101/93 24/103/95
f 25/106/98 36/117/108 24/103/95 13/80/74
f 128/118/109 129/119/110 134/120/111 133/121/112
f 127/122/113 128/118/109 133/121/112 135/123/114
f 126/124/115 127/122/113 135/123/114 136/125/116
f 125/126/117 126/127/115 136/128/116 137/129/118
f 124/130/119 125/126/117 137/129/118 138/131/120
f 123/132/121 124/130/119 138/131/120 139/133/122
f 122/134/123 123/132/121 139/133/122 140/135/124
f 121/136/125 122/134/123 140/135/124 141/137/126
f 132/138/127 121/136/125 141/137/126 142/139/128
f 131/140/129 132/138/127 142/139/128 143/141/130
f 130/142/131 131/140/129 143/141/130 144/143/132
f 129/119/110 130/142/131 144/143/132 134/120/111
f 145/144/133 146/145/134 168/146/135 167/147/136
f 146/145/134 145/144/133 147/148/137 148/149/138
f 148/149/138 147/148/137 149/150/139 150/151/140
f 150/151/140 149/150/139 151/152/141 152/153/142
f 152/153/142 151/152/141 153/154/143 154/155/144
f 154/155/144 153/154/143 155/156/145 156/157/146
f 156/158/146 155/159/145 157/160/147 158/161/148
f 158/161/148 157/160/147 159/162/149 160/163/150
f 160/163/150 159/162/149 161/164/151 162/165/152
f 162/165/152 161/164/151 163/166/153 164/167/154
f 164/167/154 163/166/153 165/168/155 166/169/156
f 166/169/156 165/168/155 167/147/136 168/146/135
f 169/170/157 170/171/158 192/172/159 191/173/160
f 170/171/158 169/170/157 171/174/161 172/175/162
f 172/175/162 171/174/161 173/176/163 174/177/164
f 174/177/164 173/176/163 175/178/165 176/179/166
f 176/180/166 175/181/165 177/182/167 178/183/168
f 178/183/168 177/182/167 179/184/169 180/185/170
f 180/185/170 179/184/169 181/186/171 182/187/172
f 182/187/172 181/186/171 183/188/173 184/189/174
f 184/189/174 183/188/173 185/190/175 186/191/176
f 186/191/176 185/190/175 187/192/177 188/193/178
f 188/193/178 187/192/177 189/194/179 190/195/180
f 190/195/180 189/194/179 191/173/160 192/172/159
f 193/196/181 194/197/182 198/198/183 197/199/184
f 194/197/182 193/196/181 196/200/185 195/201/186
f 195/201/186 196/200/185 215/202/187 216/203/188
f 197/199/184 198/198/183 200/204/189 199/205/190
f 199/206/190 200/207/189 202/208/191 201/209/192
f 201/209/192 202/208/191 204/210/193 203/211/194
f 203/211/194 204/210/193 206/212/195 205/213/196
f 205/213/196 206/212/195 208/214/197 207/215/198
f 207/215/198 208/214/197 210/216/199 209/217/200
f 209/217/200 210/216/199 212/218/201 211/219/202
f 211/219/202 212/218/201 214/220/203 213/221/204
f 213/221/204 214/220/203 216/203/188 215/202/187
f 217/222/205 218/223/206 239/224/207 240/225/208
f 218/223/206 217/222/205 220/226/209 219/227/210
f 219/227/210 220/226/209 222/228/211 221/229/212
f 221/229/212 222/228/211 224/230/213 223/231/214
f 223/231/214 224/230/213 226/232/215 225/233/216
f 225/233/216 226/232/215 228/234/217 227/235/218
f 227/236/218 228/237/217 230/238/219 229/239/220
f 229/239/220 230/238/219 232/240/221 231/241/222
f 231/241/222 232/240/221 234/242/223 233/243/224
f 233/243/224 234/242/223 236/244/225 235/245/226
f 235/245/226 236/244/225 238/246/227 237/247/228
f 237/247/228 238/246/227 240/225/208 239/224/207
f 145/248/133 38/75/69 37/74/68 147/249/137
f 147/249/137 37/74/68 39/73/67 149/250/139
f 149/250/139 39/73/67 40/72/66 151/251/141
f 151/251/141 40/72/66 41/70/65 153/252/143
f 153/252/143 41/70/65 42/71/64 155/253/145
f 155/254/145 42/69/64 43/68/63 157/255/147
f 157/255/147 43/68/63 44/66/61 159/256/149
f 159/256/149 44/66/61 45/67/62 161/257/151
f 161/257/151 45/67/62 46/78/72 163/258/153
f 163/258/153 46/78/72 47/77/71 165/259/155
f 165/259/155 47/77/71 48/76/70 167/260/136
f 167/260/136 48/76/70 38/75/69 145/248/133
f 50/2/2 171/261/161 169/262/157 49/3/3
f 51/6/6 173/263/163 171/261/161 50/2/2
f 52/8/8 175/264/165 173/263/163 51/6/6
f 53/10/10 177/265/167 175/266/165 52/11/8
f 54/14/12 179/267/169 177/265/167 53/10/10
f 55/16/14 181/268/171 179/267/169 54/14/12
f 56/18/16 183/269/173 181/268/171 55/16/14
f 57/20/18 185/270/175 183/269/173 56/18/16
f 58/22/20 187/271/177 185/270/175 57/20/18
f 59/24/22 189/272/179 187/271/177 58/22/20
f 60/26/24 191/273/160 189/272/179 59/24/22
f 49/3/3 169/262/157 191/273/160 60/26/24
f 218/223/206 219/227/210 122/134/123 121/136/125
f 219/227/210 221/229/212 123/132/121 122/134/123
f 221/229/212 223/231/214 124/130/119 123/132/121
f 223/231/214 225/233/216 125/126/117 124/130/119
f 225/233/216 227/235/218 126/127/115 125/126/117
f 227/236/218 229/239/220 127/122/113 126/124/115
f 229/239/220 231/241/222 128/118/109 127/122/113
f 231/241/222 233/243/224 129/119/110 128/118/109
f 233/243/224 235/245/226 130/142/131 129/119/110
f 235/245/226 237/247/228 131/140/129 130/142/131
f 237/247/228 239/224/207 132/138/127 131/140/129
f 239/224/207 218/223/206 121/136/125 132/138/127
f 109/274/229 110/275/230 196/200/185 193/196/181
f 111/276/231 109/274/229 193/196/181 197/199/184
f 112/277/232 111/276/231 197/199/184 199/205/190
f 113/278/233 112/279/232 199/206/190 201/209/192
f 114/280/234 113/278/233 201/209/192 203/211/194
f 115/281/235 114/280/234 203/211/194 205/213/196
f 116/282/236 115/281/235 205/213/196 207/215/198
f 117/283/237 116/282/236 207/215/198 209/217/200
f 118/284/238 117/283/237 209/217/200 211/219/202
f 119/285/239 118/284/238 211/219/202 213/221/204
f 120/286/240 119/285/239 213/221/204 215/202/187
f 110/275/230 120/286/240 215/202/187 196/200/185
f 170/171/158 172/175/162 194/197/182 195/201/186
f 172/175/162 174/177/164 198/198/183 194/197/182
f 174/177/164 176/179/166 200/204/189 198/198/183
f 176/180/166 178/183/168 202/208/191 200/207/189
f 178/183/168 180/185/170 204/210/193 202/208/191
f 180/185/170 182/187/172 206/212/195 204/210/193
f 182/187/172 184/189/174 208/214/197 206/212/195
f 184/189/174 186/191/176 210/216/199 208/214/197
f 186/191/176 188/193/178 212/218/201 210/216/199
f 188/193/178 190/195/180 214/220/203 212/218/201
f 190/195/180 192/172/159 216/203/188 214/220/203
f 192/172/159 170/171/158 195/201/186 216/203/188
f 148/149/138 220/226/209 217/222/205 146/145/134
f 150/151/140 222/228/211 220/226/209 148/149/138
f 152/153/142 224/230/213 222/228/211 150/151/140
f 154/155/144 226/232/215 224/230/213 152/153/142
f 156/157/146 228/234/217 226/232/215 154/155/144
f 158/161/148 230/238/219 228/237/217 156/158/146
f 160/163/150 232/240/221 230/238/219 158/161/148
f 162/165/152 234/242/223 232/240/221 160/163/150
f 164/167/154 236/244/225 234/242/223 162/165/152
f 166/169/156 238/246/227 236/244/225 164/167/154
f 168/146/135 240/225/208 238/246/227 166/169/156
f 146/145/134 217/222/205 240/225/208 168/146/135
f 241/287/241 242/288/242 244/289/243 243/290/244
f 242/288/242 241/287/241 263/291/245 264/292/246
f 243/290/244 244/289/243 246/293/247 245/294/248
f 245/294/248 246/293/247 248/295/249 247/296/250
f 247/297/250 248/298/249 250/299/251 249/300/252
f 249/300/252 250/299/251 252/301/253 251/302/254
f 251/302/254 252/301/253 254/303/255 253/304/256
f 253/304/256 254/303/255 256/305/257 255/306/258
f 255/306/258 256/305/257 258/307/259 257/308/260
f 257/308/260 258/307/259 260/309/261 259/310/262
f 259/310/262 260/309/261 262/311/263 261/312/264
f 261/312/264 262/311/263 264/292/246 263/291/245
f 265/313/265 266/314/266 288/315/267 287/316/268
f 266/314/266 265/313/265 267/317/269 268/318/270
f 268/318/270 267/317/269 269/319/271 270/320/272
f 270/321/272 269/322/271 271/323/273 272/324/274
f 272/324/274 271/323/273 273/325/275 274/326/276
f 274/326/276 273/325/275 275/327/277 276/328/278
f 276/328/278 275/327/277 277/329/279 278/330/280
f 278/330/280 277/329/279 279/331/281 280/332/282
f 280/332/282 279/331/281 281/333/283 282/334/284
f 282/334/284 281/333/283 283/335/285 284/336/286
f 284/336/286 283/335/285 285/337/287 286/338/288
f 286/338/288 285/337/287 287/316/268 288/315/267
f 2/82/76 1/81/75 241/287/241 243/290/244
f 3/84/78 2/82/76 243/290/244 245/294/248
f 4/86/80 3/84/78 245/294/248 247/296/250
f 5/90/82 4/89/80 247/297/250 249/300/252
f 6/92/84 5/90/82 249/300/252 251/302/254
f 7/94/86 6/92/84 251/302/254 253/304/256
f 8/96/88 7/94/86 253/304/256 255/306/258
f 9/98/90 8/96/88 255/306/258 257/308/260
f 10/100/92 9/98/90 257/308/260 259/310/262
f 11/102/94 10/100/92 259/310/262 261/312/264
f 12/104/96 11/102/94 261/312/264 263/291/245
f 1/81/75 12/104/96 263/291/245 241/287/241
f 267/317/269 265/313/265 26/105/97 27/107/99
f 269/319/271 267/317/269 27/107/99 28/108/100
f 271/323/273 269/322/271 28/110/100 29/109/101
f 273/325/275 271/323/273 29/109/101 30/111/102
f 275/327/277 273/325/275 30/111/102 31/112/103
f 277/329/279 275/327/277 31/112/103 32/113/104
f 279/331/281 277/329/279 32/113/104 33/114/105
f 281/333/283 279/331/281 33/114/105 34/115/106
f 283/335/285 281/333/283 34/115/106 35/116/107
f 285/337/287 283/335/285 35/116/107 36/117/108
f 287/316/268 285/337/287 36/117/108 25/106/98
f 265/313/265 287/316/268 25/106/98 26/105/97
f 242/288/242 110/275/230 109/274/229 244/289/243
f 244/289/243 109/274/229 111/276/231 246/293/247
f 246/293/247 111/276/231 112/277/232 248/295/249
f 248/298/249 112/279/232 113/278/233 250/299/251
f 250/299/251 113/278/233 114/280/234 252/301/253
f 252/301/253 114/280/234 115/281/235 254/303/255
f 254/303/255 115/281/235 116/282/236 256/305/257
f 256/305/257 116/282/236 117/283/237 258/307/259
f 258/307/259 117/283/237 118/284/238 260/309/261
f 260/309/261 118/284/238 119/285/239 262/311/263
f 262/311/263 119/285/239 120/286/240 264/292/246
f 264/292/246 120/286/240 110/275/230 242/288/242
f 266/314/266 133/121/112 134/120/111 288/315/267
f 268/318/270 135/123/114 133/121/112 266/314/266
f 270/320/272 136/125/116 135/123/114 268/318/270
f 272/324/274 137/129/118 136/128/116 270/321/272
f 274/326/276 138/131/120 137/129/118 272/324/274
f 276/328/278 139/133/122 138/131/120 274/326/276
f 278/330/280 140/135/124 139/133/122 276/328/278
f 280/332/282 141/137/126 140/135/124 278/330/280
f 282/334/284 142/139/128 141/137/126 280/332/282
f 284/336/286 143/141/130 142/139/128 282/334/284
f 286/338/288 144/143/132 143/141/130 284/336/286
f 288/315/267 134/120/111 144/143/132 286/338/288
g default
v 0.005718 -0.057748 -0.020889
v 0.003170 -0.056471 -0.024622
v -0.000686 -0.055433 -0.027094
v -0.005263 -0.054791 -0.027929
v -0.009865 -0.054644 -0.027000
v -0.013790 -0.055014 -0.024447
v -0.016441 -0.055845 -0.020661
v -0.017415 -0.057009 -0.016216
v -0.016563 -0.058331 -0.011790
v -0.014015 -0.059608 -0.008057
v -0.010159 -0.060647 -0.005585
v -0.005582 -0.061288 -0.004750
v -0.000981 -0.061435 -0.005679
v 0.002945 -0.061065 -0.008232
v 0.005596 -0.060235 -0.012019
v 0.006570 -0.059070 -0.016464
v 0.016730 -0.054101 -0.024316
v 0.011732 -0.051596 -0.031638
v 0.004168 -0.049558 -0.036488
v -0.004811 -0.048300 -0.038125
v -0.013837 -0.048011 -0.036302
v -0.021536 -0.048737 -0.031295
v -0.026737 -0.050366 -0.023867
v -0.028648 -0.052651 -0.015149
v -0.026977 -0.055243 -0.006467
v -0.021979 -0.057749 0.000855
v -0.014415 -0.059786 0.005705
v -0.005437 -0.061044 0.007342
v 0.003590 -0.061333 0.005519
v 0.011289 -0.060607 0.000512
v 0.016490 -0.058978 -0.006916
v 0.018401 -0.056693 -0.015634
v 0.027088 -0.048374 -0.026808
v 0.019833 -0.044737 -0.037439
v 0.008851 -0.041780 -0.044479
v -0.004183 -0.039953 -0.046857
v -0.017287 -0.039534 -0.044209
v -0.028465 -0.040587 -0.036941
v -0.036016 -0.042952 -0.026157
v -0.038790 -0.046269 -0.013500
v -0.036364 -0.050033 -0.000896
v -0.029108 -0.053670 0.009735
v -0.018127 -0.056628 0.016775
v -0.005092 -0.058455 0.019152
v 0.008012 -0.058874 0.016506
v 0.019190 -0.057820 0.009236
v 0.026740 -0.055455 -0.001547
v 0.029514 -0.052138 -0.014204
v 0.036396 -0.040789 -0.028270
v 0.027161 -0.036160 -0.041801
v 0.013184 -0.032395 -0.050761
v -0.003406 -0.030070 -0.053787
v -0.020084 -0.029537 -0.050417
v -0.034311 -0.030878 -0.041166
v -0.043921 -0.033888 -0.027441
v -0.047451 -0.038110 -0.011332
v -0.044364 -0.042900 0.004709
v -0.035129 -0.047529 0.018240
v -0.021153 -0.051293 0.027201
v -0.004562 -0.053618 0.030227
v 0.012116 -0.054152 0.026857
v 0.026343 -0.052811 0.017606
v 0.035953 -0.049801 0.003880
v 0.039483 -0.045579 -0.012229
v 0.044294 -0.031636 -0.028645
v 0.033435 -0.026192 -0.044556
v 0.017000 -0.021766 -0.055093
v -0.002508 -0.019032 -0.058650
v -0.022119 -0.018405 -0.054689
v -0.038848 -0.019982 -0.043810
v -0.050149 -0.023521 -0.027671
v -0.054299 -0.028485 -0.008728
v -0.050669 -0.034118 0.010134
v -0.039810 -0.039562 0.026045
v -0.023375 -0.043988 0.036581
v -0.003868 -0.046722 0.040139
v 0.015744 -0.047349 0.036178
v 0.032473 -0.045772 0.025299
v 0.043773 -0.042232 0.009159
v 0.047924 -0.037269 -0.009783
v 0.050480 -0.021267 -0.027920
v 0.038414 -0.015218 -0.045599
v 0.020153 -0.010300 -0.057306
v -0.001523 -0.007262 -0.061260
v -0.023314 -0.006566 -0.056858
v -0.041903 -0.008318 -0.044770
v -0.054459 -0.012251 -0.026838
v -0.059071 -0.017766 -0.005789
v -0.055037 -0.024025 0.015169
v -0.042971 -0.030074 0.032848
v -0.024710 -0.034991 0.044555
v -0.003034 -0.038030 0.048509
v 0.018757 -0.038726 0.044106
v 0.037345 -0.036974 0.032019
v 0.049901 -0.033042 0.014087
v 0.054514 -0.027526 -0.006961
v 0.054715 -0.010081 -0.026122
v 0.041906 -0.003660 -0.044889
v 0.022521 0.001561 -0.057318
v -0.000490 0.004787 -0.061515
v -0.023624 0.005526 -0.056842
v -0.043357 0.003666 -0.044010
v -0.056687 -0.000509 -0.024972
v -0.061583 -0.006365 -0.002628
v -0.057301 -0.013009 0.019621
v -0.044492 -0.019430 0.038389
v -0.025106 -0.024651 0.050818
v -0.002095 -0.027876 0.055015
v 0.021038 -0.028616 0.050341
v 0.040772 -0.026756 0.037509
v 0.054101 -0.022580 0.018472
v 0.058998 -0.016725 -0.003872
v 0.056838 0.001493 -0.023320
v 0.043778 0.008040 -0.042455
v 0.024012 0.013363 -0.055127
v 0.000551 0.016651 -0.059407
v -0.023036 0.017405 -0.054642
v -0.043156 0.015509 -0.041558
v -0.056747 0.011252 -0.022148
v -0.061739 0.005282 0.000634
v -0.057373 -0.001493 0.023320
v -0.044313 -0.008040 0.042455
v -0.024547 -0.013363 0.055127
v -0.001085 -0.016651 0.059407
v 0.022501 -0.017405 0.054642
v 0.042622 -0.015509 0.041558
v 0.056212 -0.011252 0.022148
v 0.061204 -0.005282 -0.000634
v 0.056766 0.013009 -0.019622
v 0.043957 0.019430 -0.038389
v 0.024571 0.024651 -0.050818
v 0.001560 0.027876 -0.055015
v -0.021573 0.028616 -0.050342
v -0.041306 0.026756 -0.037509
v -0.054636 0.022580 -0.018472
v -0.059532 0.016725 0.003872
v -0.055250 0.010081 0.026121
v -0.042441 0.003660 0.044889
v -0.023055 -0.001561 0.057318
v -0.000044 -0.004787 0.061515
v 0.023089 -0.005526 0.056841
v 0.042823 -0.003666 0.044009
v 0.056153 0.000509 0.024972
v 0.061049 0.006365 0.002628
v 0.054503 0.024025 -0.015170
v 0.042437 0.030074 -0.032848
v 0.024176 0.034992 -0.044556
v 0.002500 0.038030 -0.048509
v -0.019291 0.038727 -0.044107
v -0.037880 0.036974 -0.032019
v -0.050436 0.033042 -0.014087
v -0.055048 0.027526 0.006961
v -0.051014 0.021267 0.027920
v -0.038948 0.015218 0.045599
v -0.020687 0.010301 0.057305
v 0.000989 0.007262 0.061260
v 0.022780 0.006566 0.056857
v 0.041368 0.008318 0.044770
v 0.053925 0.012251 0.026837
v 0.058537 0.017766 0.005789
v 0.050135 0.034118 -0.010134
v 0.039275 0.039562 -0.026045
v 0.022841 0.043988 -0.036581
v 0.003333 0.046722 -0.040139
v -0.016279 0.047349 -0.036178
v -0.033008 0.045772 -0.025299
v -0.044308 0.042232 -0.009160
v -0.048459 0.037269 0.009783
v -0.044828 0.031636 0.028645
v -0.033969 0.026192 0.044555
v -0.017535 0.021766 0.055092
v 0.001973 0.019032 0.058650
v 0.021584 0.018405 0.054689
v 0.038314 0.019982 0.043810
v 0.049614 0.023521 0.027671
v 0.053765 0.028485 0.008728
v 0.043829 0.042900 -0.004710
v 0.034594 0.047529 -0.018240
v 0.020618 0.051293 -0.027201
v 0.004028 0.053619 -0.030227
v -0.012650 0.054152 -0.026857
v -0.026877 0.052811 -0.017606
v -0.036487 0.049801 -0.003881
v -0.040017 0.045579 0.012228
v -0.036930 0.040789 0.028270
v -0.027695 0.036160 0.041800
v -0.013719 0.032395 0.050761
v 0.002871 0.030070 0.053787
v 0.019549 0.029537 0.050417
v 0.033777 0.030878 0.041166
v 0.043387 0.033888 0.027441
v 0.046917 0.038110 0.011332
v 0.035829 0.050033 0.000896
v 0.028574 0.053670 -0.009735
v 0.017592 0.056628 -0.016775
v 0.004558 0.058455 -0.019153
v -0.008546 0.058874 -0.016506
v -0.019724 0.057820 -0.009237
v -0.027275 0.055455 0.001547
v -0.030049 0.052138 0.014204
v -0.027623 0.048375 0.026808
v -0.020367 0.044737 0.037438
v -0.009386 0.041780 0.044479
v 0.003649 0.039953 0.046856
v 0.016753 0.039534 0.044209
v 0.027931 0.040587 0.036940
v 0.035482 0.042952 0.026156
v 0.038255 0.046269 0.013499
v 0.026442 0.055244 0.006467
v 0.021444 0.057749 -0.000856
v 0.013881 0.059786 -0.005705
v 0.004902 0.061044 -0.007343
v -0.004124 0.061333 -0.005519
v -0.011824 0.060607 -0.000512
v -0.017025 0.058978 0.006916
v -0.018935 0.056694 0.015634
v -0.017264 0.054101 0.024315
v -0.012266 0.051596 0.031638
v -0.004702 0.049559 0.036487
v 0.004276 0.048300 0.038125
v 0.013302 0.048012 0.036302
v 0.021002 0.048737 0.031295
v 0.026203 0.050366 0.023867
v 0.028113 0.052651 0.015148
v 0.016029 0.058331 0.011790
v 0.013481 0.059608 0.008057
v 0.009625 0.060647 0.005585
v 0.005048 0.061288 0.004750
v 0.000446 0.061435 0.005679
v -0.003479 0.061065 0.008232
v -0.006130 0.060235 0.012018
v -0.007104 0.059070 0.016463
v -0.006253 0.057749 0.020889
v -0.003705 0.056471 0.024622
v 0.000151 0.055433 0.027094
v 0.004729 0.054791 0.027929
v 0.009330 0.054644 0.026999
v 0.013255 0.055014 0.024447
v 0.015907 0.055845 0.020660
v 0.016881 0.057009 0.016216
v -0.005524 -0.059177 -0.016660
v 0.004989 0.059177 0.016659
vt 0.102871 0.516716
vt 0.103101 0.518365
vt 0.100468 0.519981
vt 0.100195 0.517451
vt 0.103490 0.519917
vt 0.100949 0.522434
vt 0.104050 0.521308
vt 0.101673 0.524748
vt 0.104795 0.522452
vt 0.102693 0.526837
vt 0.105726 0.523237
vt 0.104082 0.528572
vt 0.106816 0.523518
vt 0.105926 0.529750
vt 0.107977 0.523127
vt 0.108299 0.530040
vt 0.107964 0.506984
vt 0.106832 0.506644
vt 0.106305 0.500764
vt 0.108607 0.500737
vt 0.105746 0.506925
vt 0.104409 0.501721
vt 0.104805 0.507686
vt 0.102935 0.503285
vt 0.104047 0.508801
vt 0.101833 0.505245
vt 0.103477 0.510166
vt 0.101046 0.507465
vt 0.103086 0.511699
vt 0.100521 0.509853
vt 0.102862 0.513336
vt 0.100218 0.512345
vt 0.102791 0.515024
vt 0.100113 0.514892
vt 0.097829 0.521022
vt 0.097574 0.517887
vt 0.098291 0.524112
vt 0.099001 0.527117
vt 0.100033 0.529983
vt 0.101506 0.532622
vt 0.103610 0.534889
vt 0.106642 0.536505
vt 0.104603 0.495754
vt 0.107789 0.494790
vt 0.102247 0.497599
vt 0.100540 0.499960
vt 0.099325 0.502638
vt 0.098485 0.505516
vt 0.097935 0.508523
vt 0.097620 0.511609
vt 0.097505 0.514740
vt 0.095158 0.521733
vt 0.094947 0.518162
vt 0.095547 0.525289
vt 0.096151 0.528813
vt 0.097043 0.532284
vt 0.098350 0.535680
vt 0.100300 0.538961
vt 0.103323 0.542047
vt 0.101966 0.491533
vt 0.105563 0.489343
vt 0.099495 0.494295
vt 0.097788 0.497376
vt 0.096611 0.500647
vt 0.095816 0.504041
vt 0.095302 0.507513
vt 0.095009 0.511037
vt 0.094897 0.514592
vt 0.092453 0.522207
vt 0.092301 0.518324
vt 0.092738 0.526098
vt 0.093184 0.529998
vt 0.093845 0.533918
vt 0.094827 0.537890
vt 0.096333 0.541988
vt 0.098787 0.546366
vt 0.098605 0.488116
vt 0.102111 0.484661
vt 0.096314 0.491714
vt 0.094781 0.495396
vt 0.093748 0.499139
vt 0.093061 0.502925
vt 0.092623 0.506744
vt 0.092373 0.510588
vt 0.092272 0.514450
vt 0.089719 0.522488
vt 0.089633 0.518394
vt 0.089884 0.526603
vt 0.090141 0.530755
vt 0.090519 0.534976
vt 0.091081 0.539339
vt 0.091958 0.544003
vt 0.093449 0.549316
vt 0.094698 0.485533
vt 0.097662 0.480964
vt 0.092821 0.489809
vt 0.091592 0.493954
vt 0.090777 0.498044
vt 0.090243 0.502113
vt 0.089905 0.506177
vt 0.089711 0.510243
vt 0.089627 0.514314
vt 0.086964 0.522596
vt 0.086949 0.518382
vt 0.087001 0.526836
vt 0.087054 0.531126
vt 0.087123 0.535510
vt 0.087217 0.540080
vt 0.087369 0.545040
vt 0.087677 0.550844
vt 0.090401 0.483812
vt 0.092466 0.478420
vt 0.089111 0.488561
vt 0.088277 0.493016
vt 0.087732 0.497330
vt 0.087380 0.501576
vt 0.087159 0.505790
vt 0.087031 0.509988
vt 0.086967 0.514183
vt 0.084199 0.522540
vt 0.084257 0.518292
vt 0.084105 0.526812
vt 0.083952 0.531132
vt 0.083707 0.535545
vt 0.083324 0.540144
vt 0.082731 0.545128
vt 0.081802 0.550952
vt 0.085862 0.482983
vt 0.086789 0.477159
vt 0.085270 0.487967
vt 0.084888 0.492565
vt 0.084643 0.496978
vt 0.084491 0.501298
vt 0.084397 0.505570
vt 0.084340 0.509818
vt 0.084299 0.514055
vt 0.081437 0.522320
vt 0.081566 0.518122
vt 0.081217 0.526534
vt 0.080864 0.530780
vt 0.080318 0.535095
vt 0.079482 0.539549
vt 0.078191 0.544298
vt 0.076125 0.549690
vt 0.081222 0.483072
vt 0.080912 0.477268
vt 0.081376 0.488031
vt 0.081471 0.492601
vt 0.081541 0.496985
vt 0.081595 0.501274
vt 0.081633 0.505514
vt 0.081648 0.509727
vt 0.081630 0.513927
vt 0.078691 0.521933
vt 0.078885 0.517867
vt 0.078353 0.525997
vt 0.077819 0.530066
vt 0.077004 0.534156
vt 0.075773 0.538301
vt 0.073895 0.542577
vt 0.070930 0.547146
vt 0.076633 0.484110
vt 0.075140 0.478797
vt 0.077512 0.488773
vt 0.078075 0.493135
vt 0.078454 0.497356
vt 0.078712 0.501508
vt 0.078878 0.505622
vt 0.078964 0.509716
vt 0.078970 0.513796
vt 0.075974 0.521366
vt 0.076224 0.517522
vt 0.075535 0.525185
vt 0.074848 0.528972
vt 0.073815 0.532714
vt 0.072281 0.536396
vt 0.069989 0.539994
vt 0.066482 0.543448
vt 0.072258 0.486126
vt 0.069803 0.481749
vt 0.073766 0.490223
vt 0.074749 0.494194
vt 0.075411 0.498114
vt 0.075857 0.502013
vt 0.076143 0.505903
vt 0.076296 0.509786
vt 0.076325 0.513661
vt 0.073295 0.520597
vt 0.073588 0.517074
vt 0.072781 0.524070
vt 0.071985 0.527463
vt 0.070808 0.530734
vt 0.069100 0.533815
vt 0.066628 0.536577
vt 0.063031 0.538766
vt 0.068292 0.489154
vt 0.065268 0.486069
vt 0.070244 0.492434
vt 0.071552 0.495828
vt 0.072444 0.499299
vt 0.073049 0.502823
vt 0.073438 0.506378
vt 0.073650 0.509949
vt 0.073700 0.513519
vt 0.070662 0.519588
vt 0.070977 0.516501
vt 0.070112 0.522594
vt 0.069271 0.525472
vt 0.068056 0.528150
vt 0.066349 0.530512
vt 0.063993 0.532356
vt 0.060806 0.533320
vt 0.064983 0.493226
vt 0.061950 0.491611
vt 0.067087 0.495492
vt 0.068561 0.498130
vt 0.069594 0.500995
vt 0.070305 0.504000
vt 0.070767 0.507090
vt 0.071023 0.510224
vt 0.071092 0.513370
vt 0.068076 0.518258
vt 0.068379 0.515766
vt 0.067551 0.520646
vt 0.066763 0.522866
vt 0.065662 0.524826
vt 0.064187 0.526390
vt 0.062291 0.527347
vt 0.059990 0.527374
vt 0.062668 0.498366
vt 0.060295 0.498077
vt 0.064512 0.499542
vt 0.065902 0.501276
vt 0.066923 0.503365
vt 0.067647 0.505679
vt 0.068128 0.508131
vt 0.068401 0.510661
vt 0.068483 0.513220
vt 0.065510 0.516412
vt 0.065735 0.514775
vt 0.065120 0.517945
vt 0.064550 0.519311
vt 0.063792 0.520426
vt 0.062850 0.521187
vt 0.061765 0.521467
vt 0.060632 0.521128
vt 0.061779 0.504597
vt 0.060618 0.504989
vt 0.062870 0.504878
vt 0.063801 0.505662
vt 0.064546 0.506805
vt 0.065106 0.508196
vt 0.065496 0.509748
vt 0.065726 0.511396
vt 0.065805 0.513088
vt 0.105945 0.514967
vt 0.062652 0.513146
vn 0.149751 -0.922327 -0.356212
vn 0.096650 -0.895707 -0.434013
vn 0.217767 -0.819248 -0.530481
vn 0.305345 -0.863145 -0.402175
vn 0.016271 -0.874063 -0.485540
vn 0.085240 -0.783554 -0.615449
vn -0.079146 -0.860689 -0.502942
vn -0.072074 -0.761503 -0.644142
vn -0.175047 -0.857622 -0.483573
vn -0.230224 -0.756446 -0.612199
vn -0.256876 -0.865330 -0.430371
vn -0.365135 -0.769165 -0.524464
vn -0.312150 -0.882643 -0.351430
vn -0.456265 -0.797708 -0.394315
vn -0.332449 -0.906922 -0.258786
vn -0.489740 -0.837737 -0.241560
vn -0.314689 -0.934472 -0.166535
vn -0.460467 -0.883159 -0.089446
vn -0.261575 -0.961097 -0.088722
vn -0.372894 -0.927060 0.038859
vn -0.181202 -0.982743 -0.037188
vn -0.240359 -0.962754 0.123824
vn -0.085804 -0.996116 -0.019779
vn -0.083048 -0.984805 0.152521
vn 0.010125 -0.999182 -0.039162
vn 0.075108 -0.989859 0.120570
vn 0.091954 -0.991470 -0.092365
vn 0.210022 -0.977145 0.032840
vn 0.147213 -0.974160 -0.171290
vn 0.301148 -0.948600 -0.097309
vn 0.167519 -0.949877 -0.263952
vn 0.334625 -0.908567 -0.250064
vn 0.341278 -0.709214 -0.616884
vn 0.463133 -0.770301 -0.438343
vn 0.156868 -0.659543 -0.735116
vn -0.062026 -0.628861 -0.775040
vn -0.282089 -0.621829 -0.730585
vn -0.469808 -0.639524 -0.608514
vn -0.596609 -0.679246 -0.427413
vn -0.643184 -0.734950 -0.214858
vn -0.602448 -0.798152 -0.003205
vn -0.480600 -0.859235 0.175323
vn -0.296182 -0.908899 0.293562
vn -0.077289 -0.939580 0.333491
vn 0.142768 -0.946613 0.289036
vn 0.330490 -0.928925 0.166958
vn 0.457288 -0.889206 -0.014139
vn 0.503867 -0.833504 -0.226692
vn 0.454764 -0.571884 -0.682743
vn 0.607146 -0.648269 -0.459479
vn 0.224146 -0.509780 -0.830592
vn -0.049587 -0.471411 -0.880519
vn -0.324778 -0.462619 -0.824926
vn -0.559529 -0.484736 -0.672279
vn -0.718098 -0.534405 -0.445811
vn -0.776341 -0.604063 -0.180006
vn -0.725398 -0.683101 0.084676
vn -0.573024 -0.759487 0.307932
vn -0.342405 -0.821599 0.455779
vn -0.068669 -0.859967 0.505709
vn 0.206519 -0.868758 0.450121
vn 0.441276 -0.846631 0.297476
vn 0.599842 -0.796961 0.071005
vn 0.658085 -0.727307 -0.194804
vn 0.552371 -0.412919 -0.724144
vn 0.729907 -0.501918 -0.464020
vn 0.283668 -0.340560 -0.896410
vn -0.035269 -0.295860 -0.954580
vn -0.355899 -0.285609 -0.889811
vn -0.629416 -0.311381 -0.711953
vn -0.814166 -0.369255 -0.448090
vn -0.882029 -0.450413 -0.138392
vn -0.822676 -0.542500 0.169990
vn -0.645140 -0.631498 0.430121
vn -0.376440 -0.703857 0.602394
vn -0.057500 -0.748563 0.660565
vn 0.263134 -0.758810 0.595791
vn 0.536647 -0.733040 0.417927
vn 0.721393 -0.675172 0.154065
vn 0.789258 -0.594011 -0.155636
vn 0.629957 -0.238472 -0.739112
vn 0.826203 -0.336855 -0.451572
vn 0.332939 -0.158483 -0.929535
vn -0.019627 -0.109062 -0.993841
vn -0.374059 -0.097735 -0.922241
vn -0.676403 -0.126226 -0.725635
vn -0.880625 -0.190199 -0.433963
vn -0.955643 -0.279916 -0.091617
vn -0.890030 -0.381712 0.249284
vn -0.693777 -0.480090 0.536831
vn -0.396766 -0.560077 0.727249
vn -0.044200 -0.609496 0.791556
vn 0.310233 -0.620825 0.719953
vn 0.612571 -0.592338 0.523347
vn 0.816795 -0.528369 0.231673
vn 0.891814 -0.438655 -0.110677
vn 0.684474 -0.055129 -0.726950
vn 0.892244 -0.159285 -0.422526
vn 0.370017 0.029557 -0.928555
vn -0.003247 0.081878 -0.996637
vn -0.378491 0.093866 -0.920833
vn -0.698588 0.063704 -0.712682
vn -0.914801 -0.004020 -0.403885
vn -0.994224 -0.099002 -0.041439
vn -0.924760 -0.206774 0.319474
vn -0.716986 -0.310935 0.623899
vn -0.402533 -0.395633 0.825495
vn -0.029265 -0.447959 0.893575
vn 0.345972 -0.459946 0.817773
vn 0.666069 -0.429772 0.609630
vn 0.882286 -0.362040 0.300829
vn 0.961708 -0.267059 -0.061617
vn 0.713849 0.130301 -0.688071
vn 0.925512 0.024192 -0.377946
vn 0.393509 0.216573 -0.893447
vn 0.013254 0.269873 -0.962805
vn -0.369017 0.282089 -0.885580
vn -0.695104 0.251357 -0.673535
vn -0.915365 0.182359 -0.358959
vn -0.996277 0.085599 0.010277
vn -0.925511 -0.024192 0.377948
vn -0.713844 -0.130299 0.688077
vn -0.393510 -0.216571 0.893446
vn -0.013254 -0.269877 0.962804
vn 0.369018 -0.282086 0.885581
vn 0.695101 -0.251356 0.673540
vn 0.915365 -0.182364 0.358957
vn 0.996276 -0.085601 -0.010279
vn 0.716988 0.310933 -0.623899
vn 0.924760 0.206773 -0.319474
vn 0.402533 0.395622 -0.825500
vn 0.029268 0.447946 -0.893582
vn -0.345977 0.459935 -0.817778
vn -0.666073 0.429766 -0.609630
vn -0.882287 0.362037 -0.300831
vn -0.961708 0.267059 0.061616
vn -0.892244 0.159285 0.422527
vn -0.684469 0.055132 0.726955
vn -0.370018 -0.029546 0.928555
vn 0.003250 -0.081864 0.996638
vn 0.378495 -0.093861 0.920832
vn 0.698584 -0.063705 0.712687
vn 0.914802 0.004018 0.403883
vn 0.994224 0.099000 0.041435
vn 0.693780 0.480094 -0.536823
vn 0.890029 0.381716 -0.249282
vn 0.396768 0.560086 -0.727241
vn 0.044202 0.609506 -0.791548
vn -0.310232 0.620829 -0.719950
vn -0.612577 0.592333 -0.523346
vn -0.816796 0.528367 -0.231674
vn -0.891815 0.438655 0.110676
vn -0.826203 0.336854 0.451573
vn -0.629952 0.238467 0.739117
vn -0.332944 0.158477 0.929534
vn 0.019627 0.109055 0.993842
vn 0.374064 0.097725 0.922240
vn 0.676395 0.126222 0.725643
vn 0.880622 0.190205 0.433966
vn 0.955642 0.279919 0.091617
vn 0.645136 0.631503 -0.430120
vn 0.822673 0.542505 -0.169992
vn 0.376443 0.703867 -0.602380
vn 0.057503 0.748576 -0.660551
vn -0.263128 0.758819 -0.595782
vn -0.536643 0.733043 -0.417927
vn -0.721396 0.675168 -0.154066
vn -0.789260 0.594008 0.155637
vn -0.729904 0.501919 0.464023
vn -0.552369 0.412918 0.724146
vn -0.283680 0.340549 0.896410
vn 0.035266 0.295840 0.954586
vn 0.355903 0.285596 0.889813
vn 0.629415 0.311382 0.711954
vn 0.814162 0.369260 0.448093
vn 0.882027 0.450416 0.138395
vn 0.573025 0.759484 -0.307940
vn 0.725402 0.683097 -0.084678
vn 0.342410 0.821594 -0.455784
vn 0.068669 0.859965 -0.505712
vn -0.206518 0.868756 -0.450126
vn -0.441274 0.846632 -0.297475
vn -0.599841 0.796962 -0.071009
vn -0.658087 0.727306 0.194801
vn -0.607144 0.648264 0.459489
vn -0.454769 0.571880 0.682744
vn -0.224155 0.509784 0.830587
vn 0.049588 0.471420 0.880514
vn 0.324780 0.462621 0.824924
vn 0.559532 0.484735 0.672277
vn 0.718096 0.534407 0.445812
vn 0.776341 0.604062 0.180007
vn 0.480599 0.859234 -0.175333
vn 0.602452 0.798149 0.003202
vn 0.296186 0.908898 -0.293560
vn 0.077291 0.939582 -0.333486
vn -0.142766 0.946613 -0.289036
vn -0.330490 0.928924 -0.166965
vn -0.457287 0.889207 0.014135
vn -0.503865 0.833504 0.226696
vn -0.463130 0.770298 0.438350
vn -0.341281 0.709214 0.616881
vn -0.156866 0.659551 0.735109
vn 0.062029 0.628870 0.775032
vn 0.282084 0.621838 0.730579
vn 0.469812 0.639528 0.608508
vn 0.596612 0.679243 0.427414
vn 0.643190 0.734943 0.214861
vn 0.372886 0.927063 -0.038857
vn 0.460459 0.883163 0.089446
vn 0.240360 0.962753 -0.123829
vn 0.083048 0.984804 -0.152528
vn -0.075107 0.989860 -0.120571
vn -0.210021 0.977145 -0.032833
vn -0.301140 0.948602 0.097304
vn -0.334617 0.908570 0.250063
vn -0.305338 0.863146 0.402179
vn -0.217772 0.819251 0.530474
vn -0.085239 0.783556 0.615446
vn 0.072081 0.761500 0.644145
vn 0.230224 0.756451 0.612192
vn 0.365133 0.769164 0.524465
vn 0.456266 0.797705 0.394320
vn 0.489742 0.837736 0.241560
vn 0.261580 0.961095 0.088724
vn 0.314677 0.934477 0.166529
vn 0.181215 0.982740 0.037186
vn 0.085795 0.996116 0.019777
vn -0.010138 0.999181 0.039168
vn -0.091956 0.991470 0.092369
vn -0.147212 0.974162 0.171281
vn -0.167519 0.949880 0.263942
vn -0.149755 0.922326 0.356215
vn -0.096665 0.895707 0.434010
vn -0.016284 0.874062 0.485542
vn 0.079162 0.860683 0.502950
vn 0.175064 0.857622 0.483568
vn 0.256867 0.865333 0.430371
vn 0.312135 0.882645 0.351439
vn 0.332436 0.906926 0.258788
vn -0.085192 -0.959083 -0.270004
vn 0.085196 0.959083 0.270004
s 1
g leg_down_left knee_left pivot
usemtl head_plateSG
f 289/339/289 290/340/290 306/341/291 305/342/292
f 290/340/290 291/343/293 307/344/294 306/341/291
f 291/343/293 292/345/295 308/346/296 307/344/294
f 292/345/295 293/347/297 309/348/298 308/346/296
f 293/347/297 294/349/299 310/350/300 309/348/298
f 294/349/299 295/351/301 311/352/302 310/350/300
f 295/351/301 296/353/303 312/354/304 311/352/302
f 296/355/303 297/356/305 313/357/306 312/358/304
f 297/356/305 298/359/307 314/360/308 313/357/306
f 298/359/307 299/361/309 315/362/310 314/360/308
f 299/361/309 300/363/311 316/364/312 315/362/310
f 300/363/311 301/365/313 317/366/314 316/364/312
f 301/365/313 302/367/315 318/368/316 317/366/314
f 302/367/315 303/369/317 319/370/318 318/368/316
f 303/369/317 304/371/319 320/372/320 319/370/318
f 304/371/319 289/339/289 305/342/292 320/372/320
f 305/342/292 306/341/291 322/373/321 321/374/322
f 306/341/291 307/344/294 323/375/323 322/373/321
f 307/344/294 308/346/296 324/376/324 323/375/323
f 308/346/296 309/348/298 325/377/325 324/376/324
f 309/348/298 310/350/300 326/378/326 325/377/325
f 310/350/300 311/352/302 327/379/327 326/378/326
f 311/352/302 312/354/304 328/380/328 327/379/327
f 312/358/304 313/357/306 329/381/329 328/382/328
f 313/357/306 314/360/308 330/383/330 329/381/329
f 314/360/308 315/362/310 331/384/331 330/383/330
f 315/362/310 316/364/312 332/385/332 331/384/331
f 316/364/312 317/366/314 333/386/333 332/385/332
f 317/366/314 318/368/316 334/387/334 333/386/333
f 318/368/316 319/370/318 335/388/335 334/387/334
f 319/370/318 320/372/320 336/389/336 335/388/335
f 320/372/320 305/342/292 321/374/322 336/389/336
f 321/374/322 322/373/321 338/390/337 337/391/338
f 322/373/321 323/375/323 339/392/339 338/390/337
f 323/375/323 324/376/324 340/393/340 339/392/339
f 324/376/324 325/377/325 341/394/341 340/393/340
f 325/377/325 326/378/326 342/395/342 341/394/341
f 326/378/326 327/379/327 343/396/343 342/395/342
f 327/379/327 328/380/328 344/397/344 343/396/343
f 328/382/328 329/381/329 345/398/345 344/399/344
f 329/381/329 330/383/330 346/400/346 345/398/345
f 330/383/330 331/384/331 347/401/347 346/400/346
f 331/384/331 332/385/332 348/402/348 347/401/347
f 332/385/332 333/386/333 349/403/349 348/402/348
f 333/386/333 334/387/334 350/404/350 349/403/349
f 334/387/334 335/388/335 351/405/351 350/404/350
f 335/388/335 336/389/336 352/406/352 351/405/351
f 336/389/336 321/374/322 337/391/338 352/406/352
f 337/391/338 338/390/337 354/407/353 353/408/354
f 338/390/337 339/392/339 355/409/355 354/407/353
f 339/392/339 340/393/340 356/410/356 355/409/355
f 340/393/340 341/394/341 357/411/357 356/410/356
f 341/394/341 342/395/342 358/412/358 357/411/357
f 342/395/342 343/396/343 359/413/359 358/412/358
f 343/396/343 344/397/344 360/414/360 359/413/359
f 344/399/344 345/398/345 361/415/361 360/416/360
f 345/398/345 346/400/346 362/417/362 361/415/361
f 346/400/346 347/401/347 363/418/363 362/417/362
f 347/401/347 348/402/348 364/419/364 363/418/363
f 348/402/348 349/403/349 365/420/365 364/419/364
f 349/403/349 350/404/350 366/421/366 365/420/365
f 350/404/350 351/405/351 367/422/367 366/421/366
f 351/405/351 352/406/352 368/423/368 367/422/367
f 352/406/352 337/391/338 353/408/354 368/423/368
f 353/408/354 354/407/353 370/424/369 369/425/370
f 354/407/353 355/409/355 371/426/371 370/424/369
f 355/409/355 356/410/356 372/427/372 371/426/371
f 356/410/356 357/411/357 373/428/373 372/427/372
f 357/411/357 358/412/358 374/429/374 373/428/373
f 358/412/358 359/413/359 375/430/375 374/429/374
f 359/413/359 360/414/360 376/431/376 375/430/375
f 360/416/360 361/415/361 377/432/377 376/433/376
f 361/415/361 362/417/362 378/434/378 377/432/377
f 362/417/362 363/418/363 379/435/379 378/434/378
f 363/418/363 364/419/364 380/436/380 379/435/379
f 364/419/364 365/420/365 381/437/381 380/436/380
f 365/420/365 366/421/366 382/438/382 381/437/381
f 366/421/366 367/422/367 383/439/383 382/438/382
f 367/422/367 368/423/368 384/440/384 383/439/383
f 368/423/368 353/408/354 369/425/370 384/440/384
f 369/425/370 370/424/369 386/441/385 385/442/386
f 370/424/369 371/426/371 387/443/387 386/441/385
f 371/426/371 372/427/372 388/444/388 387/443/387
f 372/427/372 373/428/373 389/445/389 388/444/388
f 373/428/373 374/429/374 390/446/390 389/445/389
f 374/429/374 375/430/375 391/447/391 390/446/390
f 375/430/375 376/431/376 392/448/392 391/447/391
f 376/433/376 377/432/377 393/449/393 392/450/392
f 377/432/377 378/434/378 394/451/394 393/449/393
f 378/434/378 379/435/379 395/452/395 394/451/394
f 379/435/379 380/436/380 396/453/396 395/452/395
f 380/436/380 381/437/381 397/454/397 396/453/396
f 381/437/381 382/438/382 398/455/398 397/454/397
f 382/438/382 383/439/383 399/456/399 398/455/398
f 383/439/383 384/440/384 400/457/400 399/456/399
f 384/440/384 369/425/370 385/442/386 400/457/400
f 385/442/386 386/441/385 402/458/401 401/459/402
f 386/441/385 387/443/387 403/460/403 402/458/401
f 387/443/387 388/444/388 404/461/404 403/460/403
f 388/444/388 389/445/389 405/462/405 404/461/404
f 389/445/389 390/446/390 406/463/406 405/462/405
f 390/446/390 391/447/391 407/464/407 406/463/406
f 391/447/391 392/448/392 408/465/408 407/464/407
f 392/450/392 393/449/393 409/466/409 408/467/408
f 393/449/393 394/451/394 410/468/410 409/466/409
f 394/451/394 395/452/395 411/469/411 410/468/410
f 395/452/395 396/453/396 412/470/412 411/469/411
f 396/453/396 397/454/397 413/471/413 412/470/412
f 397/454/397 398/455/398 414/472/414 413/471/413
f 398/455/398 399/456/399 415/473/415 414/472/414
f 399/456/399 400/457/400 416/474/416 415/473/415
f 400/457/400 385/442/386 401/459/402 416/474/416
f 401/459/402 402/458/401 418/475/417 417/476/418
f 402/458/401 403/460/403 419/477/419 418/475/417
f 403/460/403 404/461/404 420/478/420 419/477/419
f 404/461/404 405/462/405 421/479/421 420/478/420
f 405/462/405 406/463/406 422/480/422 421/479/421
f 406/463/406 407/464/407 423/481/423 422/480/422
f 407/464/407 408/465/408 424/482/424 423/481/423
f 408/467/408 409/466/409 425/483/425 424/484/424
f 409/466/409 410/468/410 426/485/426 425/483/425
f 410/468/410 411/469/411 427/486/427 426/485/426
f 411/469/411 412/470/412 428/487/428 427/486/427
f 412/470/412 413/471/413 429/488/429 428/487/428
f 413/471/413 414/472/414 430/489/430 429/488/429
f 414/472/414 415/473/415 431/490/431 430/489/430
f 415/473/415 416/474/416 432/491/432 431/490/431
f 416/474/416 401/459/402 417/476/418 432/491/432
f 417/476/418 418/475/417 434/492/433 433/493/434
f 418/475/417 419/477/419 435/494/435 434/492/433
f 419/477/419 420/478/420 436/495/436 435/494/435
f 420/478/420 421/479/421 437/496/437 436/495/436
f 421/479/421 422/480/422 438/497/438 437/496/437
f 422/480/422 423/481/423 439/498/439 438/497/438
f 423/481/423 424/482/424 440/499/440 439/498/439
f 424/484/424 425/483/425 441/500/441 440/501/440
f 425/483/425 426/485/426 442/502/442 441/500/441
f 426/485/426 427/486/427 443/503/443 442/502/442
f 427/486/427 428/487/428 444/504/444 443/503/443
f 428/487/428 429/488/429 445/505/445 444/504/444
f 429/488/429 430/489/430 446/506/446 445/505/445
f 430/489/430 431/490/431 447/507/447 446/506/446
f 431/490/431 432/491/432 448/508/448 447/507/447
f 432/491/432 417/476/418 433/493/434 448/508/448
f 433/493/434 434/492/433 450/509/449 449/510/450
f 434/492/433 435/494/435 451/511/451 450/509/449
f 435/494/435 436/495/436 452/512/452 451/511/451
f 436/495/436 437/496/437 453/513/453 452/512/452
f 437/496/437 438/497/438 454/514/454 453/513/453
f 438/497/438 439/498/439 455/515/455 454/514/454
f 439/498/439 440/499/440 456/516/456 455/515/455
f 440/501/440 441/500/441 457/517/457 456/518/456
f 441/500/441 442/502/442 458/519/458 457/517/457
f 442/502/442 443/503/443 459/520/459 458/519/458
f 443/503/443 444/504/444 460/521/460 459/520/459
f 444/504/444 445/505/445 461/522/461 460/521/460
f 445/505/445 446/506/446 462/523/462 461/522/461
f 446/506/446 447/507/447 463/524/463 462/523/462
f 447/507/447 448/508/448 464/525/464 463/524/463
f 448/508/448 433/493/434 449/510/450 464/525/464
f 449/510/450 450/509/449 466/526/465 465/527/466
f 450/509/449 451/511/451 467/528/467 466/526/465
f 451/511/451 452/512/452 468/529/468 467/528/467
f 452/512/452 453/513/453 469/530/469 468/529/468
f 453/513/453 454/514/454 470/531/470 469/530/469
f 454/514/454 455/515/455 471/532/471 470/531/470
f 455/515/455 456/516/456 472/533/472 471/532/471
f 456/518/456 457/517/457 473/534/473 472/535/472
f 457/517/457 458/519/458 474/536/474 473/534/473
f 458/519/458 459/520/459 475/537/475 474/536/474
f 459/520/459 460/521/460 476/538/476 475/537/475
f 460/521/460 461/522/461 477/539/477 476/538/476
f 461/522/461 462/523/462 478/540/478 477/539/477
f 462/523/462 463/524/463 479/541/479 478/540/478
f 463/524/463 464/525/464 480/542/480 479/541/479
f 464/525/464 449/510/450 465/527/466 480/542/480
f 465/527/466 466/526/465 482/543/481 481/544/482
f 466/526/465 467/528/467 483/545/483 482/543/481
f 467/528/467 468/529/468 484/546/484 483/545/483
f 468/529/468 469/530/469 485/547/485 484/546/484
f 469/530/469 470/531/470 486/548/486 485/547/485
f 470/531/470 471/532/471 487/549/487 486/548/486
f 471/532/471 472/533/472 488/550/488 487/549/487
f 472/535/472 473/534/473 489/551/489 488/552/488
f 473/534/473 474/536/474 490/553/490 489/551/489
f 474/536/474 475/537/475 491/554/491 490/553/490
f 475/537/475 476/538/476 492/555/492 491/554/491
f 476/538/476 477/539/477 493/556/493 492/555/492
f 477/539/477 478/540/478 494/557/494 493/556/493
f 478/540/478 479/541/479 495/558/495 494/557/494
f 479/541/479 480/542/480 496/559/496 495/558/495
f 480/542/480 465/527/466 481/544/482 496/559/496
f 481/544/482 482/543/481 498/560/497 497/561/498
f 482/543/481 483/545/483 499/562/499 498/560/497
f 483/545/483 484/546/484 500/563/500 499/562/499
f 484/546/484 485/547/485 501/564/501 500/563/500
f 485/547/485 486/548/486 502/565/502 501/564/501
f 486/548/486 487/549/487 503/566/503 502/565/502
f 487/549/487 488/550/488 504/567/504 503/566/503
f 488/552/488 489/551/489 505/568/505 504/569/504
f 489/551/489 490/553/490 506/570/506 505/568/505
f 490/553/490 491/554/491 507/571/507 506/570/506
f 491/554/491 492/555/492 508/572/508 507/571/507
f 492/555/492 493/556/493 509/573/509 508/572/508
f 493/556/493 494/557/494 510/574/510 509/573/509
f 494/557/494 495/558/495 511/575/511 510/574/510
f 495/558/495 496/559/496 512/576/512 511/575/511
f 496/559/496 481/544/482 497/561/498 512/576/512
f 497/561/498 498/560/497 514/577/513 513/578/514
f 498/560/497 499/562/499 515/579/515 514/577/513
f 499/562/499 500/563/500 516/580/516 515/579/515
f 500/563/500 501/564/501 517/581/517 516/580/516
f 501/564/501 502/565/502 518/582/518 517/581/517
f 502/565/502 503/566/503 519/583/519 518/582/518
f 503/566/503 504/567/504 520/584/520 519/583/519
f 504/569/504 505/568/505 521/585/521 520/586/520
f 505/568/505 506/570/506 522/587/522 521/585/521
f 506/570/506 507/571/507 523/588/523 522/587/522
f 507/571/507 508/572/508 524/589/524 523/588/523
f 508/572/508 509/573/509 525/590/525 524/589/524
f 509/573/509 510/574/510 526/591/526 525/590/525
f 510/574/510 511/575/511 527/592/527 526/591/526
f 511/575/511 512/576/512 528/593/528 527/592/527
f 512/576/512 497/561/498 513/578/514 528/593/528
f 290/340/290 289/339/289 529/594/529
f 291/343/293 290/340/290 529/594/529
f 292/345/295 291/343/293 529/594/529
f 293/347/297 292/345/295 529/594/529
f 294/349/299 293/347/297 529/594/529
f 295/351/301 294/349/299 529/594/529
f 296/353/303 295/351/301 529/594/529
f 297/356/305 296/355/303 529/594/529
f 298/359/307 297/356/305 529/594/529
f 299/361/309 298/359/307 529/594/529
f 300/363/311 299/361/309 529/594/529
f 301/365/313 300/363/311 529/594/529
f 302/367/315 301/365/313 529/594/529
f 303/369/317 302/367/315 529/594/529
f 304/371/319 303/369/317 529/594/529
f 289/339/289 304/371/319 529/594/529
f 513/578/514 514/577/513 530/595/530
f 514/577/513 515/579/515 530/595/530
f 515/579/515 516/580/516 530/595/530
f 516/580/516 517/581/517 530/595/530
f 517/581/517 518/582/518 530/595/530
f 518/582/518 519/583/519 530/595/530
f 519/583/519 520/584/520 530/595/530
f 520/586/520 521/585/521 530/595/530
f 521/585/521 522/587/522 530/595/530
f 522/587/522 523/588/523 530/595/530
f 523/588/523 524/589/524 530/595/530
f 524/589/524 525/590/525 530/595/530
f 525/590/525 526/591/526 530/595/530
f 526/591/526 527/592/527 530/595/530
f 527/592/527 528/593/528 530/595/530
f 528/593/528 513/578/514 530/595/530
