# This file uses centimeters as units for non-parametric coordinates.

mtllib bot.mtl
g default
v -0.016599 -0.145393 0.043357
v 0.033016 -0.146300 0.033048
v 0.071224 -0.146880 0.004290
v 0.082559 -0.142693 -0.035695
v 0.071379 -0.135864 -0.075213
v 0.033163 -0.127496 -0.102214
v -0.016915 -0.123846 -0.111922
v -0.066790 -0.125682 -0.101293
v -0.103355 -0.132028 -0.073864
v -0.114048 -0.137971 -0.034912
v -0.102895 -0.142493 0.004259
v -0.066086 -0.144097 0.032646
v -0.018790 -0.193671 0.051687
v 0.038842 -0.196210 0.039769
v 0.084012 -0.201933 0.006222
v 0.097176 -0.202154 -0.040646
v 0.084236 -0.198441 -0.087569
v 0.038994 -0.190525 -0.121702
v -0.019046 -0.187395 -0.133538
v -0.076748 -0.189200 -0.120643
v -0.119186 -0.194974 -0.086403
v -0.131651 -0.197811 -0.040001
v -0.118790 -0.197906 0.006205
v -0.076191 -0.194458 0.039308
v -0.018027 -0.241816 0.064123
v 0.046275 -0.245923 0.050880
v 0.096170 -0.257862 0.014685
v 0.110855 -0.264101 -0.038262
v 0.096320 -0.264813 -0.092403
v 0.046216 -0.257959 -0.134524
v -0.018226 -0.255900 -0.148618
v -0.082316 -0.258052 -0.133445
v -0.129400 -0.263297 -0.091696
v -0.143584 -0.262039 -0.037884
v -0.129227 -0.256061 0.014760
v -0.082041 -0.245833 0.050842
v -0.081924 -0.382803 -0.132645
v -0.132895 -0.388279 -0.082702
v -0.011689 -0.382243 -0.150404
v 0.057335 -0.384814 -0.132942
v 0.101697 -0.388294 -0.082901
v 0.116692 -0.381335 -0.020133
v 0.102014 -0.365529 0.040026
v 0.057805 -0.343073 0.080042
v -0.011541 -0.333339 0.094999
v -0.082123 -0.341110 0.079893
v -0.133074 -0.365560 0.040158
v -0.148833 -0.381625 -0.019931
v -0.011182 -0.099412 0.033989
v 0.027832 -0.098013 0.025992
v 0.056602 -0.094447 0.005081
v 0.065177 -0.088082 -0.024720
v 0.056620 -0.080548 -0.054254
v 0.027788 -0.073017 -0.074400
v -0.011284 -0.070185 -0.082070
v -0.050332 -0.072940 -0.074344
v -0.079090 -0.080104 -0.053990
v -0.087553 -0.087491 -0.024640
v -0.079044 -0.093944 0.004920
v -0.050251 -0.097927 0.025937
v -0.016571 -0.146053 0.038289
v 0.030926 -0.146905 0.028424
v 0.067135 -0.147714 0.001341
v 0.077712 -0.143838 -0.035784
v 0.067344 -0.137369 -0.072462
v 0.031094 -0.129225 -0.097872
v -0.016876 -0.125704 -0.107152
v -0.064659 -0.127633 -0.097078
v -0.099400 -0.133946 -0.071257
v -0.109343 -0.139631 -0.035083
v -0.098932 -0.143813 0.001315
v -0.063966 -0.145002 0.028085
v -0.018766 -0.194735 0.046689
v 0.036724 -0.197292 0.035246
v 0.079905 -0.203105 0.003416
v 0.092309 -0.203303 -0.040649
v 0.080124 -0.199632 -0.084777
v 0.036843 -0.191828 -0.117253
v -0.018991 -0.188729 -0.128609
v -0.074494 -0.190522 -0.116251
v -0.115085 -0.196196 -0.083608
v -0.126811 -0.198996 -0.040029
v -0.114722 -0.199107 0.003354
v -0.074012 -0.195582 0.034824
v -0.018012 -0.243283 0.059228
v 0.044100 -0.247395 0.046496
v 0.092001 -0.259157 0.012029
v 0.105929 -0.265069 -0.038223
v 0.092081 -0.265572 -0.089650
v 0.043918 -0.258755 -0.130029
v -0.018177 -0.256660 -0.143587
v -0.079924 -0.258735 -0.128981
v -0.125161 -0.263867 -0.088899
v -0.138646 -0.262775 -0.037881
v -0.125062 -0.257134 0.012001
v -0.079814 -0.247178 0.046443
v 0.051562 -0.295860 0.061684
v 0.100202 -0.314620 0.025412
v 0.115054 -0.327391 -0.030053
v 0.100118 -0.332606 -0.087952
v 0.051405 -0.327120 -0.134980
v -0.015174 -0.326330 -0.150665
v -0.081859 -0.328902 -0.134125
v -0.130590 -0.333185 -0.087573
v -0.145553 -0.327595 -0.029861
v -0.130664 -0.315184 0.025655
v -0.082042 -0.297633 0.062459
v -0.015240 -0.290008 0.075719
v 0.031182 -0.098013 0.033416
v -0.011211 -0.099094 0.042137
v 0.063107 -0.094001 0.009870
v 0.073007 -0.086633 -0.024565
v 0.063084 -0.078068 -0.058458
v 0.029323 -0.069852 -0.081119
v -0.012284 -0.066570 -0.089003
v -0.053597 -0.068748 -0.080514
v -0.085052 -0.075810 -0.057445
v -0.094621 -0.083917 -0.023844
v -0.084974 -0.091466 0.009878
v -0.053475 -0.096692 0.033321
v -0.140781 -0.388586 -0.087241
v -0.086402 -0.383242 -0.140560
v -0.011535 -0.382597 -0.159395
v 0.062095 -0.385010 -0.140701
v 0.109617 -0.388416 -0.087390
v 0.125674 -0.380803 -0.020145
v 0.109853 -0.363841 0.044338
v 0.062414 -0.339870 0.087212
v -0.011486 -0.329617 0.103309
v -0.086392 -0.338113 0.087356
v -0.140891 -0.364031 0.044570
v -0.157835 -0.381240 -0.019928
v 0.055714 -0.292790 0.069023
v -0.015224 -0.286642 0.084060
v 0.107739 -0.312635 0.029866
v 0.123861 -0.326443 -0.030085
v 0.107826 -0.332290 -0.092579
v 0.055836 -0.326833 -0.142755
v -0.015157 -0.326178 -0.159543
v -0.086248 -0.328878 -0.141955
v -0.138247 -0.333174 -0.092227
v -0.154330 -0.326979 -0.029845
v -0.138166 -0.313530 0.030226
v -0.086106 -0.294821 0.069965
v -0.134682 -0.441607 -0.076742
v -0.136477 -0.443591 -0.077492
v -0.081601 -0.435162 -0.128779
v -0.082523 -0.437181 -0.130285
v -0.007560 -0.436667 -0.147485
v -0.007309 -0.438672 -0.149302
v 0.063360 -0.440961 -0.127967
v 0.064659 -0.442939 -0.129481
v 0.100797 -0.442457 -0.076559
v 0.102461 -0.444428 -0.077266
v 0.114515 -0.433935 -0.009756
v 0.116345 -0.435797 -0.009356
v 0.100839 -0.414986 0.054422
v 0.102498 -0.416535 0.055868
v 0.063379 -0.387807 0.099289
v 0.064680 -0.388854 0.101419
v -0.007548 -0.373978 0.115166
v -0.007365 -0.374827 0.117695
v -0.081674 -0.382076 0.097936
v -0.082569 -0.383126 0.100225
v -0.134709 -0.414124 0.054302
v -0.136517 -0.415670 0.055784
v -0.151229 -0.433832 -0.009794
v -0.153319 -0.435668 -0.009419
v 0.000783 -0.050627 0.033469
v 0.001211 -0.048762 0.035363
v 0.027568 -0.047327 0.027533
v 0.028367 -0.045514 0.029332
v 0.046822 -0.039062 0.011654
v 0.048086 -0.037155 0.013027
v 0.052804 -0.031395 -0.010375
v 0.054275 -0.029284 -0.009835
v 0.046807 -0.025773 -0.032954
v 0.048049 -0.023470 -0.033258
v 0.027562 -0.024120 -0.050459
v 0.028362 -0.021684 -0.051205
v 0.000809 -0.023754 -0.056886
v 0.001196 -0.021217 -0.057696
v -0.025979 -0.024758 -0.050787
v -0.025998 -0.022152 -0.051443
v -0.045373 -0.026920 -0.033403
v -0.045823 -0.024310 -0.033571
v -0.051466 -0.032734 -0.010727
v -0.052087 -0.030272 -0.010107
v -0.045440 -0.040287 0.011486
v -0.045844 -0.038064 0.012866
v -0.026047 -0.048053 0.027516
v -0.026011 -0.046062 0.029305
v 0.030701 -0.047637 0.034826
v 0.029981 -0.045646 0.033088
v 0.001221 -0.048707 0.039534
v 0.000790 -0.050559 0.041517
v 0.052802 -0.038885 0.016305
v 0.051085 -0.037059 0.015362
v 0.059944 -0.030140 -0.010084
v 0.057892 -0.028633 -0.009724
v 0.052791 -0.023426 -0.037008
v 0.051127 -0.022250 -0.035339
v 0.030709 -0.020995 -0.057039
v 0.029987 -0.020053 -0.054588
v 0.000854 -0.019922 -0.063916
v 0.001220 -0.019218 -0.061317
v -0.028950 -0.020404 -0.056737
v -0.027526 -0.019888 -0.054508
v -0.050769 -0.022420 -0.036609
v -0.048586 -0.021975 -0.035209
v -0.057838 -0.028944 -0.009782
v -0.055350 -0.028302 -0.009611
v -0.050787 -0.037766 0.016439
v -0.048588 -0.036743 0.015423
v -0.028977 -0.046921 0.034839
v -0.027520 -0.045455 0.033104
v -0.140664 -0.443813 -0.079818
v -0.142306 -0.442049 -0.080977
v -0.085947 -0.435789 -0.136430
v -0.084996 -0.437535 -0.134637
v -0.007405 -0.437199 -0.156073
v -0.007375 -0.438979 -0.154023
v 0.068092 -0.441339 -0.135237
v 0.067197 -0.443143 -0.133372
v 0.108646 -0.442851 -0.080860
v 0.106990 -0.444607 -0.079751
v 0.123451 -0.433763 -0.009731
v 0.121582 -0.435608 -0.009382
v 0.108635 -0.413619 0.058585
v 0.106990 -0.415682 0.058242
v 0.068050 -0.384666 0.105923
v 0.067142 -0.387107 0.105191
v -0.007458 -0.370181 0.123125
v -0.007310 -0.372710 0.122206
v -0.085900 -0.379063 0.105062
v -0.084933 -0.381476 0.104220
v -0.142288 -0.412829 0.058408
v -0.140667 -0.414919 0.058016
v -0.159870 -0.433643 -0.009785
v -0.158030 -0.435521 -0.009422
v -0.011383 -0.100544 0.039222
v -0.011216 -0.099115 0.040533
v 0.030011 -0.099354 0.030727
v 0.030530 -0.097963 0.031992
v 0.060979 -0.095470 0.008009
v 0.061904 -0.094038 0.008990
v 0.070357 -0.088476 -0.024814
v 0.071460 -0.086912 -0.024481
v 0.060918 -0.080250 -0.057341
v 0.061825 -0.078537 -0.057658
v 0.029931 -0.072293 -0.079157
v 0.030435 -0.070503 -0.079768
v -0.011419 -0.069114 -0.087197
v -0.011283 -0.067268 -0.087838
v -0.052710 -0.071577 -0.078756
v -0.052924 -0.069685 -0.079246
v -0.083317 -0.078670 -0.056608
v -0.083825 -0.076784 -0.056761
v -0.092553 -0.086505 -0.024434
v -0.093189 -0.084720 -0.024034
v -0.083320 -0.093651 0.007910
v -0.083796 -0.091999 0.008845
v -0.052691 -0.098456 0.030608
v -0.052844 -0.096931 0.031829
v 0.053676 -0.292821 0.065488
v 0.054539 -0.293620 0.067109
v 0.104279 -0.312111 0.027633
v 0.105690 -0.313144 0.028662
v 0.119850 -0.325423 -0.030259
v 0.121435 -0.326648 -0.030073
v 0.104318 -0.330996 -0.090638
v 0.105666 -0.332313 -0.091303
v 0.053741 -0.325554 -0.139349
v 0.054557 -0.326841 -0.140583
v -0.015233 -0.324842 -0.155600
v -0.015172 -0.326145 -0.157047
v -0.084304 -0.327478 -0.138496
v -0.085003 -0.328814 -0.139772
v -0.134830 -0.331767 -0.090290
v -0.136121 -0.333126 -0.090966
v -0.150410 -0.325841 -0.030028
v -0.151946 -0.327108 -0.029836
v -0.134803 -0.312871 0.027978
v -0.136146 -0.313961 0.029016
v -0.084280 -0.294744 0.066328
v -0.084974 -0.295613 0.067938
v -0.015319 -0.286838 0.080017
v -0.015238 -0.287597 0.081827
vt 0.698966 0.553689
vt 0.693270 0.565072
vt 0.684561 0.561090
vt 0.687950 0.549395
vt 0.708987 0.558387
vt 0.700714 0.569523
vt 0.716425 0.564329
vt 0.706460 0.574668
vt 0.610501 0.568642
vt 0.620991 0.580124
vt 0.615142 0.585369
vt 0.603366 0.574848
vt 0.619963 0.563235
vt 0.628649 0.575381
vt 0.630148 0.557348
vt 0.637035 0.570171
vt 0.640144 0.551654
vt 0.645221 0.564809
vt 0.649253 0.546884
vt 0.652637 0.560125
vt 0.657849 0.544507
vt 0.659854 0.557635
vt 0.666742 0.543967
vt 0.667292 0.556828
vt 0.676903 0.545992
vt 0.675565 0.558232
vt 0.704747 0.541730
vt 0.691631 0.537115
vt 0.717157 0.546456
vt 0.726390 0.552938
vt 0.599596 0.556196
vt 0.591020 0.563343
vt 0.611039 0.549944
vt 0.622840 0.543597
vt 0.634613 0.537527
vt 0.645714 0.532535
vt 0.656004 0.530277
vt 0.666572 0.530165
vt 0.678551 0.533027
vt 0.710366 0.529623
vt 0.695443 0.524769
vt 0.724558 0.533903
vt 0.735734 0.540414
vt 0.588888 0.543091
vt 0.578845 0.551232
vt 0.602155 0.536014
vt 0.615433 0.529114
vt 0.628884 0.522648
vt 0.642124 0.517288
vt 0.654479 0.515250
vt 0.666988 0.515854
vt 0.680591 0.519844
vt 0.730831 0.521047
vt 0.715579 0.517659
vt 0.743981 0.527047
vt 0.578824 0.529684
vt 0.567486 0.538931
vt 0.593298 0.521994
vt 0.607941 0.514311
vt 0.623168 0.507357
vt 0.638576 0.501504
vt 0.653269 0.499843
vt 0.667911 0.501445
vt 0.683047 0.506865
vt 0.699317 0.512735
vt 0.720297 0.505752
vt 0.703071 0.501409
vt 0.735687 0.508927
vt 0.750167 0.515006
vt 0.570925 0.518414
vt 0.558346 0.528319
vt 0.585559 0.510347
vt 0.601769 0.502475
vt 0.618845 0.495220
vt 0.635953 0.488600
vt 0.652620 0.486721
vt 0.669085 0.488754
vt 0.685673 0.495551
vt 0.615566 0.408255
vt 0.629397 0.404521
vt 0.633138 0.416530
vt 0.621116 0.420353
vt 0.602247 0.411727
vt 0.610115 0.424244
vt 0.591873 0.417184
vt 0.601408 0.429343
vt 0.729730 0.411627
vt 0.740459 0.416148
vt 0.730325 0.430551
vt 0.721106 0.426540
vt 0.716542 0.408651
vt 0.710010 0.423640
vt 0.703174 0.405166
vt 0.698151 0.419783
vt 0.689978 0.401505
vt 0.686465 0.415970
vt 0.677727 0.398302
vt 0.675899 0.412630
vt 0.666589 0.397215
vt 0.666101 0.411175
vt 0.655389 0.397782
vt 0.656174 0.411207
vt 0.642998 0.400828
vt 0.645146 0.413390
vt 0.610267 0.396016
vt 0.625623 0.392408
vt 0.595253 0.398563
vt 0.583017 0.403716
vt 0.737811 0.395939
vt 0.750202 0.400750
vt 0.722691 0.393063
vt 0.707905 0.389743
vt 0.693313 0.386214
vt 0.679327 0.383127
vt 0.666605 0.382556
vt 0.653988 0.383914
vt 0.640515 0.388027
vt 0.602175 0.371446
vt 0.619005 0.368604
vt 0.621941 0.379878
vt 0.605583 0.383264
vt 0.586276 0.371939
vt 0.589478 0.384377
vt 0.570032 0.373970
vt 0.574599 0.388428
vt 0.748630 0.365893
vt 0.764860 0.369053
vt 0.759510 0.384066
vt 0.744833 0.379194
vt 0.732107 0.363668
vt 0.728250 0.376678
vt 0.715097 0.360500
vt 0.712229 0.373330
vt 0.698040 0.357212
vt 0.696314 0.369744
vt 0.681342 0.354031
vt 0.680703 0.366795
vt 0.665784 0.354188
vt 0.666270 0.366963
vt 0.650631 0.357108
vt 0.652108 0.369328
vt 0.635289 0.363497
vt 0.637688 0.374649
vt 0.681699 0.339151
vt 0.681597 0.339766
vt 0.665151 0.339838
vt 0.665109 0.339200
vt 0.699650 0.342249
vt 0.699537 0.342873
vt 0.718070 0.345529
vt 0.718067 0.346176
vt 0.735506 0.348723
vt 0.735551 0.349380
vt 0.750272 0.350542
vt 0.750286 0.351169
vt 0.765743 0.351808
vt 0.765906 0.352442
vt 0.569858 0.357653
vt 0.570070 0.357038
vt 0.585354 0.357460
vt 0.585268 0.358079
vt 0.599785 0.357868
vt 0.599695 0.358501
vt 0.616087 0.355537
vt 0.616123 0.356179
vt 0.632697 0.350376
vt 0.632855 0.350992
vt 0.649109 0.342917
vt 0.649303 0.343495
vt 0.640238 0.442664
vt 0.639876 0.442102
vt 0.647831 0.440704
vt 0.648092 0.441318
vt 0.633278 0.445393
vt 0.632852 0.444896
vt 0.627633 0.449242
vt 0.627131 0.448846
vt 0.623855 0.453598
vt 0.623252 0.453342
vt 0.708194 0.458123
vt 0.707636 0.458474
vt 0.703151 0.454692
vt 0.703588 0.454239
vt 0.696665 0.451226
vt 0.697066 0.450713
vt 0.688820 0.448151
vt 0.689208 0.447614
vt 0.680448 0.445498
vt 0.680805 0.444939
vt 0.672077 0.443466
vt 0.672320 0.442876
vt 0.664101 0.442195
vt 0.664184 0.441580
vt 0.656242 0.441263
vt 0.656142 0.440628
vt 0.632115 0.443451
vt 0.632358 0.444054
vt 0.626530 0.448216
vt 0.626150 0.447734
vt 0.639325 0.440534
vt 0.639475 0.441169
vt 0.647459 0.439108
vt 0.647550 0.439741
vt 0.622366 0.453022
vt 0.621768 0.452716
vt 0.709652 0.457311
vt 0.709048 0.457666
vt 0.704141 0.453546
vt 0.704495 0.453060
vt 0.697530 0.449875
vt 0.697763 0.449287
vt 0.689647 0.446728
vt 0.689823 0.446120
vt 0.681189 0.444048
vt 0.681333 0.443440
vt 0.672613 0.442011
vt 0.672736 0.441417
vt 0.664278 0.440713
vt 0.664317 0.440129
vt 0.656016 0.439702
vt 0.655971 0.439088
vt 0.681495 0.340837
vt 0.681480 0.341458
vt 0.665239 0.341512
vt 0.665208 0.340891
vt 0.699386 0.344021
vt 0.699332 0.344645
vt 0.717908 0.347244
vt 0.717804 0.347868
vt 0.735483 0.350423
vt 0.735366 0.351035
vt 0.750240 0.352353
vt 0.750214 0.352974
vt 0.766222 0.353724
vt 0.766317 0.354391
vt 0.569308 0.359551
vt 0.569441 0.358896
vt 0.585228 0.359254
vt 0.585227 0.359873
vt 0.599768 0.359592
vt 0.599851 0.360213
vt 0.616284 0.357346
vt 0.616423 0.357968
vt 0.633087 0.352130
vt 0.633184 0.352778
vt 0.649519 0.344527
vt 0.649586 0.345153
vt 0.633658 0.475788
vt 0.614685 0.483049
vt 0.595309 0.490901
vt 0.577433 0.499226
vt 0.563179 0.507526
vt 0.549736 0.518200
vt 0.755866 0.503105
vt 0.740192 0.497089
vt 0.724585 0.494425
vt 0.706780 0.490811
vt 0.688375 0.484823
vt 0.670221 0.476339
vt 0.652082 0.473832
vt 0.687513 0.576465
vt 0.681829 0.573291
vt 0.692053 0.580771
vt 0.695990 0.585122
vt 0.631144 0.591074
vt 0.626877 0.595266
vt 0.636071 0.586522
vt 0.642088 0.582224
vt 0.648741 0.578401
vt 0.655576 0.575547
vt 0.662046 0.573531
vt 0.668475 0.572069
vt 0.675302 0.571748
vt 0.626809 0.432127
vt 0.636750 0.428489
vt 0.618133 0.436498
vt 0.610646 0.441330
vt 0.712762 0.440811
vt 0.720945 0.444657
vt 0.702772 0.437393
vt 0.692840 0.433643
vt 0.683131 0.429805
vt 0.673917 0.426382
vt 0.665210 0.424533
vt 0.656415 0.424311
vt 0.646903 0.425779
vt 0.636423 0.427656
vt 0.636587 0.428122
vt 0.626627 0.431787
vt 0.626404 0.431348
vt 0.646695 0.424929
vt 0.646787 0.425402
vt 0.617944 0.436207
vt 0.617676 0.435798
vt 0.610589 0.440911
vt 0.610424 0.440432
vt 0.721223 0.443668
vt 0.721055 0.444208
vt 0.712930 0.440496
vt 0.713180 0.440084
vt 0.703288 0.437377
vt 0.703513 0.436951
vt 0.693248 0.433473
vt 0.693449 0.433059
vt 0.683287 0.429454
vt 0.683419 0.429029
vt 0.674001 0.426037
vt 0.674063 0.425614
vt 0.665228 0.424194
vt 0.665244 0.423781
vt 0.656374 0.423950
vt 0.656351 0.423500
vt 0.605847 0.384275
vt 0.605702 0.383813
vt 0.622069 0.380445
vt 0.622186 0.380911
vt 0.589792 0.385380
vt 0.589618 0.384930
vt 0.575298 0.389441
vt 0.574980 0.388984
vt 0.759083 0.384653
vt 0.758738 0.385143
vt 0.744504 0.380232
vt 0.744666 0.379775
vt 0.728012 0.377661
vt 0.728134 0.377228
vt 0.712027 0.374307
vt 0.712121 0.373874
vt 0.696142 0.370725
vt 0.696214 0.370288
vt 0.680594 0.367782
vt 0.680634 0.367341
vt 0.666309 0.367936
vt 0.666293 0.367490
vt 0.652263 0.370312
vt 0.652213 0.369857
vt 0.637915 0.375676
vt 0.637828 0.375211
vn -0.406387 -0.124018 -0.905245
vn 0.004053 -0.133670 -0.991018
vn 0.005386 -0.059327 -0.998224
vn -0.409528 -0.030217 -0.911797
vn -0.804549 -0.169891 -0.569068
vn -0.808854 -0.097334 -0.579898
vn -0.973219 -0.229524 -0.012762
vn -0.977386 -0.208485 -0.035355
vn -0.787041 -0.293179 0.542782
vn -0.798611 -0.320966 0.509118
vn -0.396149 -0.333193 0.855598
vn -0.402643 -0.387959 0.829076
vn 0.005150 -0.360318 0.932815
vn 0.004099 -0.440890 0.897552
vn 0.404855 -0.372243 0.835181
vn 0.399879 -0.492240 0.773173
vn 0.782441 -0.363840 0.505378
vn 0.752888 -0.506827 0.419865
vn 0.946558 -0.321281 -0.028395
vn 0.892232 -0.442309 -0.091026
vn 0.789925 -0.257666 -0.556441
vn 0.749801 -0.315871 -0.581398
vn 0.408830 -0.178580 -0.894968
vn 0.400590 -0.162221 -0.901783
vn -0.412891 -0.215075 -0.885022
vn 0.005361 -0.211332 -0.977400
vn -0.808966 -0.233133 -0.539651
vn -0.973958 -0.226461 0.011028
vn -0.797779 -0.232192 0.556450
vn -0.411666 -0.249007 0.876657
vn 0.009479 -0.260440 0.965444
vn 0.429549 -0.250945 0.867476
vn 0.810316 -0.233063 0.537653
vn 0.973996 -0.226428 0.007864
vn 0.815955 -0.234137 -0.528580
vn 0.422851 -0.221536 -0.878703
vn -0.424388 -0.289494 -0.857956
vn 0.004675 -0.288865 -0.957358
vn -0.825693 -0.251023 -0.505192
vn -0.983717 -0.177493 0.028227
vn -0.822976 -0.146402 0.548886
vn -0.439004 -0.150906 0.885722
vn 0.011504 -0.149657 0.988671
vn 0.456474 -0.128840 0.880359
vn 0.833221 -0.113429 0.541181
vn 0.989781 -0.140467 0.024538
vn 0.835208 -0.210737 -0.507954
vn 0.434560 -0.264392 -0.860961
vn -0.853196 -0.217289 -0.474174
vn -0.450738 -0.336971 -0.826611
vn -0.995505 -0.091704 0.023655
vn -0.855200 -0.052392 0.515643
vn -0.472860 -0.056041 0.879354
vn 0.006289 -0.046248 0.998910
vn 0.473997 -0.027413 0.880100
vn 0.849322 -0.029222 0.527066
vn 0.996237 -0.083467 0.023360
vn 0.848123 -0.195329 -0.492478
vn 0.448126 -0.304553 -0.840494
vn -0.000827 -0.360118 -0.932907
vn -0.497919 -0.355958 -0.790804
vn -0.008122 -0.410936 -0.911628
vn -0.886986 -0.159111 -0.433520
vn -0.999951 -0.007169 0.006761
vn -0.887593 0.023592 0.460023
vn -0.507140 0.018581 0.861663
vn -0.000706 0.035966 0.999353
vn 0.480482 0.046068 0.875794
vn 0.858699 0.019552 0.512107
vn 0.998414 -0.054157 0.015352
vn 0.858221 -0.185024 -0.478772
vn 0.467405 -0.331570 -0.819508
vn 0.415207 0.214988 0.883959
vn 0.409095 0.124528 0.903955
vn -0.004630 0.133974 0.990974
vn -0.005833 0.211124 0.977442
vn 0.811267 0.233160 0.536174
vn 0.807491 0.170625 0.564664
vn 0.973827 0.226976 -0.011945
vn 0.973108 0.230087 0.011029
vn 0.799108 0.232476 -0.554420
vn 0.788677 0.292941 -0.540532
vn 0.412885 0.248890 -0.876117
vn 0.397810 0.332764 -0.854994
vn -0.009833 0.260198 -0.965505
vn -0.005796 0.359914 -0.932968
vn -0.430874 0.250980 -0.866809
vn -0.406988 0.371993 -0.834255
vn -0.811650 0.233528 -0.535433
vn -0.784089 0.363613 -0.502981
vn -0.973862 0.226984 -0.008465
vn -0.946589 0.321326 0.026820
vn -0.818086 0.234267 0.525219
vn -0.792757 0.258282 0.552112
vn -0.425348 0.221440 0.877521
vn -0.411905 0.179131 0.893447
vn 0.426710 0.288813 0.857033
vn -0.004917 0.288067 0.957598
vn 0.827234 0.250856 0.502747
vn 0.983532 0.178495 -0.028353
vn 0.823630 0.147319 -0.547660
vn 0.439457 0.151251 -0.885438
vn -0.011563 0.149860 -0.988640
vn -0.456813 0.129333 -0.880111
vn -0.834031 0.114492 -0.539707
vn -0.989619 0.141600 -0.024558
vn -0.836744 0.210654 0.505455
vn -0.436872 0.263659 0.860016
vn 0.498721 0.353539 0.791384
vn 0.447257 0.395313 0.802302
vn -0.002401 0.433362 0.901217
vn 0.009154 0.408441 0.912739
vn 0.886277 0.159212 0.434930
vn 0.856266 0.228943 0.463027
vn 0.999945 0.008398 -0.006320
vn 0.996842 0.076743 -0.020434
vn 0.886737 -0.023964 -0.461652
vn 0.862615 0.037216 -0.504490
vn 0.506147 -0.020769 -0.862197
vn 0.470498 0.040990 -0.881449
vn 0.002266 -0.038344 -0.999262
vn -0.007379 0.026804 -0.999614
vn -0.480390 -0.048100 -0.875735
vn -0.473274 0.013243 -0.880816
vn -0.859481 -0.021433 -0.510719
vn -0.850447 0.028758 -0.525274
vn -0.998509 0.052621 -0.014522
vn -0.994873 0.098278 -0.023849
vn -0.859062 0.182343 0.478293
vn -0.845000 0.227707 0.483864
vn -0.469728 0.328743 0.819319
vn -0.450534 0.365687 0.814427
vn 0.869991 -0.017510 0.492757
vn 0.995409 -0.092275 0.025417
vn 0.197696 -0.959464 0.200859
vn 0.219718 -0.964760 0.144782
vn 0.158117 -0.962239 0.221574
vn 0.492343 0.029286 0.869908
vn -0.039125 -0.960252 0.276380
vn -0.022305 0.021874 0.999512
vn -0.170211 -0.967784 0.185533
vn -0.558571 -0.002896 0.829452
vn -0.204412 -0.966808 0.153287
vn -0.905704 0.006252 0.423865
vn -0.190670 -0.960837 0.201091
vn -0.999763 -0.019180 0.010303
vn -0.217076 -0.933737 0.284627
vn -0.911379 -0.165995 -0.376609
vn -0.189348 -0.934241 0.302226
vn -0.562650 -0.387059 -0.730486
vn -0.037433 -0.974018 0.223357
vn -0.031837 -0.468446 -0.882918
vn 0.177084 -0.949568 0.258770
vn 0.492871 -0.373868 -0.785685
vn 0.235123 -0.927813 0.289619
vn 0.877759 -0.218755 -0.426246
vn -0.029862 0.021454 -0.999324
vn 0.376909 -0.123011 -0.918046
vn 0.339370 0.899166 -0.276277
vn -0.005630 0.964713 -0.263245
vn -0.283423 0.952117 -0.114650
vn -0.447391 0.047622 -0.893070
vn -0.417123 0.904714 0.086605
vn -0.835892 -0.040939 -0.547365
vn -0.438450 0.862573 0.252447
vn -0.984527 -0.171883 -0.034096
vn -0.381913 0.833498 0.399280
vn -0.829012 -0.293132 0.476248
vn -0.249854 0.787304 0.563671
vn -0.445165 -0.376631 0.812390
vn -0.004363 0.727973 0.685592
vn -0.028975 -0.448322 0.893403
vn 0.306884 0.670928 0.675040
vn 0.380560 -0.531955 0.756438
vn 0.589336 0.641257 0.491399
vn 0.725360 -0.573376 0.380912
vn 0.723146 0.662975 0.193710
vn 0.854679 -0.504141 -0.123961
vn 0.622049 0.776590 -0.099814
vn 0.719410 -0.338303 -0.606630
vn 0.441161 0.011379 0.897356
vn 0.824247 0.103306 0.556727
vn 0.124526 0.901760 0.413911
vn 0.014111 0.905779 0.423517
vn 0.015528 0.938494 0.344946
vn 0.027936 0.036577 0.998940
vn 0.091437 0.951301 0.294392
vn -0.368591 0.177169 0.912552
vn 0.971776 0.230287 0.051188
vn 0.217184 0.938132 0.269701
vn 0.814572 0.347970 -0.464100
vn 0.156496 0.981905 0.106634
vn 0.439290 0.419597 -0.794332
vn 0.043627 0.996808 0.066859
vn 0.028700 0.492404 -0.869893
vn 0.014455 0.990203 0.138882
vn -0.374100 0.575313 -0.727368
vn 0.057772 0.978565 0.197670
vn -0.706086 0.612918 -0.354647
vn 0.106271 0.964445 0.241975
vn -0.828288 0.543968 0.134306
vn 0.145744 0.950450 0.274598
vn -0.698533 0.386392 0.602290
vn 0.145174 0.947737 0.284113
vn -0.240110 -0.963930 -0.114830
vn -0.338198 -0.921165 0.192554
vn -0.999956 0.006039 -0.007119
vn -0.869227 -0.068959 -0.489580
vn -0.488154 -0.101478 -0.866838
vn -0.112528 -0.959652 -0.257694
vn 0.021676 -0.096348 -0.995112
vn -0.026936 -0.960525 -0.276886
vn 0.552069 -0.074902 -0.830427
vn 0.133462 -0.957780 -0.254648
vn 0.902408 -0.081015 -0.423198
vn 0.272023 -0.960680 -0.055660
vn 0.998491 -0.054626 0.005644
vn 0.319645 -0.927517 0.193752
vn 0.906702 0.090100 0.412037
vn 0.253336 -0.845474 0.470102
vn 0.556008 0.310600 0.770962
vn 0.114903 -0.729153 0.674636
vn 0.030507 0.390739 0.919996
vn -0.022680 -0.716851 0.696857
vn -0.488245 0.297202 0.820541
vn -0.096012 -0.731712 0.674818
vn -0.875460 0.129554 0.465602
vn -0.222978 -0.823740 0.521281
vn 0.419768 -0.045519 0.906489
vn -0.031549 -0.007423 0.999475
vn 0.826406 0.053156 0.560560
vn 0.981583 0.186655 0.040669
vn 0.818744 0.309158 -0.483819
vn 0.413820 0.383055 -0.825846
vn -0.031333 0.458385 -0.888201
vn -0.444138 0.545256 -0.710941
vn -0.752679 0.574862 -0.320947
vn -0.851669 0.508843 0.125457
vn -0.745706 0.367655 0.555655
vn -0.437933 0.156679 0.885249
vn 0.011627 0.057923 0.998253
vn 0.411905 0.039730 0.910360
vn 0.204273 -0.922303 0.328070
vn -0.014218 -0.909844 0.414708
vn -0.274707 -0.859695 0.430652
vn -0.385780 0.121963 0.914494
vn 0.809415 0.093076 0.579813
vn 0.408375 -0.904809 0.120625
vn 0.981028 0.192646 0.021727
vn 0.528330 -0.826741 -0.193307
vn 0.790187 0.296922 -0.536136
vn 0.423007 -0.732348 -0.533602
vn 0.395871 0.354349 -0.847185
vn 0.222797 -0.619370 -0.752823
vn 0.009589 0.392091 -0.919877
vn -0.006785 -0.608627 -0.793428
vn -0.376973 0.420033 -0.825508
vn -0.253785 -0.592019 -0.764922
vn -0.759128 0.425301 -0.492792
vn -0.565480 -0.591281 -0.574995
vn -0.932336 0.357499 0.054268
vn -0.756646 -0.636632 -0.148953
vn -0.769218 0.241675 0.591522
vn -0.583810 -0.772264 0.250549
vn 0.457676 0.346026 0.819023
vn 0.003060 0.356725 0.934205
vn -0.014528 0.995321 -0.095529
vn 0.144555 0.977620 -0.152851
vn 0.189564 0.961120 -0.200781
vn 0.845684 0.274373 0.457754
vn 0.192262 0.968787 -0.156483
vn 0.983862 0.175146 -0.036592
vn 0.210479 0.968665 -0.131859
vn 0.842272 0.131997 -0.522642
vn 0.157380 0.967594 -0.197466
vn 0.473874 0.123230 -0.871928
vn -0.015137 0.962322 -0.271492
vn -0.005529 0.115569 -0.993284
vn -0.175045 0.959440 -0.220986
vn -0.475127 0.093651 -0.874920
vn -0.230288 0.960243 -0.157803
vn -0.845978 0.091644 -0.525283
vn -0.224131 0.962114 -0.155247
vn -0.990550 0.133322 -0.032179
vn -0.211772 0.962415 -0.170029
vn -0.850075 0.227661 0.474913
vn -0.163059 0.978725 -0.124536
vn -0.452165 0.311327 0.835836
s 1
g leg_down_right leg_down_right
usemtl head_plateSG
f 62/1/1 61/4/2 49/3/3 50/2/4
f 63/5/5 62/1/1 50/2/4 51/6/6
f 64/7/7 63/5/5 51/6/6 52/8/8
f 65/9/9 64/12/7 52/11/8 53/10/10
f 66/13/11 65/9/9 53/10/10 54/14/12
f 67/15/13 66/13/11 54/14/12 55/16/14
f 68/17/15 67/15/13 55/16/14 56/18/16
f 69/19/17 68/17/15 56/18/16 57/20/18
f 70/21/19 69/19/17 57/20/18 58/22/20
f 71/23/21 70/21/19 58/22/20 59/24/22
f 72/25/23 71/23/21 59/24/22 60/26/24
f 61/4/2 72/25/23 60/26/24 49/3/3
f 74/27/25 73/28/26 61/4/2 62/1/1
f 75/29/27 74/27/25 62/1/1 63/5/5
f 76/30/28 75/29/27 63/5/5 64/7/7
f 77/31/29 76/32/28 64/12/7 65/9/9
f 78/33/30 77/31/29 65/9/9 66/13/11
f 79/34/31 78/33/30 66/13/11 67/15/13
f 80/35/32 79/34/31 67/15/13 68/17/15
f 81/36/33 80/35/32 68/17/15 69/19/17
f 82/37/34 81/36/33 69/19/17 70/21/19
f 83/38/35 82/37/34 70/21/19 71/23/21
f 84/39/36 83/38/35 71/23/21 72/25/23
f 73/28/26 84/39/36 72/25/23 61/4/2
f 86/40/37 85/41/38 73/28/26 74/27/25
f 87/42/39 86/40/37 74/27/25 75/29/27
f 88/43/40 87/42/39 75/29/27 76/30/28
f 89/44/41 88/45/40 76/32/28 77/31/29
f 90/46/42 89/44/41 77/31/29 78/33/30
f 91/47/43 90/46/42 78/33/30 79/34/31
f 92/48/44 91/47/43 79/34/31 80/35/32
f 93/49/45 92/48/44 80/35/32 81/36/33
f 94/50/46 93/49/45 81/36/33 82/37/34
f 95/51/47 94/50/46 82/37/34 83/38/35
f 96/52/48 95/51/47 83/38/35 84/39/36
f 85/41/38 96/52/48 84/39/36 73/28/26
f 98/53/49 97/54/50 86/40/37 87/42/39
f 99/55/51 98/53/49 87/42/39 88/43/40
f 100/56/52 99/57/51 88/45/40 89/44/41
f 101/58/53 100/56/52 89/44/41 90/46/42
f 102/59/54 101/58/53 90/46/42 91/47/43
f 103/60/55 102/59/54 91/47/43 92/48/44
f 104/61/56 103/60/55 92/48/44 93/49/45
f 105/62/57 104/61/56 93/49/45 94/50/46
f 106/63/58 105/62/57 94/50/46 95/51/47
f 107/64/59 106/63/58 95/51/47 96/52/48
f 108/65/60 107/64/59 96/52/48 85/41/38
f 97/54/50 108/65/60 85/41/38 86/40/37
f 44/66/61 45/67/62 108/65/60 97/54/50
f 43/68/63 44/66/61 97/54/50 98/53/49
f 42/69/64 43/68/63 98/53/49 99/55/51
f 41/70/65 42/71/64 99/57/51 100/56/52
f 40/72/66 41/70/65 100/56/52 101/58/53
f 39/73/67 40/72/66 101/58/53 102/59/54
f 37/74/68 39/73/67 102/59/54 103/60/55
f 38/75/69 37/74/68 103/60/55 104/61/56
f 48/76/70 38/75/69 104/61/56 105/62/57
f 47/77/71 48/76/70 105/62/57 106/63/58
f 46/78/72 47/77/71 106/63/58 107/64/59
f 45/67/62 46/78/72 107/64/59 108/65/60
f 14/79/73 2/82/74 1/81/75 13/80/76
f 15/83/77 3/84/78 2/82/74 14/79/73
f 16/85/79 4/86/80 3/84/78 15/83/77
f 17/87/81 5/90/82 4/89/80 16/88/79
f 18/91/83 6/92/84 5/90/82 17/87/81
f 19/93/85 7/94/86 6/92/84 18/91/83
f 20/95/87 8/96/88 7/94/86 19/93/85
f 21/97/89 9/98/90 8/96/88 20/95/87
f 22/99/91 10/100/92 9/98/90 21/97/89
f 23/101/93 11/102/94 10/100/92 22/99/91
f 24/103/95 12/104/96 11/102/94 23/101/93
f 13/80/76 1/81/75 12/104/96 24/103/95
f 26/105/97 14/79/73 13/80/76 25/106/98
f 27/107/99 15/83/77 14/79/73 26/105/97
f 28/108/100 16/85/79 15/83/77 27/107/99
f 29/109/101 17/87/81 16/88/79 28/110/100
f 30/111/102 18/91/83 17/87/81 29/109/101
f 31/112/103 19/93/85 18/91/83 30/111/102
f 32/113/104 20/95/87 19/93/85 31/112/103
f 33/114/105 21/97/89 20/95/87 32/113/104
f 34/115/106 22/99/91 21/97/89 33/114/105
f 35/116/107 23/101/93 22/99/91 34/115/106
f 36/117/108 24/103/95 23/101/93 35/116/107
f 25/106/98 13/80/76 24/103/95 36/117/108
f 128/118/109 133/121/110 134/120/111 129/119/112
f 127/122/113 135/123/114 133/121/110 128/118/109
f 126/124/115 136/125/116 135/123/114 127/122/113
f 125/126/117 137/129/118 136/128/116 126/127/115
f 124/130/119 138/131/120 137/129/118 125/126/117
f 123/132/121 139/133/122 138/131/120 124/130/119
f 122/134/123 140/135/124 139/133/122 123/132/121
f 121/136/125 141/137/126 140/135/124 122/134/123
f 132/138/127 142/139/128 141/137/126 121/136/125
f 131/140/129 143/141/130 142/139/128 132/138/127
f 130/142/131 144/143/132 143/141/130 131/140/129
f 129/119/112 134/120/111 144/143/132 130/142/131
f 145/144/133 167/147/134 168/146/135 146/145/136
f 146/145/136 148/149/137 147/148/138 145/144/133
f 148/149/137 150/151/139 149/150/140 147/148/138
f 150/151/139 152/153/141 151/152/142 149/150/140
f 152/153/141 154/155/143 153/154/144 151/152/142
f 154/155/143 156/157/145 155/156/146 153/154/144
f 156/158/145 158/161/147 157/160/148 155/159/146
f 158/161/147 160/163/149 159/162/150 157/160/148
f 160/163/149 162/165/151 161/164/152 159/162/150
f 162/165/151 164/167/153 163/166/154 161/164/152
f 164/167/153 166/169/155 165/168/156 163/166/154
f 166/169/155 168/146/135 167/147/134 165/168/156
f 169/170/157 191/173/158 192/172/159 170/171/160
f 170/171/160 172/175/161 171/174/162 169/170/157
f 172/175/161 174/177/163 173/176/164 171/174/162
f 174/177/163 176/179/165 175/178/166 173/176/164
f 176/180/165 178/183/167 177/182/168 175/181/166
f 178/183/167 180/185/169 179/184/170 177/182/168
f 180/185/169 182/187/171 181/186/172 179/184/170
f 182/187/171 184/189/173 183/188/174 181/186/172
f 184/189/173 186/191/175 185/190/176 183/188/174
f 186/191/175 188/193/177 187/192/178 185/190/176
f 188/193/177 190/195/179 189/194/180 187/192/178
f 190/195/179 192/172/159 191/173/158 189/194/180
f 193/196/181 197/199/182 198/198/183 194/197/184
f 194/197/184 195/201/185 196/200/186 193/196/181
f 195/201/185 216/203/187 215/202/188 196/200/186
f 197/199/182 199/205/189 200/204/190 198/198/183
f 199/206/189 201/209/191 202/208/192 200/207/190
f 201/209/191 203/211/193 204/210/194 202/208/192
f 203/211/193 205/213/195 206/212/196 204/210/194
f 205/213/195 207/215/197 208/214/198 206/212/196
f 207/215/197 209/217/199 210/216/200 208/214/198
f 209/217/199 211/219/201 212/218/202 210/216/200
f 211/219/201 213/221/203 214/220/204 212/218/202
f 213/221/203 215/202/188 216/203/187 214/220/204
f 217/222/205 240/225/206 239/224/207 218/223/208
f 218/223/208 219/227/209 220/226/210 217/222/205
f 219/227/209 221/229/211 222/228/212 220/226/210
f 221/229/211 223/231/213 224/230/214 222/228/212
f 223/231/213 225/233/215 226/232/216 224/230/214
f 225/233/215 227/235/217 228/234/218 226/232/216
f 227/236/217 229/239/219 230/238/220 228/237/218
f 229/239/219 231/241/221 232/240/222 230/238/220
f 231/241/221 233/243/223 234/242/224 232/240/222
f 233/243/223 235/245/225 236/244/226 234/242/224
f 235/245/225 237/247/227 238/246/228 236/244/226
f 237/247/227 239/224/207 240/225/206 238/246/228
f 145/248/133 147/249/138 37/74/68 38/75/69
f 147/249/138 149/250/140 39/73/67 37/74/68
f 149/250/140 151/251/142 40/72/66 39/73/67
f 151/251/142 153/252/144 41/70/65 40/72/66
f 153/252/144 155/253/146 42/71/64 41/70/65
f 155/254/146 157/255/148 43/68/63 42/69/64
f 157/255/148 159/256/150 44/66/61 43/68/63
f 159/256/150 161/257/152 45/67/62 44/66/61
f 161/257/152 163/258/154 46/78/72 45/67/62
f 163/258/154 165/259/156 47/77/71 46/78/72
f 165/259/156 167/260/134 48/76/70 47/77/71
f 167/260/134 145/248/133 38/75/69 48/76/70
f 50/2/4 49/3/3 169/262/157 171/261/162
f 51/6/6 50/2/4 171/261/162 173/263/164
f 52/8/8 51/6/6 173/263/164 175/264/166
f 53/10/10 52/11/8 175/266/166 177/265/168
f 54/14/12 53/10/10 177/265/168 179/267/170
f 55/16/14 54/14/12 179/267/170 181/268/172
f 56/18/16 55/16/14 181/268/172 183/269/174
f 57/20/18 56/18/16 183/269/174 185/270/176
f 58/22/20 57/20/18 185/270/176 187/271/178
f 59/24/22 58/22/20 187/271/178 189/272/180
f 60/26/24 59/24/22 189/272/180 191/273/158
f 49/3/3 60/26/24 191/273/158 169/262/157
f 218/223/208 121/136/125 122/134/123 219/227/209
f 219/227/209 122/134/123 123/132/121 221/229/211
f 221/229/211 123/132/121 124/130/119 223/231/213
f 223/231/213 124/130/119 125/126/117 225/233/215
f 225/233/215 125/126/117 126/127/115 227/235/217
f 227/236/217 126/124/115 127/122/113 229/239/219
f 229/239/219 127/122/113 128/118/109 231/241/221
f 231/241/221 128/118/109 129/119/112 233/243/223
f 233/243/223 129/119/112 130/142/131 235/245/225
f 235/245/225 130/142/131 131/140/129 237/247/227
f 237/247/227 131/140/129 132/138/127 239/224/207
f 239/224/207 132/138/127 121/136/125 218/223/208
f 109/274/229 193/196/181 196/200/186 110/275/230
f 111/276/231 197/199/182 193/196/181 109/274/229
f 112/277/232 199/205/189 197/199/182 111/276/231
f 113/278/233 201/209/191 199/206/189 112/279/232
f 114/280/234 203/211/193 201/209/191 113/278/233
f 115/281/235 205/213/195 203/211/193 114/280/234
f 116/282/236 207/215/197 205/213/195 115/281/235
f 117/283/237 209/217/199 207/215/197 116/282/236
f 118/284/238 211/219/201 209/217/199 117/283/237
f 119/285/239 213/221/203 211/219/201 118/284/238
f 120/286/240 215/202/188 213/221/203 119/285/239
f 110/275/230 196/200/186 215/202/188 120/286/240
f 170/171/160 195/201/185 194/197/184 172/175/161
f 172/175/161 194/197/184 198/198/183 174/177/163
f 174/177/163 198/198/183 200/204/190 176/179/165
f 176/180/165 200/207/190 202/208/192 178/183/167
f 178/183/167 202/208/192 204/210/194 180/185/169
f 180/185/169 204/210/194 206/212/196 182/187/171
f 182/187/171 206/212/196 208/214/198 184/189/173
f 184/189/173 208/214/198 210/216/200 186/191/175
f 186/191/175 210/216/200 212/218/202 188/193/177
f 188/193/177 212/218/202 214/220/204 190/195/179
f 190/195/179 214/220/204 216/203/187 192/172/159
f 192/172/159 216/203/187 195/201/185 170/171/160
f 148/149/137 146/145/136 217/222/205 220/226/210
f 150/151/139 148/149/137 220/226/210 222/228/212
f 152/153/141 150/151/139 222/228/212 224/230/214
f 154/155/143 152/153/141 224/230/214 226/232/216
f 156/157/145 154/155/143 226/232/216 228/234/218
f 158/161/147 156/158/145 228/237/218 230/238/220
f 160/163/149 158/161/147 230/238/220 232/240/222
f 162/165/151 160/163/149 232/240/222 234/242/224
f 164/167/153 162/165/151 234/242/224 236/244/226
f 166/169/155 164/167/153 236/244/226 238/246/228
f 168/146/135 166/169/155 238/246/228 240/225/206
f 146/145/136 168/146/135 240/225/206 217/222/205
f 241/287/241 243/290/242 244/289/243 242/288/244
f 242/288/244 264/292/245 263/291/246 241/287/241
f 243/290/242 245/294/247 246/293/248 244/289/243
f 245/294/247 247/296/249 248/295/250 246/293/248
f 247/297/249 249/300/251 250/299/252 248/298/250
f 249/300/251 251/302/253 252/301/254 250/299/252
f 251/302/253 253/304/255 254/303/256 252/301/254
f 253/304/255 255/306/257 256/305/258 254/303/256
f 255/306/257 257/308/259 258/307/260 256/305/258
f 257/308/259 259/310/261 260/309/262 258/307/260
f 259/310/261 261/312/263 262/311/264 260/309/262
f 261/312/263 263/291/246 264/292/245 262/311/264
f 265/313/265 287/316/266 288/315/267 266/314/268
f 266/314/268 268/318/269 267/317/270 265/313/265
f 268/318/269 270/320/271 269/319/272 267/317/270
f 270/321/271 272/324/273 271/323/274 269/322/272
f 272/324/273 274/326/275 273/325/276 271/323/274
f 274/326/275 276/328/277 275/327/278 273/325/276
f 276/328/277 278/330/279 277/329/280 275/327/278
f 278/330/279 280/332/281 279/331/282 277/329/280
f 280/332/281 282/334/283 281/333/284 279/331/282
f 282/334/283 284/336/285 283/335/286 281/333/284
f 284/336/285 286/338/287 285/337/288 283/335/286
f 286/338/287 288/315/267 287/316/266 285/337/288
f 2/82/74 243/290/242 241/287/241 1/81/75
f 3/84/78 245/294/247 243/290/242 2/82/74
f 4/86/80 247/296/249 245/294/247 3/84/78
f 5/90/82 249/300/251 247/297/249 4/89/80
f 6/92/84 251/302/253 249/300/251 5/90/82
f 7/94/86 253/304/255 251/302/253 6/92/84
f 8/96/88 255/306/257 253/304/255 7/94/86
f 9/98/90 257/308/259 255/306/257 8/96/88
f 10/100/92 259/310/261 257/308/259 9/98/90
f 11/102/94 261/312/263 259/310/261 10/100/92
f 12/104/96 263/291/246 261/312/263 11/102/94
f 1/81/75 241/287/241 263/291/246 12/104/96
f 267/317/270 27/107/99 26/105/97 265/313/265
f 269/319/272 28/108/100 27/107/99 267/317/270
f 271/323/274 29/109/101 28/110/100 269/322/272
f 273/325/276 30/111/102 29/109/101 271/323/274
f 275/327/278 31/112/103 30/111/102 273/325/276
f 277/329/280 32/113/104 31/112/103 275/327/278
f 279/331/282 33/114/105 32/113/104 277/329/280
f 281/333/284 34/115/106 33/114/105 279/331/282
f 283/335/286 35/116/107 34/115/106 281/333/284
f 285/337/288 36/117/108 35/116/107 283/335/286
f 287/316/266 25/106/98 36/117/108 285/337/288
f 265/313/265 26/105/97 25/106/98 287/316/266
f 242/288/244 244/289/243 109/274/229 110/275/230
f 244/289/243 246/293/248 111/276/231 109/274/229
f 246/293/248 248/295/250 112/277/232 111/276/231
f 248/298/250 250/299/252 113/278/233 112/279/232
f 250/299/252 252/301/254 114/280/234 113/278/233
f 252/301/254 254/303/256 115/281/235 114/280/234
f 254/303/256 256/305/258 116/282/236 115/281/235
f 256/305/258 258/307/260 117/283/237 116/282/236
f 258/307/260 260/309/262 118/284/238 117/283/237
f 260/309/262 262/311/264 119/285/239 118/284/238
f 262/311/264 264/292/245 120/286/240 119/285/239
f 264/292/245 242/288/244 110/275/230 120/286/240
f 266/314/268 288/315/267 134/120/111 133/121/110
f 268/318/269 266/314/268 133/121/110 135/123/114
f 270/320/271 268/318/269 135/123/114 136/125/116
f 272/324/273 270/321/271 136/128/116 137/129/118
f 274/326/275 272/324/273 137/129/118 138/131/120
f 276/328/277 274/326/275 138/131/120 139/133/122
f 278/330/279 276/328/277 139/133/122 140/135/124
f 280/332/281 278/330/279 140/135/124 141/137/126
f 282/334/283 280/332/281 141/137/126 142/139/128
f 284/336/285 282/334/283 142/139/128 143/141/130
f 286/338/287 284/336/285 143/141/130 144/143/132
f 288/315/267 286/338/287 144/143/132 134/120/111
g default
v -0.005906 -0.058132 -0.020889
v -0.003358 -0.056855 -0.024622
v 0.000498 -0.055816 -0.027094
v 0.005075 -0.055175 -0.027929
v 0.009676 -0.055028 -0.027000
v 0.013602 -0.055398 -0.024447
v 0.016253 -0.056228 -0.020661
v 0.017227 -0.057393 -0.016216
v 0.016375 -0.058714 -0.011790
v 0.013827 -0.059992 -0.008057
v 0.009971 -0.061030 -0.005585
v 0.005394 -0.061672 -0.004750
v 0.000793 -0.061819 -0.005679
v -0.003133 -0.061449 -0.008232
v -0.005784 -0.060618 -0.012019
v -0.006758 -0.059454 -0.016464
v -0.016918 -0.054485 -0.024316
v -0.011920 -0.051979 -0.031638
v -0.004356 -0.049942 -0.036488
v 0.004622 -0.048684 -0.038125
v 0.013648 -0.048395 -0.036302
v 0.021348 -0.049121 -0.031295
v 0.026549 -0.050750 -0.023867
v 0.028459 -0.053034 -0.015149
v 0.026789 -0.055627 -0.006467
v 0.021791 -0.058132 0.000855
v 0.014227 -0.060169 0.005705
v 0.005248 -0.061428 0.007342
v -0.003778 -0.061716 0.005519
v -0.011478 -0.060991 0.000512
v -0.016678 -0.059362 -0.006916
v -0.018589 -0.057077 -0.015634
v -0.027276 -0.048758 -0.026808
v -0.020021 -0.045121 -0.037439
v -0.009040 -0.042163 -0.044479
v 0.003995 -0.040336 -0.046857
v 0.017099 -0.039917 -0.044209
v 0.028277 -0.040971 -0.036941
v 0.035828 -0.043336 -0.026157
v 0.038601 -0.046653 -0.013500
v 0.036176 -0.050416 -0.000896
v 0.028920 -0.054054 0.009735
v 0.017939 -0.057011 0.016775
v 0.004904 -0.058838 0.019152
v -0.008200 -0.059257 0.016506
v -0.019378 -0.058204 0.009236
v -0.026929 -0.055839 -0.001547
v -0.029702 -0.052522 -0.014204
v -0.036584 -0.041173 -0.028270
v -0.027349 -0.036543 -0.041801
v -0.013373 -0.032779 -0.050761
v 0.003218 -0.030454 -0.053787
v 0.019896 -0.029921 -0.050417
v 0.034123 -0.031261 -0.041166
v 0.043733 -0.034272 -0.027441
v 0.047263 -0.038493 -0.011332
v 0.044176 -0.043283 0.004709
v 0.034941 -0.047913 0.018240
v 0.020964 -0.051677 0.027201
v 0.004374 -0.054002 0.030227
v -0.012304 -0.054535 0.026857
v -0.026531 -0.053194 0.017606
v -0.036141 -0.050184 0.003880
v -0.039671 -0.045963 -0.012229
v -0.044482 -0.032019 -0.028645
v -0.033623 -0.026576 -0.044556
v -0.017189 -0.022149 -0.055093
v 0.002319 -0.019415 -0.058650
v 0.021931 -0.018788 -0.054689
v 0.038660 -0.020365 -0.043810
v 0.049960 -0.023905 -0.027671
v 0.054111 -0.028869 -0.008728
v 0.050481 -0.034501 0.010134
v 0.039622 -0.039945 0.026045
v 0.023187 -0.044371 0.036581
v 0.003679 -0.047106 0.040139
v -0.015932 -0.047732 0.036178
v -0.032661 -0.046156 0.025299
v -0.043962 -0.042616 0.009159
v -0.048112 -0.037652 -0.009783
v -0.050668 -0.021650 -0.027920
v -0.038602 -0.015602 -0.045599
v -0.020341 -0.010684 -0.057306
v 0.001335 -0.007645 -0.061260
v 0.023126 -0.006949 -0.056858
v 0.041715 -0.008701 -0.044770
v 0.054271 -0.012634 -0.026838
v 0.058883 -0.018150 -0.005789
v 0.054849 -0.024408 0.015169
v 0.042783 -0.030457 0.032848
v 0.024522 -0.035375 0.044555
v 0.002846 -0.038413 0.048509
v -0.018945 -0.039110 0.044106
v -0.037533 -0.037358 0.032019
v -0.050090 -0.033425 0.014087
v -0.054702 -0.027909 -0.006961
v -0.054904 -0.010464 -0.026122
v -0.042095 -0.004043 -0.044889
v -0.022709 0.001178 -0.057318
v 0.000302 0.004403 -0.061515
v 0.023436 0.005143 -0.056842
v 0.043169 0.003283 -0.044010
v 0.056499 -0.000893 -0.024972
v 0.061395 -0.006748 -0.002628
v 0.057113 -0.013392 0.019621
v 0.044304 -0.019813 0.038389
v 0.024918 -0.025034 0.050818
v 0.001907 -0.028260 0.055015
v -0.021227 -0.028999 0.050341
v -0.040960 -0.027139 0.037509
v -0.054290 -0.022964 0.018472
v -0.059186 -0.017108 -0.003872
v -0.057026 0.001109 -0.023320
v -0.043966 0.007656 -0.042455
v -0.024201 0.012979 -0.055127
v -0.000739 0.016268 -0.059407
v 0.022848 0.017022 -0.054642
v 0.042968 0.015125 -0.041558
v 0.056558 0.010868 -0.022148
v 0.061551 0.004898 0.000634
v 0.057184 -0.001876 0.023320
v 0.044124 -0.008423 0.042455
v 0.024359 -0.013746 0.055127
v 0.000897 -0.017035 0.059407
v -0.022690 -0.017789 0.054642
v -0.042810 -0.015892 0.041558
v -0.056400 -0.011635 0.022148
v -0.061393 -0.005665 -0.000634
v -0.056955 0.012625 -0.019622
v -0.044145 0.019047 -0.038389
v -0.024760 0.024267 -0.050818
v -0.001749 0.027493 -0.055015
v 0.021385 0.028232 -0.050342
v 0.041118 0.026372 -0.037509
v 0.054448 0.022197 -0.018472
v 0.059344 0.016341 0.003872
v 0.055062 0.009697 0.026121
v 0.042253 0.003276 0.044889
v 0.022867 -0.001945 0.057318
v -0.000144 -0.005170 0.061515
v -0.023278 -0.005909 0.056841
v -0.043011 -0.004050 0.044009
v -0.056341 0.000126 0.024972
v -0.061237 0.005981 0.002628
v -0.054691 0.023642 -0.015170
v -0.042625 0.029690 -0.032848
v -0.024364 0.034608 -0.044556
v -0.002688 0.037647 -0.048509
v 0.019103 0.038343 -0.044107
v 0.037692 0.036591 -0.032019
v 0.050248 0.032658 -0.014087
v 0.054860 0.027142 0.006961
v 0.050826 0.020883 0.027920
v 0.038760 0.014835 0.045599
v 0.020499 0.009917 0.057305
v -0.001177 0.006878 0.061260
v -0.022968 0.006182 0.056857
v -0.041557 0.007934 0.044770
v -0.054113 0.011867 0.026837
v -0.058725 0.017383 0.005789
v -0.050323 0.033734 -0.010134
v -0.039464 0.039178 -0.026045
v -0.023029 0.043604 -0.036581
v -0.003521 0.046339 -0.040139
v 0.016090 0.046965 -0.036178
v 0.032819 0.045389 -0.025299
v 0.044120 0.041849 -0.009160
v 0.048271 0.036885 0.009783
v 0.044640 0.031252 0.028645
v 0.033781 0.025809 0.044555
v 0.017347 0.021383 0.055092
v -0.002161 0.018648 0.058650
v -0.021773 0.018022 0.054689
v -0.038502 0.019598 0.043810
v -0.049802 0.023138 0.027671
v -0.053953 0.028102 0.008728
v -0.044017 0.042516 -0.004710
v -0.034783 0.047146 -0.018240
v -0.020806 0.050910 -0.027201
v -0.004216 0.053235 -0.030227
v 0.012462 0.053768 -0.026857
v 0.026689 0.052427 -0.017606
v 0.036299 0.049417 -0.003881
v 0.039829 0.045196 0.012228
v 0.036742 0.040406 0.028270
v 0.027507 0.035776 0.041800
v 0.013531 0.032012 0.050761
v -0.003059 0.029687 0.053787
v -0.019738 0.029154 0.050417
v -0.033965 0.030494 0.041166
v -0.043575 0.033505 0.027441
v -0.047105 0.037726 0.011332
v -0.036018 0.049650 0.000896
v -0.028762 0.053287 -0.009735
v -0.017781 0.056244 -0.016775
v -0.004746 0.058071 -0.019153
v 0.008358 0.058490 -0.016506
v 0.019536 0.057437 -0.009237
v 0.027087 0.055072 0.001547
v 0.029860 0.051755 0.014204
v 0.027435 0.047991 0.026808
v 0.020179 0.044354 0.037438
v 0.009198 0.041396 0.044479
v -0.003837 0.039569 0.046856
v -0.016941 0.039150 0.044209
v -0.028119 0.040204 0.036940
v -0.035670 0.042569 0.026156
v -0.038443 0.045886 0.013499
v -0.026631 0.054860 0.006467
v -0.021633 0.057365 -0.000856
v -0.014069 0.059402 -0.005705
v -0.005090 0.060661 -0.007343
v 0.003936 0.060950 -0.005519
v 0.011636 0.060224 -0.000512
v 0.016836 0.058595 0.006916
v 0.018747 0.056310 0.015634
v 0.017076 0.053718 0.024315
v 0.012078 0.051212 0.031638
v 0.004514 0.049175 0.036487
v -0.004464 0.047917 0.038125
v -0.013490 0.047628 0.036302
v -0.021190 0.048354 0.031295
v -0.026391 0.049983 0.023867
v -0.028301 0.052268 0.015148
v -0.016217 0.057947 0.011790
v -0.013669 0.059225 0.008057
v -0.009813 0.060263 0.005585
v -0.005236 0.060905 0.004750
v -0.000634 0.061052 0.005679
v 0.003291 0.060682 0.008232
v 0.005942 0.059851 0.012018
v 0.006916 0.058687 0.016463
v 0.006064 0.057365 0.020889
v 0.003516 0.056088 0.024622
v -0.000339 0.055050 0.027094
v -0.004917 0.054408 0.027929
v -0.009518 0.054261 0.026999
v -0.013443 0.054631 0.024447
v -0.016095 0.055461 0.020660
v -0.017069 0.056626 0.016216
v 0.005335 -0.059560 -0.016660
v -0.005177 0.058793 0.016659
vt 0.173382 0.340113
vt 0.173604 0.341762
vt 0.170964 0.343366
vt 0.170703 0.340835
vt 0.173986 0.343317
vt 0.171433 0.345821
vt 0.174540 0.344710
vt 0.172146 0.348139
vt 0.175279 0.345858
vt 0.173157 0.350233
vt 0.176206 0.346647
vt 0.174538 0.351974
vt 0.177295 0.346934
vt 0.176376 0.353161
vt 0.178458 0.346548
vt 0.178748 0.353462
vt 0.178521 0.330405
vt 0.177390 0.330060
vt 0.176891 0.324177
vt 0.179193 0.324161
vt 0.176303 0.330335
vt 0.174991 0.325125
vt 0.175359 0.331091
vt 0.173509 0.326682
vt 0.174595 0.332203
vt 0.172399 0.328637
vt 0.174019 0.333566
vt 0.171601 0.330853
vt 0.173621 0.335097
vt 0.171064 0.333238
vt 0.173389 0.336733
vt 0.170750 0.335729
vt 0.173311 0.338421
vt 0.170633 0.338275
vt 0.168320 0.344395
vt 0.168079 0.341259
vt 0.168767 0.347487
vt 0.169463 0.350496
vt 0.170482 0.353366
vt 0.171943 0.356012
vt 0.174036 0.358288
vt 0.177061 0.359919
vt 0.175212 0.319159
vt 0.178403 0.318210
vt 0.172848 0.320993
vt 0.171130 0.323346
vt 0.169903 0.326018
vt 0.169049 0.328892
vt 0.168485 0.331896
vt 0.168155 0.334981
vt 0.168025 0.338112
vt 0.165646 0.345093
vt 0.165451 0.341522
vt 0.166018 0.348651
vt 0.166605 0.352178
vt 0.167481 0.355654
vt 0.168772 0.359055
vt 0.170707 0.362345
vt 0.173716 0.365446
vt 0.172596 0.314925
vt 0.176203 0.312753
vt 0.170112 0.317676
vt 0.168390 0.320749
vt 0.167198 0.324015
vt 0.166386 0.327404
vt 0.165857 0.330874
vt 0.165547 0.334397
vt 0.165418 0.337951
vt 0.162939 0.345555
vt 0.162804 0.341671
vt 0.163206 0.349447
vt 0.163633 0.353349
vt 0.164275 0.357272
vt 0.165239 0.361249
vt 0.166726 0.365353
vt 0.169159 0.369743
vt 0.169251 0.311493
vt 0.172773 0.308055
vt 0.166943 0.315080
vt 0.165392 0.318755
vt 0.164342 0.322492
vt 0.163637 0.326276
vt 0.163181 0.330093
vt 0.162913 0.333935
vt 0.162794 0.337796
vt 0.160203 0.345823
vt 0.160137 0.341729
vt 0.160349 0.349939
vt 0.160586 0.354091
vt 0.160945 0.358315
vt 0.161486 0.362681
vt 0.162341 0.367348
vt 0.163808 0.372668
vt 0.165355 0.308891
vt 0.168341 0.304336
vt 0.163459 0.313159
vt 0.162210 0.317298
vt 0.161376 0.321384
vt 0.160823 0.325451
vt 0.160466 0.329513
vt 0.160253 0.333577
vt 0.160150 0.337648
vt 0.157447 0.345918
vt 0.157453 0.341704
vt 0.157464 0.350158
vt 0.157498 0.354448
vt 0.157546 0.358832
vt 0.157618 0.363403
vt 0.157748 0.368363
vt 0.158028 0.374169
vt 0.161067 0.307151
vt 0.163157 0.301768
vt 0.159755 0.311894
vt 0.158900 0.316344
vt 0.158334 0.320656
vt 0.157962 0.324900
vt 0.157722 0.329113
vt 0.157574 0.333311
vt 0.157490 0.337505
vt 0.154683 0.345849
vt 0.154761 0.341601
vt 0.154569 0.350120
vt 0.154396 0.354440
vt 0.154130 0.358852
vt 0.153725 0.363449
vt 0.153109 0.368430
vt 0.152152 0.374250
vt 0.156531 0.306300
vt 0.157486 0.300480
vt 0.155916 0.311281
vt 0.155512 0.315878
vt 0.155248 0.320289
vt 0.155075 0.324609
vt 0.154961 0.328880
vt 0.154884 0.333128
vt 0.154822 0.337364
vt 0.151922 0.345616
vt 0.152071 0.341418
vt 0.151682 0.349829
vt 0.151309 0.354074
vt 0.150743 0.358385
vt 0.149887 0.362836
vt 0.148573 0.367579
vt 0.146481 0.372961
vt 0.151892 0.306368
vt 0.151609 0.300562
vt 0.152022 0.311327
vt 0.152096 0.315898
vt 0.152145 0.320281
vt 0.152179 0.324571
vt 0.152197 0.328811
vt 0.152192 0.333025
vt 0.152154 0.337224
vt 0.149178 0.345216
vt 0.149392 0.341151
vt 0.148821 0.349278
vt 0.148267 0.353345
vt 0.147433 0.357431
vt 0.146183 0.361570
vt 0.144285 0.365838
vt 0.141299 0.370392
vt 0.147298 0.307384
vt 0.145830 0.302064
vt 0.148155 0.312050
vt 0.148697 0.316416
vt 0.149056 0.320638
vt 0.149294 0.324791
vt 0.149441 0.328906
vt 0.149508 0.333000
vt 0.149495 0.337081
vt 0.146463 0.344636
vt 0.146732 0.340794
vt 0.146007 0.348453
vt 0.145302 0.352237
vt 0.144251 0.355974
vt 0.142700 0.359649
vt 0.140391 0.363236
vt 0.136868 0.366673
vt 0.142914 0.309379
vt 0.140478 0.304991
vt 0.144402 0.313483
vt 0.145366 0.317459
vt 0.146010 0.321382
vt 0.146438 0.325283
vt 0.146705 0.329175
vt 0.146840 0.333058
vt 0.146851 0.336933
vt 0.143788 0.343855
vt 0.144098 0.340333
vt 0.143258 0.347325
vt 0.142446 0.350714
vt 0.141254 0.353980
vt 0.139531 0.357053
vt 0.137047 0.359803
vt 0.133439 0.361975
vt 0.138933 0.312388
vt 0.135923 0.309289
vt 0.140869 0.315677
vt 0.142161 0.319078
vt 0.143037 0.322553
vt 0.143626 0.326080
vt 0.143998 0.329637
vt 0.144193 0.333208
vt 0.144227 0.336778
vt 0.141160 0.342833
vt 0.141490 0.339748
vt 0.140596 0.345837
vt 0.139742 0.348711
vt 0.138514 0.351384
vt 0.136796 0.353737
vt 0.134431 0.355570
vt 0.131240 0.356519
vt 0.135605 0.316446
vt 0.132580 0.314816
vt 0.137698 0.318721
vt 0.139160 0.321366
vt 0.140179 0.324236
vt 0.140876 0.327244
vt 0.141324 0.330336
vt 0.141565 0.333471
vt 0.141620 0.336618
vt 0.138580 0.341491
vt 0.138895 0.339001
vt 0.138044 0.343877
vt 0.137246 0.346093
vt 0.136135 0.348048
vt 0.134653 0.349605
vt 0.132753 0.350553
vt 0.130451 0.350569
vt 0.133266 0.321574
vt 0.130894 0.321274
vt 0.135104 0.322759
vt 0.136486 0.324500
vt 0.137497 0.326593
vt 0.138211 0.328910
vt 0.138680 0.331365
vt 0.138941 0.333896
vt 0.139011 0.336455
vt 0.136023 0.339633
vt 0.136256 0.337998
vt 0.135625 0.341165
vt 0.135049 0.342527
vt 0.134286 0.343639
vt 0.133341 0.344396
vt 0.132254 0.344671
vt 0.131123 0.344326
vt 0.132348 0.327801
vt 0.131185 0.328187
vt 0.133437 0.328087
vt 0.134364 0.328875
vt 0.135104 0.330022
vt 0.135658 0.331415
vt 0.136040 0.332969
vt 0.136262 0.334618
vt 0.136334 0.336310
vt 0.176464 0.338378
vt 0.133181 0.336354
vn -0.149751 -0.922329 -0.356208
vn -0.305345 -0.863146 -0.402173
vn -0.217767 -0.819249 -0.530480
vn -0.096650 -0.895709 -0.434010
vn -0.085240 -0.783554 -0.615449
vn -0.016271 -0.874064 -0.485538
vn 0.072074 -0.761502 -0.644143
vn 0.079146 -0.860689 -0.502942
vn 0.230225 -0.756445 -0.612199
vn 0.175047 -0.857623 -0.483572
vn 0.365136 -0.769166 -0.524461
vn 0.256876 -0.865331 -0.430368
vn 0.456265 -0.797708 -0.394315
vn 0.312150 -0.882643 -0.351431
vn 0.489741 -0.837736 -0.241561
vn 0.332448 -0.906922 -0.258788
vn 0.460468 -0.883159 -0.089445
vn 0.314689 -0.934472 -0.166534
vn 0.372894 -0.927060 0.038860
vn 0.261575 -0.961097 -0.088720
vn 0.240359 -0.962754 0.123825
vn 0.181201 -0.982743 -0.037187
vn 0.083048 -0.984805 0.152521
vn 0.085804 -0.996116 -0.019779
vn -0.075108 -0.989859 0.120573
vn -0.010125 -0.999182 -0.039161
vn -0.210022 -0.977145 0.032843
vn -0.091954 -0.991470 -0.092364
vn -0.301147 -0.948600 -0.097306
vn -0.147213 -0.974161 -0.171286
vn -0.334625 -0.908568 -0.250060
vn -0.167519 -0.949879 -0.263945
vn -0.463133 -0.770301 -0.438342
vn -0.341278 -0.709213 -0.616884
vn -0.156868 -0.659543 -0.735116
vn 0.062026 -0.628862 -0.775039
vn 0.282089 -0.621829 -0.730585
vn 0.469807 -0.639523 -0.608516
vn 0.596609 -0.679246 -0.427414
vn 0.643184 -0.734950 -0.214857
vn 0.602448 -0.798152 -0.003205
vn 0.480600 -0.859235 0.175325
vn 0.296182 -0.908898 0.293564
vn 0.077289 -0.939580 0.333492
vn -0.142768 -0.946613 0.289036
vn -0.330491 -0.928925 0.166958
vn -0.457288 -0.889206 -0.014138
vn -0.503868 -0.833504 -0.226692
vn -0.607146 -0.648269 -0.459480
vn -0.454764 -0.571885 -0.682743
vn -0.224146 -0.509781 -0.830591
vn 0.049587 -0.471411 -0.880518
vn 0.324777 -0.462618 -0.824927
vn 0.559528 -0.484736 -0.672280
vn 0.718097 -0.534405 -0.445811
vn 0.776341 -0.604063 -0.180006
vn 0.725398 -0.683101 0.084675
vn 0.573024 -0.759488 0.307931
vn 0.342405 -0.821599 0.455779
vn 0.068669 -0.859968 0.505708
vn -0.206519 -0.868758 0.450121
vn -0.441276 -0.846630 0.297478
vn -0.599843 -0.796961 0.071007
vn -0.658086 -0.727306 -0.194804
vn -0.729907 -0.501917 -0.464020
vn -0.552372 -0.412918 -0.724144
vn -0.283668 -0.340560 -0.896410
vn 0.035269 -0.295860 -0.954580
vn 0.355899 -0.285609 -0.889811
vn 0.629416 -0.311381 -0.711954
vn 0.814166 -0.369255 -0.448090
vn 0.882030 -0.450413 -0.138392
vn 0.822677 -0.542501 0.169990
vn 0.645140 -0.631499 0.430120
vn 0.376441 -0.703857 0.602393
vn 0.057500 -0.748564 0.660565
vn -0.263134 -0.758811 0.595791
vn -0.536647 -0.733039 0.417928
vn -0.721393 -0.675171 0.154066
vn -0.789259 -0.594010 -0.155637
vn -0.826203 -0.336856 -0.451572
vn -0.629957 -0.238472 -0.739111
vn -0.332939 -0.158483 -0.929535
vn 0.019627 -0.109061 -0.993841
vn 0.374059 -0.097735 -0.922241
vn 0.676402 -0.126226 -0.725636
vn 0.880624 -0.190199 -0.433964
vn 0.955643 -0.279916 -0.091617
vn 0.890030 -0.381712 0.249283
vn 0.693777 -0.480090 0.536830
vn 0.396766 -0.560076 0.727249
vn 0.044200 -0.609496 0.791556
vn -0.310232 -0.620825 0.719953
vn -0.612571 -0.592337 0.523348
vn -0.816795 -0.528369 0.231673
vn -0.891814 -0.438655 -0.110678
vn -0.892244 -0.159285 -0.422526
vn -0.684474 -0.055128 -0.726950
vn -0.370017 0.029557 -0.928555
vn 0.003246 0.081878 -0.996637
vn 0.378490 0.093866 -0.920833
vn 0.698588 0.063704 -0.712683
vn 0.914801 -0.004020 -0.403885
vn 0.994224 -0.099002 -0.041439
vn 0.924760 -0.206774 0.319474
vn 0.716986 -0.310935 0.623899
vn 0.402533 -0.395632 0.825495
vn 0.029265 -0.447959 0.893575
vn -0.345972 -0.459945 0.817774
vn -0.666068 -0.429772 0.609631
vn -0.882286 -0.362040 0.300829
vn -0.961708 -0.267059 -0.061616
vn -0.925512 0.024192 -0.377946
vn -0.713849 0.130302 -0.688071
vn -0.393509 0.216573 -0.893447
vn -0.013254 0.269873 -0.962805
vn 0.369018 0.282090 -0.885580
vn 0.695104 0.251358 -0.673535
vn 0.915365 0.182360 -0.358959
vn 0.996277 0.085599 0.010277
vn 0.925511 -0.024192 0.377948
vn 0.713844 -0.130299 0.688077
vn 0.393511 -0.216572 0.893446
vn 0.013254 -0.269877 0.962804
vn -0.369018 -0.282087 0.885581
vn -0.695100 -0.251355 0.673540
vn -0.915365 -0.182363 0.358957
vn -0.996276 -0.085602 -0.010279
vn -0.924760 0.206773 -0.319475
vn -0.716988 0.310932 -0.623899
vn -0.402533 0.395622 -0.825500
vn -0.029268 0.447945 -0.893582
vn 0.345977 0.459935 -0.817778
vn 0.666073 0.429766 -0.609630
vn 0.882286 0.362037 -0.300831
vn 0.961708 0.267059 0.061617
vn 0.892244 0.159285 0.422527
vn 0.684469 0.055132 0.726955
vn 0.370018 -0.029546 0.928555
vn -0.003250 -0.081864 0.996638
vn -0.378495 -0.093861 0.920832
vn -0.698583 -0.063704 0.712688
vn -0.914802 0.004018 0.403884
vn -0.994224 0.098999 0.041436
vn -0.890028 0.381717 -0.249282
vn -0.693780 0.480095 -0.536823
vn -0.396767 0.560085 -0.727242
vn -0.044202 0.609505 -0.791549
vn 0.310232 0.620829 -0.719950
vn 0.612577 0.592333 -0.523346
vn 0.816796 0.528367 -0.231674
vn 0.891814 0.438655 0.110676
vn 0.826203 0.336854 0.451573
vn 0.629953 0.238467 0.739116
vn 0.332944 0.158476 0.929534
vn -0.019626 0.109055 0.993842
vn -0.374064 0.097726 0.922240
vn -0.676394 0.126222 0.725644
vn -0.880622 0.190204 0.433967
vn -0.955642 0.279919 0.091617
vn -0.822673 0.542506 -0.169992
vn -0.645136 0.631504 -0.430119
vn -0.376443 0.703868 -0.602380
vn -0.057503 0.748577 -0.660550
vn 0.263128 0.758820 -0.595782
vn 0.536643 0.733043 -0.417927
vn 0.721396 0.675168 -0.154066
vn 0.789260 0.594008 0.155637
vn 0.729905 0.501919 0.464022
vn 0.552370 0.412918 0.724145
vn 0.283680 0.340550 0.896410
vn -0.035266 0.295840 0.954586
vn -0.355903 0.285596 0.889813
vn -0.629415 0.311381 0.711954
vn -0.814162 0.369260 0.448093
vn -0.882027 0.450417 0.138395
vn -0.725402 0.683097 -0.084678
vn -0.573025 0.759484 -0.307940
vn -0.342410 0.821594 -0.455784
vn -0.068669 0.859965 -0.505711
vn 0.206518 0.868756 -0.450126
vn 0.441274 0.846632 -0.297477
vn 0.599842 0.796961 -0.071009
vn 0.658088 0.727306 0.194801
vn 0.607144 0.648264 0.459488
vn 0.454770 0.571880 0.682743
vn 0.224155 0.509784 0.830587
vn -0.049588 0.471419 0.880514
vn -0.324780 0.462621 0.824924
vn -0.559531 0.484735 0.672277
vn -0.718095 0.534407 0.445812
vn -0.776341 0.604062 0.180007
vn -0.602452 0.798149 0.003204
vn -0.480599 0.859235 -0.175332
vn -0.296186 0.908898 -0.293561
vn -0.077291 0.939581 -0.333487
vn 0.142766 0.946613 -0.289036
vn 0.330490 0.928923 -0.166967
vn 0.457288 0.889207 0.014135
vn 0.503866 0.833504 0.226696
vn 0.463131 0.770299 0.438349
vn 0.341282 0.709215 0.616880
vn 0.156866 0.659550 0.735110
vn -0.062029 0.628870 0.775032
vn -0.282084 0.621838 0.730579
vn -0.469811 0.639527 0.608509
vn -0.596611 0.679243 0.427416
vn -0.643190 0.734942 0.214862
vn -0.460459 0.883163 0.089449
vn -0.372886 0.927063 -0.038858
vn -0.240360 0.962753 -0.123830
vn -0.083048 0.984804 -0.152528
vn 0.075107 0.989860 -0.120571
vn 0.210021 0.977145 -0.032833
vn 0.301141 0.948602 0.097304
vn 0.334617 0.908570 0.250063
vn 0.305338 0.863146 0.402178
vn 0.217772 0.819251 0.530475
vn 0.085239 0.783556 0.615447
vn -0.072081 0.761500 0.644144
vn -0.230224 0.756451 0.612192
vn -0.365133 0.769164 0.524466
vn -0.456266 0.797705 0.394319
vn -0.489741 0.837736 0.241562
vn -0.314678 0.934477 0.166527
vn -0.261580 0.961096 0.088720
vn -0.181214 0.982740 0.037187
vn -0.085796 0.996116 0.019778
vn 0.010138 0.999181 0.039167
vn 0.091956 0.991470 0.092369
vn 0.147212 0.974162 0.171281
vn 0.167519 0.949879 0.263944
vn 0.149755 0.922326 0.356215
vn 0.096665 0.895708 0.434009
vn 0.016284 0.874062 0.485542
vn -0.079162 0.860684 0.502949
vn -0.175064 0.857622 0.483567
vn -0.256867 0.865334 0.430369
vn -0.312136 0.882646 0.351437
vn -0.332437 0.906926 0.258787
vn 0.085192 -0.959083 -0.270003
vn -0.085196 0.959083 0.270004
s 1
g leg_down_right knee_right pivot
usemtl head_plateSG
f 289/339/289 305/342/290 306/341/291 290/340/292
f 290/340/292 306/341/291 307/344/293 291/343/294
f 291/343/294 307/344/293 308/346/295 292/345/296
f 292/345/296 308/346/295 309/348/297 293/347/298
f 293/347/298 309/348/297 310/350/299 294/349/300
f 294/349/300 310/350/299 311/352/301 295/351/302
f 295/351/302 311/352/301 312/354/303 296/353/304
f 296/355/304 312/358/303 313/357/305 297/356/306
f 297/356/306 313/357/305 314/360/307 298/359/308
f 298/359/308 314/360/307 315/362/309 299/361/310
f 299/361/310 315/362/309 316/364/311 300/363/312
f 300/363/312 316/364/311 317/366/313 301/365/314
f 301/365/314 317/366/313 318/368/315 302/367/316
f 302/367/316 318/368/315 319/370/317 303/369/318
f 303/369/318 319/370/317 320/372/319 304/371/320
f 304/371/320 320/372/319 305/342/290 289/339/289
f 305/342/290 321/374/321 322/373/322 306/341/291
f 306/341/291 322/373/322 323/375/323 307/344/293
f 307/344/293 323/375/323 324/376/324 308/346/295
f 308/346/295 324/376/324 325/377/325 309/348/297
f 309/348/297 325/377/325 326/378/326 310/350/299
f 310/350/299 326/378/326 327/379/327 311/352/301
f 311/352/301 327/379/327 328/380/328 312/354/303
f 312/358/303 328/382/328 329/381/329 313/357/305
f 313/357/305 329/381/329 330/383/330 314/360/307
f 314/360/307 330/383/330 331/384/331 315/362/309
f 315/362/309 331/384/331 332/385/332 316/364/311
f 316/364/311 332/385/332 333/386/333 317/366/313
f 317/366/313 333/386/333 334/387/334 318/368/315
f 318/368/315 334/387/334 335/388/335 319/370/317
f 319/370/317 335/388/335 336/389/336 320/372/319
f 320/372/319 336/389/336 321/374/321 305/342/290
f 321/374/321 337/391/337 338/390/338 322/373/322
f 322/373/322 338/390/338 339/392/339 323/375/323
f 323/375/323 339/392/339 340/393/340 324/376/324
f 324/376/324 340/393/340 341/394/341 325/377/325
f 325/377/325 341/394/341 342/395/342 326/378/326
f 326/378/326 342/395/342 343/396/343 327/379/327
f 327/379/327 343/396/343 344/397/344 328/380/328
f 328/382/328 344/399/344 345/398/345 329/381/329
f 329/381/329 345/398/345 346/400/346 330/383/330
f 330/383/330 346/400/346 347/401/347 331/384/331
f 331/384/331 347/401/347 348/402/348 332/385/332
f 332/385/332 348/402/348 349/403/349 333/386/333
f 333/386/333 349/403/349 350/404/350 334/387/334
f 334/387/334 350/404/350 351/405/351 335/388/335
f 335/388/335 351/405/351 352/406/352 336/389/336
f 336/389/336 352/406/352 337/391/337 321/374/321
f 337/391/337 353/408/353 354/407/354 338/390/338
f 338/390/338 354/407/354 355/409/355 339/392/339
f 339/392/339 355/409/355 356/410/356 340/393/340
f 340/393/340 356/410/356 357/411/357 341/394/341
f 341/394/341 357/411/357 358/412/358 342/395/342
f 342/395/342 358/412/358 359/413/359 343/396/343
f 343/396/343 359/413/359 360/414/360 344/397/344
f 344/399/344 360/416/360 361/415/361 345/398/345
f 345/398/345 361/415/361 362/417/362 346/400/346
f 346/400/346 362/417/362 363/418/363 347/401/347
f 347/401/347 363/418/363 364/419/364 348/402/348
f 348/402/348 364/419/364 365/420/365 349/403/349
f 349/403/349 365/420/365 366/421/366 350/404/350
f 350/404/350 366/421/366 367/422/367 351/405/351
f 351/405/351 367/422/367 368/423/368 352/406/352
f 352/406/352 368/423/368 353/408/353 337/391/337
f 353/408/353 369/425/369 370/424/370 354/407/354
f 354/407/354 370/424/370 371/426/371 355/409/355
f 355/409/355 371/426/371 372/427/372 356/410/356
f 356/410/356 372/427/372 373/428/373 357/411/357
f 357/411/357 373/428/373 374/429/374 358/412/358
f 358/412/358 374/429/374 375/430/375 359/413/359
f 359/413/359 375/430/375 376/431/376 360/414/360
f 360/416/360 376/433/376 377/432/377 361/415/361
f 361/415/361 377/432/377 378/434/378 362/417/362
f 362/417/362 378/434/378 379/435/379 363/418/363
f 363/418/363 379/435/379 380/436/380 364/419/364
f 364/419/364 380/436/380 381/437/381 365/420/365
f 365/420/365 381/437/381 382/438/382 366/421/366
f 366/421/366 382/438/382 383/439/383 367/422/367
f 367/422/367 383/439/383 384/440/384 368/423/368
f 368/423/368 384/440/384 369/425/369 353/408/353
f 369/425/369 385/442/385 386/441/386 370/424/370
f 370/424/370 386/441/386 387/443/387 371/426/371
f 371/426/371 387/443/387 388/444/388 372/427/372
f 372/427/372 388/444/388 389/445/389 373/428/373
f 373/428/373 389/445/389 390/446/390 374/429/374
f 374/429/374 390/446/390 391/447/391 375/430/375
f 375/430/375 391/447/391 392/448/392 376/431/376
f 376/433/376 392/450/392 393/449/393 377/432/377
f 377/432/377 393/449/393 394/451/394 378/434/378
f 378/434/378 394/451/394 395/452/395 379/435/379
f 379/435/379 395/452/395 396/453/396 380/436/380
f 380/436/380 396/453/396 397/454/397 381/437/381
f 381/437/381 397/454/397 398/455/398 382/438/382
f 382/438/382 398/455/398 399/456/399 383/439/383
f 383/439/383 399/456/399 400/457/400 384/440/384
f 384/440/384 400/457/400 385/442/385 369/425/369
f 385/442/385 401/459/401 402/458/402 386/441/386
f 386/441/386 402/458/402 403/460/403 387/443/387
f 387/443/387 403/460/403 404/461/404 388/444/388
f 388/444/388 404/461/404 405/462/405 389/445/389
f 389/445/389 405/462/405 406/463/406 390/446/390
f 390/446/390 406/463/406 407/464/407 391/447/391
f 391/447/391 407/464/407 408/465/408 392/448/392
f 392/450/392 408/467/408 409/466/409 393/449/393
f 393/449/393 409/466/409 410/468/410 394/451/394
f 394/451/394 410/468/410 411/469/411 395/452/395
f 395/452/395 411/469/411 412/470/412 396/453/396
f 396/453/396 412/470/412 413/471/413 397/454/397
f 397/454/397 413/471/413 414/472/414 398/455/398
f 398/455/398 414/472/414 415/473/415 399/456/399
f 399/456/399 415/473/415 416/474/416 400/457/400
f 400/457/400 416/474/416 401/459/401 385/442/385
f 401/459/401 417/476/417 418/475/418 402/458/402
f 402/458/402 418/475/418 419/477/419 403/460/403
f 403/460/403 419/477/419 420/478/420 404/461/404
f 404/461/404 420/478/420 421/479/421 405/462/405
f 405/462/405 421/479/421 422/480/422 406/463/406
f 406/463/406 422/480/422 423/481/423 407/464/407
f 407/464/407 423/481/423 424/482/424 408/465/408
f 408/467/408 424/484/424 425/483/425 409/466/409
f 409/466/409 425/483/425 426/485/426 410/468/410
f 410/468/410 426/485/426 427/486/427 411/469/411
f 411/469/411 427/486/427 428/487/428 412/470/412
f 412/470/412 428/487/428 429/488/429 413/471/413
f 413/471/413 429/488/429 430/489/430 414/472/414
f 414/472/414 430/489/430 431/490/431 415/473/415
f 415/473/415 431/490/431 432/491/432 416/474/416
f 416/474/416 432/491/432 417/476/417 401/459/401
f 417/476/417 433/493/433 434/492/434 418/475/418
f 418/475/418 434/492/434 435/494/435 419/477/419
f 419/477/419 435/494/435 436/495/436 420/478/420
f 420/478/420 436/495/436 437/496/437 421/479/421
f 421/479/421 437/496/437 438/497/438 422/480/422
f 422/480/422 438/497/438 439/498/439 423/481/423
f 423/481/423 439/498/439 440/499/440 424/482/424
f 424/484/424 440/501/440 441/500/441 425/483/425
f 425/483/425 441/500/441 442/502/442 426/485/426
f 426/485/426 442/502/442 443/503/443 427/486/427
f 427/486/427 443/503/443 444/504/444 428/487/428
f 428/487/428 444/504/444 445/505/445 429/488/429
f 429/488/429 445/505/445 446/506/446 430/489/430
f 430/489/430 446/506/446 447/507/447 431/490/431
f 431/490/431 447/507/447 448/508/448 432/491/432
f 432/491/432 448/508/448 433/493/433 417/476/417
f 433/493/433 449/510/449 450/509/450 434/492/434
f 434/492/434 450/509/450 451/511/451 435/494/435
f 435/494/435 451/511/451 452/512/452 436/495/436
f 436/495/436 452/512/452 453/513/453 437/496/437
f 437/496/437 453/513/453 454/514/454 438/497/438
f 438/497/438 454/514/454 455/515/455 439/498/439
f 439/498/439 455/515/455 456/516/456 440/499/440
f 440/501/440 456/518/456 457/517/457 441/500/441
f 441/500/441 457/517/457 458/519/458 442/502/442
f 442/502/442 458/519/458 459/520/459 443/503/443
f 443/503/443 459/520/459 460/521/460 444/504/444
f 444/504/444 460/521/460 461/522/461 445/505/445
f 445/505/445 461/522/461 462/523/462 446/506/446
f 446/506/446 462/523/462 463/524/463 447/507/447
f 447/507/447 463/524/463 464/525/464 448/508/448
f 448/508/448 464/525/464 449/510/449 433/493/433
f 449/510/449 465/527/465 466/526/466 450/509/450
f 450/509/450 466/526/466 467/528/467 451/511/451
f 451/511/451 467/528/467 468/529/468 452/512/452
f 452/512/452 468/529/468 469/530/469 453/513/453
f 453/513/453 469/530/469 470/531/470 454/514/454
f 454/514/454 470/531/470 471/532/471 455/515/455
f 455/515/455 471/532/471 472/533/472 456/516/456
f 456/518/456 472/535/472 473/534/473 457/517/457
f 457/517/457 473/534/473 474/536/474 458/519/458
f 458/519/458 474/536/474 475/537/475 459/520/459
f 459/520/459 475/537/475 476/538/476 460/521/460
f 460/521/460 476/538/476 477/539/477 461/522/461
f 461/522/461 477/539/477 478/540/478 462/523/462
f 462/523/462 478/540/478 479/541/479 463/524/463
f 463/524/463 479/541/479 480/542/480 464/525/464
f 464/525/464 480/542/480 465/527/465 449/510/449
f 465/527/465 481/544/481 482/543/482 466/526/466
f 466/526/466 482/543/482 483/545/483 467/528/467
f 467/528/467 483/545/483 484/546/484 468/529/468
f 468/529/468 484/546/484 485/547/485 469/530/469
f 469/530/469 485/547/485 486/548/486 470/531/470
f 470/531/470 486/548/486 487/549/487 471/532/471
f 471/532/471 487/549/487 488/550/488 472/533/472
f 472/535/472 488/552/488 489/551/489 473/534/473
f 473/534/473 489/551/489 490/553/490 474/536/474
f 474/536/474 490/553/490 491/554/491 475/537/475
f 475/537/475 491/554/491 492/555/492 476/538/476
f 476/538/476 492/555/492 493/556/493 477/539/477
f 477/539/477 493/556/493 494/557/494 478/540/478
f 478/540/478 494/557/494 495/558/495 479/541/479
f 479/541/479 495/558/495 496/559/496 480/542/480
f 480/542/480 496/559/496 481/544/481 465/527/465
f 481/544/481 497/561/497 498/560/498 482/543/482
f 482/543/482 498/560/498 499/562/499 483/545/483
f 483/545/483 499/562/499 500/563/500 484/546/484
f 484/546/484 500/563/500 501/564/501 485/547/485
f 485/547/485 501/564/501 502/565/502 486/548/486
f 486/548/486 502/565/502 503/566/503 487/549/487
f 487/549/487 503/566/503 504/567/504 488/550/488
f 488/552/488 504/569/504 505/568/505 489/551/489
f 489/551/489 505/568/505 506/570/506 490/553/490
f 490/553/490 506/570/506 507/571/507 491/554/491
f 491/554/491 507/571/507 508/572/508 492/555/492
f 492/555/492 508/572/508 509/573/509 493/556/493
f 493/556/493 509/573/509 510/574/510 494/557/494
f 494/557/494 510/574/510 511/575/511 495/558/495
f 495/558/495 511/575/511 512/576/512 496/559/496
f 496/559/496 512/576/512 497/561/497 481/544/481
f 497/561/497 513/578/513 514/577/514 498/560/498
f 498/560/498 514/577/514 515/579/515 499/562/499
f 499/562/499 515/579/515 516/580/516 500/563/500
f 500/563/500 516/580/516 517/581/517 501/564/501
f 501/564/501 517/581/517 518/582/518 502/565/502
f 502/565/502 518/582/518 519/583/519 503/566/503
f 503/566/503 519/583/519 520/584/520 504/567/504
f 504/569/504 520/586/520 521/585/521 505/568/505
f 505/568/505 521/585/521 522/587/522 506/570/506
f 506/570/506 522/587/522 523/588/523 507/571/507
f 507/571/507 523/588/523 524/589/524 508/572/508
f 508/572/508 524/589/524 525/590/525 509/573/509
f 509/573/509 525/590/525 526/591/526 510/574/510
f 510/574/510 526/591/526 527/592/527 511/575/511
f 511/575/511 527/592/527 528/593/528 512/576/512
f 512/576/512 528/593/528 513/578/513 497/561/497
f 290/340/292 529/594/529 289/339/289
f 291/343/294 529/594/529 290/340/292
f 292/345/296 529/594/529 291/343/294
f 293/347/298 529/594/529 292/345/296
f 294/349/300 529/594/529 293/347/298
f 295/351/302 529/594/529 294/349/300
f 296/353/304 529/594/529 295/351/302
f 297/356/306 529/594/529 296/355/304
f 298/359/308 529/594/529 297/356/306
f 299/361/310 529/594/529 298/359/308
f 300/363/312 529/594/529 299/361/310
f 301/365/314 529/594/529 300/363/312
f 302/367/316 529/594/529 301/365/314
f 303/369/318 529/594/529 302/367/316
f 304/371/320 529/594/529 303/369/318
f 289/339/289 529/594/529 304/371/320
f 513/578/513 530/595/530 514/577/514
f 514/577/514 530/595/530 515/579/515
f 515/579/515 530/595/530 516/580/516
f 516/580/516 530/595/530 517/581/517
f 517/581/517 530/595/530 518/582/518
f 518/582/518 530/595/530 519/583/519
f 519/583/519 530/595/530 520/584/520
f 520/586/520 530/595/530 521/585/521
f 521/585/521 530/595/530 522/587/522
f 522/587/522 530/595/530 523/588/523
f 523/588/523 530/595/530 524/589/524
f 524/589/524 530/595/530 525/590/525
f 525/590/525 530/595/530 526/591/526
f 526/591/526 530/595/530 527/592/527
f 527/592/527 530/595/530 528/593/528
f 528/593/528 530/595/530 513/578/513
